<svg width="38" height="32" viewBox="0 0 38 32" fill="none" xmlns="http://www.w3.org/2000/svg">
<path d="M38 0V8.01656C38 10.7108 37.5735 13.5155 36.7205 16.4306C35.8249 19.3899 34.5455 22.2167 32.8822 24.911C31.2189 27.6494 29.2144 30.0124 26.8687 32L20.1515 27.1636C22.1134 24.2484 23.6274 21.245 24.6936 18.1532C25.7598 15.1056 26.2929 11.793 26.2929 8.21532V0H38ZM17.8485 0V8.01656C17.8485 10.7108 17.422 13.5155 16.569 16.4306C15.6734 19.3899 14.3939 22.2167 12.7306 24.911C11.0673 27.6494 9.06285 30.0124 6.71717 32L0 27.1636C1.96184 24.2484 3.47587 21.245 4.54209 18.1532C5.60831 15.1056 6.14141 11.793 6.14141 8.21532V0H17.8485Z" fill="#FF5100"/>
</svg>
