<svg width="80" height="80" viewBox="0 0 80 80" fill="none" xmlns="http://www.w3.org/2000/svg">
<path fill-rule="evenodd" clip-rule="evenodd" d="M17.3994 64.5105H51.4502L51.4489 64.5114C52.2208 64.5114 52.8487 63.8835 52.8483 63.112V45L52.8496 33V17.3994C52.8496 16.6279 52.2221 16 51.4502 16H17.3994C16.6275 16 16 16.6279 16 17.3994V63.1111C16 63.8826 16.6275 64.5105 17.3994 64.5105ZM51.9171 33L51.9168 17.3994C51.9168 17.1422 51.7077 16.9332 51.4506 16.9332H17.3988C17.1416 16.9332 16.9326 17.1422 16.9326 17.3994V63.112C16.9326 63.3692 17.1416 63.5783 17.3988 63.5783H51.4496C51.7068 63.5783 51.9158 63.3692 51.9158 63.112V45L51.9171 33ZM24.6298 23.9877H37.2243C37.4818 23.9877 37.6905 23.779 37.6905 23.5215C37.6905 23.2639 37.4818 23.0553 37.2243 23.0553H24.6298C24.3722 23.0553 24.1636 23.2639 24.1636 23.5215C24.1636 23.779 24.3722 23.9877 24.6298 23.9877ZM21.365 30.9842C21.1074 30.9842 20.8987 30.7755 20.8987 30.518C20.8987 30.2604 21.1074 30.0518 21.365 30.0518H40.0233C40.2808 30.0518 40.4895 30.2604 40.4895 30.518C40.4899 30.7755 40.2812 30.9842 40.0229 30.9842H21.365ZM20.8987 32.8502C20.8987 33.1077 21.1074 33.3164 21.365 33.3164H42.3547C42.613 33.3164 42.8217 33.1077 42.8217 32.8502C42.8217 32.5926 42.613 32.3839 42.3554 32.3839H21.365C21.1074 32.3839 20.8987 32.5926 20.8987 32.8502ZM44.6876 35.6485H21.365C21.1074 35.6485 20.8987 35.4399 20.8987 35.1823C20.8987 34.9248 21.1074 34.7161 21.365 34.7161H44.6876C44.9452 34.7161 45.1538 34.9248 45.1538 35.1823C45.1542 35.4403 44.9455 35.6485 44.6876 35.6485ZM21.365 37.9817H47.0198C47.2777 37.9817 47.486 37.773 47.486 37.5155C47.486 37.2579 47.2773 37.0492 47.0198 37.0492H21.365C21.1074 37.0492 20.8987 37.2579 20.8987 37.5155C20.8987 37.773 21.1074 37.9817 21.365 37.9817ZM47.9524 40.3138H21.365C21.1074 40.3138 20.8987 40.1052 20.8987 39.8476C20.8987 39.5901 21.1074 39.3814 21.365 39.3814H47.9524C48.21 39.3814 48.4187 39.5901 48.4187 39.8476C48.4187 40.1052 48.2104 40.3138 47.9524 40.3138ZM21.365 42.646H47.9524C48.2104 42.646 48.4187 42.4373 48.4187 42.1798C48.4187 41.9222 48.21 41.7136 47.9524 41.7136H21.365C21.1074 41.7136 20.8987 41.9222 20.8987 42.1798C20.8987 42.4373 21.1074 42.646 21.365 42.646ZM47.9524 44.9782H21.365C21.1074 44.9782 20.8987 44.7695 20.8987 44.512C20.8987 44.2544 21.1074 44.0457 21.365 44.0457H47.9524C48.21 44.0457 48.4187 44.2544 48.4187 44.512C48.4187 44.7695 48.2104 44.9782 47.9524 44.9782ZM21.365 47.3104H47.9524C48.2104 47.3104 48.4187 47.1021 48.4187 46.8441C48.4187 46.5866 48.21 46.3779 47.9524 46.3779H21.365C21.1074 46.3779 20.8987 46.5866 20.8987 46.8441C20.8987 47.1017 21.1074 47.3104 21.365 47.3104ZM40.9559 49.6425H21.365C21.1074 49.6425 20.8987 49.4338 20.8987 49.1763C20.8987 48.9188 21.1074 48.7101 21.365 48.7101H40.9559C41.2135 48.7101 41.4222 48.9188 41.4222 49.1763C41.4222 49.4338 41.2139 49.6425 40.9559 49.6425ZM40.6449 55.6474C40.6449 57.748 42.3541 59.4573 44.4547 59.4573C46.5549 59.4573 48.2645 57.748 48.2645 55.6474C48.2645 53.5469 46.5553 51.8376 44.4547 51.8376C42.3541 51.8376 40.6449 53.5469 40.6449 55.6474ZM41.7337 55.6482C41.7337 54.1477 42.9541 52.9272 44.4547 52.9272C45.9548 52.9272 47.1757 54.1477 47.1757 55.6482C47.1757 57.1488 45.9552 58.3692 44.4547 58.3692C42.9541 58.3692 41.7337 57.1488 41.7337 55.6482Z" fill="#333434"/>
<circle cx="44" cy="56" r="5" fill="#FF5100"/>
</svg>
