<svg width="80" height="80" viewBox="0 0 80 80" fill="none" xmlns="http://www.w3.org/2000/svg">
<path d="M51.4502 64.5105H17.3994C16.6275 64.5105 16 63.8826 16 63.1111V17.3994C16 16.6279 16.6275 16 17.3994 16H51.4502C52.2221 16 52.8496 16.6279 52.8496 17.3994V35.3389C52.8496 35.5964 52.6409 35.8051 52.3834 35.8051C52.1258 35.8051 51.9172 35.5964 51.9172 35.3389L51.9168 17.3994C51.9168 17.1422 51.7077 16.9332 51.4506 16.9332H17.3988C17.1416 16.9332 16.9326 17.1422 16.9326 17.3994V63.112C16.9326 63.3692 17.1416 63.5783 17.3988 63.5783H51.4496C51.7068 63.5783 51.9158 63.3692 51.9158 63.112V39.9416C51.9158 39.6841 52.1245 39.4754 52.3821 39.4754C52.6396 39.4754 52.8483 39.6841 52.8483 39.9416V63.112C52.8487 63.8835 52.2208 64.5114 51.4489 64.5114L51.4502 64.5105Z" fill="#A3A3A3"/>
<path d="M37.2243 23.9877H24.6298C24.3722 23.9877 24.1636 23.779 24.1636 23.5215C24.1636 23.2639 24.3722 23.0553 24.6298 23.0553H37.2243C37.4818 23.0553 37.6905 23.2639 37.6905 23.5215C37.6905 23.779 37.4818 23.9877 37.2243 23.9877Z" fill="#A3A3A3"/>
<path d="M21.365 30.9842C21.1074 30.9842 20.8987 30.7755 20.8987 30.518C20.8987 30.2604 21.1074 30.0518 21.365 30.0518H40.0233C40.2808 30.0518 40.4895 30.2604 40.4895 30.518C40.4899 30.7755 40.2812 30.9842 40.0229 30.9842H21.365Z" fill="#A3A3A3"/>
<path d="M21.365 33.3164C21.1074 33.3164 20.8987 33.1077 20.8987 32.8502C20.8987 32.5926 21.1074 32.3839 21.365 32.3839H42.3554C42.613 32.3839 42.8217 32.5926 42.8217 32.8502C42.8217 33.1077 42.613 33.3164 42.3547 33.3164H21.365Z" fill="#A3A3A3"/>
<path d="M44.6876 35.6485H21.365C21.1074 35.6485 20.8987 35.4399 20.8987 35.1823C20.8987 34.9248 21.1074 34.7161 21.365 34.7161H44.6876C44.9452 34.7161 45.1538 34.9248 45.1538 35.1823C45.1542 35.4403 44.9455 35.6485 44.6876 35.6485Z" fill="#A3A3A3"/>
<path d="M47.0198 37.9817H21.365C21.1074 37.9817 20.8987 37.773 20.8987 37.5155C20.8987 37.2579 21.1074 37.0492 21.365 37.0492H47.0198C47.2773 37.0492 47.486 37.2579 47.486 37.5155C47.486 37.773 47.2773 37.9817 47.0194 37.9817H47.0198Z" fill="#A3A3A3"/>
<path d="M47.9524 40.3138H21.365C21.1074 40.3138 20.8987 40.1052 20.8987 39.8476C20.8987 39.5901 21.1074 39.3814 21.365 39.3814H47.9524C48.21 39.3814 48.4187 39.5901 48.4187 39.8476C48.4187 40.1052 48.2104 40.3138 47.9524 40.3138Z" fill="#A3A3A3"/>
<path d="M47.9524 42.646H21.365C21.1074 42.646 20.8987 42.4373 20.8987 42.1798C20.8987 41.9222 21.1074 41.7136 21.365 41.7136H47.9524C48.21 41.7136 48.4187 41.9222 48.4187 42.1798C48.4187 42.4373 48.2104 42.646 47.9524 42.646Z" fill="#A3A3A3"/>
<path d="M47.9524 44.9782H21.365C21.1074 44.9782 20.8987 44.7695 20.8987 44.512C20.8987 44.2544 21.1074 44.0457 21.365 44.0457H47.9524C48.21 44.0457 48.4187 44.2544 48.4187 44.512C48.4187 44.7695 48.2104 44.9782 47.9524 44.9782Z" fill="#A3A3A3"/>
<path d="M47.9524 47.3104H21.365C21.1074 47.3104 20.8987 47.1017 20.8987 46.8441C20.8987 46.5866 21.1074 46.3779 21.365 46.3779H47.9524C48.21 46.3779 48.4187 46.5866 48.4187 46.8441C48.4187 47.1021 48.2104 47.3104 47.9524 47.3104Z" fill="#A3A3A3"/>
<path d="M40.9559 49.6425H21.365C21.1074 49.6425 20.8987 49.4338 20.8987 49.1763C20.8987 48.9188 21.1074 48.7101 21.365 48.7101H40.9559C41.2135 48.7101 41.4222 48.9188 41.4222 49.1763C41.4222 49.4338 41.2135 49.6425 40.9556 49.6425H40.9559Z" fill="#A3A3A3"/>
<path d="M44.4547 59.4573C42.3541 59.4573 40.6449 57.748 40.6449 55.6474C40.6449 53.5469 42.3541 51.8376 44.4547 51.8376C46.5553 51.8376 48.2645 53.5469 48.2645 55.6474C48.2645 57.748 46.5549 59.4573 44.4547 59.4573ZM44.4547 52.9272C42.9541 52.9272 41.7337 54.1477 41.7337 55.6482C41.7337 57.1488 42.9541 58.3692 44.4547 58.3692C45.9552 58.3692 47.1757 57.1488 47.1757 55.6482C47.1757 54.1477 45.9548 52.9272 44.4547 52.9272Z" fill="#A3A3A3"/>
<path d="M60.185 48.0255C59.806 48.0255 59.453 47.8751 59.1894 47.6029L41.3569 29.1554C40.9817 28.7674 40.4391 28.0812 40.1474 27.6266L38.5777 25.1779C38.4115 24.9192 37.9054 24.0413 38.354 23.5943C38.4352 23.5123 38.5856 23.4138 38.8315 23.4138C39.1277 23.4138 39.5413 23.5653 39.9368 23.8191L42.3855 25.3892C42.8401 25.6802 43.5255 26.2231 43.9143 26.5983L62.3628 44.4317C62.6316 44.6919 62.7816 45.0408 62.785 45.4149C62.7884 45.789 62.6436 46.1406 62.3789 46.4052L61.163 47.6212C60.9017 47.8821 60.5543 48.0261 60.1851 48.0261L60.185 48.0255ZM39.2629 24.5036C39.2911 24.5574 39.3242 24.6141 39.3625 24.6739L40.9323 27.1227C41.1917 27.5268 41.6929 28.1607 42.0271 28.5063L59.8606 46.9548C59.9467 47.0442 60.0617 47.0927 60.1851 47.0927C60.3054 47.0927 60.4185 47.0457 60.5035 46.9608L61.7195 45.7448C61.8063 45.658 61.8533 45.5437 61.8522 45.4219C61.8507 45.3 61.8022 45.1869 61.7142 45.1015L43.2657 27.2681C42.9202 26.9338 42.2862 26.433 41.8821 26.174L39.433 24.6039C39.3736 24.5656 39.3168 24.5321 39.263 24.5039L39.2629 24.5036Z" fill="#A3A3A3"/>
<path d="M61.5547 47.0351C61.4355 47.0351 61.3159 46.9892 61.2249 46.8982C61.0426 46.7159 61.0426 46.4207 61.2249 46.2384L62.8736 44.5889L55.6183 37.3336C55.436 37.1512 55.436 36.8561 55.6183 36.6737C55.8007 36.4914 56.0958 36.4914 56.2782 36.6737L63.8632 44.2599C64.0456 44.4422 64.0456 44.7374 63.8632 44.9197L61.8844 46.8988C61.7934 46.9898 61.6739 47.0351 61.5547 47.0351Z" fill="#A3A3A3"/>
</svg>
