<svg width="80" height="80" viewBox="0 0 80 80" fill="none" xmlns="http://www.w3.org/2000/svg">
<circle cx="40" cy="40" r="5" fill="#FF5100"/>
<path fill-rule="evenodd" clip-rule="evenodd" d="M40 50C45.5228 50 50 45.5228 50 40C50 34.4772 45.5228 30 40 30C34.4772 30 30 34.4772 30 40C30 45.5228 34.4772 50 40 50ZM40 52C46.6274 52 52 46.6274 52 40C52 33.3726 46.6274 28 40 28C33.3726 28 28 33.3726 28 40C28 46.6274 33.3726 52 40 52Z" fill="#333434"/>
<path fill-rule="evenodd" clip-rule="evenodd" d="M44.7071 66.9142L41.0504 70.7071C40.6599 71.0976 40.0267 71.0976 39.6362 70.7071L36.207 66.9142C35.8165 66.5237 35.8165 65.8905 36.207 65.5C36.5976 65.1095 37.2307 65.1095 37.6212 65.5L39.3433 67.5858L39.3433 59C39.3433 58.4477 39.791 58 40.3433 58C40.8956 58 41.3433 58.4477 41.3433 59L41.3433 67.5858L43.2929 65.5C43.6834 65.1095 44.3166 65.1095 44.7071 65.5C45.0976 65.8905 45.0976 66.5237 44.7071 66.9142Z" fill="#333434"/>
<path fill-rule="evenodd" clip-rule="evenodd" d="M66.9142 36.2929L70.7071 39.9496C71.0976 40.3401 71.0976 40.9733 70.7071 41.3638L66.9142 44.793C66.5237 45.1835 65.8905 45.1835 65.5 44.793C65.1095 44.4024 65.1095 43.7693 65.5 43.3788L67.5858 41.6567H59C58.4477 41.6567 58 41.209 58 40.6567C58 40.1044 58.4477 39.6567 59 39.6567H67.5858L65.5 37.7071C65.1095 37.3166 65.1095 36.6834 65.5 36.2929C65.8905 35.9024 66.5237 35.9024 66.9142 36.2929Z" fill="#333434"/>
<path fill-rule="evenodd" clip-rule="evenodd" d="M13.0858 44.793L9.29289 41.1363C8.90237 40.7458 8.90237 40.1126 9.29289 39.7221L13.0858 36.293C13.4763 35.9024 14.1095 35.9024 14.5 36.293C14.8905 36.6835 14.8905 37.3167 14.5 37.7072L12.4142 39.4292L21 39.4292C21.5523 39.4292 22 39.8769 22 40.4292C22 40.9815 21.5523 41.4292 21 41.4292L12.4142 41.4292L14.5 43.3788C14.8905 43.7694 14.8905 44.4025 14.5 44.793C14.1095 45.1836 13.4763 45.1836 13.0858 44.793Z" fill="#333434"/>
<path fill-rule="evenodd" clip-rule="evenodd" d="M44.7071 13.0858L41.0504 9.29289C40.6599 8.90237 40.0267 8.90237 39.6362 9.29289L36.207 13.0858C35.8165 13.4763 35.8165 14.1095 36.207 14.5C36.5976 14.8905 37.2307 14.8905 37.6212 14.5L39.3433 12.4142L39.3433 21C39.3433 21.5523 39.791 22 40.3433 22C40.8956 22 41.3433 21.5523 41.3433 21L41.3433 12.4142L43.2929 14.5C43.6834 14.8905 44.3166 14.8905 44.7071 14.5C45.0976 14.1095 45.0976 13.4763 44.7071 13.0858Z" fill="#333434"/>
</svg>
