<svg width="80" height="80" viewBox="0 0 80 80" fill="none" xmlns="http://www.w3.org/2000/svg">
<path fill-rule="evenodd" clip-rule="evenodd" d="M40 44C42.2091 44 44 42.2091 44 40C44 37.7909 42.2091 36 40 36C37.7909 36 36 37.7909 36 40C36 42.2091 37.7909 44 40 44ZM40 46C43.3137 46 46 43.3137 46 40C46 36.6863 43.3137 34 40 34C36.6863 34 34 36.6863 34 40C34 43.3137 36.6863 46 40 46Z" fill="#A3A3A3"/>
<path fill-rule="evenodd" clip-rule="evenodd" d="M44.7071 58.9142L41.0504 62.7071C40.6599 63.0976 40.0267 63.0976 39.6362 62.7071L36.207 58.9142C35.8165 58.5237 35.8165 57.8905 36.207 57.5C36.5976 57.1095 37.2307 57.1095 37.6212 57.5L39.3433 59.5858L39.3433 51C39.3433 50.4477 39.791 50 40.3433 50C40.8956 50 41.3433 50.4477 41.3433 51L41.3433 59.5858L43.2929 57.5C43.6834 57.1095 44.3166 57.1095 44.7071 57.5C45.0976 57.8905 45.0976 58.5237 44.7071 58.9142Z" fill="#A3A3A3"/>
<path fill-rule="evenodd" clip-rule="evenodd" d="M58.9142 36.2929L62.7071 39.9496C63.0976 40.3401 63.0976 40.9733 62.7071 41.3638L58.9142 44.793C58.5237 45.1835 57.8905 45.1835 57.5 44.793C57.1095 44.4024 57.1095 43.7693 57.5 43.3788L59.5858 41.6567H51C50.4477 41.6567 50 41.209 50 40.6567C50 40.1044 50.4477 39.6567 51 39.6567H59.5858L57.5 37.7071C57.1095 37.3166 57.1095 36.6834 57.5 36.2929C57.8905 35.9024 58.5237 35.9024 58.9142 36.2929Z" fill="#A3A3A3"/>
<path fill-rule="evenodd" clip-rule="evenodd" d="M21.0858 44.793L17.2929 41.1363C16.9024 40.7458 16.9024 40.1127 17.2929 39.7221L21.0858 36.293C21.4763 35.9024 22.1095 35.9024 22.5 36.293C22.8905 36.6835 22.8905 37.3167 22.5 37.7072L20.4142 39.4292L29 39.4292C29.5523 39.4292 30 39.8769 30 40.4292C30 40.9815 29.5523 41.4292 29 41.4292L20.4142 41.4292L22.5 43.3788C22.8905 43.7694 22.8905 44.4025 22.5 44.793C22.1095 45.1836 21.4763 45.1836 21.0858 44.793Z" fill="#A3A3A3"/>
<path fill-rule="evenodd" clip-rule="evenodd" d="M44.7071 21.0858L41.0504 17.2929C40.6599 16.9024 40.0267 16.9024 39.6362 17.2929L36.207 21.0858C35.8165 21.4763 35.8165 22.1095 36.207 22.5C36.5976 22.8905 37.2307 22.8905 37.6212 22.5L39.3433 20.4142L39.3433 29C39.3433 29.5523 39.791 30 40.3433 30C40.8956 30 41.3433 29.5523 41.3433 29L41.3433 20.4142L43.2929 22.5C43.6834 22.8905 44.3166 22.8905 44.7071 22.5C45.0976 22.1095 45.0976 21.4763 44.7071 21.0858Z" fill="#A3A3A3"/>
</svg>
