<svg width="32" height="32" viewBox="0 0 32 32" fill="none" xmlns="http://www.w3.org/2000/svg">
<path fill-rule="evenodd" clip-rule="evenodd" d="M10.7491 11.1827C10.7491 8.32042 13.1389 6 16.0869 6C19.0348 6 21.4246 8.32042 21.4246 11.1827C21.4246 14.0451 19.0348 16.3656 16.0869 16.3656C13.1389 16.3656 10.7491 14.0451 10.7491 11.1827ZM13.8803 11.1828C13.8803 12.366 14.8683 13.3253 16.0869 13.3253C17.3055 13.3253 18.2934 12.366 18.2934 11.1828C18.2934 9.99958 17.3055 9.04037 16.0869 9.04037C14.8683 9.04037 13.8803 9.99958 13.8803 11.1828Z" fill="#A3A3A3"/>
<path d="M21.4566 19.0315C21.3888 19.0843 20.1083 20.0669 17.9714 20.4895L21.1969 23.5935C21.7642 24.1434 21.7649 25.0357 21.1985 25.5864C20.6322 26.1371 19.7134 26.138 19.146 25.588L16.0145 22.6271L13.1702 25.5689C12.8854 25.8557 12.5056 26 12.1253 26C11.7626 26 11.3996 25.8689 11.118 25.6053C10.541 25.065 10.5243 24.1729 11.0807 23.6127L14.1423 20.5059C11.9455 20.0932 10.6121 19.085 10.5434 19.0315C9.91812 18.5446 9.81767 17.6577 10.3192 17.0505C10.8206 16.4434 11.7339 16.3459 12.3594 16.8327C12.3726 16.8431 13.7673 17.8604 16.0144 17.8618C18.2616 17.8604 19.6274 16.8431 19.6406 16.8327C20.2661 16.3459 21.1794 16.4434 21.6808 17.0505C22.1823 17.6577 22.0819 18.5446 21.4566 19.0315Z" fill="#A3A3A3"/>
</svg>
