<svg width="32" height="32" viewBox="0 0 32 32" fill="none" xmlns="http://www.w3.org/2000/svg">
<path d="M17.5429 17.5429C16.2857 18.84 16.1943 20.4571 16.0857 24C19.3886 24 21.6686 23.9886 22.8457 22.8457C23.9886 21.6686 24 19.28 24 16.0857C20.4571 16.2 18.84 16.2857 17.5429 17.5429ZM8 16.0857C8 19.28 8.01143 21.6686 9.15429 22.8457C10.3314 23.9886 12.6114 24 15.9143 24C15.8 20.4571 15.7143 18.84 14.4571 17.5429C13.16 16.2857 11.5429 16.1943 8 16.0857ZM15.9143 8C12.6171 8 10.3314 8.01143 9.15429 9.15429C8.01143 10.3314 8 12.72 8 15.9143C11.5429 15.8 13.16 15.7143 14.4571 14.4571C15.7143 13.16 15.8057 11.5429 15.9143 8ZM17.5429 14.4571C16.2857 13.16 16.1943 11.5429 16.0857 8C19.3886 8 21.6686 8.01143 22.8457 9.15429C23.9886 10.3314 24 12.72 24 15.9143C20.4571 15.8 18.84 15.7143 17.5429 14.4571Z" fill="#A3A3A3"/>
</svg>
