<svg width="32" height="32" viewBox="0 0 32 32" fill="none" xmlns="http://www.w3.org/2000/svg">
<path fill-rule="evenodd" clip-rule="evenodd" d="M15.7964 21.5556H16.944C16.944 21.5556 17.2905 21.5193 17.4677 21.3383C17.6306 21.1719 17.6254 20.8597 17.6254 20.8597C17.6254 20.8597 17.6029 19.3976 18.3175 19.1823C19.0222 18.9701 19.9269 20.5953 20.8857 21.2203C21.6108 21.6931 22.1619 21.5896 22.1619 21.5896L24.726 21.5556C24.726 21.5556 26.0672 21.477 25.4312 20.4757C25.3791 20.394 25.0607 19.7351 23.5247 18.3814C21.9168 16.9645 22.1323 17.1937 24.069 14.7429C25.2484 13.2504 25.7199 12.3392 25.5726 11.949C25.4322 11.5772 24.5646 11.6754 24.5646 11.6754L21.6777 11.6923C21.6777 11.6923 21.4635 11.6647 21.3049 11.7548C21.1497 11.8429 21.0502 12.0489 21.0502 12.0489C21.0502 12.0489 20.593 13.2038 19.9839 14.1861C18.6984 16.2586 18.1843 16.3684 17.9741 16.2395C17.4852 15.9395 17.6074 15.0346 17.6074 14.3916C17.6074 12.383 17.9283 11.5455 16.9826 11.3288C16.6688 11.2569 16.4376 11.2093 15.635 11.2015C14.6049 11.1916 13.7332 11.2045 13.2395 11.4342C12.911 11.5869 12.6576 11.9271 12.8121 11.9467C13.0029 11.9708 13.435 12.0574 13.664 12.3533C13.9599 12.7356 13.9496 13.5937 13.9496 13.5937C13.9496 13.5937 14.1196 15.9582 13.5526 16.2518C13.1635 16.4532 12.6297 16.042 11.4835 14.1617C10.8964 13.1985 10.453 12.1337 10.453 12.1337C10.453 12.1337 10.3676 11.9348 10.2151 11.8283C10.0301 11.6993 9.7716 11.6584 9.7716 11.6584L7.02814 11.6754C7.02814 11.6754 6.6164 11.6863 6.46509 11.8564C6.33048 12.0077 6.45434 12.3204 6.45434 12.3204C6.45434 12.3204 8.60203 17.0914 11.0341 19.4956C13.2643 21.7003 15.7964 21.5556 15.7964 21.5556Z" fill="#A3A3A3"/>
</svg>
