<svg width="38" height="32" viewBox="0 0 38 32" fill="none" xmlns="http://www.w3.org/2000/svg">
<path d="M0 32V23.9834C0 21.2892 0.426487 18.4845 1.27946 15.5694C2.17508 12.6101 3.45455 9.7833 5.11785 7.08903C6.78114 4.35059 8.78563 1.98758 11.1313 0L17.8485 4.83644C15.8866 7.75155 14.3726 10.755 13.3064 13.8468C12.2402 16.8944 11.7071 20.207 11.7071 23.7847V32H0ZM20.1515 32V23.9834C20.1515 21.2892 20.578 18.4845 21.431 15.5694C22.3266 12.6101 23.6061 9.7833 25.2694 7.08903C26.9327 4.35059 28.9372 1.98758 31.2828 0L38 4.83644C36.0382 7.75155 34.5241 10.755 33.4579 13.8468C32.3917 16.8944 31.8586 20.207 31.8586 23.7847V32H20.1515Z" fill="#FF5100"/>
</svg>
