<svg width="80" height="80" viewBox="0 0 80 80" fill="none" xmlns="http://www.w3.org/2000/svg">
<path d="M19.9997 67.5C20.2459 67.5 20.4922 67.3736 20.6307 67.1527C21.0155 66.5844 30 53.1791 30 47.7629C30 42.1104 25.5078 37.5 20.0003 37.5C14.4922 37.4995 10 42.1099 10 47.7629C10 53.1786 18.9845 66.5843 19.3693 67.1527C19.5078 67.3736 19.7535 67.5 19.9997 67.5ZM19.9997 39.0792C24.6615 39.0792 28.4613 42.979 28.4613 47.7635C28.4613 51.5529 22.8462 60.9478 19.9997 65.3059C17.1538 60.9476 11.5386 51.5529 11.5386 47.7635C11.5386 42.979 15.3385 39.0792 19.9997 39.0792Z" fill="#A3A3A3"/>
<path d="M23.8461 47.7623C23.8461 45.5831 22.1231 43.8148 19.9998 43.8148C17.877 43.8148 16.154 45.5831 16.154 47.7623C16.154 49.9415 17.877 51.7098 20.0003 51.7098C22.1231 51.7093 23.8461 49.9409 23.8461 47.7623ZM17.6921 47.7623C17.6921 46.4517 18.7228 45.3939 19.9998 45.3939C21.2767 45.3939 22.3075 46.4517 22.3075 47.7623C22.3075 49.0728 21.2767 50.1307 19.9998 50.1307C18.7228 50.1307 17.6921 49.0728 17.6921 47.7623Z" fill="#A3A3A3"/>
<path d="M59.9997 67.5C60.2459 67.5 60.4922 67.3736 60.6307 67.1527C61.0155 66.5844 70 53.1791 70 47.7629C70 42.1104 65.5078 37.5 60.0003 37.5C54.4922 37.4995 50 42.1099 50 47.7629C50 53.1786 58.9845 66.5843 59.3693 67.1527C59.5078 67.3736 59.7535 67.5 59.9997 67.5ZM59.9997 39.0792C64.6615 39.0792 68.4613 42.979 68.4613 47.7635C68.4613 51.5529 62.8462 60.9478 59.9997 65.3059C57.1538 60.9476 51.5386 51.5529 51.5386 47.7635C51.5386 42.979 55.3385 39.0792 59.9997 39.0792Z" fill="#A3A3A3"/>
<path d="M63.8461 47.7623C63.8461 45.5831 62.1231 43.8148 59.9998 43.8148C57.877 43.8148 56.154 45.5831 56.154 47.7623C56.154 49.9415 57.877 51.7098 60.0003 51.7098C62.1231 51.7093 63.8461 49.9409 63.8461 47.7623ZM57.6921 47.7623C57.6921 46.4517 58.7228 45.3939 59.9998 45.3939C61.2767 45.3939 62.3075 46.4517 62.3075 47.7623C62.3075 49.0728 61.2767 50.1307 59.9998 50.1307C58.7228 50.1307 57.6921 49.0728 57.6921 47.7623Z" fill="#A3A3A3"/>
<path d="M39.9997 42.5C40.2459 42.5 40.4922 42.3736 40.6307 42.1527C41.0155 41.5844 50 28.1791 50 22.7629C50 17.1104 45.5078 12.5 40.0003 12.5C34.4922 12.4995 30 17.1099 30 22.7629C30 28.1786 38.9845 41.5843 39.3693 42.1527C39.5078 42.3736 39.7535 42.5 39.9997 42.5ZM39.9997 14.0792C44.6615 14.0792 48.4613 17.979 48.4613 22.7635C48.4613 26.5529 42.8462 35.9478 39.9997 40.3059C37.1538 35.9476 31.5386 26.5529 31.5386 22.7635C31.5386 17.979 35.3385 14.0792 39.9997 14.0792Z" fill="#A3A3A3"/>
<path d="M43.8461 22.7623C43.8461 20.5831 42.1231 18.8148 39.9998 18.8148C37.877 18.8148 36.154 20.5831 36.154 22.7623C36.154 24.9415 37.877 26.7098 40.0003 26.7098C42.1231 26.7093 43.8461 24.9409 43.8461 22.7623ZM37.6921 22.7623C37.6921 21.4517 38.7228 20.3939 39.9998 20.3939C41.2767 20.3939 42.3075 21.4517 42.3075 22.7623C42.3075 24.0728 41.2767 25.1307 39.9998 25.1307C38.7228 25.1307 37.6921 24.0728 37.6921 22.7623Z" fill="#A3A3A3"/>
</svg>
