<svg width="80" height="80" viewBox="0 0 80 80" fill="none" xmlns="http://www.w3.org/2000/svg">
<ellipse cx="20" cy="71" rx="7" ry="2" fill="#FF5100"/>
<ellipse cx="60" cy="71" rx="7" ry="2" fill="#FF5100"/>
<ellipse cx="40" cy="46" rx="7" ry="2" fill="#FF5100"/>
<path d="M19.9997 64C20.2459 64 20.4922 63.8736 20.6307 63.6527C21.0155 63.0844 30 49.6791 30 44.2629C30 38.6104 25.5078 34 20.0003 34C14.4922 33.9995 10 38.6099 10 44.2629C10 49.6786 18.9845 63.0843 19.3693 63.6527C19.5078 63.8736 19.7535 64 19.9997 64ZM19.9997 35.5792C24.6615 35.5792 28.4613 39.479 28.4613 44.2635C28.4613 48.0529 22.8462 57.4478 19.9997 61.8059C17.1538 57.4476 11.5386 48.0529 11.5386 44.2635C11.5386 39.479 15.3385 35.5792 19.9997 35.5792Z" fill="#333434"/>
<path d="M23.8461 44.2623C23.8461 42.0831 22.1231 40.3148 19.9998 40.3148C17.877 40.3148 16.154 42.0831 16.154 44.2623C16.154 46.4415 17.877 48.2098 20.0003 48.2098C22.1231 48.2093 23.8461 46.4409 23.8461 44.2623ZM17.6921 44.2623C17.6921 42.9517 18.7228 41.8939 19.9998 41.8939C21.2767 41.8939 22.3075 42.9517 22.3075 44.2623C22.3075 45.5728 21.2767 46.6307 19.9998 46.6307C18.7228 46.6307 17.6921 45.5728 17.6921 44.2623Z" fill="#333434"/>
<path d="M59.9997 64C60.2459 64 60.4922 63.8736 60.6307 63.6527C61.0155 63.0844 70 49.6791 70 44.2629C70 38.6104 65.5078 34 60.0003 34C54.4922 33.9995 50 38.6099 50 44.2629C50 49.6786 58.9845 63.0843 59.3693 63.6527C59.5078 63.8736 59.7535 64 59.9997 64ZM59.9997 35.5792C64.6615 35.5792 68.4613 39.479 68.4613 44.2635C68.4613 48.0529 62.8462 57.4478 59.9997 61.8059C57.1538 57.4476 51.5386 48.0529 51.5386 44.2635C51.5386 39.479 55.3385 35.5792 59.9997 35.5792Z" fill="#333434"/>
<path d="M63.8461 44.2623C63.8461 42.0831 62.1231 40.3148 59.9998 40.3148C57.877 40.3148 56.154 42.0831 56.154 44.2623C56.154 46.4415 57.877 48.2098 60.0003 48.2098C62.1231 48.2093 63.8461 46.4409 63.8461 44.2623ZM57.6921 44.2623C57.6921 42.9517 58.7228 41.8939 59.9998 41.8939C61.2767 41.8939 62.3075 42.9517 62.3075 44.2623C62.3075 45.5728 61.2767 46.6307 59.9998 46.6307C58.7228 46.6307 57.6921 45.5728 57.6921 44.2623Z" fill="#333434"/>
<path d="M39.9997 38C40.2459 38 40.4922 37.8736 40.6307 37.6527C41.0155 37.0844 50 23.6791 50 18.2629C50 12.6104 45.5078 8 40.0003 8C34.4922 7.99947 30 12.6099 30 18.2629C30 23.6786 38.9845 37.0843 39.3693 37.6527C39.5078 37.8736 39.7535 38 39.9997 38ZM39.9997 9.57917C44.6615 9.57917 48.4613 13.479 48.4613 18.2635C48.4613 22.0529 42.8462 31.4478 39.9997 35.8059C37.1538 31.4476 31.5386 22.0529 31.5386 18.2635C31.5386 13.479 35.3385 9.57917 39.9997 9.57917Z" fill="#333434"/>
<path d="M43.8461 18.2623C43.8461 16.0831 42.1231 14.3148 39.9998 14.3148C37.877 14.3148 36.154 16.0831 36.154 18.2623C36.154 20.4415 37.877 22.2098 40.0003 22.2098C42.1231 22.2093 43.8461 20.4409 43.8461 18.2623ZM37.6921 18.2623C37.6921 16.9517 38.7228 15.8939 39.9998 15.8939C41.2767 15.8939 42.3075 16.9517 42.3075 18.2623C42.3075 19.5728 41.2767 20.6307 39.9998 20.6307C38.7228 20.6307 37.6921 19.5728 37.6921 18.2623Z" fill="#333434"/>
</svg>
