<svg width="80" height="80" viewBox="0 0 80 80" fill="none" xmlns="http://www.w3.org/2000/svg">
<path d="M64.6099 51.222C64.1265 50.3817 63.3948 49.8512 62.4883 49.6804C61.6695 49.5286 60.7765 49.6867 59.9503 50.1098L51.6585 53.5912C51.6382 51.8603 50.2619 50.8238 47.9588 50.8238H39.5131L33.1883 46.8558C33.054 46.7739 32.8994 46.7294 32.7387 46.7294H24.8561V44.7584C24.8561 44.3416 24.4936 44 24.0502 44L16.8059 44.0005C16.3631 44.0005 16 44.3416 16 44.7589V62.4875C16 62.9042 16.3625 63.2459 16.8059 63.2459L24.0506 63.2453C24.4935 63.2453 24.8565 62.9042 24.8565 62.487V60.5159H27.4951L38.244 65.2416C39.6271 65.7599 40.7482 66 41.7688 66C43.6825 66 45.2667 65.1724 47.6367 63.8328L62.8368 55.6573C63.7096 55.2152 64.3811 54.5642 64.7301 53.8191C65.1263 52.9724 65.0865 52.0501 64.6093 51.2224L64.6099 51.222ZM23.2451 61.7349H17.6123V45.5226H23.2451V61.7349ZM63.2546 53.2056C63.0466 53.6414 62.6302 54.0396 62.053 54.3305L46.8256 62.5244C43.267 64.5335 42.0991 65.0581 38.8828 63.8512L28.0126 59.0747C28.0058 59.0747 28.0058 59.0747 27.9991 59.0684C27.9519 59.0494 27.8985 59.043 27.8513 59.0367C27.7973 59.024 27.7439 59.0049 27.69 59.0049H27.6765H24.8563L24.8569 48.2461H32.504L38.822 52.2141C38.9563 52.296 39.1108 52.3404 39.2716 52.3404H47.9663C50.0542 52.3404 50.0542 53.2754 50.0542 53.6292C50.0542 53.983 50.0542 54.918 47.9663 54.918H42.1722C41.9507 54.918 41.7355 55.0063 41.5815 55.1581L38.9632 57.8119C38.6608 58.1213 38.6811 58.6015 39.0036 58.886C39.1582 59.0188 39.3594 59.088 39.5544 59.088C39.7691 59.088 39.9843 59.0061 40.1451 58.8479L42.5285 56.4343H47.9737C49.1624 56.4343 50.102 56.1561 50.74 55.6511L60.6766 51.4747C61.2207 51.1966 61.7506 51.0956 62.1873 51.1781C62.6172 51.26 62.9595 51.5192 63.2079 51.9486C63.4361 52.359 63.4563 52.782 63.2546 53.2057L63.2546 53.2056Z" fill="#A3A3A3"/>
<path d="M40.8571 23H37.1429V28H36V29.1111H37.1429V30.2222H36V31.3333H37.1429V33H38.2857V31.3333H40.5714V30.2222H38.2857V29.1111H40.8571C42.5943 29.1111 44 27.7444 44 26.0556C44 24.3667 42.5943 23 40.8571 23ZM40.8571 28H38.2857V24.1111H40.8571C41.96 24.1111 42.8571 24.9833 42.8571 26.0556C42.8571 27.1278 41.96 28 40.8571 28Z" fill="#A3A3A3"/>
<path fill-rule="evenodd" clip-rule="evenodd" d="M40 36.75C44.8325 36.75 48.75 32.8325 48.75 28C48.75 23.1675 44.8325 19.25 40 19.25C35.1675 19.25 31.25 23.1675 31.25 28C31.25 32.8325 35.1675 36.75 40 36.75ZM40 38C45.5228 38 50 33.5228 50 28C50 22.4772 45.5228 18 40 18C34.4772 18 30 22.4772 30 28C30 33.5228 34.4772 38 40 38Z" fill="#A3A3A3"/>
<path fill-rule="evenodd" clip-rule="evenodd" d="M40 40.7273C47.0291 40.7273 52.7273 35.0291 52.7273 28C52.7273 20.9709 47.0291 15.2727 40 15.2727C32.9709 15.2727 27.2727 20.9709 27.2727 28C27.2727 35.0291 32.9709 40.7273 40 40.7273ZM40 42C47.732 42 54 35.732 54 28C54 20.268 47.732 14 40 14C32.268 14 26 20.268 26 28C26 35.732 32.268 42 40 42Z" fill="#A3A3A3"/>
</svg>
