<svg width="80" height="80" viewBox="0 0 80 80" fill="none" xmlns="http://www.w3.org/2000/svg">
<path d="M64.6099 51.222C64.1265 50.3817 63.3948 49.8512 62.4883 49.6804C61.6695 49.5286 60.7765 49.6867 59.9503 50.1098L51.6585 53.5912C51.6382 51.8603 50.2619 50.8238 47.9588 50.8238H39.5131L33.1883 46.8558C33.054 46.7739 32.8994 46.7294 32.7387 46.7294H24.8561V44.7584C24.8561 44.3416 24.4936 44 24.0502 44L16.8059 44.0005C16.3631 44.0005 16 44.3416 16 44.7589V62.4875C16 62.9042 16.3625 63.2459 16.8059 63.2459L24.0506 63.2453C24.4935 63.2453 24.8565 62.9042 24.8565 62.487V60.5159H27.4951L38.244 65.2416C39.6271 65.7599 40.7482 66 41.7688 66C43.6825 66 45.2667 65.1724 47.6367 63.8328L62.8368 55.6573C63.7096 55.2152 64.3811 54.5642 64.7301 53.8191C65.1263 52.9724 65.0865 52.0501 64.6093 51.2224L64.6099 51.222ZM23.2451 61.7349H17.6123V45.5226H23.2451V61.7349ZM63.2546 53.2056C63.0466 53.6414 62.6302 54.0396 62.053 54.3305L46.8256 62.5244C43.267 64.5335 42.0991 65.0581 38.8828 63.8512L28.0126 59.0747C28.0058 59.0747 28.0058 59.0747 27.9991 59.0684C27.9519 59.0494 27.8985 59.043 27.8513 59.0367C27.7973 59.024 27.7439 59.0049 27.69 59.0049H27.6765H24.8563L24.8569 48.2461H32.504L38.822 52.2141C38.9563 52.296 39.1108 52.3404 39.2716 52.3404H47.9663C50.0542 52.3404 50.0542 53.2754 50.0542 53.6292C50.0542 53.983 50.0542 54.918 47.9663 54.918H42.1722C41.9507 54.918 41.7355 55.0063 41.5815 55.1581L38.9632 57.8119C38.6608 58.1213 38.6811 58.6015 39.0036 58.886C39.1582 59.0188 39.3594 59.088 39.5544 59.088C39.7691 59.088 39.9843 59.0061 40.1451 58.8479L42.5285 56.4343H47.9737C49.1624 56.4343 50.102 56.1561 50.74 55.6511L60.6766 51.4747C61.2207 51.1966 61.7506 51.0956 62.1873 51.1781C62.6172 51.26 62.9595 51.5192 63.2079 51.9486C63.4361 52.359 63.4563 52.782 63.2546 53.2057L63.2546 53.2056Z" fill="#333434"/>
<circle cx="40" cy="22" r="10" fill="#FF5100"/>
<path d="M40.8571 17H37.1429V22H36V23.1111H37.1429V24.2222H36V25.3333H37.1429V27H38.2857V25.3333H40.5714V24.2222H38.2857V23.1111H40.8571C42.5943 23.1111 44 21.7444 44 20.0556C44 18.3667 42.5943 17 40.8571 17ZM40.8571 22H38.2857V18.1111H40.8571C41.96 18.1111 42.8571 18.9833 42.8571 20.0556C42.8571 21.1278 41.96 22 40.8571 22Z" fill="#333434"/>
<path fill-rule="evenodd" clip-rule="evenodd" d="M40 30.75C44.8325 30.75 48.75 26.8325 48.75 22C48.75 17.1675 44.8325 13.25 40 13.25C35.1675 13.25 31.25 17.1675 31.25 22C31.25 26.8325 35.1675 30.75 40 30.75ZM40 32C45.5228 32 50 27.5228 50 22C50 16.4772 45.5228 12 40 12C34.4772 12 30 16.4772 30 22C30 27.5228 34.4772 32 40 32Z" fill="#333434"/>
<path fill-rule="evenodd" clip-rule="evenodd" d="M40 34.7273C47.0291 34.7273 52.7273 29.0291 52.7273 22C52.7273 14.9709 47.0291 9.27273 40 9.27273C32.9709 9.27273 27.2727 14.9709 27.2727 22C27.2727 29.0291 32.9709 34.7273 40 34.7273ZM40 36C47.732 36 54 29.732 54 22C54 14.268 47.732 8 40 8C32.268 8 26 14.268 26 22C26 29.732 32.268 36 40 36Z" fill="#333434"/>
</svg>
