<svg width="96" height="96" viewBox="0 0 96 96" fill="none" xmlns="http://www.w3.org/2000/svg">
<path d="M44.0811 39.5624L32 46H72L57.2533 39.5629C53.1997 37.4794 48.1347 37.4788 44.0811 39.5624Z" fill="#FF5100"/>
<path fill-rule="evenodd" clip-rule="evenodd" d="M71.068 44.7975C71.7483 44.6839 72.6334 43.1168 73.2422 42.0392C73.4377 41.693 73.6047 41.3974 73.7273 41.2166C74.0111 40.7487 74.5335 40.4663 75.057 40.4976C78.0048 40.5127 80.9518 40.511 83.8991 40.5094L86.9167 40.5084C87.5943 40.5443 87.9703 40.9398 87.9873 41.6516C88.0059 42.3921 88.0025 43.1327 87.9873 43.8732C87.9669 44.6991 87.6495 45.4855 87.1002 46.071C86.3786 46.8402 85.4744 47.0224 84.5044 47.0224C83.1747 49.2533 79.8544 55.3734 79.8544 55.3734C79.8604 55.788 79.8567 56.2032 79.853 56.6183C79.8473 57.2579 79.8416 57.8975 79.8714 58.5351C79.9103 59.3961 79.4462 59.9533 78.5162 59.9515C73.3501 59.9373 66.4382 59.9536 59.0601 59.9711C46.3045 60.0013 32.1553 60.0347 23.2248 59.9192C18.4342 59.8581 15.0174 57.3847 12.9524 52.8282C12.3174 51.4041 11.9965 49.8452 12.014 48.2698C12.014 47.667 12.016 47.0641 12.018 46.4612C12.0232 44.9335 12.0284 43.4058 12.0004 41.8798C11.9835 40.9955 12.4798 40.4239 13.315 40.4922C13.7104 40.5235 14.1436 40.5112 14.5599 40.4994C14.7163 40.495 14.8703 40.4906 15.0191 40.4886V34.1544C14.5324 33.938 14.0366 33.6525 14.0485 33.013L14.0458 32H30.3277V32.9465C30.3277 33.6493 29.9177 33.9782 29.335 34.1562V44.7612C43.7409 44.7737 57.4796 44.7856 71.068 44.7975ZM74.3417 44.0154C74.6846 43.4371 75.1277 42.6899 75.6906 42.7031L85.8918 42.7498C85.8918 42.7498 85.9003 43.343 85.8901 43.6162C85.863 44.3693 85.4886 44.7756 84.789 44.8097C84.5565 44.8232 84.3236 44.8232 84.0911 44.8097C83.5473 44.7702 83.1712 45.0182 82.8901 45.5071C81.8502 47.2954 80.7973 49.0752 79.7444 50.8549C79.2442 51.7005 78.744 52.5461 78.2451 53.3926H15.6391C14.5248 51.7145 14.158 49.7307 14.1179 47.7072C14.085 46.5656 14.0924 45.4228 14.0998 44.2798C14.1032 43.7549 14.1066 43.2298 14.106 42.7049C14.106 42.7049 16.7312 42.7113 18.0531 42.7121C19.4248 42.7129 20.7965 42.7137 22.1677 42.7049C22.4975 42.6799 22.8288 42.8596 23.0029 43.1578C23.3722 43.7041 23.7534 44.2388 24.135 44.7742C24.5043 45.2922 24.874 45.8108 25.2339 46.3411C25.5122 46.7883 26.0153 47.0569 26.5196 47.0278C37.1691 47.017 60.814 47.017 71.4658 47.0278C71.7178 47.0408 71.9687 46.9838 72.1936 46.8624C72.4184 46.741 72.6096 46.5595 72.7481 46.3357C73.184 45.7017 73.6281 45.0747 74.0713 44.4488C74.1535 44.3328 74.2436 44.1808 74.3417 44.0154ZM23.3993 57.7227C23.3993 57.7227 18.3424 57.3046 17.7312 55.6538H77.7336V57.6975L23.3993 57.7227ZM17.1789 40.5012V38.4359L27.1362 38.4413L27.187 44.7324C26.2684 44.7114 25.3763 43.144 24.7412 42.0282C24.5642 41.7171 24.4072 41.4411 24.2751 41.2435C24.1217 40.9906 23.9064 40.7867 23.6521 40.6537C23.3978 40.5207 23.1143 40.4636 22.8318 40.4886C21.4889 40.5161 20.1453 40.5108 18.8018 40.5055C18.2608 40.5033 17.7198 40.5012 17.1789 40.5012ZM17.1484 36.1459V34.113H19.0881V36.1459H17.1484ZM23.1181 36.1459L21.2022 36.1603V34.0986H23.1181V36.1459ZM27.187 34.1436V36.1603H25.2915V34.1562L27.187 34.1436Z" fill="#333434"/>
<circle cx="42" cy="66" r="2" fill="#FF5100"/>
<circle cx="70" cy="66" r="2" fill="#FF5100"/>
<circle cx="64" cy="72" r="4" fill="#FF5100"/>
<circle cx="16" cy="64" r="4" fill="#FF5100"/>
<circle cx="6" cy="54" r="2" fill="#FF5100"/>
</svg>
