<svg width="18" height="9" viewBox="0 0 18 9" fill="none" xmlns="http://www.w3.org/2000/svg">
<path fill-rule="evenodd" clip-rule="evenodd" d="M8.82566 8.96331H9.79694C9.79694 8.96331 10.0903 8.93279 10.2402 8.78049C10.3781 8.6405 10.3737 8.3778 10.3737 8.3778C10.3737 8.3778 10.3547 7.1477 10.9595 6.96655C11.5559 6.788 12.3216 8.15539 13.1331 8.68122C13.7468 9.07899 14.2131 8.99193 14.2131 8.99193L16.3833 8.96331C16.3833 8.96331 17.5184 8.8972 16.9801 8.05477C16.9361 7.98597 16.6666 7.43162 15.3665 6.29269C14.0057 5.10061 14.1881 5.29348 15.8272 3.23148C16.8255 1.97573 17.2245 1.20913 17.0998 0.880812C16.981 0.567994 16.2467 0.650627 16.2467 0.650627L13.8034 0.664885C13.8034 0.664885 13.6221 0.641608 13.4878 0.717436C13.3565 0.79159 13.2722 0.964849 13.2722 0.964849C13.2722 0.964849 12.8854 1.93652 12.3698 2.76301C11.2818 4.50673 10.8467 4.59903 10.6688 4.49058C10.2551 4.2382 10.3585 3.4769 10.3585 2.93589C10.3585 1.24596 10.63 0.541368 9.82961 0.358981C9.56405 0.298491 9.36841 0.258471 8.68913 0.251936C7.81724 0.243564 7.07948 0.254474 6.66165 0.447663C6.38367 0.57615 6.1692 0.862395 6.2999 0.878867C6.46143 0.899175 6.82708 0.972032 7.02095 1.22101C7.27141 1.54263 7.26265 2.26462 7.26265 2.26462C7.26265 2.26462 7.40656 4.25392 6.92665 4.50095C6.59734 4.67043 6.14551 4.32445 5.17549 2.74243C4.67858 1.93209 4.30326 1.03625 4.30326 1.03625C4.30326 1.03625 4.23099 0.868876 4.1019 0.779276C3.94534 0.670718 3.72659 0.636315 3.72659 0.636315L1.40465 0.650627C1.40465 0.650627 1.05617 0.659809 0.928106 0.802877C0.814178 0.93023 0.919008 1.19331 0.919008 1.19331C0.919008 1.19331 2.73671 5.20733 4.79508 7.23017C6.68265 9.08504 8.82566 8.96331 8.82566 8.96331Z" fill="white"/>
</svg>
