<svg width="18" height="18" viewBox="0 0 18 18" fill="none" xmlns="http://www.w3.org/2000/svg">
<path d="M13.1991 10.3057C13.165 10.2894 11.8892 9.66114 11.6625 9.57955C11.57 9.54631 11.4708 9.51386 11.3654 9.51386C11.1931 9.51386 11.0484 9.59972 10.9356 9.76835C10.8082 9.95778 10.4224 10.4087 10.3032 10.5435C10.2876 10.5612 10.2664 10.5825 10.2536 10.5825C10.2422 10.5825 10.0448 10.5012 9.98501 10.4752C8.61643 9.88074 7.57762 8.45114 7.43518 8.21006C7.41484 8.1754 7.41398 8.15966 7.41381 8.15966C7.41881 8.14131 7.46484 8.09517 7.48859 8.07136C7.55807 8.00261 7.63336 7.91199 7.7062 7.82432C7.74069 7.78278 7.77523 7.74119 7.80915 7.70199C7.91484 7.57903 7.96188 7.48358 8.01643 7.37301L8.04501 7.31557C8.17819 7.05097 8.06444 6.82767 8.02768 6.75557C7.99751 6.69523 7.45881 5.39511 7.40154 5.25852C7.26381 4.92892 7.08182 4.77545 6.82893 4.77545C6.80546 4.77545 6.82893 4.77545 6.73052 4.7796C6.61069 4.78466 5.95813 4.87057 5.66961 5.05244C5.36364 5.24534 4.84603 5.86023 4.84603 6.94159C4.84603 7.91483 5.46364 8.83375 5.72881 9.18324C5.7354 9.19205 5.7475 9.20994 5.76506 9.23563C6.78057 10.7187 8.04654 11.8178 9.32989 12.3305C10.5654 12.824 11.1505 12.881 11.4831 12.881H11.4831C11.6229 12.881 11.7348 12.8701 11.8335 12.8603L11.8961 12.8544C12.3229 12.8165 13.2609 12.3305 13.4742 11.7376C13.6423 11.2706 13.6866 10.7604 13.5748 10.5752C13.4982 10.4493 13.3662 10.386 13.1991 10.3057Z" fill="white"/>
<path d="M9.15533 0.25C4.41579 0.25 0.559873 4.07693 0.559873 8.78085C0.559873 10.3023 0.967033 11.7915 1.73834 13.0949L0.262032 17.4498C0.234532 17.531 0.254987 17.6207 0.315044 17.6819C0.358396 17.7261 0.417203 17.75 0.47726 17.75C0.500271 17.75 0.523453 17.7465 0.546067 17.7393L5.08698 16.2964C6.32959 16.9603 7.73403 17.3107 9.15539 17.3107C13.8945 17.3108 17.75 13.4843 17.75 8.78085C17.75 4.07693 13.8945 0.25 9.15533 0.25ZM9.15533 15.5337C7.81789 15.5337 6.52249 15.1476 5.40897 14.4169C5.37153 14.3923 5.32806 14.3797 5.28431 14.3797C5.26118 14.3797 5.238 14.3832 5.21545 14.3903L2.94073 15.1134L3.67505 12.947C3.6988 12.8769 3.68692 12.7995 3.64317 12.7398C2.79522 11.5811 2.34698 10.2122 2.34698 8.78085C2.34698 5.05682 5.40118 2.02705 9.15528 2.02705C12.9089 2.02705 15.9628 5.05682 15.9628 8.78085C15.9628 12.5044 12.909 15.5337 9.15533 15.5337Z" fill="white"/>
</svg>
