<svg width="10" height="16" viewBox="0 0 10 16" fill="none" xmlns="http://www.w3.org/2000/svg">
<path fill-rule="evenodd" clip-rule="evenodd" d="M1.17122 4.38703C1.17122 2.24031 2.91375 0.5 5.06333 0.5C7.21291 0.5 8.95545 2.24031 8.95545 4.38703C8.95545 6.5338 7.21291 8.27423 5.06333 8.27423C2.91375 8.27423 1.17122 6.5338 1.17122 4.38703ZM3.45442 4.38709C3.45442 5.27449 4.17477 5.99396 5.06333 5.99396C5.95189 5.99396 6.67224 5.27449 6.67224 4.38709C6.67224 3.49969 5.95189 2.78028 5.06333 2.78028C4.17477 2.78028 3.45442 3.49969 3.45442 4.38709Z" fill="white"/>
<path d="M8.97875 10.2737C8.92935 10.3132 7.99562 11.0501 6.43744 11.3672L8.78943 13.6952C9.20305 14.1076 9.20355 14.7768 8.7906 15.1898C8.37765 15.6029 7.70771 15.6035 7.29398 15.191L5.01055 12.9703L2.93661 15.1767C2.72897 15.3918 2.45198 15.5 2.17471 15.5C1.91025 15.5 1.64557 15.4017 1.44021 15.204C1.01946 14.7988 1.00727 14.1297 1.41298 13.7095L3.64544 11.3795C2.0436 11.0699 1.07132 10.3138 1.02125 10.2737C0.565297 9.90848 0.492053 9.2433 0.857715 8.78789C1.22332 8.33254 1.88931 8.25939 2.34537 8.62452C2.35501 8.63231 3.37195 9.39527 5.0105 9.39638C6.6491 9.39527 7.64499 8.63231 7.65463 8.62452C8.11069 8.25939 8.77668 8.33254 9.14229 8.78789C9.50795 9.2433 9.4347 9.90848 8.97875 10.2737Z" fill="white"/>
</svg>
