<svg width="16" height="14" viewBox="0 0 16 14" fill="none" xmlns="http://www.w3.org/2000/svg">
<path fill-rule="evenodd" clip-rule="evenodd" d="M1.52703 6.14115C5.55273 4.38266 8.2327 3.21419 9.57844 2.64731C13.4086 1.03922 14.2137 0.761569 14.7313 0.75C14.8464 0.75 15.0994 0.773138 15.2719 0.911966C15.41 1.02766 15.4445 1.17805 15.4675 1.29374C15.4905 1.40943 15.5135 1.65238 15.4905 1.83748C15.2834 4.03559 14.3863 9.36889 13.9262 11.8215C13.7307 12.8627 13.3511 13.2098 12.983 13.2445C12.1779 13.3139 11.5683 12.7123 10.7977 12.2033C9.57844 11.405 8.89982 10.9076 7.71511 10.1209C6.34637 9.2185 7.23203 8.72103 8.01416 7.9112C8.2212 7.70296 11.7523 4.46364 11.8213 4.17442C11.8328 4.13971 11.8328 4.00088 11.7523 3.93147C11.6718 3.86206 11.5568 3.8852 11.4648 3.90833C11.3382 3.93147 9.40591 5.2272 5.64475 7.78394C5.09265 8.16572 4.59807 8.35082 4.14949 8.33925C3.6549 8.32769 2.71174 8.0616 1.99861 7.83022C1.13596 7.55256 0.445841 7.40217 0.503351 6.91627C0.537857 6.66175 0.882918 6.40723 1.52703 6.14115Z" fill="white"/>
</svg>
