<svg width="96" height="96" viewBox="0 0 96 96" fill="none" xmlns="http://www.w3.org/2000/svg">
<path fill-rule="evenodd" clip-rule="evenodd" d="M47.1176 47.9185V39.6105C47.1176 39.328 47.1195 39.0454 47.1214 38.7628C47.1251 38.1977 47.1288 37.6324 47.1176 37.0673C47.101 36.2704 46.7179 35.8804 45.9183 35.8465H35.3738C34.7574 35.8974 34.4243 36.2026 34.3243 36.813C34.291 37.0503 34.2743 37.2707 34.2743 37.5081V47.6642C34.2743 47.9354 34.3076 48.2067 34.341 48.478C34.4076 48.8849 34.6408 49.1393 35.0073 49.241C35.2072 49.3088 35.4404 49.3258 35.6736 49.3258H45.7184C46.7512 49.3258 47.1176 48.9528 47.1176 47.9185ZM36.2566 46.6977V42.5777C36.2566 41.1874 36.2566 39.797 36.2733 38.3728C36.2733 37.8642 36.2733 37.8472 36.7897 37.8472H44.5856C45.0854 37.8472 45.102 37.8472 45.102 38.3728V46.6977C45.102 47.2572 45.0854 47.2572 44.5357 47.2572H36.8064C36.2566 47.2572 36.2566 47.2572 36.2566 46.6977Z" fill="#A3A3A3"/>
<path fill-rule="evenodd" clip-rule="evenodd" d="M48.8501 42.5268V36.9995C48.8834 36.2704 49.2665 35.8635 49.9828 35.8296H60.2108C60.2561 35.8296 60.3024 35.8285 60.3493 35.8275C60.4919 35.8243 60.6393 35.821 60.7772 35.8465C61.2603 35.9143 61.5601 36.2195 61.6434 36.7112C61.6934 36.9656 61.71 37.2199 61.71 37.4742V47.6981C61.71 47.8363 61.6947 47.9824 61.6796 48.1256C61.6725 48.1932 61.6654 48.2602 61.6601 48.3254C61.6268 48.9358 61.127 49.2749 60.6273 49.3088H49.9662C49.2832 49.2579 48.9001 48.868 48.8667 48.1728C48.8557 48.0718 48.8593 47.9781 48.863 47.8821C48.8648 47.8332 48.8667 47.7835 48.8667 47.732C48.8501 46.0026 48.8501 44.2562 48.8501 42.5268ZM50.8657 46.7656C50.8657 47.2572 50.8824 47.2742 51.3488 47.2742H59.2113C59.6944 47.2742 59.7111 47.2572 59.7111 46.7995V38.3559C59.7111 37.8981 59.6944 37.8811 59.2613 37.8811H51.3488C50.8824 37.8811 50.8657 37.8981 50.8657 38.3898V46.7656Z" fill="#A3A3A3"/>
<path fill-rule="evenodd" clip-rule="evenodd" d="M19.7142 37.2209V42.5618C19.7142 44.4099 19.7142 46.2749 19.7309 48.14C19.7309 48.9029 20.0807 49.259 20.8303 49.3099H31.2415C32.1411 49.3099 32.5075 48.9199 32.5075 47.9874V37.1192C32.5075 36.2036 32.1411 35.8306 31.2082 35.8306H21.0302C20.0307 35.8306 19.7142 36.1697 19.7142 37.2209ZM21.6465 46.8005V38.3569C21.6631 37.901 21.6638 37.8822 22.0963 37.8822H30.0255C30.4919 37.8822 30.5086 37.8991 30.5086 38.3908V46.7666C30.492 47.2566 30.4914 47.2753 30.0089 47.2753H22.0796C21.6632 47.2753 21.6465 47.2583 21.6465 46.8005Z" fill="#A3A3A3"/>
<path fill-rule="evenodd" clip-rule="evenodd" d="M76.253 42.5618C76.253 43.0149 76.252 43.469 76.2509 43.9237C76.2478 45.2893 76.2447 46.6604 76.2696 48.0213C76.2863 48.7843 75.9198 49.3099 75.0203 49.3099H64.7257C63.8428 49.3099 63.4597 48.9199 63.4597 48.0382V37.1192C63.4597 36.2206 63.8261 35.8476 64.709 35.8306H75.0036C75.8865 35.8306 76.2696 36.3223 76.253 37.1023C76.2308 38.3234 76.2382 39.5371 76.2456 40.7482C76.2493 41.3523 76.253 41.9583 76.253 42.5618ZM74.3207 38.323C74.3207 37.8998 74.3041 37.8991 73.9062 37.8823L65.7418 37.8822C65.5586 37.8822 65.4753 37.9839 65.4753 38.1704V46.6818C65.4753 46.9785 65.4753 47.1269 65.5481 47.2032C65.621 47.2795 65.7667 47.2837 66.0583 47.2922H73.7876C74.3207 47.2922 74.3207 47.2753 74.3207 46.7157V38.323Z" fill="#A3A3A3"/>
<path fill-rule="evenodd" clip-rule="evenodd" d="M78.7007 53.1429C79.2337 53.1429 79.6835 52.9903 79.9667 52.4986C79.9667 45.8862 79.9667 39.2737 80 32.6443C79.7168 32.1526 79.2671 32 78.734 32C58.2642 32.2976 37.7359 32.2985 17.266 32.017C16.733 32.017 16.2832 32.1696 16 32.6612V52.4986C16.2832 52.9903 16.733 53.1429 17.266 53.1429C17.9548 53.1316 18.6362 53.1354 19.3152 53.1392C19.6533 53.141 19.9936 53.1429 20.3311 53.1429H20.9308C20.9474 53.2446 20.9474 53.2616 20.9474 53.2785C20.9325 53.3038 20.9191 53.3276 20.9062 53.3504C20.8761 53.4037 20.8492 53.4514 20.8142 53.499C20.0645 54.5502 19.7147 55.737 19.7314 57.0595C19.7814 59.908 22.1135 62.7903 25.5783 62.6547C27.9938 62.5529 29.7095 61.2644 30.6757 58.9754C30.7255 58.8572 30.7514 58.7185 30.7772 58.5803C30.8291 58.3021 30.8806 58.0262 31.1255 57.9242C31.3631 57.8154 31.6516 57.8359 31.9426 57.8567C32.0595 57.865 32.1769 57.8733 32.2915 57.8733H32.4081C32.6493 57.8818 32.7701 57.8861 32.8472 57.9473C32.9244 58.0087 32.9577 58.1274 33.0245 58.365C33.874 61.5526 36.9391 63.0107 39.3545 62.6038C42.9526 62.0104 45.1348 58.1616 43.7356 54.7367C43.5966 54.3993 43.4164 54.0829 43.2303 53.7561C43.1264 53.5737 43.0207 53.3881 42.9193 53.1938H53.114C53.0556 53.283 53.0036 53.3591 52.9565 53.428C52.8963 53.5162 52.8443 53.5923 52.7975 53.6685C51.8813 55.0588 51.5815 56.5848 51.9646 58.2124C52.5643 60.7727 54.7132 62.6716 57.4951 62.6716C59.8771 62.6716 61.8428 61.2304 62.7423 59.0263C62.7911 58.9049 62.8152 58.7638 62.8393 58.6229C62.8892 58.3305 62.939 58.0386 63.2087 57.9242C63.4588 57.8151 63.7684 57.836 64.0767 57.8568C64.1997 57.8651 64.3227 57.8733 64.4414 57.8733H64.5081C64.7352 57.8733 64.8517 57.8734 64.9269 57.9301C65.0061 57.9899 65.0394 58.1127 65.1078 58.365C65.974 61.5356 69.0224 62.9938 71.4544 62.5868C75.3358 61.9426 77.468 57.5512 75.519 54.0754C75.3524 53.7872 75.1858 53.5159 74.9526 53.1429H75.6356C75.9805 53.1429 76.3235 53.141 76.6653 53.1391C77.3462 53.1354 78.0247 53.1316 78.7007 53.1429ZM77.2681 51.0913H18.6653L18.4858 51.092C18.1594 51.0939 18.005 51.0947 17.9337 51.0169C17.8698 50.947 17.8727 50.8137 17.8783 50.5607C17.8802 50.4751 17.8824 50.3758 17.8824 50.2606V34.7467C17.8824 34.6735 17.8815 34.6079 17.8808 34.5493C17.8777 34.3134 17.8761 34.189 17.9364 34.1236C18.0036 34.0505 18.1479 34.0508 18.4531 34.0514L18.5487 34.0516H77.6346C78.0324 34.0684 78.051 34.0692 78.051 34.4924V50.2606C78.051 50.3781 78.0532 50.4791 78.0551 50.566C78.0607 50.8217 78.0636 50.9547 77.9998 51.0229C77.9312 51.0965 77.7851 51.0952 77.4815 51.0925C77.4176 51.092 77.3467 51.0913 77.2681 51.0913ZM29.0599 56.89C29.0432 59.3654 27.0276 60.6879 25.3618 60.6201C23.3295 60.6201 21.6304 58.9585 21.6471 56.89C21.697 54.4315 23.646 53.092 25.3951 53.109C27.0609 53.1259 29.0765 54.4145 29.0599 56.89ZM42.1864 56.89C42.1697 59.3654 40.1541 60.6879 38.4883 60.6201C36.4394 60.6201 34.7569 58.9585 34.7736 56.873C34.8235 54.4315 36.7725 53.092 38.5216 53.109C40.1874 53.1259 42.203 54.4145 42.1864 56.89ZM61.1765 56.89C61.1598 59.3823 59.1442 60.6879 57.4784 60.6201C55.4295 60.6201 53.7304 58.9585 53.7637 56.873C53.8136 54.4315 55.7626 53.092 57.5117 53.109C59.1775 53.1259 61.1931 54.3976 61.1765 56.89ZM74.2863 56.89C74.2863 59.3654 72.2707 60.6879 70.6049 60.6201C68.556 60.6201 66.8735 58.9754 66.8735 56.9069C66.9068 54.4654 68.8558 53.109 70.6049 53.1259C72.2707 53.1259 74.2863 54.3976 74.2863 56.89ZM30.9256 55.6692C30.7257 54.7706 30.3092 53.9737 29.7262 53.1599H34.1406C34.0073 53.3464 33.924 53.482 33.8407 53.6176C33.4243 54.2111 33.1411 54.8554 32.9911 55.5675C32.9412 55.8048 32.8246 55.8896 32.608 55.8896C32.3831 55.8811 32.1541 55.8811 31.9251 55.8811C31.6962 55.8811 31.4668 55.8811 31.2421 55.8727C31.1255 55.8727 30.9422 55.754 30.9256 55.6692ZM61.8761 53.2446C62.3425 53.109 65.3243 53.0751 66.2238 53.1938C65.6408 53.9737 65.2577 54.7536 65.0578 55.6183C65.0245 55.8388 64.8912 55.8896 64.708 55.8896H63.342C63.1588 55.8896 63.0422 55.8218 62.9922 55.6183C62.809 54.7367 62.4258 53.9567 61.8761 53.2446Z" fill="#A3A3A3"/>
</svg>
