<svg width="96" height="96" viewBox="0 0 96 96" fill="none" xmlns="http://www.w3.org/2000/svg">
<path d="M8 48.0501C8.3509 48.2639 8.71512 48.454 9.09035 48.6193C11.3426 49.4477 13.5998 50.2513 15.8619 51.03C16.2549 51.1649 16.6668 51.2338 17.0815 51.2338C29.265 51.2438 41.4486 51.2438 53.6321 51.2338C54.6688 51.2338 54.7834 51.1543 55.1957 50.1602L59.7474 39.1825C59.8572 38.9166 59.9743 38.6532 60.1084 38.345H61.3281C60.145 41.8244 58.9888 45.2144 57.8228 48.6342C57.5984 48.6491 57.3959 48.674 57.191 48.6764C56.0738 48.6963 55.9031 48.8728 55.8982 50.0409C55.8982 50.7045 55.8982 51.368 55.8982 52.0291C55.8816 52.1142 55.8571 52.1974 55.825 52.2777C55.5616 52.2777 55.2615 52.3075 54.9615 52.3075H18.4817C18.2719 52.3075 18.0646 52.3075 17.8572 52.3075C17.2694 52.3423 16.8815 52.5983 16.9596 53.1649C17.0791 54.1591 16.5083 54.7207 15.9058 55.3122C15.5326 55.6801 15.2008 56.0901 14.7642 56.5773C14.6593 56.2691 14.6203 56.1026 14.5495 55.9535C14.4899 55.8049 14.3848 55.6799 14.2499 55.5971C14.115 55.5142 13.9574 55.478 13.8007 55.4937C13.6425 55.4933 13.4888 55.547 13.3642 55.6461C13.2395 55.7453 13.151 55.8841 13.1128 56.0404C13.0607 56.218 13.0328 56.4019 13.0298 56.5872C13.0298 57.6211 13.0152 58.655 13.0298 59.6889C13.0298 60.4519 13.3201 60.8172 13.8446 60.8172C14.369 60.8172 14.6496 60.4643 14.6081 59.6789C14.5878 59.4167 14.6313 59.1535 14.7347 58.9124C14.8381 58.6714 14.9982 58.4601 15.2008 58.2971C15.757 57.7876 16.2668 57.2259 16.8351 56.6469C16.899 56.8328 16.9234 57.0304 16.9065 57.2267C16.8897 57.4229 16.8321 57.6133 16.7376 57.7851C16.302 58.6649 16.0604 59.6309 16.0297 60.6157C15.9989 61.6005 16.1798 62.5803 16.5595 63.4865C17.6377 66.1209 19.5965 67.6394 22.4139 67.96C23.8736 68.1072 25.3415 67.7801 26.6078 67.0257C27.874 66.2713 28.8735 65.1281 29.4634 63.7598C29.6464 63.3249 29.783 62.8726 29.9513 62.3954H31.5978C32.6638 65.8897 34.9153 68.0072 38.5694 67.9799C42.1527 67.955 44.3505 65.8425 45.4165 62.3929H47.1533C47.1679 62.5694 47.1679 62.7235 47.1948 62.8726C47.2923 63.397 47.5119 63.6033 48.0266 63.6505C48.1802 63.6629 48.3388 63.6505 48.4949 63.6505C53.1816 63.6505 57.8675 63.6505 62.5526 63.6505C63.1454 63.6505 63.7162 63.6505 63.8625 62.7657C65.7432 67.873 70.4048 68.8672 73.6198 67.3536C74.4679 66.9585 75.2303 66.3953 75.8625 65.6968C76.4948 64.9983 76.9841 64.1785 77.302 63.2852C77.6199 62.392 77.76 61.4432 77.7141 60.4941C77.6682 59.5451 77.4373 58.6149 77.0348 57.7578C75.4419 54.3281 70.6536 52.0565 66.1921 55.3122C66.1921 54.6288 66.1921 54.0074 66.1921 53.3836C66.221 53.2299 66.2863 53.0858 66.3823 52.9636C66.6263 52.566 66.8946 52.1783 67.2093 51.6961C67.3756 51.6703 67.5435 51.6553 67.7118 51.6514C69.4802 51.6514 71.2512 51.7085 73.0221 51.6762C74.8809 51.6439 77.0055 52.8518 77.3519 55.6229C77.4812 56.6742 77.6495 57.7205 77.8154 58.7668C77.9251 59.4627 78.1544 59.6665 78.8569 59.674C79.9766 59.6864 81.0962 59.674 82.272 59.674C82.55 60.4196 83.1379 60.5066 83.8404 60.4767C84.8796 60.432 85.9212 60.4767 86.9628 60.4618C87.7311 60.4618 87.9824 60.1934 87.9946 59.4031C88.0068 58.476 87.9946 57.5465 87.9946 56.6195C87.9946 55.8491 87.7165 55.5707 86.9628 55.5334C86.5822 55.516 86.2017 55.5334 85.6797 55.5334C86.3603 54.2659 86.1505 53.0307 86.1675 51.8253C86.1871 49.4643 86.1675 47.1032 86.1675 44.7422C86.1724 44.2392 86.0665 43.7416 85.8577 43.2858C84.6942 40.6837 83.5526 38.0666 82.4086 35.4595C81.9914 34.5077 81.4329 33.6925 80.4132 33.352C79.9239 33.1796 79.4112 33.0857 78.8935 33.0736C75.4566 33.0488 72.0196 33.091 68.585 33.0488C68.2088 33.0343 67.8337 33.0995 67.4835 33.2401C67.1332 33.3807 66.8154 33.5938 66.5499 33.8658C66.2845 34.1379 66.0774 34.463 65.9415 34.8207C65.8055 35.1784 65.7439 35.561 65.7603 35.9442C65.8067 39.7641 65.7749 43.584 65.7749 47.404V48.331C65.5627 48.2713 65.4212 48.2365 65.2871 48.1893C64.8934 48.0453 64.473 47.9928 64.0569 48.0358C63.6407 48.0788 63.2392 48.2162 62.8819 48.4379C62.7387 48.5488 62.5714 48.623 62.3941 48.6541C61.4623 48.6764 60.5304 48.6541 59.5206 48.6541L62.8429 38.8942C62.8755 38.7283 62.943 38.5716 63.0407 38.4347C63.1384 38.2979 63.264 38.1842 63.4088 38.1014C63.6698 37.9647 63.8479 37.6044 63.9845 37.2962C64.7163 35.7106 65.4066 34.115 66.153 32.4374H67.1288C68.1703 32.4374 69.2119 32.4225 70.2535 32.4374C70.487 32.458 70.7213 32.4097 70.9285 32.2982C71.1358 32.1867 71.3071 32.0167 71.4219 31.8086C71.8757 31.0357 72.3586 30.2801 72.805 29.5022C73.2929 28.6448 72.9831 28.0657 72.0001 28.011C71.5122 27.9862 71.0097 28.011 70.5145 28.011H60.128C59.945 28.011 59.7645 28.011 59.5816 28.011C59.2955 27.9811 59.0081 28.0528 58.7681 28.2141C58.528 28.3753 58.35 28.6162 58.2643 28.8958C57.7277 30.218 57.1447 31.5203 56.5812 32.8301L55.3835 35.6111H54.4614C43.1403 35.6111 31.8199 35.6056 20.5 35.5946C18.6734 35.5928 16.8469 35.5909 15.0203 35.5888C14.0763 35.5888 13.5567 35.8895 13.1616 36.7569C11.6272 40.0325 10.0271 43.2759 8.4464 46.5266C8.32199 46.7752 8.1561 47.0237 8.00975 47.2549L8 48.0501ZM67.3995 49.9788C67.3825 49.683 67.3605 49.4519 67.3605 49.2182C67.3605 44.8689 67.3605 40.5196 67.3605 36.1703C67.3605 36.0361 67.3605 35.9044 67.3605 35.7702C67.3532 35.5009 67.4501 35.2394 67.6304 35.0422C67.8107 34.8451 68.0598 34.7281 68.324 34.7164C68.5308 34.6978 68.7386 34.6928 68.946 34.7015C72.1757 34.7015 75.4029 34.7264 78.6301 34.6866C79.8327 34.6717 80.5571 35.1588 81.0304 36.2896C82.0793 38.7998 83.2257 41.2603 84.2942 43.7679C84.4553 44.1538 84.5382 44.5689 84.5381 44.9882C84.56 47.6923 84.5259 50.3988 84.5625 53.1028C84.5523 53.9468 84.3414 54.7758 83.9478 55.5185C83.7868 55.5309 83.6575 55.5459 83.5307 55.5533C82.5793 55.6105 82.3598 55.8466 82.3476 56.8258C82.3476 57.216 82.3476 57.6087 82.3476 58.0337H79.3058C79.2228 57.477 79.1594 56.955 79.0619 56.4406C78.9009 55.5831 78.8374 54.6835 78.5228 53.8857C77.6007 51.5271 75.8395 50.2323 73.3344 50.1055C72.1391 50.0434 70.9414 50.0757 69.7437 50.0558C68.9826 50.0409 68.2094 50.0061 67.3995 49.9788ZM14.5007 37.8504C14.5593 37.3857 14.7617 37.1769 15.1886 37.2266C15.3966 37.2378 15.6051 37.2378 15.8131 37.2266C28.9593 37.2266 42.1047 37.2316 55.2493 37.2415C56.1031 37.2415 56.5934 36.9706 56.9105 36.1505C57.4398 34.7711 58.0594 33.4166 58.6449 32.0671C58.9766 31.2941 59.3181 30.5262 59.662 29.7359H70.7877L70.1096 30.8393H69.2729C67.0361 30.8393 64.7968 30.8692 62.5575 30.8244C61.7477 30.807 61.2695 31.1003 61.0524 31.8782C61.0187 31.9784 60.9788 32.0764 60.9329 32.1715L53.976 48.925C53.8784 49.1611 53.7638 49.3922 53.6784 49.5786H51.2147H17.0815L10.0339 47.3103L14.5007 37.8405V37.8504ZM70.7243 66.3893C69.6538 66.3922 68.6065 66.0714 67.7151 65.4674C66.8237 64.8635 66.1282 64.0035 65.7169 62.9965C65.3055 61.9896 65.1968 60.8809 65.4044 59.8108C65.612 58.7408 66.1266 57.7577 66.8831 56.9859C67.6395 56.2141 68.6038 55.6884 69.6537 55.4755C70.7036 55.2625 71.792 55.3718 72.7809 55.7895C73.7698 56.2073 74.6147 56.9147 75.2087 57.8221C75.8027 58.7295 76.119 59.7961 76.1176 60.8868C76.1199 61.6094 75.9819 62.3254 75.7118 62.9935C75.4416 63.6616 75.0446 64.2688 74.5434 64.7801C74.0422 65.2914 73.4468 65.6968 72.7914 65.973C72.136 66.2491 71.4335 66.3906 70.7243 66.3893ZM17.6523 60.8744C17.6533 59.783 17.9724 58.7166 18.5691 57.8102C19.1657 56.9039 20.0131 56.1985 21.0038 55.7835C21.9945 55.3685 23.0838 55.2626 24.1336 55.4792C25.1835 55.6958 26.1465 56.2252 26.9007 57.0002C27.6548 57.7752 28.1661 58.7609 28.3696 59.8324C28.5732 60.9038 28.4599 62.0127 28.0441 63.0185C27.6283 64.0243 26.9286 64.8815 26.034 65.4816C25.1393 66.0818 24.0899 66.3977 23.0188 66.3893C21.5903 66.3801 20.2235 65.7946 19.2177 64.761C18.2119 63.7274 17.6491 62.3299 17.6523 60.8744ZM33.1005 60.8744C33.0985 59.7823 33.4149 58.7141 34.0095 57.8054C34.604 56.8967 35.45 56.1883 36.4402 55.7701C37.4304 55.3518 38.5201 55.2425 39.5714 55.456C40.6226 55.6694 41.5879 56.1961 42.345 56.9693C43.1021 57.7424 43.6169 58.7271 43.824 59.7986C44.0312 60.8702 43.9214 61.9802 43.5087 62.9881C43.0959 63.996 42.3987 64.8564 41.5055 65.4601C40.6123 66.0639 39.5632 66.3838 38.4913 66.3794C37.0621 66.3761 35.6925 65.796 34.6821 64.7661C33.6717 63.7362 33.103 62.3405 33.1005 60.8843V60.8744ZM63.8333 59.0253C63.8333 57.8796 63.8333 56.7686 63.8333 55.6602C63.8333 54.753 63.6162 54.5418 62.7088 54.5418C57.918 54.5418 53.128 54.5418 48.3388 54.5418C47.4167 54.5418 47.2045 54.7729 47.1996 55.7298C47.1996 57.1887 47.1996 58.6475 47.1996 60.1064C47.192 60.3044 47.1741 60.5019 47.146 60.6979H45.5677C45.2531 57.3601 43.5797 55.1408 40.4452 53.9876H64.5577C64.5333 54.9898 64.6555 55.9956 64.542 56.9859C64.348 57.6252 64.0368 58.1947 63.8333 59.0253ZM30.1001 60.7128C29.8025 57.3676 28.1267 55.183 25.019 53.9851H36.5887C33.3737 55.1731 31.7491 57.4521 31.4661 60.7128H30.1001ZM62.2373 56.192V62.0077H48.8218V56.192H62.2373ZM61.6745 52.2727H57.5642V50.3764C58.7522 50.2447 60.9793 50.282 61.4671 50.4211C61.5232 51.0325 61.594 51.624 61.6696 52.2652L61.6745 52.2727ZM64.3797 32.497C63.7942 33.8192 63.2381 35.0942 62.6575 36.3592C62.6123 36.4329 62.5516 36.4956 62.48 36.5429C62.4083 36.5901 62.3274 36.6207 62.2428 36.6326C61.8086 36.6699 61.372 36.645 60.8158 36.645L62.5234 32.497H64.3797ZM64.3528 49.6731C64.6765 49.6866 64.984 49.8206 65.2173 50.0496C65.4506 50.2785 65.5935 50.5867 65.6188 50.9157C65.6228 51.087 65.5928 51.2574 65.5308 51.4166C65.4688 51.5759 65.376 51.7209 65.2579 51.8428C65.1397 51.9648 64.9988 52.0613 64.8433 52.1266C64.6878 52.1919 64.521 52.2247 64.3528 52.223C64.1916 52.2266 64.0313 52.1976 63.8812 52.1378C63.7311 52.0779 63.5941 51.9882 63.4782 51.8741C63.3623 51.7599 63.2697 51.6234 63.2059 51.4726C63.1421 51.3217 63.1082 51.1595 63.1063 50.9952C63.1008 50.8245 63.1287 50.6544 63.1883 50.4948C63.248 50.3351 63.3382 50.1892 63.4538 50.0654C63.5693 49.9417 63.7079 49.8426 63.8614 49.774C64.0149 49.7053 64.1803 49.6685 64.348 49.6656L64.3528 49.6731ZM83.9941 57.2011C84.8088 57.1887 85.5894 57.1663 86.3481 57.2011V58.8712H85.1284L83.9868 58.8489L83.9941 57.2011ZM18.5695 55.2799V53.9776H20.9527L18.5695 55.2799Z" fill="#A3A3A3"/>
<path d="M76.8767 44.8861H81.7943C82.0018 44.8948 82.2096 44.8898 82.4164 44.8712C82.5347 44.8683 82.6508 44.8376 82.7555 44.7815C82.8603 44.7254 82.9509 44.6454 83.0203 44.5477C83.0897 44.45 83.1361 44.3373 83.1557 44.2184C83.1753 44.0995 83.1678 43.9776 83.1335 43.8621C83.082 43.6572 83.0101 43.4582 82.9189 43.2682C82.1115 41.3172 81.2772 39.3786 80.5039 37.4152C80.2063 36.6696 79.7722 36.3714 78.9721 36.3863C76.6059 36.4311 74.2374 36.4012 71.8713 36.4037C71.7151 36.4037 71.5566 36.4037 71.4029 36.4037C70.876 36.4534 70.654 36.6647 70.5906 37.1866C70.5747 37.3717 70.5699 37.5576 70.576 37.7433V43.5465C70.576 43.626 70.576 43.7056 70.576 43.795C70.6028 44.6599 70.8199 44.8811 71.6493 44.8886C72.8689 44.8886 74.0886 44.8886 75.3082 44.8886L76.8767 44.8861ZM72.1908 43.2408C72.1689 41.4713 72.1591 39.7614 72.1908 38.0217H76.6864C76.8426 39.1102 76.8035 42.6617 76.6352 43.2408H72.1908ZM81.1748 43.2657H78.4915C78.3403 42.2243 78.3769 38.6181 78.5281 38.0689C78.9306 37.9173 79.0794 38.1683 79.2111 38.4889C79.7356 39.7837 80.2747 41.0736 80.8089 42.3635L81.1748 43.2657Z" fill="#A3A3A3"/>
</svg>
