<svg width="80" height="80" viewBox="0 0 80 80" fill="none" xmlns="http://www.w3.org/2000/svg">
<path d="M80 51.5364C79.7412 51.6913 79.4726 51.8291 79.1959 51.949C77.5348 52.5496 75.8701 53.1322 74.2019 53.6968C73.912 53.7946 73.6082 53.8445 73.3024 53.8445C64.317 53.8517 55.3317 53.8517 46.3463 53.8445C45.5818 53.8445 45.4972 53.7869 45.1932 53.0661L41.8363 45.1073C41.7553 44.9145 41.669 44.7236 41.57 44.5001H40.6705C41.543 47.0227 42.3958 49.4804 43.2557 51.9598C43.4212 51.9706 43.5705 51.9886 43.7216 51.9904C44.5456 52.0048 44.6715 52.1328 44.6751 52.9796C44.6751 53.4607 44.6751 53.9418 44.6751 54.4211C44.6873 54.4828 44.7054 54.5431 44.729 54.6013C44.9233 54.6013 45.1446 54.6229 45.3659 54.6229H72.2698C72.4245 54.6229 72.5774 54.6229 72.7303 54.6229C73.1639 54.6482 73.4499 54.8337 73.3923 55.2446C73.3042 55.9653 73.7251 56.3725 74.1695 56.8014C74.4447 57.068 74.6894 57.3654 75.0114 57.7185C75.0888 57.4951 75.1176 57.3744 75.1697 57.2663C75.2137 57.1586 75.2912 57.0679 75.3907 57.0079C75.4902 56.9478 75.6064 56.9215 75.722 56.9329C75.8386 56.9327 75.952 56.9716 76.0439 57.0435C76.1359 57.1153 76.2012 57.2159 76.2293 57.3293C76.2677 57.458 76.2883 57.5914 76.2905 57.7257C76.2905 58.4753 76.3013 59.2249 76.2905 59.9744C76.2905 60.5276 76.0764 60.7925 75.6896 60.7925C75.3028 60.7925 75.096 60.5366 75.1265 59.9672C75.1415 59.7771 75.1094 59.5863 75.0332 59.4115C74.9569 59.2368 74.8388 59.0836 74.6894 58.9654C74.2792 58.596 73.9032 58.1888 73.4841 57.769C73.437 57.9038 73.419 58.0471 73.4314 58.1893C73.4438 58.3316 73.4863 58.4696 73.556 58.5942C73.8772 59.232 74.0554 59.9324 74.0781 60.6464C74.1008 61.3604 73.9674 62.0707 73.6874 62.7277C72.8922 64.6376 71.4476 65.7386 69.3698 65.971C68.2933 66.0777 67.2106 65.8406 66.2768 65.2936C65.3429 64.7467 64.6058 63.9179 64.1707 62.9259C64.0358 62.6105 63.935 62.2826 63.8109 61.9367H62.5966C61.8104 64.4701 60.15 66.0052 57.4551 65.9854C54.8124 65.9674 53.1915 64.4358 52.4053 61.9349H51.1244C51.1137 62.0628 51.1137 62.1745 51.0939 62.2826C51.0219 62.6628 50.86 62.8124 50.4804 62.8466C50.3671 62.8556 50.2501 62.8466 50.135 62.8466C46.6785 62.8466 43.2227 62.8466 39.7674 62.8466C39.3303 62.8466 38.9093 62.8466 38.8014 62.2051C37.4144 65.9079 33.9765 66.6287 31.6054 65.5314C30.9799 65.2449 30.4176 64.8366 29.9514 64.3302C29.4851 63.8238 29.1242 63.2294 28.8898 62.5818C28.6553 61.9342 28.552 61.2463 28.5858 60.5582C28.6197 59.8702 28.79 59.1958 29.0868 58.5744C30.2616 56.0878 33.793 54.4409 37.0834 56.8014C37.0834 56.3059 37.0834 55.8554 37.0834 55.4031C37.062 55.2917 37.0138 55.1872 36.943 55.0986C36.7631 54.8103 36.5652 54.5292 36.3332 54.1797C36.2105 54.1609 36.0867 54.1501 35.9626 54.1472C34.6583 54.1472 33.3522 54.1887 32.0462 54.1653C30.6754 54.1418 29.1084 55.0175 28.853 57.0266C28.7576 57.7888 28.6335 58.5474 28.5112 59.306C28.4302 59.8105 28.2611 59.9582 27.743 59.9636C26.9173 59.9726 26.0915 59.9636 25.2244 59.9636C25.0193 60.5042 24.5858 60.5672 24.0677 60.5456C23.3013 60.5132 22.5331 60.5456 21.765 60.5348C21.1983 60.5348 21.013 60.3402 21.004 59.7672C20.995 59.0951 21.004 58.4212 21.004 57.7491C21.004 57.1906 21.2091 56.9888 21.765 56.9617C22.0456 56.9491 22.3263 56.9617 22.7112 56.9617C22.2093 56.0428 22.364 55.1473 22.3514 54.2734C22.337 52.5616 22.3514 50.8499 22.3514 49.1381C22.3479 48.7734 22.4259 48.4126 22.5799 48.0822C23.438 46.1957 24.28 44.2983 25.1237 42.4082C25.4313 41.7181 25.8433 41.127 26.5952 40.8802C26.9561 40.7552 27.3343 40.6871 27.716 40.6784C30.2508 40.6604 32.7856 40.691 35.3185 40.6604C35.596 40.6499 35.8726 40.6971 36.1309 40.7991C36.3893 40.901 36.6237 41.0555 36.8194 41.2527C37.0151 41.45 37.1679 41.6857 37.2682 41.945C37.3684 42.2044 37.4139 42.4817 37.4018 42.7595C37.3676 45.529 37.391 48.2984 37.391 51.0679V51.74C37.5475 51.6967 37.6518 51.6715 37.7508 51.6373C38.0411 51.5328 38.3511 51.4948 38.6581 51.526C38.965 51.5571 39.2611 51.6567 39.5246 51.8174C39.6302 51.8979 39.7536 51.9517 39.8844 51.9742C40.5716 51.9904 41.2588 51.9742 42.0036 51.9742L39.5534 44.8983C39.5293 44.778 39.4795 44.6644 39.4075 44.5652C39.3355 44.466 39.2428 44.3835 39.136 44.3235C38.9435 44.2244 38.8122 43.9632 38.7114 43.7397C38.1717 42.5902 37.6626 41.4334 37.1121 40.2171H36.3925C35.6244 40.2171 34.8562 40.2063 34.088 40.2171C33.9159 40.2321 33.743 40.197 33.5902 40.1162C33.4374 40.0353 33.311 39.9121 33.2263 39.7612C32.8917 39.2009 32.5355 38.6531 32.2063 38.0891C31.8465 37.4675 32.075 37.0476 32.8 37.008C33.1598 36.99 33.5303 37.008 33.8955 37.008H41.5556C41.6906 37.008 41.8237 37.008 41.9586 37.008C42.1696 36.9863 42.3815 37.0383 42.5586 37.1552C42.7356 37.2721 42.8668 37.4467 42.9301 37.6495C43.3258 38.6081 43.7558 39.5522 44.1714 40.5018L45.0547 42.5181H45.7347C54.084 42.5181 62.4328 42.5141 70.7812 42.5061C72.1283 42.5048 73.4754 42.5034 74.8225 42.5019C75.5187 42.5019 75.9019 42.7199 76.1934 43.3487C77.3249 45.7236 78.505 48.075 79.6708 50.4318C79.7625 50.612 79.8849 50.7922 79.9928 50.9598L80 51.5364ZM36.1928 52.9346C36.2054 52.7202 36.2216 52.5526 36.2216 52.3832C36.2216 49.23 36.2216 46.0767 36.2216 42.9235C36.2216 42.8262 36.2216 42.7307 36.2216 42.6334C36.227 42.4381 36.1555 42.2486 36.0226 42.1056C35.8896 41.9627 35.7059 41.8779 35.511 41.8694C35.3585 41.8559 35.2053 41.8523 35.0523 41.8586C32.6704 41.8586 30.2904 41.8766 27.9103 41.8478C27.0234 41.837 26.4891 42.1901 26.1401 43.01C25.3665 44.8299 24.521 46.6137 23.7331 48.4318C23.6142 48.7115 23.553 49.0124 23.5532 49.3165C23.537 51.2769 23.5622 53.2391 23.5352 55.1995C23.5427 55.8115 23.6982 56.4124 23.9885 56.9509C24.1073 56.9599 24.2026 56.9707 24.2961 56.9762C24.9977 57.0176 25.1597 57.1888 25.1687 57.8987C25.1687 58.1816 25.1687 58.4663 25.1687 58.7744H27.412C27.4732 58.3708 27.5199 57.9924 27.5919 57.6194C27.7106 56.9978 27.7574 56.3455 27.9895 55.7671C28.6695 54.0572 29.9683 53.1184 31.8159 53.0265C32.6974 52.9814 33.5807 53.0049 34.464 52.9905C35.0253 52.9796 35.5956 52.9544 36.1928 52.9346ZM75.2057 44.1415C75.1625 43.8046 75.0132 43.6532 74.6984 43.6893C74.545 43.6974 74.3912 43.6974 74.2378 43.6893C64.5425 43.6893 54.8478 43.6929 45.1536 43.7001C44.524 43.7001 44.1624 43.5037 43.9285 42.9091C43.5381 41.9091 43.0812 40.927 42.6494 39.9486C42.4048 39.3883 42.1529 38.8315 41.8992 38.2585H33.6941L34.1942 39.0585H34.8112C36.4609 39.0585 38.1124 39.0801 39.7638 39.0477C40.3611 39.0351 40.7137 39.2477 40.8738 39.8117C40.8987 39.8844 40.9281 39.9554 40.962 40.0243L46.0927 52.1706C46.1646 52.3418 46.2492 52.5094 46.3122 52.6445H48.1291H73.3024L78.5 51L75.2057 44.1343V44.1415ZM33.7408 64.8322C34.5303 64.8344 35.3027 64.6018 35.9601 64.1639C36.6176 63.726 37.1304 63.1026 37.4338 62.3725C37.7372 61.6424 37.8174 60.8386 37.6643 60.0629C37.5112 59.2871 37.1316 58.5743 36.5737 58.0148C36.0158 57.4552 35.3047 57.0741 34.5304 56.9197C33.7561 56.7653 32.9534 56.8446 32.2241 57.1474C31.4948 57.4503 30.8716 57.9631 30.4336 58.621C29.9955 59.2789 29.7622 60.0522 29.7633 60.8429C29.7616 61.3668 29.8633 61.8859 30.0626 62.3703C30.2618 62.8547 30.5546 63.2949 30.9242 63.6656C31.2938 64.0363 31.733 64.3302 32.2163 64.5304C32.6997 64.7306 33.2178 64.8332 33.7408 64.8322ZM72.8814 60.8339C72.8807 60.0427 72.6454 59.2695 72.2053 58.6124C71.7653 57.9553 71.1403 57.4439 70.4097 57.143C69.6791 56.8421 68.8757 56.7654 68.1014 56.9224C67.3272 57.0794 66.6169 57.4632 66.0608 58.0251C65.5046 58.587 65.1275 59.3017 64.9774 60.0785C64.8273 60.8553 64.9108 61.6592 65.2175 62.3884C65.5242 63.1176 66.0401 63.7391 66.6999 64.1742C67.3597 64.6093 68.1337 64.8383 68.9236 64.8322C69.9772 64.8256 70.9852 64.4011 71.7269 63.6517C72.4687 62.9024 72.8838 61.8892 72.8814 60.8339ZM61.4884 60.8339C61.4898 60.0421 61.2565 59.2678 60.818 58.6089C60.3795 57.9501 59.7556 57.4365 59.0253 57.1333C58.2951 56.8301 57.4914 56.7508 56.7161 56.9056C55.9408 57.0604 55.2289 57.4422 54.6705 58.0027C54.1122 58.5632 53.7326 59.2772 53.5798 60.054C53.427 60.8309 53.5079 61.6357 53.8124 62.3664C54.1168 63.0971 54.6309 63.7209 55.2897 64.1586C55.9485 64.5963 56.7221 64.8282 57.5127 64.825C58.5667 64.8226 59.5768 64.4021 60.3219 63.6554C61.0671 62.9088 61.4865 61.8968 61.4884 60.8411V60.8339ZM38.823 59.4933C38.823 58.6627 38.823 57.8573 38.823 57.0536C38.823 56.396 38.9831 56.2428 39.6523 56.2428C43.1855 56.2428 46.7181 56.2428 50.2501 56.2428C50.9302 56.2428 51.0867 56.4104 51.0903 57.1041C51.0903 58.1618 51.0903 59.2195 51.0903 60.2772C51.0959 60.4207 51.1091 60.5638 51.1298 60.706H52.2938C52.5259 58.2861 53.76 56.677 56.0717 55.841H38.2887C38.3067 56.5676 38.2166 57.2968 38.3003 58.0148C38.4434 58.4783 38.6729 58.8912 38.823 59.4933ZM63.7012 60.7168C63.9207 58.2915 65.1566 56.7077 67.4485 55.8392H58.9159C61.2869 56.7005 62.4851 58.3528 62.6937 60.7168H63.7012ZM40 57.4392V61.6556H49.8939V57.4392H40ZM40.4151 54.5977H43.4464V53.2229C42.5703 53.1274 40.9278 53.1544 40.568 53.2553C40.5266 53.6986 40.4744 54.1274 40.4187 54.5923L40.4151 54.5977ZM38.42 40.2604C38.8518 41.2189 39.2619 42.1433 39.6901 43.0604C39.7235 43.1139 39.7682 43.1593 39.821 43.1936C39.8739 43.2278 39.9336 43.25 39.9959 43.2586C40.3161 43.2857 40.6381 43.2677 41.0483 43.2677L39.789 40.2604H38.42ZM38.4398 52.713C38.2011 52.7228 37.9743 52.8199 37.8022 52.9859C37.6302 53.1519 37.5248 53.3753 37.5061 53.6139C37.5032 53.7381 37.5253 53.8616 37.571 53.9771C37.6168 54.0925 37.6852 54.1976 37.7723 54.2861C37.8594 54.3745 37.9634 54.4445 38.0781 54.4918C38.1928 54.5392 38.3158 54.5629 38.4398 54.5617C38.5587 54.5643 38.6769 54.5433 38.7876 54.4999C38.8983 54.4564 38.9993 54.3915 39.0848 54.3087C39.1703 54.2259 39.2386 54.127 39.2856 54.0176C39.3327 53.9083 39.3577 53.7906 39.3591 53.6716C39.3632 53.5478 39.3426 53.4244 39.2986 53.3087C39.2546 53.193 39.1881 53.0872 39.1028 52.9974C39.0176 52.9077 38.9154 52.8359 38.8022 52.7861C38.689 52.7364 38.567 52.7096 38.4434 52.7076L38.4398 52.713ZM23.9543 58.1708C23.3535 58.1618 22.7778 58.1456 22.2183 58.1708V59.3816H23.1178L23.9597 59.3654L23.9543 58.1708ZM72.205 56.7779V55.8338H70.4474L72.205 56.7779Z" fill="#A3A3A3"/>
<path d="M29.2034 49.2424H25.5767C25.4237 49.2487 25.2705 49.2451 25.1179 49.2316C25.0307 49.2295 24.9451 49.2073 24.8678 49.1666C24.7906 49.1259 24.7237 49.0679 24.6725 48.9971C24.6213 48.9263 24.5872 48.8446 24.5727 48.7584C24.5582 48.6721 24.5638 48.5837 24.589 48.5001C24.627 48.3515 24.6801 48.2072 24.7473 48.0694C25.3428 46.655 25.9581 45.2495 26.5283 43.826C26.7478 43.2855 27.068 43.0693 27.6581 43.0801C29.4031 43.1125 31.1499 43.0909 32.8949 43.0927C33.0101 43.0927 33.127 43.0927 33.2404 43.0927C33.6289 43.1287 33.7926 43.2819 33.8394 43.6603C33.8511 43.7945 33.8547 43.9293 33.8502 44.0639V48.2712C33.8502 48.3289 33.8502 48.3865 33.8502 48.4514C33.8304 49.0785 33.6703 49.2388 33.0587 49.2442C32.1592 49.2442 31.2597 49.2442 30.3602 49.2442L29.2034 49.2424ZM32.6593 48.0496C32.6755 46.7667 32.6827 45.527 32.6593 44.2657H29.3438C29.2286 45.0549 29.2574 47.6298 29.3815 48.0496H32.6593ZM26.0336 48.0676H28.0125C28.124 47.3126 28.0971 44.6981 27.9855 44.2999C27.6887 44.19 27.5789 44.372 27.4818 44.6044C27.095 45.5432 26.6974 46.4784 26.3035 47.4135L26.0336 48.0676Z" fill="#A3A3A3"/>
<path d="M0 21.0276C0.201766 21.1451 0.411195 21.2497 0.626954 21.3406C1.92202 21.7962 3.2199 22.2382 4.52058 22.6665C4.74656 22.7407 4.98342 22.7786 5.22187 22.7786C12.2274 22.7841 19.2329 22.7841 26.2384 22.7786C26.8346 22.7786 26.9005 22.7349 27.1375 22.1881L29.7548 16.1504C29.8179 16.0041 29.8852 15.8592 29.9624 15.6897H30.6637C29.9834 17.6034 29.3186 19.4679 28.6481 21.3488C28.5191 21.357 28.4027 21.3707 28.2848 21.372C27.6424 21.383 27.5443 21.48 27.5415 22.1225C27.5415 22.4875 27.5415 22.8524 27.5415 23.216C27.5319 23.2628 27.5178 23.3086 27.4994 23.3527C27.3479 23.3527 27.1754 23.3691 27.0029 23.3691H6.02697C5.90635 23.3691 5.78712 23.3691 5.6679 23.3691C5.32988 23.3883 5.10686 23.5291 5.15175 23.8407C5.22048 24.3875 4.89226 24.6964 4.54582 25.0217C4.33122 25.224 4.14047 25.4496 3.88941 25.7175C3.8291 25.548 3.80665 25.4564 3.76597 25.3744C3.73169 25.2927 3.67127 25.224 3.59369 25.1784C3.51611 25.1328 3.42553 25.1129 3.33539 25.1215C3.24445 25.1213 3.15608 25.1509 3.08439 25.2054C3.01269 25.2599 2.9618 25.3362 2.93985 25.4222C2.9099 25.5199 2.89385 25.6211 2.89216 25.723C2.89216 26.2916 2.88375 26.8602 2.89216 27.4289C2.89216 27.8485 3.05907 28.0495 3.36063 28.0495C3.66219 28.0495 3.82349 27.8554 3.79965 27.4234C3.78801 27.2792 3.81301 27.1344 3.87246 27.0018C3.9319 26.8693 4.02396 26.753 4.14048 26.6634C4.46027 26.3832 4.75341 26.0743 5.08021 25.7558C5.11694 25.858 5.13093 25.9667 5.12126 26.0747C5.11159 26.1826 5.07847 26.2873 5.02411 26.3818C4.77368 26.8657 4.63475 27.397 4.61706 27.9386C4.59938 28.4803 4.70336 29.0192 4.92173 29.5175C5.54168 30.9665 6.66796 31.8017 8.28797 31.978C9.1273 32.0589 9.97138 31.8791 10.6995 31.4641C11.4275 31.0492 12.0023 30.4205 12.3415 29.6679C12.4467 29.4287 12.5252 29.1799 12.622 28.9175H13.5688C14.1817 30.8394 15.4763 32.004 17.5774 31.9889C19.6378 31.9753 20.9016 30.8134 21.5145 28.9161H22.5131C22.5216 29.0131 22.5216 29.0979 22.537 29.1799C22.5931 29.4683 22.7193 29.5818 23.0153 29.6078C23.1036 29.6146 23.1948 29.6078 23.2846 29.6078C25.9794 29.6078 28.6738 29.6078 31.3678 29.6078C31.7086 29.6078 32.0368 29.6078 32.121 29.1211C33.2024 31.9302 35.8827 32.4769 37.7314 31.6445C38.2191 31.4272 38.6574 31.1174 39.021 30.7332C39.3845 30.3491 39.6659 29.8982 39.8487 29.4069C40.0314 28.9156 40.112 28.3937 40.0856 27.8718C40.0592 27.3498 39.9264 26.8382 39.695 26.3668C38.7791 24.4804 36.0258 23.2311 33.4604 25.0217C33.4604 24.6458 33.4604 24.3041 33.4604 23.961C33.4771 23.8765 33.5146 23.7972 33.5698 23.73C33.7101 23.5113 33.8644 23.298 34.0453 23.0329C34.141 23.0187 34.2375 23.0104 34.3343 23.0083C35.3511 23.0083 36.3694 23.0397 37.3877 23.0219C38.4565 23.0042 39.6782 23.6685 39.8773 25.1926C39.9517 25.7708 40.0485 26.3463 40.1438 26.9218C40.207 27.3045 40.3388 27.4166 40.7427 27.4207C41.3865 27.4275 42.0303 27.4207 42.7064 27.4207C42.8663 27.8308 43.2043 27.8786 43.6082 27.8622C44.2058 27.8376 44.8047 27.8622 45.4036 27.854C45.8454 27.854 45.9899 27.7064 45.9969 27.2717C46.0039 26.7618 45.9969 26.2506 45.9969 25.7407C45.9969 25.317 45.837 25.1639 45.4036 25.1434C45.1848 25.1338 44.966 25.1434 44.6658 25.1434C45.0571 24.4463 44.9365 23.7669 44.9463 23.1039C44.9576 21.8054 44.9463 20.5068 44.9463 19.2082C44.9491 18.9316 44.8883 18.6579 44.7682 18.4072C44.0992 16.976 43.4427 15.5366 42.7849 14.1027C42.5451 13.5792 42.2239 13.1309 41.6376 12.9436C41.3562 12.8488 41.0614 12.7971 40.7638 12.7905C38.7875 12.7768 36.8112 12.8001 34.8364 12.7768C34.6201 12.7689 34.4044 12.8047 34.203 12.8821C34.0016 12.9594 33.8188 13.0766 33.6662 13.2262C33.5136 13.3758 33.3945 13.5547 33.3163 13.7514C33.2382 13.9481 33.2027 14.1585 33.2122 14.3693C33.2388 16.4703 33.2206 18.5712 33.2206 20.6722V21.182C33.0986 21.1492 33.0172 21.1301 32.9401 21.1041C32.7137 21.0249 32.472 20.996 32.2327 21.0197C31.9934 21.0433 31.7625 21.1189 31.5571 21.2408C31.4748 21.3019 31.3785 21.3426 31.2766 21.3597C30.7408 21.372 30.205 21.3597 29.6243 21.3597L31.5347 15.9918C31.5534 15.9006 31.5922 15.8144 31.6484 15.7391C31.7046 15.6638 31.7768 15.6013 31.8601 15.5558C32.0102 15.4806 32.1125 15.2824 32.1911 15.1129C32.6119 14.2408 33.0088 13.3632 33.438 12.4406H33.999C34.5979 12.4406 35.1969 12.4324 35.7958 12.4406C35.93 12.4519 36.0648 12.4253 36.1839 12.364C36.3031 12.3027 36.4016 12.2092 36.4676 12.0947C36.7285 11.6696 37.0062 11.2541 37.2629 10.8262C37.5434 10.3546 37.3653 10.0361 36.8 10.0061C36.5195 9.99241 36.2306 10.0061 35.9459 10.0061H29.9736C29.8684 10.0061 29.7646 10.0061 29.6594 10.0061C29.4949 9.98961 29.3297 10.0291 29.1916 10.1177C29.0536 10.2064 28.9513 10.3389 28.902 10.4927C28.5934 11.2199 28.2582 11.9362 27.9342 12.6565L27.2455 14.1861H26.7153C20.2057 14.1861 13.6964 14.1831 7.1875 14.177C6.13722 14.176 5.08695 14.175 4.03669 14.1738C3.49388 14.1738 3.19512 14.3392 2.9679 14.8163C2.08566 16.6179 1.16556 18.4017 0.256678 20.1897C0.185143 20.3263 0.0897604 20.463 0.00560701 20.5902L0 21.0276ZM34.1547 22.0883C34.1449 21.9257 34.1323 21.7985 34.1323 21.67C34.1323 19.2779 34.1323 16.8858 34.1323 14.4937C34.1323 14.4199 34.1323 14.3474 34.1323 14.2736C34.1281 14.1255 34.1838 13.9817 34.2875 13.8732C34.3911 13.7648 34.5344 13.7004 34.6863 13.694C34.8052 13.6838 34.9247 13.681 35.044 13.6858C36.901 13.6858 38.7567 13.6995 40.6123 13.6776C41.3038 13.6694 41.7204 13.9373 41.9925 14.5593C42.5956 15.9399 43.2548 17.2931 43.8691 18.6724C43.9618 18.8846 44.0095 19.1129 44.0094 19.3435C44.022 20.8307 44.0024 22.3193 44.0234 23.8065C44.0176 24.2708 43.8963 24.7267 43.67 25.1352C43.5774 25.142 43.5031 25.1502 43.4301 25.1543C42.8831 25.1858 42.7569 25.3156 42.7499 25.8542C42.7499 26.0688 42.7499 26.2848 42.7499 26.5185H41.0008C40.9531 26.2123 40.9167 25.9253 40.8606 25.6423C40.768 25.1707 40.7315 24.6759 40.5506 24.2371C40.0204 22.9399 39.0077 22.2277 37.5673 22.158C36.88 22.1239 36.1913 22.1416 35.5026 22.1307C35.065 22.1225 34.6204 22.1034 34.1547 22.0883ZM3.73793 15.4177C3.77159 15.1621 3.888 15.0473 4.13346 15.0746C4.25306 15.0808 4.37293 15.0808 4.49253 15.0746C12.0516 15.0746 19.6102 15.0774 27.1684 15.0828C27.6593 15.0828 27.9412 14.9338 28.1235 14.4828C28.4279 13.7241 28.7842 12.9791 29.1208 12.2369C29.3115 11.8118 29.5079 11.3894 29.7057 10.9547H36.1029L35.713 11.5616H35.2319C33.9457 11.5616 32.6581 11.578 31.3706 11.5534C30.9049 11.5439 30.63 11.7052 30.5052 12.133C30.4858 12.1881 30.4628 12.242 30.4364 12.2943L26.4362 21.5087C26.3801 21.6386 26.3142 21.7657 26.2651 21.8682H24.8485H5.22187L1.16949 20.6207L3.73793 15.4123V15.4177ZM36.0665 31.1141C35.4509 31.1157 34.8487 30.9393 34.3362 30.6071C33.8236 30.2749 33.4237 29.8019 33.1872 29.2481C32.9507 28.6943 32.8881 28.0845 33.0075 27.496C33.1269 26.9075 33.4228 26.3667 33.8578 25.9422C34.2927 25.5178 34.8472 25.2286 35.4509 25.1115C36.0546 24.9944 36.6804 25.0545 37.249 25.2843C37.8176 25.514 38.3035 25.9031 38.645 26.4021C38.9866 26.9012 39.1685 27.4879 39.1676 28.0877C39.1689 28.4852 39.0896 28.8789 38.9343 29.2464C38.7789 29.6139 38.5506 29.9479 38.2625 30.2291C37.9743 30.5103 37.6319 30.7332 37.2551 30.8851C36.8782 31.037 36.4743 31.1148 36.0665 31.1141ZM5.55009 28.0809C5.55066 27.4807 5.73413 26.8941 6.07721 26.3956C6.4203 25.8971 6.90756 25.5092 7.47719 25.2809C8.04683 25.0527 8.67319 24.9944 9.27684 25.1136C9.8805 25.2327 10.4342 25.5238 10.8679 25.9501C11.3015 26.3764 11.5955 26.9185 11.7125 27.5078C11.8296 28.0971 11.7644 28.707 11.5253 29.2602C11.2862 29.8133 10.884 30.2848 10.3695 30.6149C9.85511 30.945 9.2517 31.1187 8.63581 31.1141C7.81441 31.1091 7.02852 30.787 6.4502 30.2185C5.87187 29.6501 5.54822 28.8814 5.55009 28.0809ZM14.4328 28.0809C14.4317 27.4802 14.6136 26.8928 14.9554 26.393C15.2973 25.8932 15.7838 25.5036 16.3531 25.2735C16.9225 25.0435 17.5491 24.9834 18.1535 25.1008C18.758 25.2182 19.3131 25.5079 19.7484 25.9331C20.1837 26.3583 20.4797 26.8999 20.5988 27.4893C20.7179 28.0786 20.6548 28.6891 20.4175 29.2435C20.1801 29.7978 19.7793 30.271 19.2657 30.6031C18.7521 30.9351 18.1488 31.1111 17.5325 31.1086C16.7107 31.1068 15.9232 30.7878 15.3422 30.2214C14.7613 29.6549 14.4342 28.8873 14.4328 28.0864V28.0809ZM32.1041 27.0639C32.1041 26.4338 32.1041 25.8227 32.1041 25.2131C32.1041 24.7142 31.9793 24.598 31.4575 24.598C28.7028 24.598 25.9486 24.598 23.1948 24.598C22.6646 24.598 22.5426 24.7251 22.5398 25.2514C22.5398 26.0538 22.5398 26.8561 22.5398 27.6585C22.5354 27.7674 22.5251 27.876 22.5089 27.9839H21.6014C21.4205 26.1481 20.4583 24.9274 18.656 24.2932H32.5207C32.5066 24.8444 32.5769 25.3976 32.5117 25.9422C32.4001 26.2939 32.2211 26.6071 32.1041 27.0639ZM12.7076 27.9921C12.5364 26.1522 11.5729 24.9507 9.78594 24.2918H16.4385C14.5899 24.9452 13.6557 26.1987 13.493 27.9921H12.7076ZM31.1864 25.5056V28.7042H23.4725V25.5056H31.1864ZM30.8628 23.35H28.4994V22.307C29.1825 22.2346 30.4631 22.2551 30.7436 22.3316C30.7759 22.6679 30.8165 22.9932 30.86 23.3459L30.8628 23.35ZM32.4183 12.4734C32.0817 13.2006 31.7619 13.9018 31.4281 14.5976C31.402 14.6381 31.3672 14.6726 31.326 14.6986C31.2848 14.7246 31.2382 14.7414 31.1896 14.7479C30.94 14.7684 30.6889 14.7548 30.3691 14.7548L31.3509 12.4734H32.4183ZM32.4029 21.9202C32.589 21.9276 32.7658 22.0013 32.9 22.1273C33.0341 22.2532 33.1162 22.4227 33.1308 22.6036C33.1331 22.6979 33.1159 22.7916 33.0802 22.8792C33.0446 22.9668 32.9912 23.0465 32.9233 23.1136C32.8554 23.1806 32.7743 23.2337 32.6849 23.2696C32.5955 23.3056 32.4996 23.3236 32.4029 23.3226C32.3102 23.3246 32.218 23.3087 32.1317 23.2758C32.0454 23.2428 31.9666 23.1935 31.9 23.1307C31.8333 23.0679 31.7801 22.9929 31.7434 22.9099C31.7067 22.827 31.6872 22.7377 31.6861 22.6474C31.683 22.5535 31.699 22.4599 31.7333 22.3721C31.7676 22.2843 31.8195 22.2041 31.8859 22.136C31.9524 22.0679 32.0321 22.0134 32.1203 21.9757C32.2086 21.9379 32.3037 21.9177 32.4001 21.9161L32.4029 21.9202ZM43.6966 26.0606C44.1651 26.0538 44.6139 26.0415 45.0501 26.0606V26.9792H44.3488L43.6924 26.9669L43.6966 26.0606ZM6.07747 25.004V24.2877H7.44781L6.07747 25.004Z" fill="#A3A3A3"/>
<path d="M39.6041 19.2874H42.4318C42.551 19.2921 42.6705 19.2894 42.7894 19.2792C42.8574 19.2776 42.9242 19.2607 42.9844 19.2298C43.0447 19.199 43.0968 19.155 43.1367 19.1012C43.1766 19.0475 43.2032 18.9855 43.2145 18.9201C43.2258 18.8547 43.2215 18.7877 43.2018 18.7242C43.1722 18.6115 43.1308 18.502 43.0783 18.3975C42.6141 17.3245 42.1344 16.2582 41.6898 15.1784C41.5186 14.7683 41.269 14.6043 40.8089 14.6125C39.4484 14.6371 38.0865 14.6207 36.726 14.622C36.6362 14.622 36.545 14.622 36.4567 14.622C36.1537 14.6494 36.0261 14.7656 35.9896 15.0526C35.9805 15.1544 35.9777 15.2567 35.9812 15.3588V18.5506C35.9812 18.5943 35.9812 18.6381 35.9812 18.6873C35.9966 19.163 36.1214 19.2846 36.5983 19.2887C37.2996 19.2887 38.0009 19.2887 38.7022 19.2887L39.6041 19.2874ZM36.9097 18.3824C36.8971 17.4092 36.8915 16.4688 36.9097 15.5119H39.4947C39.5845 16.1106 39.562 18.064 39.4652 18.3824H36.9097ZM42.0755 18.3961H40.5326C40.4457 17.8234 40.4667 15.84 40.5537 15.5379C40.7851 15.4545 40.8707 15.5926 40.9464 15.7689C41.248 16.4811 41.5579 17.1905 41.8651 17.8999L42.0755 18.3961Z" fill="#A3A3A3"/>
</svg>
