<svg width="80" height="80" viewBox="0 0 80 80" fill="none" xmlns="http://www.w3.org/2000/svg">
<path d="M59 51.5364C58.7412 51.6913 58.4726 51.8291 58.1959 51.949C56.5348 52.5496 54.8701 53.1322 53.2019 53.6968C52.912 53.7946 52.6082 53.8445 52.3024 53.8445C43.317 53.8517 34.3317 53.8517 25.3463 53.8445C24.5818 53.8445 24.4972 53.7869 24.1932 53.0661L20.8363 45.1073C20.7553 44.9145 20.669 44.7236 20.57 44.5001H19.6705C20.543 47.0227 21.3958 49.4804 22.2557 51.9598C22.4212 51.9706 22.5705 51.9886 22.7216 51.9904C23.5456 52.0048 23.6715 52.1328 23.6751 52.9796C23.6751 53.4607 23.6751 53.9418 23.6751 54.4211C23.6873 54.4828 23.7054 54.5431 23.729 54.6013C23.9233 54.6013 24.1446 54.6229 24.3659 54.6229H51.2698C51.4245 54.6229 51.5774 54.6229 51.7303 54.6229C52.1639 54.6482 52.4499 54.8337 52.3923 55.2446C52.3042 55.9653 52.7251 56.3725 53.1695 56.8014C53.4447 57.068 53.6894 57.3654 54.0114 57.7185C54.0888 57.4951 54.1176 57.3744 54.1697 57.2663C54.2137 57.1586 54.2912 57.0679 54.3907 57.0079C54.4902 56.9478 54.6064 56.9215 54.722 56.9329C54.8386 56.9327 54.952 56.9716 55.0439 57.0435C55.1359 57.1153 55.2012 57.2159 55.2293 57.3293C55.2677 57.458 55.2883 57.5914 55.2905 57.7257C55.2905 58.4753 55.3013 59.2249 55.2905 59.9744C55.2905 60.5276 55.0764 60.7925 54.6896 60.7925C54.3028 60.7925 54.096 60.5366 54.1265 59.9672C54.1415 59.7771 54.1094 59.5863 54.0332 59.4115C53.9569 59.2368 53.8388 59.0836 53.6894 58.9654C53.2792 58.596 52.9032 58.1888 52.4841 57.769C52.437 57.9038 52.419 58.0471 52.4314 58.1893C52.4438 58.3316 52.4863 58.4696 52.556 58.5942C52.8772 59.232 53.0554 59.9324 53.0781 60.6464C53.1008 61.3604 52.9674 62.0707 52.6874 62.7277C51.8922 64.6376 50.4476 65.7386 48.3698 65.971C47.2933 66.0777 46.2106 65.8406 45.2768 65.2936C44.3429 64.7467 43.6058 63.9179 43.1707 62.9259C43.0358 62.6105 42.935 62.2826 42.8109 61.9367H41.5966C40.8104 64.4701 39.15 66.0052 36.4551 65.9854C33.8124 65.9674 32.1915 64.4358 31.4053 61.9349H30.1244C30.1137 62.0628 30.1137 62.1745 30.0939 62.2826C30.0219 62.6628 29.86 62.8124 29.4804 62.8466C29.3671 62.8556 29.2501 62.8466 29.135 62.8466C25.6785 62.8466 22.2227 62.8466 18.7674 62.8466C18.3303 62.8466 17.9093 62.8466 17.8014 62.2051C16.4144 65.9079 12.9765 66.6287 10.6054 65.5314C9.97991 65.2449 9.41763 64.8366 8.95137 64.3302C8.48511 63.8238 8.12422 63.2294 7.88977 62.5818C7.65532 61.9342 7.552 61.2463 7.58583 60.5582C7.61967 59.8702 7.78999 59.1958 8.08685 58.5744C9.26159 56.0878 12.793 54.4409 16.0834 56.8014C16.0834 56.3059 16.0834 55.8554 16.0834 55.4031C16.062 55.2917 16.0138 55.1872 15.943 55.0986C15.7631 54.8103 15.5652 54.5292 15.3332 54.1797C15.2105 54.1609 15.0867 54.1501 14.9626 54.1472C13.6583 54.1472 12.3522 54.1887 11.0462 54.1653C9.67535 54.1418 8.10844 55.0175 7.85298 57.0266C7.75764 57.7888 7.6335 58.5474 7.51117 59.306C7.43021 59.8105 7.26111 59.9582 6.743 59.9636C5.91727 59.9726 5.09154 59.9636 4.22443 59.9636C4.01934 60.5042 3.58578 60.5672 3.06768 60.5456C2.30131 60.5132 1.53313 60.5456 0.764965 60.5348C0.198284 60.5348 0.0129929 60.3402 0.0039978 59.7672C-0.00499725 59.0951 0.0039978 58.4212 0.0039978 57.7491C0.0039978 57.1906 0.209076 56.9888 0.764965 56.9617C1.04561 56.9491 1.32625 56.9617 1.71124 56.9617C1.20932 56.0428 1.36403 55.1473 1.35144 54.2734C1.33704 52.5616 1.35144 50.8499 1.35144 49.1381C1.34785 48.7734 1.42593 48.4126 1.57991 48.0822C2.43803 46.1957 3.27995 44.2983 4.12368 42.4082C4.43131 41.7181 4.84327 41.127 5.59525 40.8802C5.95615 40.7552 6.33425 40.6871 6.71602 40.6784C9.2508 40.6604 11.7856 40.691 14.3185 40.6604C14.596 40.6499 14.8726 40.6971 15.1309 40.7991C15.3893 40.901 15.6237 41.0555 15.8194 41.2527C16.0151 41.45 16.1679 41.6857 16.2682 41.945C16.3684 42.2044 16.4139 42.4817 16.4018 42.7595C16.3676 45.529 16.391 48.2984 16.391 51.0679V51.74C16.5475 51.6967 16.6518 51.6715 16.7508 51.6373C17.0411 51.5328 17.3511 51.4948 17.6581 51.526C17.965 51.5571 18.2611 51.6567 18.5246 51.8174C18.6302 51.8979 18.7536 51.9517 18.8844 51.9742C19.5716 51.9904 20.2588 51.9742 21.0036 51.9742L18.5534 44.8983C18.5293 44.778 18.4795 44.6644 18.4075 44.5652C18.3355 44.466 18.2428 44.3835 18.136 44.3235C17.9435 44.2244 17.8122 43.9632 17.7114 43.7397C17.1717 42.5902 16.6626 41.4334 16.1121 40.2171H15.3925C14.6244 40.2171 13.8562 40.2063 13.088 40.2171C12.9159 40.2321 12.743 40.197 12.5902 40.1162C12.4374 40.0353 12.311 39.9121 12.2263 39.7612C11.8917 39.2009 11.5355 38.6531 11.2063 38.0891C10.8465 37.4675 11.075 37.0476 11.8 37.008C12.1598 36.99 12.5303 37.008 12.8955 37.008H20.5556C20.6906 37.008 20.8237 37.008 20.9586 37.008C21.1696 36.9863 21.3815 37.0383 21.5586 37.1552C21.7356 37.2721 21.8668 37.4467 21.9301 37.6495C22.3258 38.6081 22.7558 39.5522 23.1714 40.5018L24.0547 42.5181H24.7347C33.084 42.5181 41.4328 42.5141 49.7812 42.5061C51.1283 42.5048 52.4754 42.5034 53.8225 42.5019C54.5187 42.5019 54.9019 42.7199 55.1934 43.3487C56.3249 45.7236 57.505 48.075 58.6708 50.4318C58.7625 50.612 58.8849 50.7922 58.9928 50.9598L59 51.5364ZM15.1928 52.9346C15.2054 52.7202 15.2216 52.5526 15.2216 52.3832C15.2216 49.23 15.2216 46.0767 15.2216 42.9235C15.2216 42.8262 15.2216 42.7307 15.2216 42.6334C15.227 42.4381 15.1555 42.2486 15.0226 42.1056C14.8896 41.9627 14.7059 41.8779 14.511 41.8694C14.3585 41.8559 14.2053 41.8523 14.0523 41.8586C11.6704 41.8586 9.29037 41.8766 6.91031 41.8478C6.02341 41.837 5.48911 42.1901 5.1401 43.01C4.36654 44.8299 3.52102 46.6137 2.73306 48.4318C2.61423 48.7115 2.55304 49.0124 2.55316 49.3165C2.53697 51.2769 2.56216 53.2391 2.53518 55.1995C2.54266 55.8115 2.69823 56.4124 2.98852 56.9509C3.10725 56.9599 3.20259 56.9707 3.29614 56.9762C3.99775 57.0176 4.15966 57.1888 4.16866 57.8987C4.16866 58.1816 4.16866 58.4663 4.16866 58.7744H6.41199C6.47316 58.3708 6.51993 57.9924 6.59189 57.6194C6.71062 56.9978 6.7574 56.3455 6.98947 55.7671C7.66949 54.0572 8.96835 53.1184 10.8159 53.0265C11.6974 52.9814 12.5807 53.0049 13.464 52.9905C14.0253 52.9796 14.5956 52.9544 15.1928 52.9346ZM54.2057 44.1415C54.1625 43.8046 54.0132 43.6532 53.6984 43.6893C53.545 43.6974 53.3912 43.6974 53.2378 43.6893C43.5425 43.6893 33.8478 43.6929 24.1536 43.7001C23.524 43.7001 23.1624 43.5037 22.9285 42.9091C22.5381 41.9091 22.0812 40.927 21.6494 39.9486C21.4048 39.3883 21.1529 38.8315 20.8992 38.2585H12.6941L13.1942 39.0585H13.8112C15.4609 39.0585 17.1124 39.0801 18.7638 39.0477C19.3611 39.0351 19.7137 39.2477 19.8738 39.8117C19.8987 39.8844 19.9281 39.9554 19.962 40.0243L25.0927 52.1706C25.1646 52.3418 25.2492 52.5094 25.3122 52.6445H27.1291H52.3024L57.5 51L54.2057 44.1343V44.1415ZM12.7408 64.8322C13.5303 64.8344 14.3027 64.6018 14.9601 64.1639C15.6176 63.726 16.1304 63.1026 16.4338 62.3725C16.7372 61.6424 16.8174 60.8386 16.6643 60.0629C16.5112 59.2871 16.1316 58.5743 15.5737 58.0148C15.0158 57.4552 14.3047 57.0741 13.5304 56.9197C12.7561 56.7653 11.9534 56.8446 11.2241 57.1474C10.4948 57.4503 9.87164 57.9631 9.43356 58.621C8.99548 59.2789 8.7622 60.0522 8.76327 60.8429C8.76161 61.3668 8.86332 61.8859 9.06256 62.3703C9.2618 62.8547 9.55463 63.2949 9.92424 63.6656C10.2938 64.0363 10.733 64.3302 11.2163 64.5304C11.6997 64.7306 12.2178 64.8332 12.7408 64.8322ZM51.8814 60.8339C51.8807 60.0427 51.6454 59.2695 51.2053 58.6124C50.7653 57.9553 50.1403 57.4439 49.4097 57.143C48.6791 56.8421 47.8757 56.7654 47.1014 56.9224C46.3272 57.0794 45.6169 57.4632 45.0608 58.0251C44.5046 58.587 44.1275 59.3017 43.9774 60.0785C43.8273 60.8553 43.9108 61.6592 44.2175 62.3884C44.5242 63.1176 45.0401 63.7391 45.6999 64.1742C46.3597 64.6093 47.1337 64.8383 47.9236 64.8322C48.9772 64.8256 49.9852 64.4011 50.7269 63.6517C51.4687 62.9024 51.8838 61.8892 51.8814 60.8339ZM40.4884 60.8339C40.4898 60.0421 40.2565 59.2678 39.818 58.6089C39.3795 57.9501 38.7556 57.4365 38.0253 57.1333C37.2951 56.8301 36.4914 56.7508 35.7161 56.9056C34.9408 57.0604 34.2289 57.4422 33.6705 58.0027C33.1122 58.5632 32.7326 59.2772 32.5798 60.054C32.427 60.8309 32.5079 61.6357 32.8124 62.3664C33.1168 63.0971 33.6309 63.7209 34.2897 64.1586C34.9485 64.5963 35.7221 64.8282 36.5127 64.825C37.5667 64.8226 38.5768 64.4021 39.3219 63.6554C40.0671 62.9088 40.4865 61.8968 40.4884 60.8411V60.8339ZM17.823 59.4933C17.823 58.6627 17.823 57.8573 17.823 57.0536C17.823 56.396 17.9831 56.2428 18.6523 56.2428C22.1855 56.2428 25.7181 56.2428 29.2501 56.2428C29.9302 56.2428 30.0867 56.4104 30.0903 57.1041C30.0903 58.1618 30.0903 59.2195 30.0903 60.2772C30.0959 60.4207 30.1091 60.5638 30.1298 60.706H31.2938C31.5259 58.2861 32.76 56.677 35.0717 55.841H17.2887C17.3067 56.5676 17.2166 57.2968 17.3003 58.0148C17.4434 58.4783 17.6729 58.8912 17.823 59.4933ZM42.7012 60.7168C42.9207 58.2915 44.1566 56.7077 46.4485 55.8392H37.9159C40.2869 56.7005 41.4851 58.3528 41.6937 60.7168H42.7012ZM19 57.4392V61.6556H28.8939V57.4392H19ZM19.4151 54.5977H22.4464V53.2229C21.5703 53.1274 19.9278 53.1544 19.568 53.2553C19.5266 53.6986 19.4744 54.1274 19.4187 54.5923L19.4151 54.5977ZM17.42 40.2604C17.8518 41.2189 18.2619 42.1433 18.6901 43.0604C18.7235 43.1139 18.7682 43.1593 18.821 43.1936C18.8739 43.2278 18.9336 43.25 18.9959 43.2586C19.3161 43.2857 19.6381 43.2677 20.0483 43.2677L18.789 40.2604H17.42ZM17.4398 52.713C17.2011 52.7228 16.9743 52.8199 16.8022 52.9859C16.6302 53.1519 16.5248 53.3753 16.5061 53.6139C16.5032 53.7381 16.5253 53.8616 16.571 53.9771C16.6168 54.0925 16.6852 54.1976 16.7723 54.2861C16.8594 54.3745 16.9634 54.4445 17.0781 54.4918C17.1928 54.5392 17.3158 54.5629 17.4398 54.5617C17.5587 54.5643 17.6769 54.5433 17.7876 54.4999C17.8983 54.4564 17.9993 54.3915 18.0848 54.3087C18.1703 54.2259 18.2386 54.127 18.2856 54.0176C18.3327 53.9083 18.3577 53.7906 18.3591 53.6716C18.3632 53.5478 18.3426 53.4244 18.2986 53.3087C18.2546 53.193 18.1881 53.0872 18.1028 52.9974C18.0176 52.9077 17.9154 52.8359 17.8022 52.7861C17.689 52.7364 17.567 52.7096 17.4434 52.7076L17.4398 52.713ZM2.95434 58.1708C2.35348 58.1618 1.77779 58.1456 1.21831 58.1708V59.3816H2.1178L2.95973 59.3654L2.95434 58.1708ZM51.205 56.7779V55.8338H49.4474L51.205 56.7779Z" fill="#333434"/>
<path d="M8.20343 49.2424H4.57667C4.42368 49.2487 4.27045 49.2451 4.11793 49.2316C4.03067 49.2295 3.94507 49.2073 3.86781 49.1666C3.79055 49.1259 3.72371 49.0679 3.67252 48.9971C3.62132 48.9263 3.58716 48.8446 3.57268 48.7584C3.5582 48.6721 3.56378 48.5837 3.58902 48.5001C3.62702 48.3515 3.68007 48.2072 3.74734 48.0694C4.3428 46.655 4.95807 45.2495 5.52834 43.826C5.74782 43.2855 6.06803 43.0693 6.6581 43.0801C8.40312 43.1125 10.1499 43.0909 11.8949 43.0927C12.0101 43.0927 12.127 43.0927 12.2404 43.0927C12.6289 43.1287 12.7926 43.2819 12.8394 43.6603C12.8511 43.7945 12.8547 43.9293 12.8502 44.0639V48.2712C12.8502 48.3289 12.8502 48.3865 12.8502 48.4514C12.8304 49.0785 12.6703 49.2388 12.0587 49.2442C11.1592 49.2442 10.2597 49.2442 9.36018 49.2442L8.20343 49.2424ZM11.6593 48.0496C11.6755 46.7667 11.6827 45.527 11.6593 44.2657H8.34375C8.22862 45.0549 8.2574 47.6298 8.38153 48.0496H11.6593ZM5.03362 48.0676H7.01251C7.12405 47.3126 7.09706 44.6981 6.98552 44.2999C6.68869 44.19 6.57895 44.372 6.4818 44.6044C6.09502 45.5432 5.69745 46.4784 5.30347 47.4135L5.03362 48.0676Z" fill="#333434"/>
<circle cx="61" cy="66" r="1" fill="#FF5100"/>
<circle cx="31" cy="28" r="1" fill="#FF5100"/>
<circle cx="63" cy="62" r="1" fill="#FF5100"/>
<circle cx="36" cy="30" r="1" fill="#FF5100"/>
<circle cx="56" cy="64" r="1" fill="#FF5100"/>
<circle cx="29" cy="32" r="1" fill="#FF5100"/>
<circle cx="69" cy="62" r="2" fill="#FF5100"/>
<circle cx="24" cy="30" r="2" fill="#FF5100"/>
<path d="M34 21.0276C34.2018 21.1451 34.4112 21.2497 34.627 21.3406C35.922 21.7962 37.2199 22.2382 38.5206 22.6665C38.7466 22.7407 38.9834 22.7786 39.2219 22.7786C46.2274 22.7841 53.2329 22.7841 60.2384 22.7786C60.8346 22.7786 60.9005 22.7349 61.1375 22.1881L63.7548 16.1504C63.8179 16.0041 63.8852 15.8592 63.9624 15.6897H64.6637C63.9834 17.6034 63.3186 19.4679 62.6481 21.3488C62.5191 21.357 62.4027 21.3707 62.2848 21.372C61.6424 21.383 61.5443 21.48 61.5415 22.1225C61.5415 22.4875 61.5415 22.8524 61.5415 23.216C61.5319 23.2628 61.5178 23.3086 61.4994 23.3527C61.3479 23.3527 61.1754 23.3691 61.0029 23.3691H40.027C39.9063 23.3691 39.7871 23.3691 39.6679 23.3691C39.3299 23.3883 39.1069 23.5291 39.1518 23.8407C39.2205 24.3875 38.8923 24.6964 38.5458 25.0217C38.3312 25.224 38.1405 25.4496 37.8894 25.7175C37.8291 25.548 37.8066 25.4564 37.766 25.3744C37.7317 25.2927 37.6713 25.224 37.5937 25.1784C37.5161 25.1328 37.4255 25.1129 37.3354 25.1215C37.2445 25.1213 37.1561 25.1509 37.0844 25.2054C37.0127 25.2599 36.9618 25.3362 36.9399 25.4222C36.9099 25.5199 36.8938 25.6211 36.8922 25.723C36.8922 26.2916 36.8837 26.8602 36.8922 27.4289C36.8922 27.8485 37.0591 28.0495 37.3606 28.0495C37.6622 28.0495 37.8235 27.8554 37.7996 27.4234C37.788 27.2792 37.813 27.1344 37.8725 27.0018C37.9319 26.8693 38.024 26.753 38.1405 26.6634C38.4603 26.3832 38.7534 26.0743 39.0802 25.7558C39.1169 25.858 39.1309 25.9667 39.1213 26.0747C39.1116 26.1826 39.0785 26.2873 39.0241 26.3818C38.7737 26.8657 38.6347 27.397 38.6171 27.9386C38.5994 28.4803 38.7034 29.0192 38.9217 29.5175C39.5417 30.9665 40.668 31.8017 42.288 31.978C43.1273 32.0589 43.9714 31.8791 44.6995 31.4641C45.4275 31.0492 46.0023 30.4205 46.3415 29.6679C46.4467 29.4287 46.5252 29.1799 46.622 28.9175H47.5688C48.1817 30.8394 49.4763 32.004 51.5774 31.9889C53.6378 31.9753 54.9016 30.8134 55.5145 28.9161H56.5131C56.5216 29.0131 56.5216 29.0979 56.537 29.1799C56.5931 29.4683 56.7193 29.5818 57.0153 29.6078C57.1036 29.6146 57.1948 29.6078 57.2846 29.6078C59.9794 29.6078 62.6738 29.6078 65.3678 29.6078C65.7086 29.6078 66.0368 29.6078 66.121 29.1211C67.2024 31.9302 69.8827 32.4769 71.7314 31.6445C72.2191 31.4272 72.6574 31.1174 73.021 30.7332C73.3845 30.3491 73.6659 29.8982 73.8487 29.4069C74.0314 28.9156 74.112 28.3937 74.0856 27.8718C74.0592 27.3498 73.9264 26.8382 73.695 26.3668C72.7791 24.4804 70.0258 23.2311 67.4604 25.0217C67.4604 24.6458 67.4604 24.3041 67.4604 23.961C67.4771 23.8765 67.5146 23.7972 67.5698 23.73C67.7101 23.5113 67.8644 23.298 68.0453 23.0329C68.141 23.0187 68.2375 23.0104 68.3343 23.0083C69.3511 23.0083 70.3694 23.0397 71.3877 23.0219C72.4565 23.0042 73.6782 23.6685 73.8773 25.1926C73.9517 25.7708 74.0485 26.3463 74.1438 26.9218C74.207 27.3045 74.3388 27.4166 74.7427 27.4207C75.3865 27.4275 76.0303 27.4207 76.7064 27.4207C76.8663 27.8308 77.2043 27.8786 77.6082 27.8622C78.2058 27.8376 78.8047 27.8622 79.4036 27.854C79.8454 27.854 79.9899 27.7064 79.9969 27.2717C80.0039 26.7618 79.9969 26.2506 79.9969 25.7407C79.9969 25.317 79.837 25.1639 79.4036 25.1434C79.1848 25.1338 78.966 25.1434 78.6658 25.1434C79.0571 24.4463 78.9365 23.7669 78.9463 23.1039C78.9576 21.8054 78.9463 20.5068 78.9463 19.2082C78.9491 18.9316 78.8883 18.6579 78.7682 18.4072C78.0992 16.976 77.4427 15.5366 76.7849 14.1027C76.5451 13.5792 76.2239 13.1309 75.6376 12.9436C75.3562 12.8488 75.0614 12.7971 74.7638 12.7905C72.7875 12.7768 70.8112 12.8001 68.8364 12.7768C68.6201 12.7689 68.4044 12.8047 68.203 12.8821C68.0016 12.9594 67.8188 13.0766 67.6662 13.2262C67.5136 13.3758 67.3945 13.5547 67.3163 13.7514C67.2382 13.9481 67.2027 14.1585 67.2122 14.3693C67.2388 16.4703 67.2206 18.5712 67.2206 20.6722V21.182C67.0986 21.1492 67.0172 21.1301 66.9401 21.1041C66.7137 21.0249 66.472 20.996 66.2327 21.0197C65.9934 21.0433 65.7625 21.1189 65.5571 21.2408C65.4748 21.3019 65.3785 21.3426 65.2766 21.3597C64.7408 21.372 64.205 21.3597 63.6243 21.3597L65.5347 15.9918C65.5534 15.9006 65.5922 15.8144 65.6484 15.7391C65.7046 15.6638 65.7768 15.6013 65.8601 15.5558C66.0102 15.4806 66.1125 15.2824 66.1911 15.1129C66.6119 14.2408 67.0088 13.3632 67.438 12.4406H67.999C68.5979 12.4406 69.1969 12.4324 69.7958 12.4406C69.93 12.4519 70.0648 12.4253 70.1839 12.364C70.3031 12.3027 70.4016 12.2092 70.4676 12.0947C70.7285 11.6696 71.0062 11.2541 71.2629 10.8262C71.5434 10.3546 71.3653 10.0361 70.8 10.0061C70.5195 9.99241 70.2306 10.0061 69.9459 10.0061H63.9736C63.8684 10.0061 63.7646 10.0061 63.6594 10.0061C63.4949 9.98961 63.3297 10.0291 63.1916 10.1177C63.0536 10.2064 62.9513 10.3389 62.902 10.4927C62.5934 11.2199 62.2582 11.9362 61.9342 12.6565L61.2455 14.1861H60.7153C54.2057 14.1861 47.6964 14.1831 41.1875 14.177C40.1372 14.176 39.0869 14.175 38.0367 14.1738C37.4939 14.1738 37.1951 14.3392 36.9679 14.8163C36.0857 16.6179 35.1656 18.4017 34.2567 20.1897C34.1851 20.3263 34.0898 20.463 34.0056 20.5902L34 21.0276ZM68.1547 22.0883C68.1449 21.9257 68.1323 21.7985 68.1323 21.67C68.1323 19.2779 68.1323 16.8858 68.1323 14.4937C68.1323 14.4199 68.1323 14.3474 68.1323 14.2736C68.1281 14.1255 68.1838 13.9817 68.2875 13.8732C68.3911 13.7648 68.5344 13.7004 68.6863 13.694C68.8052 13.6838 68.9247 13.681 69.044 13.6858C70.901 13.6858 72.7567 13.6995 74.6123 13.6776C75.3038 13.6694 75.7204 13.9373 75.9925 14.5593C76.5956 15.9399 77.2548 17.2931 77.8691 18.6724C77.9618 18.8846 78.0095 19.1129 78.0094 19.3435C78.022 20.8307 78.0024 22.3193 78.0234 23.8065C78.0176 24.2708 77.8963 24.7267 77.67 25.1352C77.5774 25.142 77.5031 25.1502 77.4301 25.1543C76.8831 25.1858 76.7569 25.3156 76.7499 25.8542C76.7499 26.0688 76.7499 26.2848 76.7499 26.5185H75.0008C74.9531 26.2123 74.9167 25.9253 74.8606 25.6423C74.768 25.1707 74.7315 24.6759 74.5506 24.2371C74.0204 22.9399 73.0077 22.2277 71.5673 22.158C70.88 22.1239 70.1913 22.1416 69.5026 22.1307C69.065 22.1225 68.6204 22.1034 68.1547 22.0883ZM37.7379 15.4177C37.7716 15.1621 37.888 15.0473 38.1335 15.0746C38.2531 15.0808 38.3729 15.0808 38.4925 15.0746C46.0516 15.0746 53.6102 15.0774 61.1684 15.0828C61.6593 15.0828 61.9412 14.9338 62.1235 14.4828C62.4279 13.7241 62.7842 12.9791 63.1208 12.2369C63.3115 11.8118 63.5079 11.3894 63.7057 10.9547H70.1029L69.713 11.5616H69.2319C67.9457 11.5616 66.6581 11.578 65.3706 11.5534C64.9049 11.5439 64.63 11.7052 64.5052 12.133C64.4858 12.1881 64.4628 12.242 64.4364 12.2943L60.4362 21.5087C60.3801 21.6386 60.3142 21.7657 60.2651 21.8682H58.8485H39.2219L35.1695 20.6207L37.7379 15.4123V15.4177ZM70.0665 31.1141C69.4509 31.1157 68.8487 30.9393 68.3362 30.6071C67.8236 30.2749 67.4237 29.8019 67.1872 29.2481C66.9507 28.6943 66.8881 28.0845 67.0075 27.496C67.1269 26.9075 67.4228 26.3667 67.8578 25.9422C68.2927 25.5178 68.8472 25.2286 69.4509 25.1115C70.0546 24.9944 70.6804 25.0545 71.249 25.2843C71.8176 25.514 72.3035 25.9031 72.645 26.4021C72.9866 26.9012 73.1685 27.4879 73.1676 28.0877C73.1689 28.4852 73.0896 28.8789 72.9343 29.2464C72.7789 29.6139 72.5506 29.9479 72.2625 30.2291C71.9743 30.5103 71.6319 30.7332 71.2551 30.8851C70.8782 31.037 70.4743 31.1148 70.0665 31.1141ZM39.5501 28.0809C39.5507 27.4807 39.7341 26.8941 40.0772 26.3956C40.4203 25.8971 40.9076 25.5092 41.4772 25.2809C42.0468 25.0527 42.6732 24.9944 43.2768 25.1136C43.8805 25.2327 44.4342 25.5238 44.8679 25.9501C45.3015 26.3764 45.5955 26.9185 45.7125 27.5078C45.8296 28.0971 45.7644 28.707 45.5253 29.2602C45.2862 29.8133 44.884 30.2848 44.3695 30.6149C43.8551 30.945 43.2517 31.1187 42.6358 31.1141C41.8144 31.1091 41.0285 30.787 40.4502 30.2185C39.8719 29.6501 39.5482 28.8814 39.5501 28.0809ZM48.4328 28.0809C48.4317 27.4802 48.6136 26.8928 48.9554 26.393C49.2973 25.8932 49.7838 25.5036 50.3531 25.2735C50.9225 25.0435 51.5491 24.9834 52.1535 25.1008C52.758 25.2182 53.3131 25.5079 53.7484 25.9331C54.1837 26.3583 54.4797 26.8999 54.5988 27.4893C54.7179 28.0786 54.6548 28.6891 54.4175 29.2435C54.1801 29.7978 53.7793 30.271 53.2657 30.6031C52.7521 30.9351 52.1488 31.1111 51.5325 31.1086C50.7107 31.1068 49.9232 30.7878 49.3422 30.2214C48.7613 29.6549 48.4342 28.8873 48.4328 28.0864V28.0809ZM66.1041 27.0639C66.1041 26.4338 66.1041 25.8227 66.1041 25.2131C66.1041 24.7142 65.9793 24.598 65.4575 24.598C62.7028 24.598 59.9486 24.598 57.1948 24.598C56.6646 24.598 56.5426 24.7251 56.5398 25.2514C56.5398 26.0538 56.5398 26.8561 56.5398 27.6585C56.5354 27.7674 56.5251 27.876 56.5089 27.9839H55.6014C55.4205 26.1481 54.4583 24.9274 52.656 24.2932H66.5207C66.5066 24.8444 66.5769 25.3976 66.5117 25.9422C66.4001 26.2939 66.2211 26.6071 66.1041 27.0639ZM46.7076 27.9921C46.5364 26.1522 45.5729 24.9507 43.7859 24.2918H50.4385C48.5899 24.9452 47.6557 26.1987 47.493 27.9921H46.7076ZM65.1864 25.5056V28.7042H57.4725V25.5056H65.1864ZM64.8628 23.35H62.4994V22.307C63.1825 22.2346 64.4631 22.2551 64.7436 22.3316C64.7759 22.6679 64.8165 22.9932 64.86 23.3459L64.8628 23.35ZM66.4183 12.4734C66.0817 13.2006 65.7619 13.9018 65.4281 14.5976C65.402 14.6381 65.3672 14.6726 65.326 14.6986C65.2848 14.7246 65.2382 14.7414 65.1896 14.7479C64.94 14.7684 64.6889 14.7548 64.3691 14.7548L65.3509 12.4734H66.4183ZM66.4029 21.9202C66.589 21.9276 66.7658 22.0013 66.9 22.1273C67.0341 22.2532 67.1162 22.4227 67.1308 22.6036C67.1331 22.6979 67.1159 22.7916 67.0802 22.8792C67.0446 22.9668 66.9912 23.0465 66.9233 23.1136C66.8554 23.1806 66.7743 23.2337 66.6849 23.2696C66.5955 23.3056 66.4996 23.3236 66.4029 23.3226C66.3102 23.3246 66.218 23.3087 66.1317 23.2758C66.0454 23.2428 65.9666 23.1935 65.9 23.1307C65.8333 23.0679 65.7801 22.9929 65.7434 22.9099C65.7067 22.827 65.6872 22.7377 65.6861 22.6474C65.683 22.5535 65.699 22.4599 65.7333 22.3721C65.7676 22.2843 65.8195 22.2041 65.8859 22.136C65.9524 22.0679 66.0321 22.0134 66.1203 21.9757C66.2086 21.9379 66.3037 21.9177 66.4001 21.9161L66.4029 21.9202ZM77.6966 26.0606C78.1651 26.0538 78.6139 26.0415 79.0501 26.0606V26.9792H78.3488L77.6924 26.9669L77.6966 26.0606ZM40.0775 25.004V24.2877H41.4478L40.0775 25.004Z" fill="#333434"/>
<path d="M73.6041 19.2874H76.4318C76.551 19.2921 76.6705 19.2894 76.7894 19.2792C76.8574 19.2776 76.9242 19.2607 76.9844 19.2298C77.0447 19.199 77.0968 19.155 77.1367 19.1012C77.1766 19.0475 77.2032 18.9855 77.2145 18.9201C77.2258 18.8547 77.2215 18.7877 77.2018 18.7242C77.1722 18.6115 77.1308 18.502 77.0783 18.3975C76.6141 17.3245 76.1344 16.2582 75.6898 15.1784C75.5186 14.7683 75.269 14.6043 74.8089 14.6125C73.4484 14.6371 72.0865 14.6207 70.726 14.622C70.6362 14.622 70.545 14.622 70.4567 14.622C70.1537 14.6494 70.0261 14.7656 69.9896 15.0526C69.9805 15.1544 69.9777 15.2567 69.9812 15.3588V18.5506C69.9812 18.5943 69.9812 18.6381 69.9812 18.6873C69.9966 19.163 70.1214 19.2846 70.5983 19.2887C71.2996 19.2887 72.0009 19.2887 72.7022 19.2887L73.6041 19.2874ZM70.9097 18.3824C70.8971 17.4092 70.8915 16.4688 70.9097 15.5119H73.4947C73.5845 16.1106 73.562 18.064 73.4652 18.3824H70.9097ZM76.0755 18.3961H74.5326C74.4457 17.8234 74.4667 15.84 74.5537 15.5379C74.7851 15.4545 74.8707 15.5926 74.9464 15.7689C75.248 16.4811 75.5579 17.1905 75.8651 17.8999L76.0755 18.3961Z" fill="#333434"/>
</svg>
