<svg width="80" height="80" viewBox="0 0 80 80" fill="none" xmlns="http://www.w3.org/2000/svg">
<path d="M46.2352 64C45.8386 63.9448 45.4432 63.8744 45.0442 63.8369C43.9737 63.7262 42.9141 63.5276 41.8761 63.2431C39.3674 62.5863 36.9844 61.5197 34.823 60.0866C31.9491 58.1884 29.5139 55.6979 27.6807 52.782C25.4297 49.1997 24.1651 45.0862 24.0151 40.858C23.8651 36.6298 24.835 32.437 26.8265 28.7042C28.5867 25.4155 31.0868 22.5807 34.1296 20.4233C36.1888 18.9517 38.4706 17.8198 40.8882 17.0708C42.243 16.6546 43.6317 16.3581 45.0384 16.1849C46.432 16.0141 47.8377 15.9615 49.2402 16.0276C50.9058 16.0993 52.5585 16.3543 54.1683 16.788C56.6304 17.4367 58.9716 18.4784 61.1018 19.873C64.0271 21.7813 66.5045 24.3005 68.3637 27.2574C69.9588 29.7803 71.0601 32.5833 71.6093 35.5172C71.763 36.3269 71.824 37.153 71.9296 37.9709C71.9474 38.0595 71.9709 38.1469 72 38.2325V41.7927C71.9708 41.8783 71.9473 41.9657 71.9296 42.0544C71.824 42.8758 71.763 43.6972 71.6104 44.5045C71.0616 47.4362 69.9615 50.2371 68.3684 52.7585C66.5123 55.7137 64.0385 58.2321 61.117 60.1406C58.978 61.5465 56.6237 62.5937 54.1472 63.2408C53.1117 63.5258 52.0544 63.7248 50.9862 63.8357C50.5884 63.8721 50.193 63.9425 49.7964 63.9977L46.2352 64ZM48.0293 62.5743C60.5174 62.5144 70.5579 52.5121 70.5579 40.0244C70.5592 37.0634 69.9772 34.1311 68.8453 31.3951C67.7134 28.659 66.0537 26.1727 63.9609 24.0781C61.8682 21.9835 59.3834 20.3216 56.6484 19.1873C53.9135 18.0531 50.9819 17.4687 48.0211 17.4674C45.0602 17.4662 42.1282 18.0482 39.3923 19.1802C36.6564 20.3121 34.1702 21.9719 32.0757 24.0648C29.9812 26.1577 28.3194 28.6426 27.1852 31.3777C26.0511 34.1129 25.4667 37.0446 25.4654 40.0056C25.4666 52.5121 35.5282 62.5297 48.0328 62.5743H48.0293Z" fill="#333434"/>
<path d="M46.5716 59.3532C46.2517 59.3087 45.9327 59.2519 45.6109 59.2216C44.7473 59.1323 43.8925 58.9721 43.0552 58.7426C41.0314 58.2127 39.109 57.3523 37.3655 56.1961C35.0471 54.6648 33.0827 52.6556 31.6039 50.3032C29.788 47.4133 28.7679 44.0948 28.6469 40.6837C28.5259 37.2726 29.3083 33.8902 30.9148 30.8788C32.3347 28.2257 34.3515 25.9387 36.8061 24.1983C38.4672 23.0111 40.308 22.0979 42.2582 21.4937C43.3511 21.1579 44.4714 20.9187 45.6061 20.779C46.7304 20.6412 47.8643 20.5988 48.9957 20.6521C50.3394 20.71 51.6726 20.9157 52.9712 21.2655C54.9573 21.7889 56.8459 22.6292 58.5643 23.7543C60.9241 25.2939 62.9226 27.3262 64.4225 29.7116C65.7092 31.7469 66.5976 34.0082 67.0406 36.3751C67.1646 37.0283 67.2138 37.6947 67.299 38.3545C67.3134 38.426 67.3324 38.4966 67.3558 38.5656V41.4378C67.3323 41.5068 67.3133 41.5773 67.299 41.6489C67.2138 42.3115 67.1646 42.9742 67.0416 43.6255C66.5988 45.9906 65.7114 48.2501 64.4263 50.2843C62.929 52.6683 60.9334 54.7 58.5766 56.2397C56.8511 57.3739 54.9519 58.2187 52.9541 58.7407C52.1188 58.9707 51.2659 59.1312 50.4042 59.2207C50.0833 59.25 49.7643 59.3068 49.4444 59.3513L46.5716 59.3532ZM48.0189 58.203C58.0929 58.1547 66.1925 50.0855 66.1925 40.0112C66.1935 37.6224 65.7241 35.2569 64.811 33.0496C63.8978 30.8423 62.559 28.8365 60.8708 27.1467C59.1826 25.4569 57.1781 24.1162 54.9719 23.2012C52.7656 22.2861 50.4007 21.8146 48.0122 21.8137C45.6238 21.8127 43.2585 22.2822 41.0515 23.1954C38.8444 24.1086 36.8389 25.4476 35.1493 27.136C33.4597 28.8244 32.1191 30.8291 31.2042 33.0356C30.2893 35.2421 29.8178 37.6073 29.8168 39.996C29.8178 50.0855 37.9344 58.167 48.0217 58.203H48.0189Z" fill="#333434"/>
<path d="M50.2423 40.4233C49.7987 41.9723 48.4329 42.4757 47.4015 42.1553C47.0851 42.0644 46.7928 41.9043 46.5458 41.6865C46.2988 41.4688 46.1034 41.1988 45.9735 40.8962C45.6978 40.279 45.7565 39.6536 46.0334 38.9671C45.8948 38.8697 45.7619 38.7643 45.6356 38.6515C43.3475 36.3687 41.0614 34.084 38.7773 31.7974C38.663 31.6909 38.5556 31.5773 38.4558 31.4571C38.1953 31.118 38.2211 30.7671 38.5062 30.4879C38.7914 30.2086 39.1399 30.1968 39.4766 30.4632C39.5956 30.5648 39.7088 30.6729 39.8157 30.7871C42.1014 33.0714 44.3864 35.3572 46.6705 37.6446C46.7796 37.7549 46.8735 37.8793 46.9803 38.0072C47.1223 37.9673 47.2255 37.9439 47.3253 37.9087C48.3038 37.566 49.3622 38.026 49.8093 38.716C49.9348 38.9108 50.0662 38.9648 50.3103 38.9249C51.8627 38.6726 53.4186 38.4473 54.9733 38.2102C55.8357 38.08 56.6958 37.9427 57.5547 37.8124C57.6607 37.7903 57.7695 37.7844 57.8773 37.7948C58.0393 37.8267 58.1872 37.9086 58.3 38.0291C58.4129 38.1495 58.485 38.3024 58.5063 38.466C58.5119 38.6234 58.4665 38.7784 58.3768 38.9078C58.2872 39.0372 58.1581 39.1342 58.0088 39.1842C57.7558 39.2608 57.4967 39.3158 57.2343 39.3485C55.709 39.5832 54.1836 39.8061 52.6582 40.0373C51.8674 40.1593 51.066 40.2919 50.2423 40.4233ZM48.7615 40.0115C48.7607 39.8641 48.7162 39.7202 48.6334 39.5982C48.5507 39.4762 48.4335 39.3816 48.2969 39.3264C48.1602 39.2712 48.0102 39.2579 47.866 39.2882C47.7217 39.3185 47.5898 39.3911 47.4869 39.4966C47.384 39.6022 47.3148 39.736 47.2882 39.8809C47.2616 40.0259 47.2787 40.1755 47.3373 40.3108C47.396 40.446 47.4936 40.5607 47.6176 40.6403C47.7417 40.7199 47.8866 40.7608 48.034 40.7578C48.1316 40.7595 48.2285 40.7412 48.3188 40.704C48.409 40.6669 48.4907 40.6116 48.5589 40.5417C48.627 40.4718 48.6801 40.3887 48.715 40.2975C48.7498 40.2064 48.7656 40.109 48.7615 40.0115Z" fill="#333434"/>
<path d="M47.2689 25.7308C47.2689 25.3095 47.2584 24.8882 47.2689 24.467C47.2725 24.2809 47.3103 24.0972 47.3804 23.9248C47.4362 23.8038 47.5254 23.7013 47.6376 23.6295C47.7498 23.5577 47.8802 23.5195 48.0134 23.5195C48.1467 23.5195 48.2771 23.5577 48.3893 23.6295C48.5015 23.7013 48.5907 23.8038 48.6465 23.9248C48.7212 24.0955 48.7611 24.2795 48.7638 24.4658C48.7744 25.3095 48.772 26.1532 48.7638 26.9957C48.7629 27.1511 48.74 27.3056 48.6957 27.4545C48.6575 27.6082 48.5654 27.7431 48.4363 27.8348C48.3071 27.9265 48.1494 27.9689 47.9917 27.9544C47.8419 27.9588 47.695 27.9117 47.5757 27.8209C47.4564 27.7302 47.3717 27.6013 47.3358 27.4557C47.2914 27.2908 47.2685 27.1208 47.2678 26.95C47.2619 26.5428 47.2689 26.1368 47.2689 25.7308Z" fill="#333434"/>
<path d="M33.7506 39.2652C34.1566 39.2652 34.5625 39.2581 34.9685 39.2652C35.1395 39.2666 35.3096 39.2906 35.4742 39.3367C35.6137 39.3844 35.735 39.4742 35.8214 39.5936C35.9078 39.713 35.9551 39.8563 35.9568 40.0037C35.9585 40.1511 35.9145 40.2955 35.8308 40.4168C35.7471 40.5382 35.6279 40.6306 35.4895 40.6815C35.3255 40.7314 35.1552 40.7571 34.9838 40.7578C34.1562 40.7648 33.3289 40.7648 32.5021 40.7578C32.3311 40.7569 32.1613 40.7296 31.9987 40.6768C31.8574 40.6285 31.7351 40.5366 31.6495 40.4143C31.5638 40.2919 31.5193 40.1455 31.5223 39.9962C31.523 39.8541 31.5677 39.7158 31.6503 39.6002C31.7329 39.4846 31.8493 39.3974 31.9835 39.3508C32.1452 39.2954 32.3148 39.2664 32.4857 39.2652C32.9069 39.2569 33.3282 39.2652 33.7506 39.2652Z" fill="#333434"/>
<path d="M62.2528 40.7648C61.8469 40.7648 61.4397 40.7742 61.0349 40.7648C60.8484 40.7613 60.6635 40.7288 60.4869 40.6686C60.3643 40.6096 60.2609 40.5171 60.1885 40.4019C60.1161 40.2867 60.0777 40.1534 60.0777 40.0173C60.0777 39.8813 60.1161 39.748 60.1885 39.6328C60.2609 39.5175 60.3643 39.4251 60.4869 39.3661C60.6004 39.313 60.7232 39.2827 60.8483 39.2769C61.8011 39.2698 62.7535 39.2698 63.7055 39.2769C63.8459 39.283 63.9833 39.3199 64.1079 39.3849C64.2302 39.4397 64.3335 39.5294 64.4049 39.6428C64.4763 39.7561 64.5126 39.8881 64.5092 40.022C64.5141 40.1564 64.4777 40.2891 64.4049 40.4022C64.3321 40.5152 64.2264 40.6033 64.1021 40.6545C63.9291 40.7236 63.745 40.7609 63.5588 40.7648C63.1317 40.7754 62.6893 40.7648 62.2528 40.7648Z" fill="#333434"/>
<path d="M47.2689 54.291C47.2689 53.8686 47.2619 53.4473 47.2689 53.026C47.272 52.8552 47.2997 52.6856 47.3511 52.5226C47.3967 52.3883 47.4846 52.2723 47.6015 52.192C47.7184 52.1116 47.8582 52.0712 47.9999 52.0767C48.1495 52.0654 48.2985 52.1049 48.4229 52.1888C48.5472 52.2727 48.6397 52.3961 48.6852 52.5391C48.7334 52.6869 48.7591 52.8412 48.7615 52.9967C48.7685 53.8557 48.7697 54.7134 48.7615 55.5724C48.7625 55.7435 48.7306 55.9132 48.6676 56.0723C48.6142 56.203 48.5227 56.3147 48.405 56.3927C48.2873 56.4708 48.1489 56.5116 48.0077 56.51C47.8665 56.5084 47.729 56.4643 47.6132 56.3835C47.4973 56.3027 47.4085 56.189 47.3581 56.057C47.3006 55.8958 47.2708 55.726 47.2701 55.5548C47.2607 55.1288 47.2689 54.7123 47.2689 54.291Z" fill="#333434"/>
<path d="M41.6262 52.3396C41.6009 52.474 41.5616 52.6053 41.5089 52.7315C41.2601 53.1821 41.0043 53.628 40.738 54.0681C40.5737 54.3415 40.3027 54.4048 40.0046 54.372C39.8715 54.3575 39.7462 54.3021 39.646 54.2134C39.5457 54.1247 39.4755 54.0071 39.4449 53.8768C39.3992 53.762 39.3959 53.6347 39.4355 53.5177C39.7222 52.9504 40.0443 52.4017 40.4 51.8749C40.6511 51.5229 41.1463 51.5721 41.415 51.9066C41.5031 52.0416 41.574 52.187 41.6262 52.3396Z" fill="#333434"/>
<path d="M56.6336 53.5951C56.6441 53.9108 56.4423 54.2441 56.1971 54.3297C56.0672 54.3855 55.9241 54.403 55.7846 54.3801C55.6451 54.3572 55.515 54.295 55.4098 54.2006C55.3418 54.1361 55.2833 54.0622 55.2361 53.9812C55.0143 53.6057 54.7843 53.2337 54.5849 52.8465C54.5036 52.6808 54.4591 52.4995 54.4546 52.3149C54.4464 52.0192 54.6248 51.828 54.8864 51.7071C55.1481 51.5862 55.4062 51.6543 55.6198 51.8409C55.7123 51.9245 55.7915 52.0218 55.8545 52.1295C56.0704 52.4909 56.2816 52.8547 56.4846 53.2232C56.543 53.3435 56.5928 53.4678 56.6336 53.5951Z" fill="#333434"/>
<path d="M41.5969 27.5883C41.5887 27.9814 41.4162 28.2255 41.1158 28.3393C40.9755 28.3871 40.8239 28.3902 40.6819 28.3482C40.5398 28.3061 40.4143 28.221 40.3226 28.1046C40.1527 27.8617 39.996 27.6099 39.8532 27.3501C39.7136 27.123 39.5875 26.8879 39.4754 26.646C39.3986 26.4824 39.3877 26.2955 39.4449 26.124C39.5022 25.9525 39.6232 25.8096 39.7828 25.7249C39.9364 25.6453 40.113 25.6223 40.2819 25.6598C40.4507 25.6973 40.6009 25.7931 40.7063 25.9302C40.8655 26.161 41.0113 26.4008 41.1428 26.6484C41.2683 26.8631 41.3986 27.0767 41.5089 27.2996C41.5496 27.392 41.5791 27.4889 41.5969 27.5883Z" fill="#333434"/>
<path d="M55.8932 25.651C56.4142 25.651 56.7744 26.1332 56.5667 26.5897C56.3198 27.1093 56.0371 27.6112 55.7207 28.0917C55.6257 28.227 55.4856 28.3239 55.3256 28.3649C55.1655 28.406 54.9961 28.3886 54.8477 28.3158C54.6984 28.2445 54.5784 28.1238 54.5078 27.9741C54.4372 27.8244 54.4205 27.655 54.4605 27.4944C54.4843 27.3882 54.5239 27.2862 54.5778 27.1917C54.7914 26.8115 55.0108 26.4348 55.2326 26.0593C55.3875 25.7929 55.6057 25.6404 55.8932 25.651Z" fill="#333434"/>
<path d="M35.5845 33.5951C35.5307 33.593 35.4775 33.5819 35.4273 33.5623C34.9134 33.2701 34.3713 33.0143 33.9019 32.6646C33.4326 32.3149 33.6121 31.6085 34.1659 31.4419C34.2974 31.3986 34.44 31.4031 34.5684 31.4548C35.0951 31.7207 35.6071 32.0148 36.102 32.336C36.4399 32.5648 36.474 32.9227 36.2827 33.2466C36.1302 33.5024 35.8896 33.5881 35.5845 33.5951Z" fill="#333434"/>
<path d="M60.4822 33.5951C60.0669 33.5951 59.8298 33.4344 59.7066 33.1363C59.5834 32.8383 59.628 32.5496 59.9214 32.3478C60.4116 32.0222 60.921 31.7263 61.4467 31.4618C61.7401 31.3128 62.0733 31.4536 62.261 31.7223C62.3457 31.8541 62.3869 32.0092 62.3787 32.1656C62.3705 32.3221 62.3133 32.472 62.2153 32.5942C62.1312 32.6867 62.0335 32.7659 61.9255 32.8289C61.5735 33.0389 61.2297 33.2466 60.8694 33.4402C60.7445 33.5016 60.615 33.5533 60.4822 33.5951Z" fill="#333434"/>
<path d="M33.6567 47.8735C33.6552 47.7516 33.6862 47.6315 33.7464 47.5255C33.8066 47.4196 33.8939 47.3315 33.9993 47.2703C34.4264 47.0134 34.8559 46.7599 35.2971 46.5276C35.4385 46.4664 35.5928 46.4406 35.7465 46.4524C36.0433 46.4618 36.2158 46.6461 36.3331 46.9089C36.4505 47.1718 36.3683 47.3971 36.2029 47.6012C36.1341 47.686 36.0511 47.7583 35.9577 47.8148C35.5435 48.0624 35.1363 48.3194 34.7033 48.5388C34.5924 48.6011 34.4667 48.6321 34.3395 48.6286C34.2124 48.6251 34.0885 48.5872 33.9812 48.519C33.8738 48.4507 33.787 48.3547 33.7298 48.241C33.6727 48.1274 33.6474 48.0004 33.6567 47.8735Z" fill="#333434"/>
<path d="M62.3819 47.9286C62.3802 48.0454 62.3495 48.1599 62.2925 48.2619C62.2355 48.3638 62.154 48.45 62.0554 48.5126C61.9568 48.5753 61.8442 48.6124 61.7277 48.6206C61.6112 48.6289 61.4945 48.608 61.3881 48.5599C60.9139 48.3241 60.455 48.0587 60.0141 47.7655C59.6268 47.5097 59.5447 47.1366 59.75 46.7939C59.9554 46.4513 60.3672 46.3245 60.7709 46.5405C61.198 46.7634 61.6145 47.0098 62.0252 47.2633C62.1435 47.3268 62.2404 47.4239 62.3038 47.5422C62.3673 47.6605 62.3944 47.7949 62.3819 47.9286Z" fill="#333434"/>
<line x1="8.75" y1="23.25" x2="18.25" y2="23.25" stroke="#FF5100" stroke-width="1.5" stroke-linecap="round"/>
<line x1="8.75" y1="55.25" x2="18.25" y2="55.25" stroke="#FF5100" stroke-width="1.5" stroke-linecap="round"/>
<line x1="4.75" y1="31.25" x2="15.25" y2="31.25" stroke="#FF5100" stroke-width="1.5" stroke-linecap="round"/>
<line x1="3.75" y1="39.25" x2="14.25" y2="39.25" stroke="#FF5100" stroke-width="1.5" stroke-linecap="round"/>
<line x1="4.75" y1="47.25" x2="15.25" y2="47.25" stroke="#FF5100" stroke-width="1.5" stroke-linecap="round"/>
</svg>
