<svg width="80" height="80" viewBox="0 0 80 80" fill="none" xmlns="http://www.w3.org/2000/svg">
<path d="M38.2352 64C37.8386 63.9448 37.4432 63.8744 37.0442 63.8369C35.9737 63.7262 34.9141 63.5276 33.8761 63.2431C31.3674 62.5863 28.9844 61.5197 26.823 60.0866C23.9491 58.1884 21.5139 55.6979 19.6807 52.782C17.4297 49.1997 16.1651 45.0862 16.0151 40.858C15.8651 36.6298 16.835 32.437 18.8265 28.7042C20.5867 25.4155 23.0868 22.5807 26.1296 20.4233C28.1888 18.9517 30.4706 17.8198 32.8882 17.0708C34.243 16.6546 35.6317 16.3581 37.0384 16.1849C38.432 16.0141 39.8377 15.9615 41.2402 16.0276C42.9058 16.0993 44.5585 16.3543 46.1683 16.788C48.6304 17.4367 50.9716 18.4784 53.1018 19.873C56.0271 21.7813 58.5045 24.3005 60.3637 27.2574C61.9588 29.7803 63.0601 32.5833 63.6093 35.5172C63.763 36.3269 63.824 37.153 63.9296 37.9709C63.9474 38.0595 63.9709 38.1469 64 38.2325V41.7927C63.9708 41.8783 63.9473 41.9657 63.9296 42.0544C63.824 42.8758 63.763 43.6972 63.6104 44.5045C63.0616 47.4362 61.9615 50.2371 60.3684 52.7585C58.5123 55.7137 56.0385 58.2321 53.117 60.1406C50.978 61.5465 48.6237 62.5937 46.1472 63.2408C45.1117 63.5258 44.0544 63.7248 42.9862 63.8357C42.5884 63.8721 42.193 63.9425 41.7964 63.9977L38.2352 64ZM40.0293 62.5743C52.5174 62.5144 62.5579 52.5121 62.5579 40.0244C62.5592 37.0634 61.9772 34.1311 60.8453 31.3951C59.7134 28.659 58.0537 26.1727 55.9609 24.0781C53.8682 21.9835 51.3834 20.3216 48.6484 19.1873C45.9135 18.0531 42.9819 17.4687 40.0211 17.4674C37.0602 17.4662 34.1282 18.0482 31.3923 19.1802C28.6564 20.3121 26.1702 21.9719 24.0757 24.0648C21.9812 26.1577 20.3194 28.6426 19.1852 31.3777C18.0511 34.1129 17.4667 37.0446 17.4654 40.0056C17.4666 52.5121 27.5282 62.5297 40.0328 62.5743H40.0293Z" fill="#A3A3A3"/>
<path d="M38.5716 59.3532C38.2517 59.3087 37.9327 59.2519 37.6109 59.2216C36.7473 59.1323 35.8925 58.9721 35.0552 58.7426C33.0314 58.2127 31.109 57.3523 29.3655 56.1961C27.0471 54.6648 25.0827 52.6556 23.6039 50.3032C21.788 47.4133 20.7679 44.0948 20.6469 40.6837C20.5259 37.2726 21.3083 33.8902 22.9148 30.8788C24.3347 28.2257 26.3515 25.9387 28.8061 24.1983C30.4672 23.0111 32.308 22.0979 34.2582 21.4937C35.3511 21.1579 36.4714 20.9187 37.6061 20.779C38.7304 20.6412 39.8643 20.5988 40.9957 20.6521C42.3394 20.71 43.6726 20.9157 44.9712 21.2655C46.9573 21.7889 48.8459 22.6292 50.5643 23.7543C52.9241 25.2939 54.9226 27.3262 56.4225 29.7116C57.7092 31.7469 58.5976 34.0082 59.0406 36.3751C59.1646 37.0283 59.2138 37.6947 59.299 38.3545C59.3134 38.426 59.3324 38.4966 59.3558 38.5656V41.4378C59.3323 41.5068 59.3133 41.5773 59.299 41.6489C59.2138 42.3115 59.1646 42.9742 59.0416 43.6255C58.5988 45.9906 57.7114 48.2501 56.4263 50.2843C54.929 52.6683 52.9334 54.7 50.5766 56.2397C48.8511 57.3739 46.9519 58.2187 44.9541 58.7407C44.1188 58.9707 43.2659 59.1312 42.4042 59.2207C42.0833 59.25 41.7643 59.3068 41.4444 59.3513L38.5716 59.3532ZM40.0189 58.203C50.0929 58.1547 58.1925 50.0855 58.1925 40.0112C58.1935 37.6224 57.7241 35.2569 56.811 33.0496C55.8978 30.8423 54.559 28.8365 52.8708 27.1467C51.1826 25.4569 49.1781 24.1162 46.9719 23.2012C44.7656 22.2861 42.4007 21.8146 40.0122 21.8137C37.6238 21.8127 35.2585 22.2822 33.0515 23.1954C30.8444 24.1086 28.8389 25.4476 27.1493 27.136C25.4597 28.8244 24.1191 30.8291 23.2042 33.0356C22.2893 35.2421 21.8178 37.6073 21.8168 39.996C21.8178 50.0855 29.9344 58.167 40.0217 58.203H40.0189Z" fill="#A3A3A3"/>
<path d="M42.2423 40.4233C41.7987 41.9723 40.4329 42.4757 39.4015 42.1553C39.0851 42.0644 38.7928 41.9043 38.5458 41.6865C38.2988 41.4688 38.1034 41.1988 37.9735 40.8962C37.6978 40.279 37.7565 39.6536 38.0334 38.9671C37.8948 38.8697 37.7619 38.7643 37.6356 38.6515C35.3475 36.3687 33.0614 34.084 30.7773 31.7974C30.663 31.6909 30.5556 31.5773 30.4558 31.4571C30.1953 31.118 30.2211 30.7671 30.5062 30.4879C30.7914 30.2086 31.1399 30.1968 31.4766 30.4632C31.5956 30.5648 31.7088 30.6729 31.8157 30.7871C34.1014 33.0714 36.3864 35.3572 38.6705 37.6446C38.7796 37.7549 38.8735 37.8793 38.9803 38.0072C39.1223 37.9673 39.2255 37.9439 39.3253 37.9087C40.3038 37.566 41.3622 38.026 41.8093 38.716C41.9348 38.9108 42.0662 38.9648 42.3103 38.9249C43.8627 38.6726 45.4186 38.4473 46.9733 38.2102C47.8357 38.08 48.6958 37.9427 49.5547 37.8124C49.6607 37.7903 49.7695 37.7844 49.8773 37.7948C50.0393 37.8267 50.1872 37.9086 50.3 38.0291C50.4129 38.1495 50.485 38.3024 50.5063 38.466C50.5119 38.6234 50.4665 38.7784 50.3768 38.9078C50.2872 39.0372 50.1581 39.1342 50.0088 39.1842C49.7558 39.2608 49.4967 39.3158 49.2343 39.3485C47.709 39.5832 46.1836 39.8061 44.6582 40.0373C43.8674 40.1593 43.066 40.2919 42.2423 40.4233ZM40.7615 40.0115C40.7607 39.8641 40.7162 39.7202 40.6334 39.5982C40.5507 39.4762 40.4335 39.3816 40.2969 39.3264C40.1602 39.2712 40.0102 39.2579 39.866 39.2882C39.7217 39.3185 39.5898 39.3911 39.4869 39.4966C39.384 39.6022 39.3148 39.736 39.2882 39.8809C39.2616 40.0259 39.2787 40.1755 39.3373 40.3108C39.396 40.446 39.4936 40.5607 39.6176 40.6403C39.7417 40.7199 39.8866 40.7608 40.034 40.7578C40.1316 40.7595 40.2285 40.7412 40.3188 40.704C40.409 40.6669 40.4907 40.6116 40.5589 40.5417C40.627 40.4718 40.6801 40.3887 40.715 40.2975C40.7498 40.2064 40.7656 40.109 40.7615 40.0115Z" fill="#A3A3A3"/>
<path d="M39.2689 25.7308C39.2689 25.3095 39.2584 24.8882 39.2689 24.467C39.2725 24.2809 39.3103 24.0972 39.3804 23.9248C39.4362 23.8038 39.5254 23.7013 39.6376 23.6295C39.7498 23.5577 39.8802 23.5195 40.0134 23.5195C40.1467 23.5195 40.2771 23.5577 40.3893 23.6295C40.5015 23.7013 40.5907 23.8038 40.6465 23.9248C40.7212 24.0955 40.7611 24.2795 40.7638 24.4658C40.7744 25.3095 40.772 26.1532 40.7638 26.9957C40.7629 27.1511 40.74 27.3056 40.6957 27.4545C40.6575 27.6082 40.5654 27.7431 40.4363 27.8348C40.3071 27.9265 40.1494 27.9689 39.9917 27.9544C39.8419 27.9588 39.695 27.9117 39.5757 27.8209C39.4564 27.7302 39.3717 27.6013 39.3358 27.4557C39.2914 27.2908 39.2685 27.1208 39.2678 26.95C39.2619 26.5428 39.2689 26.1368 39.2689 25.7308Z" fill="#A3A3A3"/>
<path d="M25.7506 39.2652C26.1566 39.2652 26.5625 39.2581 26.9685 39.2652C27.1395 39.2666 27.3096 39.2906 27.4742 39.3367C27.6137 39.3844 27.735 39.4742 27.8214 39.5936C27.9078 39.713 27.9551 39.8563 27.9568 40.0037C27.9585 40.1511 27.9145 40.2955 27.8308 40.4168C27.7471 40.5382 27.6279 40.6306 27.4895 40.6815C27.3255 40.7314 27.1552 40.7571 26.9838 40.7578C26.1562 40.7648 25.3289 40.7648 24.5021 40.7578C24.3311 40.7569 24.1613 40.7296 23.9987 40.6768C23.8574 40.6285 23.7351 40.5366 23.6495 40.4143C23.5638 40.2919 23.5193 40.1455 23.5223 39.9962C23.523 39.8541 23.5677 39.7158 23.6503 39.6002C23.7329 39.4846 23.8493 39.3974 23.9835 39.3508C24.1452 39.2954 24.3148 39.2664 24.4857 39.2652C24.9069 39.2569 25.3282 39.2652 25.7506 39.2652Z" fill="#A3A3A3"/>
<path d="M54.2528 40.7648C53.8469 40.7648 53.4397 40.7742 53.0349 40.7648C52.8484 40.7613 52.6635 40.7288 52.4869 40.6686C52.3643 40.6096 52.2609 40.5171 52.1885 40.4019C52.1161 40.2867 52.0777 40.1534 52.0777 40.0173C52.0777 39.8813 52.1161 39.748 52.1885 39.6328C52.2609 39.5175 52.3643 39.4251 52.4869 39.3661C52.6004 39.313 52.7232 39.2827 52.8483 39.2769C53.8011 39.2698 54.7535 39.2698 55.7055 39.2769C55.8459 39.283 55.9833 39.3199 56.1079 39.3849C56.2302 39.4397 56.3335 39.5294 56.4049 39.6428C56.4763 39.7561 56.5126 39.8881 56.5092 40.022C56.5141 40.1564 56.4777 40.2891 56.4049 40.4022C56.3321 40.5152 56.2264 40.6033 56.1021 40.6545C55.9291 40.7236 55.745 40.7609 55.5588 40.7648C55.1317 40.7754 54.6893 40.7648 54.2528 40.7648Z" fill="#A3A3A3"/>
<path d="M39.2689 54.291C39.2689 53.8686 39.2619 53.4473 39.2689 53.026C39.272 52.8552 39.2997 52.6856 39.3511 52.5226C39.3967 52.3883 39.4846 52.2723 39.6015 52.192C39.7184 52.1116 39.8582 52.0712 39.9999 52.0767C40.1495 52.0654 40.2985 52.1049 40.4229 52.1888C40.5472 52.2727 40.6397 52.3961 40.6852 52.5391C40.7334 52.6869 40.7591 52.8412 40.7615 52.9967C40.7685 53.8557 40.7697 54.7134 40.7615 55.5724C40.7625 55.7435 40.7306 55.9132 40.6676 56.0723C40.6142 56.203 40.5227 56.3147 40.405 56.3927C40.2873 56.4708 40.1489 56.5116 40.0077 56.51C39.8665 56.5084 39.729 56.4643 39.6132 56.3835C39.4973 56.3027 39.4085 56.189 39.3581 56.057C39.3006 55.8958 39.2708 55.726 39.2701 55.5548C39.2607 55.1288 39.2689 54.7123 39.2689 54.291Z" fill="#A3A3A3"/>
<path d="M33.6262 52.3396C33.6009 52.474 33.5616 52.6053 33.5089 52.7315C33.2601 53.1821 33.0043 53.628 32.738 54.0681C32.5737 54.3415 32.3027 54.4048 32.0046 54.372C31.8715 54.3575 31.7462 54.3021 31.646 54.2134C31.5457 54.1247 31.4755 54.0071 31.4449 53.8768C31.3992 53.762 31.3959 53.6347 31.4355 53.5177C31.7222 52.9504 32.0443 52.4017 32.4 51.8749C32.6511 51.5229 33.1463 51.5721 33.415 51.9066C33.5031 52.0416 33.574 52.187 33.6262 52.3396Z" fill="#A3A3A3"/>
<path d="M48.6336 53.5951C48.6441 53.9108 48.4423 54.2441 48.1971 54.3297C48.0672 54.3855 47.9241 54.403 47.7846 54.3801C47.6451 54.3572 47.515 54.295 47.4098 54.2006C47.3418 54.1361 47.2833 54.0622 47.2361 53.9812C47.0143 53.6057 46.7843 53.2337 46.5849 52.8465C46.5036 52.6808 46.4591 52.4995 46.4546 52.3149C46.4464 52.0192 46.6248 51.828 46.8864 51.7071C47.1481 51.5862 47.4062 51.6543 47.6198 51.8409C47.7123 51.9245 47.7915 52.0218 47.8545 52.1295C48.0704 52.4909 48.2816 52.8547 48.4846 53.2232C48.543 53.3435 48.5928 53.4678 48.6336 53.5951Z" fill="#A3A3A3"/>
<path d="M33.5969 27.5883C33.5887 27.9814 33.4162 28.2255 33.1158 28.3393C32.9755 28.3871 32.8239 28.3902 32.6819 28.3482C32.5398 28.3061 32.4143 28.221 32.3226 28.1046C32.1527 27.8617 31.996 27.6099 31.8532 27.3501C31.7136 27.123 31.5875 26.8879 31.4754 26.646C31.3986 26.4824 31.3877 26.2955 31.4449 26.124C31.5022 25.9525 31.6232 25.8096 31.7828 25.7249C31.9364 25.6453 32.113 25.6223 32.2819 25.6598C32.4507 25.6973 32.6009 25.7931 32.7063 25.9302C32.8655 26.161 33.0113 26.4008 33.1428 26.6484C33.2683 26.8631 33.3986 27.0767 33.5089 27.2996C33.5496 27.392 33.5791 27.4889 33.5969 27.5883Z" fill="#A3A3A3"/>
<path d="M47.8932 25.651C48.4142 25.651 48.7744 26.1332 48.5667 26.5897C48.3198 27.1093 48.0371 27.6112 47.7207 28.0917C47.6257 28.227 47.4856 28.3239 47.3256 28.3649C47.1655 28.406 46.9961 28.3886 46.8477 28.3158C46.6984 28.2445 46.5784 28.1238 46.5078 27.9741C46.4372 27.8244 46.4205 27.655 46.4605 27.4944C46.4843 27.3882 46.5239 27.2862 46.5778 27.1917C46.7914 26.8115 47.0108 26.4348 47.2326 26.0593C47.3875 25.7929 47.6057 25.6404 47.8932 25.651Z" fill="#A3A3A3"/>
<path d="M27.5845 33.5951C27.5307 33.593 27.4775 33.5819 27.4273 33.5623C26.9134 33.2701 26.3713 33.0143 25.9019 32.6646C25.4326 32.3149 25.6121 31.6085 26.1659 31.4419C26.2974 31.3986 26.44 31.4031 26.5684 31.4548C27.0951 31.7207 27.6071 32.0148 28.102 32.336C28.4399 32.5648 28.474 32.9227 28.2827 33.2466C28.1302 33.5024 27.8896 33.5881 27.5845 33.5951Z" fill="#A3A3A3"/>
<path d="M52.4822 33.5951C52.0669 33.5951 51.8298 33.4344 51.7066 33.1363C51.5834 32.8383 51.628 32.5496 51.9214 32.3478C52.4116 32.0222 52.921 31.7263 53.4467 31.4618C53.7401 31.3128 54.0733 31.4536 54.261 31.7223C54.3457 31.8541 54.3869 32.0092 54.3787 32.1656C54.3705 32.3221 54.3133 32.472 54.2153 32.5942C54.1312 32.6867 54.0335 32.7659 53.9255 32.8289C53.5735 33.0389 53.2297 33.2466 52.8694 33.4402C52.7445 33.5016 52.615 33.5533 52.4822 33.5951Z" fill="#A3A3A3"/>
<path d="M25.6567 47.8735C25.6552 47.7516 25.6862 47.6315 25.7464 47.5255C25.8066 47.4196 25.8939 47.3315 25.9993 47.2703C26.4264 47.0134 26.8559 46.7599 27.2971 46.5276C27.4385 46.4664 27.5928 46.4406 27.7465 46.4524C28.0433 46.4618 28.2158 46.6461 28.3331 46.9089C28.4505 47.1718 28.3683 47.3971 28.2029 47.6012C28.1341 47.686 28.0511 47.7583 27.9577 47.8148C27.5435 48.0624 27.1363 48.3194 26.7033 48.5388C26.5924 48.6011 26.4667 48.6321 26.3395 48.6286C26.2124 48.6251 26.0885 48.5872 25.9812 48.519C25.8738 48.4507 25.787 48.3547 25.7298 48.241C25.6727 48.1274 25.6474 48.0004 25.6567 47.8735Z" fill="#A3A3A3"/>
<path d="M54.3819 47.9286C54.3802 48.0454 54.3495 48.1599 54.2925 48.2619C54.2355 48.3638 54.154 48.45 54.0554 48.5126C53.9568 48.5753 53.8442 48.6124 53.7277 48.6206C53.6112 48.6289 53.4945 48.608 53.3881 48.5599C52.9139 48.3241 52.455 48.0587 52.0141 47.7655C51.6268 47.5097 51.5447 47.1366 51.75 46.7939C51.9554 46.4513 52.3672 46.3245 52.7709 46.5405C53.198 46.7634 53.6145 47.0098 54.0252 47.2633C54.1435 47.3268 54.2404 47.4239 54.3038 47.5422C54.3673 47.6605 54.3944 47.7949 54.3819 47.9286Z" fill="#A3A3A3"/>
</svg>
