<svg width="182" height="40" viewBox="0 0 182 40" fill="none" xmlns="http://www.w3.org/2000/svg">
<path d="M31.5488 3.70368C23.4472 -1.83419 12.7053 -1.20268 5.63724 5.87407C3.94008 7.57376 2.8221 9.28428 1.79824 11.6627C0.856505 13.852 0 16.9572 0 19.9883C0 24.4563 1.71533 28.6244 3.5499 31.3188C5.55337 34.2644 8.53684 36.7208 11.7727 38.1754C28.2803 45.5866 45.462 29.1342 38.3495 11.9859C37.0079 8.75116 34.2591 5.55512 31.5488 3.70368ZM3.46487 12.7235C6.24252 6.27865 11.4531 1.80199 20.0305 1.80199C27.2775 1.80199 33.2657 5.95893 36.2755 11.9936C36.783 13.0161 37.0956 13.9828 37.447 15.1581L38.164 18.9547H34.2763C34.2763 15.1411 32.3381 11.9681 29.8919 9.49749C23.5241 3.07217 11.7499 4.543 7.15313 13.5104C6.13874 15.4918 6.11149 16.6612 5.57463 18.9555H1.86066C2.0943 16.6991 2.64083 14.6356 3.46487 12.7235ZM32.4144 18.9555H28.9042C27.8337 14.3476 25.0197 11.1017 19.8225 11.1017C14.9152 11.1052 12.0711 14.5846 11.1498 18.9555H7.43587L7.93427 16.5632C8.40098 14.6965 10.0396 11.8991 11.3537 10.8925C11.9733 10.4151 12.2466 10.0919 12.9647 9.61019C16.7507 7.07794 20.6487 6.82511 24.9589 8.4413C28.7422 9.858 32.415 14.7361 32.415 18.9555H32.4144ZM27.5858 36.4373C22.8483 38.58 16.9689 38.7491 12.3229 36.2467L10.5324 35.2802H29.5261L27.5858 36.4373ZM31.7974 33.4218H8.2599C7.44669 33.4218 5.79223 31.1569 5.37036 30.5308H34.6885C34.3025 31.1068 32.5134 33.422 31.7974 33.422V33.4218ZM35.8546 28.636L35.2275 28.6683H4.31383L2.89109 25.7767H37.1658L35.8546 28.636ZM37.7854 23.9143H2.27345C1.97506 23.5035 1.72654 21.2631 1.86066 21.0215H13.0115C13.0115 18.6122 13.122 16.9724 14.9112 15.0725C17.5508 12.271 22.3391 12.2795 25.035 14.9783C26.9069 16.8547 27.0485 18.7738 27.0485 21.0215H38.1993C38.2844 21.8357 38.0629 23.1844 37.7854 23.9145V23.9143Z" fill="#FF5100"/>
<path d="M101.516 31.9992C98.8949 31.9992 96.7394 31.0319 95.11 29.1264C93.5059 27.2479 92.6923 24.6946 92.6923 21.5366V18.3351C92.6923 16.34 93.0487 14.5431 93.7522 12.9943C94.4753 11.41 95.5235 10.1675 96.8681 9.30331C98.2096 8.43814 99.763 8 101.485 8C103.213 8 104.773 8.43814 106.12 9.30331C107.463 10.1683 108.511 11.4139 109.235 13.0057C109.947 14.5629 110.308 16.3567 110.308 18.3351V21.6617C110.308 23.6529 109.952 25.4495 109.247 27.0078C108.526 28.588 107.483 29.8278 106.144 30.6939C104.805 31.56 103.247 31.9992 101.516 31.9992ZM101.485 10.0136C99.4033 10.0136 97.7926 10.7346 96.5603 12.2165C95.324 13.7132 94.6965 15.7982 94.6965 18.4131V21.6625C94.6965 23.3331 94.9828 24.8269 95.5476 26.1046C96.1016 27.3483 96.8974 28.3194 97.9116 28.9852C98.9259 29.651 100.137 29.9861 101.516 29.9861C103.626 29.9861 105.247 29.2628 106.468 27.7746C107.696 26.2736 108.319 24.1734 108.319 21.537V18.3053C108.319 15.779 107.691 13.7337 106.453 12.2286C105.221 10.738 103.596 10.0136 101.485 10.0136ZM82.6282 32C80.9856 32 79.4784 31.7151 78.1508 31.1548C76.7887 30.5725 75.7453 29.7303 75.0482 28.6513C74.3519 27.5681 74 26.2819 74 24.8269V24.2256H75.9905V24.8256C75.9905 26.4634 76.5682 27.6951 77.7584 28.5904C78.9855 29.5163 80.624 29.9849 82.6282 29.9849C84.4003 29.9849 85.873 29.5728 87.0063 28.7587C88.0897 27.9823 88.6161 27.0074 88.6161 25.7776C88.6161 24.9615 88.4294 24.2663 88.0615 23.713C87.6788 23.1369 87.0603 22.6172 86.2259 22.1664C85.3301 21.6843 83.9452 21.1814 82.1146 20.6722C80.1492 20.1191 78.7185 19.5766 77.7388 19.0139C76.7123 18.4274 75.9428 17.7273 75.4533 16.9341C74.9556 16.1287 74.7038 15.1499 74.7038 14.0271C74.7038 12.2131 75.4609 10.7293 76.9548 9.61745C78.3805 8.5448 80.2552 8.00019 82.5246 8.00019C84.0103 8.00019 85.3652 8.30057 86.5517 8.89437C87.7547 9.48817 88.7058 10.3454 89.3763 11.4435C90.0412 12.5437 90.3776 13.792 90.3776 15.1559V15.7569H88.3903V15.1558C88.3903 13.6614 87.8665 12.4621 86.7901 11.4872C85.6961 10.496 84.3016 10.0128 82.5255 10.0128C80.7494 10.0128 79.3002 10.4135 78.2229 11.2034C77.1949 11.9589 76.6947 12.8691 76.6947 13.9859C76.6947 15.1296 77.1256 16.0239 78.0111 16.7219C78.974 17.4837 80.6125 18.1745 82.883 18.7724C85.3476 19.4203 87.1138 20.1643 88.2829 21.044C89.8323 22.2013 90.6192 23.7801 90.6192 25.7373C90.6192 26.9837 90.2669 28.1016 89.5742 29.0617C88.8914 30.0083 87.9182 30.7459 86.6816 31.2532C85.4829 31.7477 84.119 31.9992 82.628 31.9992L82.6282 32ZM182 31.687H180.229L174.432 22.1758H167.795V31.687H165.802V8.31301H173.339C175.664 8.31301 177.551 8.93904 178.946 10.1745C180.367 11.435 181.086 13.1593 181.086 15.2954C181.086 16.9432 180.573 18.4048 179.564 19.6333C178.737 20.6434 177.713 21.3482 176.513 21.7358L182 30.701L182 31.687ZM167.795 20.1613H174.072C175.58 20.1613 176.81 19.6958 177.724 18.7796C178.648 17.8541 179.098 16.7137 179.098 15.2954C179.098 13.7458 178.603 12.558 177.591 11.6689C176.563 10.7777 175.112 10.3249 173.278 10.3249H167.795V20.1613ZM162.868 31.6862H148.423V8.31301H162.869V10.3249H150.417V18.6648H161.34V20.6767H150.417V29.6732H162.869L162.868 31.6862ZM137.55 31.6862H129.94V8.31301H136.261C138.74 8.31301 140.654 8.84613 141.951 9.89899C143.295 10.9801 143.978 12.5623 143.978 14.5985C143.978 16.0709 143.6 17.3167 142.855 18.3017C142.473 18.808 141.996 19.2333 141.453 19.5539C142.199 19.9003 142.864 20.3991 143.437 21.0472C144.453 22.1779 144.968 23.5025 144.968 24.9816C144.968 27.0412 144.295 28.6941 142.967 29.8965C141.657 31.084 139.834 31.6862 137.551 31.6862H137.55ZM131.926 29.6732H137.639C139.354 29.6732 140.651 29.2662 141.603 28.4272C142.53 27.609 142.982 26.492 142.982 25.0163C142.982 23.7855 142.547 22.7994 141.652 21.9979C140.75 21.1914 139.502 20.7687 137.944 20.7415H131.925L131.926 29.6732ZM131.926 18.7274H136.565C138.406 18.7274 139.795 18.3758 140.692 17.6798C141.554 17.0161 141.972 15.9874 141.972 14.5307C141.972 12.7564 141.398 10.3895 136.436 10.3249H131.926L131.926 18.7274ZM127.298 31.6862H114.113V8.31301H116.118V29.6732H127.299L127.298 31.6862Z" fill="#FF5100"/>
<path d="M58 0H56V40H58V0Z" fill="#FF5100"/>
</svg>
