<svg width="332" height="332" viewBox="0 0 332 332" fill="none" xmlns="http://www.w3.org/2000/svg">
<path d="M261.855 30.7406C194.612 -15.2238 105.454 -9.98224 46.7888 48.7546C32.7025 62.8621 23.4235 77.0594 14.925 96.8C7.10866 114.971 0 140.744 0 165.903C0 202.987 14.2375 237.582 29.464 259.947C46.0927 284.394 70.8556 304.783 97.7137 316.856C234.727 378.369 377.335 241.813 318.301 99.4823C307.165 72.6346 284.35 46.1073 261.855 30.7406ZM28.7586 105.605C51.8132 52.1125 95.0604 14.9565 166.253 14.9565C226.404 14.9565 276.105 49.4589 301.086 99.5467C305.299 108.034 307.894 116.057 310.81 125.812L316.761 157.324H284.493C284.493 125.671 268.406 99.3352 248.102 78.829C195.251 25.4994 97.5238 37.7069 59.3706 112.137C50.9512 128.581 50.7256 138.288 46.2695 157.33H15.4436C17.3829 138.603 21.919 121.476 28.7586 105.605ZM269.04 157.33L239.905 157.33C231.019 119.085 207.663 92.1439 164.527 92.1439C123.797 92.1733 100.19 121.052 92.5436 157.33H61.7177L65.8545 137.475C69.7278 121.981 83.3289 98.762 94.2357 90.4085C99.3786 86.4456 101.647 83.7626 107.607 79.7647C139.031 58.7473 171.384 56.6486 207.159 70.0629C238.56 81.8213 269.04 122.31 269.04 157.33ZM228.962 302.43C189.641 320.214 140.842 321.618 102.28 300.848L87.4185 292.826H245.066L228.962 302.43ZM263.918 277.401H68.5574C61.8076 277.401 48.0755 258.602 44.5743 253.406L287.914 253.406C284.711 258.186 269.861 277.401 263.918 277.401ZM297.592 237.679L292.388 237.947L35.8045 237.947L23.9963 213.947L308.476 213.947L297.592 237.679ZM313.618 198.488L18.8696 198.488C16.3931 195.079 14.3305 176.484 15.4436 174.479H107.995C107.995 154.481 108.913 140.871 123.762 125.102C145.672 101.849 185.414 101.92 207.791 124.32C223.327 139.894 224.503 155.822 224.503 174.479L317.054 174.479C317.76 181.236 315.922 192.428 313.618 198.488Z" fill="#FF5100"/>
</svg>
