<svg width="342" height="480" viewBox="0 0 342 480" fill="none" xmlns="http://www.w3.org/2000/svg">
<path d="M320.932 124.398H259.405V126.61H320.932C339.852 126.61 355.258 142.016 355.258 160.936V207.646H357.469V160.911C357.469 140.788 341.08 124.398 320.932 124.398Z" fill="#F5F5F5"/>
<path d="M320.932 129.559H259.405V131.77H320.932C337.001 131.77 350.073 144.842 350.073 160.912V207.622H352.285V160.912C352.309 143.638 338.23 129.559 320.932 129.559Z" fill="#F5F5F5"/>
<path d="M320.932 134.719H259.405V136.93H320.932C334.151 136.93 344.913 147.692 344.913 160.912V207.622H347.125V160.912C347.125 146.488 335.38 134.719 320.932 134.719Z" fill="#F5F5F5"/>
<path d="M320.932 139.883H259.405V142.094H320.932C331.301 142.094 339.753 150.547 339.753 160.916V207.626H341.965V160.916C341.965 149.318 332.529 139.883 320.932 139.883Z" fill="#F5F5F5"/>
<path d="M320.932 145.066H259.405V147.278H320.932C328.451 147.278 334.593 153.396 334.593 160.939V207.65H336.805V160.915C336.805 152.168 329.679 145.066 320.932 145.066Z" fill="#F5F5F5"/>
<path d="M320.932 150.227H259.405V152.438H320.932C325.6 152.438 329.409 156.247 329.409 160.915V207.625H331.62V160.915C331.645 155.018 326.829 150.227 320.932 150.227Z" fill="#F5F5F5"/>
<path d="M98.3193 131.254V78.3516H96.1079V131.254C96.1079 151.402 112.497 167.791 132.645 167.791H186.358V165.58H132.621C113.701 165.58 98.3193 150.173 98.3193 131.254Z" fill="#F5F5F5"/>
<path d="M103.478 131.254V78.3516H101.267V131.254C101.267 148.552 115.346 162.607 132.62 162.607H186.332V160.395H132.62C116.55 160.395 103.478 147.323 103.478 131.254Z" fill="#F5F5F5"/>
<path d="M108.64 131.254V78.3516H106.428V131.254C106.428 145.701 118.173 157.447 132.621 157.447H186.334V155.235H132.621C119.402 155.235 108.64 144.473 108.64 131.254Z" fill="#F5F5F5"/>
<path d="M113.794 131.254V78.3516H111.583V131.254C111.583 142.851 121.018 152.287 132.616 152.287H186.329V150.075H132.616C122.247 150.075 113.794 141.623 113.794 131.254Z" fill="#F5F5F5"/>
<path d="M118.978 131.254V78.3516H116.766V131.254C116.766 140.001 123.892 147.127 132.639 147.127H186.352V144.915H132.615C125.096 144.915 118.978 138.772 118.978 131.254Z" fill="#F5F5F5"/>
<path d="M124.14 131.254V78.3516H121.928V131.254C121.928 137.151 126.72 141.967 132.617 141.967H186.33V139.755H132.617C127.948 139.731 124.14 135.922 124.14 131.254Z" fill="#F5F5F5"/>
<path d="M257.195 197.158C257.195 216.078 241.789 231.484 222.869 231.484C203.949 231.484 188.543 216.103 188.543 197.158V106.981C188.543 101.084 183.752 96.293 177.855 96.293C171.958 96.293 167.142 101.084 167.142 106.981V139.735H169.353V106.981C169.353 102.313 173.162 98.5044 177.83 98.5044C182.499 98.5044 186.307 102.313 186.307 106.981V197.158C186.307 217.307 202.696 233.696 222.845 233.696C242.993 233.696 259.382 217.307 259.382 197.158V113.64H257.171V197.158H257.195Z" fill="#F5F5F5"/>
<path d="M252.013 197.155C252.013 213.225 238.941 226.297 222.871 226.297C206.801 226.297 193.73 213.225 193.73 197.155V106.979C193.73 98.2311 186.604 91.1055 177.856 91.1055C169.109 91.1055 161.983 98.2311 161.983 106.979V139.732H164.195V106.979C164.195 99.4597 170.313 93.3169 177.856 93.3169C185.375 93.3169 191.518 99.4351 191.518 106.979V197.155C191.518 214.453 205.597 228.508 222.871 228.508C240.169 228.508 254.224 214.429 254.224 197.155V113.637H252.013V197.155Z" fill="#F5F5F5"/>
<path d="M246.851 197.159C246.851 210.378 236.088 221.141 222.869 221.141C209.65 221.141 198.887 210.378 198.887 197.159V106.982C198.887 95.3846 189.452 85.9492 177.854 85.9492C166.257 85.9492 156.821 95.3846 156.821 106.982V139.736H159.033V106.982C159.033 96.6132 167.485 88.1606 177.854 88.1606C188.223 88.1606 196.676 96.6132 196.676 106.982V197.159C196.676 211.607 208.421 223.352 222.869 223.352C237.317 223.352 249.062 211.607 249.062 197.159V113.641H246.851V197.159Z" fill="#F5F5F5"/>
<path d="M241.688 197.155C241.688 207.524 233.236 215.976 222.867 215.976C212.498 215.976 204.045 207.524 204.045 197.155V106.978C204.045 92.5302 192.3 80.7852 177.852 80.7852C163.404 80.7852 151.659 92.5302 151.659 106.978V139.732H153.871V106.978C153.871 93.7588 164.633 82.9966 177.852 82.9966C191.072 82.9966 201.834 93.7588 201.834 106.978V197.155C201.834 208.753 211.269 218.188 222.867 218.188C234.464 218.188 243.9 208.753 243.9 197.155V113.637H241.688V197.155Z" fill="#F5F5F5"/>
<path d="M236.53 197.155C236.53 204.673 230.411 210.816 222.868 210.816C215.349 210.816 209.206 204.698 209.206 197.155V106.978C209.206 89.6798 195.127 75.625 177.853 75.625C160.555 75.625 146.5 89.7044 146.5 106.978V139.732H148.712V106.978C148.712 90.9084 161.784 77.8364 177.853 77.8364C193.923 77.8364 206.995 90.9084 206.995 106.978V197.155C206.995 205.902 214.121 213.028 222.868 213.028C231.615 213.028 238.741 205.902 238.741 197.155V113.637H236.53V197.155Z" fill="#F5F5F5"/>
<path d="M231.343 197.156C231.343 201.824 227.535 205.633 222.866 205.633C218.198 205.633 214.389 201.824 214.389 197.156V106.979C214.389 86.8305 198 70.4414 177.851 70.4414C157.703 70.4414 141.314 86.8305 141.314 106.979V139.732H143.525V106.979C143.525 88.059 158.932 72.6528 177.851 72.6528C196.771 72.6528 212.178 88.059 212.178 106.979V197.156C212.178 203.053 216.969 207.844 222.866 207.844C228.763 207.844 233.579 203.053 233.579 197.156V113.638H231.368V197.156H231.343Z" fill="#F5F5F5"/>
<path d="M85.3671 190.593C85.3671 209.513 69.9854 224.919 51.0409 224.919C32.121 224.919 16.7148 209.513 16.7148 190.593V146.488H14.5034V190.593C14.5034 210.742 30.8925 227.131 51.0409 227.131C71.1894 227.131 87.5785 210.742 87.5785 190.593V78.3516H85.3671V190.593Z" fill="#F5F5F5"/>
<path d="M80.2055 190.593C80.2055 206.663 67.1336 219.735 51.0639 219.735C34.9943 219.735 21.9224 206.663 21.9224 190.593V146.488H19.7109V190.593C19.7109 207.891 33.7903 221.946 51.0639 221.946C68.3621 221.946 82.4169 207.867 82.4169 190.593V78.3516H80.2055V190.593Z" fill="#F5F5F5"/>
<path d="M75.0232 190.593C75.0232 203.813 64.261 214.575 51.0416 214.575C37.8223 214.575 27.0601 203.813 27.0601 190.593V146.488H24.8486V190.593C24.8486 205.041 36.5937 216.786 51.0416 216.786C65.4896 216.786 77.2346 205.041 77.2346 190.593V78.3516H75.0232V190.593Z" fill="#F5F5F5"/>
<path d="M69.8654 190.593C69.8654 200.962 61.4129 209.415 51.0438 209.415C40.6747 209.415 32.2222 200.962 32.2222 190.593V146.488H30.0107V190.593C30.0107 202.191 39.4461 211.626 51.0438 211.626C62.6414 211.626 72.0768 202.191 72.0768 190.593V78.3516H69.8654V190.593Z" fill="#F5F5F5"/>
<path d="M64.7036 190.593C64.7036 198.112 58.5854 204.255 51.042 204.255C43.5232 204.255 37.3804 198.137 37.3804 190.593V146.488H35.1689V190.593C35.1689 199.341 42.2946 206.466 51.042 206.466C59.7894 206.466 66.9151 199.341 66.9151 190.593V78.3516H64.7036V190.593Z" fill="#F5F5F5"/>
<path d="M59.546 190.593C59.546 195.262 55.7374 199.07 51.0689 199.07C46.4003 199.07 42.5918 195.262 42.5918 190.593V146.488H40.3804V190.593C40.3804 196.49 45.1718 201.282 51.0935 201.282C56.9906 201.282 61.782 196.49 61.782 190.593V78.3516H59.5706V190.593H59.546Z" fill="#F5F5F5"/>
<path d="M0.644463 120.665H59.5173V118.453H0.644463C-19.504 118.453 -35.8931 134.842 -35.8931 154.991V239.737H-33.6816V154.991C-33.6571 136.071 -18.2754 120.665 0.644463 120.665Z" fill="#F5F5F5"/>
<path d="M0.646441 125.852H59.5193V123.641H0.646441C-16.6518 123.641 -30.7065 137.72 -30.7065 154.994V239.74H-28.4951V154.994C-28.4951 138.924 -15.4232 125.852 0.646441 125.852Z" fill="#F5F5F5"/>
<path d="M0.64467 131.008H59.5175V128.797H0.64467C-13.8033 128.797 -25.5483 140.542 -25.5483 154.99V239.736H-23.3369V154.99C-23.3369 141.771 -12.5747 131.008 0.64467 131.008Z" fill="#F5F5F5"/>
<path d="M0.642899 136.172H59.5157V133.961H0.642899C-10.9548 133.961 -20.3901 143.396 -20.3901 154.994V239.74H-18.1787V154.994C-18.1787 144.625 -9.72619 136.172 0.642899 136.172Z" fill="#F5F5F5"/>
<path d="M0.648451 141.329H59.5213V139.117H0.648451C-8.09893 139.117 -15.2246 146.243 -15.2246 154.99V239.737H-13.0132V154.99C-12.9886 147.471 -6.87037 141.329 0.648451 141.329Z" fill="#F5F5F5"/>
<path d="M0.647168 146.516H59.52V144.305H0.647168C-5.24994 144.305 -10.0659 149.096 -10.0659 154.993V239.74H-7.8545V154.993C-7.82993 150.3 -4.02138 146.516 0.647168 146.516Z" fill="#F5F5F5"/>
<path d="M129.671 210.353C129.671 205.684 133.479 201.875 138.148 201.875C142.816 201.875 146.625 205.684 146.625 210.353V239.74H148.836V210.353C148.836 204.455 144.045 199.664 138.123 199.664C132.226 199.664 127.435 204.455 127.435 210.353V239.74H129.646V210.353H129.671Z" fill="#F5F5F5"/>
<path d="M124.508 210.35C124.508 202.831 130.627 196.688 138.17 196.688C145.689 196.688 151.832 202.806 151.832 210.35V239.737H154.043V210.35C154.043 201.602 146.917 194.477 138.17 194.477C129.423 194.477 122.297 201.602 122.297 210.35V239.737H124.508V210.35Z" fill="#F5F5F5"/>
<path d="M119.322 210.353C119.322 199.984 127.774 191.532 138.143 191.532C148.512 191.532 156.965 199.984 156.965 210.353V239.741H159.176V210.353C159.176 198.756 149.741 189.32 138.143 189.32C126.546 189.32 117.11 198.756 117.11 210.353V239.741H119.322V210.353Z" fill="#F5F5F5"/>
<path d="M114.167 210.349C114.167 197.13 124.929 186.368 138.149 186.368C151.368 186.368 162.13 197.13 162.13 210.349V239.737H164.342V210.349C164.342 195.901 152.596 184.156 138.149 184.156C123.701 184.156 111.956 195.901 111.956 210.349V239.737H114.167V210.349Z" fill="#F5F5F5"/>
<path d="M109.005 210.353C109.005 194.283 122.077 181.211 138.146 181.211C154.216 181.211 167.313 194.259 167.313 210.353V239.74H169.524V210.353C169.524 193.055 155.445 179 138.171 179C120.897 179 106.793 193.055 106.793 210.353V239.74H109.005V210.353Z" fill="#F5F5F5"/>
<path d="M103.843 210.354C103.843 191.434 119.249 176.028 138.169 176.028C157.089 176.028 172.495 191.434 172.495 210.354V239.741H174.706V210.354C174.706 190.205 158.317 173.816 138.169 173.816C118.02 173.816 101.631 190.205 101.631 210.354V239.741H103.843V210.354Z" fill="#F5F5F5"/>
<path d="M372.019 207.619H308.846C304.178 207.619 300.369 203.81 300.369 199.142C300.369 194.473 304.178 190.665 308.846 190.665H329.412V188.453H308.846C302.949 188.453 298.158 193.245 298.158 199.166C298.158 205.063 302.949 209.855 308.846 209.855H372.019C377.007 209.855 381.725 210.936 386 212.852V210.444C381.7 208.626 376.958 207.619 372.019 207.619Z" fill="#F5F5F5"/>
<path d="M372.017 228.284H308.844C292.774 228.284 279.702 215.212 279.702 199.142C279.702 183.072 292.774 170 308.844 170H329.484V167.789H308.844C291.546 167.789 277.491 181.868 277.491 199.142C277.491 216.44 291.57 230.495 308.844 230.495H372.017C377.987 230.495 383.074 234.353 384.916 239.709H385.998V236.662C383.319 231.699 378.061 228.284 372.017 228.284Z" fill="#F5F5F5"/>
<path d="M372.018 233.469H308.845C289.925 233.469 274.519 218.063 274.519 199.143C274.519 180.223 289.925 164.817 308.845 164.817H329.411V162.605H308.845C288.697 162.605 272.308 178.995 272.308 199.143C272.308 219.291 288.697 235.681 308.845 235.681H372.018C375.065 235.681 377.743 237.302 379.242 239.735H381.748C380.053 236.049 376.342 233.469 372.018 233.469Z" fill="#F5F5F5"/>
<path d="M308.844 212.804C301.325 212.804 295.182 206.686 295.182 199.143C295.182 191.624 301.3 185.481 308.844 185.481H329.41V183.27H308.844C300.096 183.27 292.971 190.395 292.971 199.143C292.971 207.89 300.096 215.016 308.844 215.016H372.017C377.078 215.016 381.845 216.318 385.998 218.603V216.121C381.771 214.008 377.029 212.829 372.017 212.829H308.844V212.804Z" fill="#F5F5F5"/>
<path d="M308.846 217.96C298.477 217.96 290.024 209.508 290.024 199.139C290.024 188.769 298.477 180.317 308.846 180.317H329.412V178.105H308.846C297.248 178.105 287.813 187.541 287.813 199.139C287.813 210.736 297.248 220.172 308.846 220.172H372.019C377.228 220.172 382.069 221.842 386 224.693V222.014C381.946 219.434 377.154 217.96 372.019 217.96H308.846Z" fill="#F5F5F5"/>
<path d="M308.845 223.124C295.625 223.124 284.863 212.362 284.863 199.142C284.863 185.923 295.625 175.161 308.845 175.161H329.411V172.949H308.845C294.397 172.949 282.652 184.694 282.652 199.142C282.652 213.59 294.397 225.335 308.845 225.335H372.018C377.571 225.335 382.559 227.743 385.999 231.576V228.456C382.288 225.139 377.374 223.124 372.018 223.124H308.845Z" fill="#F5F5F5"/>
<path d="M374.302 28.1577H307.738C301.841 28.1577 297.049 32.9491 297.049 38.8463V40.5662H299.261V38.8463C299.261 34.1777 303.069 30.3692 307.738 30.3692H374.302C378.405 30.3692 382.336 29.6812 385.997 28.428V26.0938C382.336 27.4206 378.405 28.1577 374.302 28.1577Z" fill="#F5F5F5"/>
<path d="M374.303 22.9661H307.739C298.992 22.9661 291.866 30.0918 291.866 38.8391V40.5591H294.078V38.8391C294.078 31.3203 300.196 25.1775 307.739 25.1775H374.303C378.431 25.1775 382.387 24.3666 385.999 22.8924V20.4844C382.411 22.0815 378.455 22.9661 374.303 22.9661Z" fill="#F5F5F5"/>
<path d="M374.301 17.8097H307.737C296.139 17.8097 286.704 27.2451 286.704 38.8427V40.5627H288.916V38.8427C288.916 28.4736 297.368 20.0211 307.737 20.0211H374.301C378.503 20.0211 382.483 19.0137 385.997 17.2446V14.7383C382.532 16.704 378.527 17.8097 374.301 17.8097Z" fill="#F5F5F5"/>
<path d="M374.302 12.6464H307.738C293.29 12.6464 281.545 24.3915 281.545 38.8394V40.5594H283.757V38.8394C283.757 25.62 294.519 14.8578 307.738 14.8578H374.302C378.627 14.8578 382.656 13.5309 385.998 11.295V8.54297C382.779 11.0984 378.725 12.6464 374.302 12.6464Z" fill="#F5F5F5"/>
<path d="M374.3 7.49476H307.736C290.438 7.49476 276.383 21.5741 276.383 38.8477V40.5677H278.595V38.8477C278.595 22.7781 291.667 9.70618 307.736 9.70618H374.3C378.944 9.70618 383.096 7.69133 385.996 4.52163V0.835938C383.612 4.79192 379.263 7.49476 374.3 7.49476Z" fill="#F5F5F5"/>
<path d="M374.301 2.30397H307.738C287.589 2.30397 271.2 18.693 271.2 38.8415V40.5615H273.412V38.8415C273.412 19.9216 288.818 4.51538 307.738 4.51538H374.301C380.125 4.51538 384.892 -0.177735 384.99 -5.97656H382.778C382.656 -1.38173 378.896 2.30397 374.301 2.30397Z" fill="#F5F5F5"/>
<path d="M98.3155 50.3163V45.918C98.3155 43.7066 98.3155 42.5026 98.2418 41.8146H98.3155C98.3155 35.9175 93.5241 31.1015 87.627 31.1015H57.2077C51.3106 31.1015 46.4946 35.8929 46.4946 41.8146C46.4946 47.7117 51.286 52.5031 57.2077 52.5031H124.509C130.406 52.5031 135.222 47.7117 135.222 41.8146V-5.97656H133.01V41.8146C133.01 46.4832 129.202 50.2917 124.533 50.2917H57.2077C52.5392 50.2917 48.7306 46.4832 48.7306 41.8146C48.7306 37.1461 52.5392 33.3375 57.2077 33.3375H87.6024C92.271 33.3375 96.0795 37.1461 96.0795 41.8146V42.5518C96.0795 44.5666 96.0795 50.2917 96.0795 50.2917" fill="#F5F5F5"/>
<path d="M124.506 55.4763H57.2056C49.6868 55.4763 43.5439 49.358 43.5439 41.8146C43.5439 34.2712 49.6622 28.153 57.2056 28.153H87.6003C95.1191 28.153 101.262 34.2712 101.262 41.8146V42.5518C101.262 44.5666 101.262 49.9969 101.262 49.9969V50.2917H103.473V45.8935C103.473 43.682 103.473 42.478 103.4 41.79H103.473C103.473 33.0427 96.3477 25.917 87.6003 25.917H57.2056C48.4582 25.917 41.3325 33.0427 41.3325 41.79C41.3325 50.5374 48.4582 57.6631 57.2056 57.6631H124.506C133.254 57.6631 140.379 50.5374 140.379 41.79V-5.97656H138.168V41.8146C138.143 49.358 132.025 55.4763 124.506 55.4763Z" fill="#F5F5F5"/>
<path d="M124.512 60.6363H57.2108C46.8417 60.6363 38.3892 52.1837 38.3892 41.8146C38.3892 31.4455 46.8417 22.993 57.2108 22.993H87.6055C97.9746 22.993 106.427 31.4455 106.427 41.8146V42.5518C106.427 44.5912 106.427 50.1443 106.427 50.1443V50.2917H108.639V45.9672C108.639 43.7066 108.639 42.4781 108.565 41.7901H108.639C108.639 30.1924 99.2031 20.757 87.6055 20.757H57.2108C45.6131 20.757 36.1777 30.1924 36.1777 41.7901C36.1777 53.3877 45.6131 62.8231 57.2108 62.8231H124.512C136.109 62.8231 145.545 53.3877 145.545 41.7901V-5.97656H143.333V41.8146C143.333 52.2083 134.881 60.6363 124.512 60.6363Z" fill="#F5F5F5"/>
<path d="M124.509 65.7962H57.2086C43.9893 65.7962 33.227 55.034 33.227 41.8146C33.227 28.5953 43.9893 17.833 57.2086 17.833H87.6033C100.823 17.833 111.585 28.5953 111.585 41.8146V42.5518C111.585 44.5912 111.585 50.1197 111.585 50.1197V50.2917H113.796L113.821 45.9672C113.821 43.7066 113.821 42.478 113.747 41.7901H113.821C113.821 27.3421 102.076 15.597 87.6279 15.597H57.2086C42.7607 15.597 31.0156 27.3421 31.0156 41.7901C31.0156 56.238 42.7607 67.9831 57.2086 67.9831H124.509C138.957 67.9831 150.702 56.238 150.702 41.7901V-5.97656H148.491V41.8146C148.491 55.0586 137.729 65.7962 124.509 65.7962Z" fill="#F5F5F5"/>
<path d="M124.507 70.9808H57.2065C41.1369 70.9808 28.0649 57.9088 28.0649 41.8392C28.0649 25.7696 41.1369 12.6731 57.2065 12.6731H87.6012C103.671 12.6731 116.743 25.745 116.743 41.8146V42.5518C116.743 44.5912 116.743 50.1443 116.743 50.1443V50.2917H118.954V45.9672C118.954 43.7066 118.954 42.478 118.88 41.7901H118.954C118.954 24.4919 104.875 10.4371 87.6012 10.4371H57.2065C39.9083 10.4371 25.8535 24.5164 25.8535 41.7901C25.8535 59.0637 39.9329 73.143 57.2065 73.143H124.507C141.806 73.143 155.86 59.0637 155.86 41.7901V-5.97656H153.649V41.8146C153.649 57.8843 140.577 70.9808 124.507 70.9808Z" fill="#F5F5F5"/>
<path d="M124.512 76.1407H57.2114C38.2915 76.1407 22.8852 60.7345 22.8852 41.8146C22.8852 22.8947 38.2915 7.51308 57.2114 7.51308H87.6061C106.526 7.51308 121.932 22.9193 121.932 41.8392V42.5763C121.932 44.6649 121.908 50.3163 121.908 50.3163H124.119L124.144 43.1906C124.144 42.5763 124.144 42.1586 124.119 41.8392H124.144C124.144 21.6907 107.755 5.30167 87.6061 5.30167H57.2114C37.0629 5.30167 20.6738 21.6907 20.6738 41.8392C20.6738 61.9877 37.0629 78.3767 57.2114 78.3767H124.512C144.661 78.3767 161.05 61.9877 161.05 41.8392V-5.97656H158.838V41.8146C158.814 60.7345 143.432 76.1407 124.512 76.1407Z" fill="#F5F5F5"/>
<path d="M299.678 87.7887C305.575 87.7887 310.391 82.9973 310.391 77.1002C310.391 71.203 305.6 66.3871 299.678 66.3871H208.764C189.844 66.3871 174.438 50.9809 174.438 32.061C174.438 13.141 189.844 -2.26516 208.764 -2.26516H212.892H233.262C236.505 -2.26516 239.405 -3.71487 241.37 -6H238.102C236.726 -5.04172 235.055 -4.47658 233.262 -4.47658H212.892H208.764C188.616 -4.47658 172.227 11.9125 172.227 32.061C172.227 52.2094 188.616 68.5985 208.764 68.5985H299.678C304.346 68.5985 308.155 72.407 308.155 77.0756C308.155 81.7441 304.346 85.5527 299.678 85.5527H207.413C207.929 86.2652 208.445 87.0024 208.912 87.7641H299.678V87.7887Z" fill="#F5F5F5"/>
<path d="M299.677 92.9709C308.424 92.9709 315.55 85.8453 315.55 77.0979C315.55 68.3505 308.424 61.2248 299.677 61.2248H208.763C192.694 61.2248 179.622 48.1529 179.622 32.0832C179.622 16.0136 192.694 2.94169 208.763 2.94169H212.891H233.261C239.502 2.94169 244.908 -0.694866 247.488 -5.95312H244.981C242.598 -1.948 238.249 0.730269 233.261 0.730269H212.891H208.763C191.465 0.730269 177.41 14.8096 177.41 32.0832C177.41 49.3814 191.49 63.4362 208.763 63.4362H299.677C307.196 63.4362 313.339 69.5545 313.339 77.0979C313.339 84.6167 307.22 90.7595 299.677 90.7595H210.557C210.925 91.4967 211.269 92.2338 211.564 92.9709H299.677Z" fill="#F5F5F5"/>
<path d="M299.679 98.136C311.277 98.136 320.712 88.7006 320.712 77.1029C320.712 65.5053 311.277 56.0699 299.679 56.0699H208.766C195.546 56.0699 184.784 45.3077 184.784 32.0883C184.784 18.8689 195.546 8.1067 208.766 8.1067H212.894H233.263C242.428 8.1067 250.217 2.23416 253.117 -5.97266H250.758C247.981 0.956452 241.2 5.87071 233.288 5.87071H212.918H208.79C194.342 5.87071 182.597 17.6158 182.597 32.0637C182.597 46.5117 194.342 58.2567 208.79 58.2567H299.704C310.073 58.2567 318.526 66.7093 318.526 77.0784C318.526 87.4474 310.073 95.9 299.704 95.9H212.672C212.894 96.6371 213.115 97.3743 213.311 98.1114H299.679V98.136Z" fill="#F5F5F5"/>
<path d="M299.679 103.296C314.127 103.296 325.872 91.5508 325.872 77.1029C325.872 62.655 314.127 50.9099 299.679 50.9099H208.765C198.396 50.9099 189.944 42.4574 189.944 32.0883C189.944 21.7192 198.396 13.2667 208.765 13.2667H212.893H233.263C245.303 13.2667 255.451 5.109 258.522 -5.97266H256.213C253.215 3.85587 244.074 11.0553 233.263 11.0553H212.893H208.765C197.168 11.0553 187.732 20.4906 187.732 32.0883C187.732 43.6859 197.168 53.1213 208.765 53.1213H299.679C312.899 53.1213 323.661 63.8836 323.661 77.1029C323.661 90.3223 312.899 101.085 299.679 101.085H213.901C214.024 101.822 214.122 102.559 214.196 103.296H299.679Z" fill="#F5F5F5"/>
<path d="M299.678 40.5603H208.764C204.095 40.5603 200.287 36.7518 200.287 32.0832C200.287 27.4147 204.095 23.6062 208.764 23.6062H212.892H233.261C251.027 23.6062 265.868 10.8536 269.111 -5.95312H266.85C263.632 9.64965 249.773 21.3947 233.237 21.3947H212.867H208.739C202.842 21.3947 198.051 26.1861 198.051 32.1078C198.051 38.0049 202.842 42.7963 208.739 42.7963H299.653C318.573 42.7963 333.979 58.2025 333.979 77.1225C333.979 96.0424 318.573 111.449 299.653 111.449H214.342V113.66H231.32H233.532H299.653C319.802 113.66 336.191 97.2709 336.191 77.1225C336.215 56.9494 319.826 40.5603 299.678 40.5603Z" fill="#F5F5F5"/>
<path d="M214.391 108.456H299.702C317.001 108.456 331.055 94.3766 331.055 77.1029C331.055 59.8047 316.976 45.7499 299.702 45.7499H208.789C201.27 45.7499 195.127 39.6317 195.127 32.0883C195.127 24.5695 201.245 18.4267 208.789 18.4267H212.917H233.286C248.176 18.4267 260.683 7.98384 263.853 -5.97266H261.592C258.472 6.75528 246.972 16.2152 233.286 16.2152H212.917H208.789C200.041 16.2152 192.916 23.3409 192.916 32.0883C192.916 40.8357 200.041 47.9614 208.789 47.9614H299.702C315.772 47.9614 328.844 61.0333 328.844 77.1029C328.844 93.1726 315.772 106.244 299.702 106.244H214.366C214.366 106.49 214.391 106.736 214.391 106.982V108.456Z" fill="#F5F5F5"/>
<path d="M32.6133 483.187V485.227H30.4019V483.187C30.4019 464.267 14.9957 448.861 -3.9242 448.861H-44V446.65H-3.9242C16.2243 446.65 32.6133 463.039 32.6133 483.187Z" fill="#F5F5F5"/>
<path d="M27.4288 483.187V485.227H25.2174V483.187C25.2174 467.118 12.1454 454.046 -3.9242 454.046H-44V451.834H-3.9242C13.374 451.81 27.4288 465.889 27.4288 483.187Z" fill="#F5F5F5"/>
<path d="M22.2688 483.187V485.227H20.0574V483.187C20.0574 469.968 9.29516 459.206 -3.92421 459.206H-44V456.994H-3.92421C10.5237 456.994 22.2688 468.739 22.2688 483.187Z" fill="#F5F5F5"/>
<path d="M17.1088 483.187V485.227H14.8974V483.187C14.8974 472.818 6.44489 464.366 -3.9242 464.366H-44V462.154H-3.9242C7.67345 462.154 17.1088 471.589 17.1088 483.187Z" fill="#F5F5F5"/>
<path d="M11.9489 483.187V485.227H9.73744V483.187C9.73744 475.668 3.61919 469.525 -3.92421 469.525H-44V467.314H-3.92421C4.82318 467.314 11.9489 474.44 11.9489 483.187Z" fill="#F5F5F5"/>
<path d="M6.76432 483.187V485.227H4.5529V483.187C4.5529 478.519 0.744347 474.71 -3.9242 474.71H-44V472.499H-3.9242C1.97291 472.474 6.76432 477.29 6.76432 483.187Z" fill="#F5F5F5"/>
<path d="M320.932 354.848H259.405V352.636H320.932C339.852 352.636 355.258 337.23 355.258 318.31V271.6H357.469V318.335C357.469 338.459 341.08 354.848 320.932 354.848Z" fill="#F5F5F5"/>
<path d="M320.932 349.688H259.405V347.476H320.932C337.001 347.476 350.073 334.404 350.073 318.335V271.624H352.285V318.335C352.309 335.608 338.23 349.688 320.932 349.688Z" fill="#F5F5F5"/>
<path d="M320.932 344.527H259.405V342.316H320.932C334.151 342.316 344.913 331.554 344.913 318.334V271.624H347.125V318.334C347.125 332.758 335.38 344.527 320.932 344.527Z" fill="#F5F5F5"/>
<path d="M320.932 339.363H259.405V337.152H320.932C331.301 337.152 339.753 328.699 339.753 318.33V271.62H341.965V318.33C341.965 329.928 332.529 339.363 320.932 339.363Z" fill="#F5F5F5"/>
<path d="M320.932 334.184H259.405V331.972H320.932C328.451 331.972 334.593 325.854 334.593 318.311V271.6H336.805V318.335C336.805 327.082 329.679 334.184 320.932 334.184Z" fill="#F5F5F5"/>
<path d="M320.932 329.023H259.405V326.812H320.932C325.6 326.812 329.409 323.003 329.409 318.335V271.625H331.62V318.335C331.645 324.232 326.829 329.023 320.932 329.023Z" fill="#F5F5F5"/>
<path d="M98.3193 347.996V400.898H96.1079V347.996C96.1079 327.848 112.497 311.459 132.645 311.459H186.358V313.67H132.621C113.701 313.67 98.3193 329.077 98.3193 347.996Z" fill="#F5F5F5"/>
<path d="M103.478 347.996V400.898H101.267V347.996C101.267 330.698 115.346 316.643 132.62 316.643H186.332V318.855H132.62C116.55 318.855 103.478 331.927 103.478 347.996Z" fill="#F5F5F5"/>
<path d="M108.64 347.996V400.898H106.428V347.996C106.428 333.549 118.173 321.803 132.621 321.803H186.334V324.015H132.621C119.402 324.015 108.64 334.777 108.64 347.996Z" fill="#F5F5F5"/>
<path d="M113.794 347.996V400.898H111.583V347.996C111.583 336.399 121.018 326.963 132.616 326.963H186.329V329.175H132.616C122.247 329.175 113.794 337.627 113.794 347.996Z" fill="#F5F5F5"/>
<path d="M118.978 347.996V400.898H116.766V347.996C116.766 339.249 123.892 332.123 132.639 332.123H186.352V334.335H132.615C125.096 334.335 118.978 340.478 118.978 347.996Z" fill="#F5F5F5"/>
<path d="M124.14 347.996V400.898H121.928V347.996C121.928 342.099 126.72 337.283 132.617 337.283H186.33V339.495H132.617C127.948 339.519 124.14 343.328 124.14 347.996Z" fill="#F5F5F5"/>
<path d="M257.195 282.092C257.195 263.172 241.789 247.766 222.869 247.766C203.949 247.766 188.543 263.147 188.543 282.092V372.269C188.543 378.166 183.752 382.957 177.855 382.957C171.958 382.957 167.142 378.166 167.142 372.269V339.515H169.353V372.269C169.353 376.937 173.162 380.746 177.83 380.746C182.499 380.746 186.307 376.937 186.307 372.269V282.092C186.307 261.943 202.696 245.554 222.845 245.554C242.993 245.554 259.382 261.943 259.382 282.092V365.61H257.171V282.092H257.195Z" fill="#F5F5F5"/>
<path d="M252.013 282.091C252.013 266.021 238.941 252.949 222.871 252.949C206.801 252.949 193.73 266.021 193.73 282.091V372.268C193.73 381.015 186.604 388.141 177.856 388.141C169.109 388.141 161.983 381.015 161.983 372.268V339.514H164.195V372.268C164.195 379.786 170.313 385.929 177.856 385.929C185.375 385.929 191.518 379.811 191.518 372.268V282.091C191.518 264.793 205.597 250.738 222.871 250.738C240.169 250.738 254.224 264.817 254.224 282.091V365.609H252.013V282.091Z" fill="#F5F5F5"/>
<path d="M246.851 282.091C246.851 268.872 236.088 258.109 222.869 258.109C209.65 258.109 198.887 268.872 198.887 282.091V372.268C198.887 383.865 189.452 393.301 177.854 393.301C166.257 393.301 156.821 383.865 156.821 372.268V339.514H159.033V372.268C159.033 382.637 167.485 391.089 177.854 391.089C188.223 391.089 196.676 382.637 196.676 372.268V282.091C196.676 267.643 208.421 255.898 222.869 255.898C237.317 255.898 249.062 267.643 249.062 282.091V365.609H246.851V282.091Z" fill="#F5F5F5"/>
<path d="M241.688 282.095C241.688 271.726 233.236 263.274 222.867 263.274C212.498 263.274 204.045 271.726 204.045 282.095V372.272C204.045 386.72 192.3 398.465 177.852 398.465C163.404 398.465 151.659 386.72 151.659 372.272V339.518H153.871V372.272C153.871 385.491 164.633 396.253 177.852 396.253C191.072 396.253 201.834 385.491 201.834 372.272V282.095C201.834 270.497 211.269 261.062 222.867 261.062C234.464 261.062 243.9 270.497 243.9 282.095V365.613H241.688V282.095Z" fill="#F5F5F5"/>
<path d="M236.53 282.095C236.53 274.577 230.411 268.434 222.868 268.434C215.349 268.434 209.206 274.552 209.206 282.095V372.272C209.206 389.57 195.127 403.625 177.853 403.625C160.555 403.625 146.5 389.546 146.5 372.272V339.518H148.712V372.272C148.712 388.342 161.784 401.414 177.853 401.414C193.923 401.414 206.995 388.342 206.995 372.272V282.095C206.995 273.348 214.121 266.222 222.868 266.222C231.615 266.222 238.741 273.348 238.741 282.095V365.613H236.53V282.095Z" fill="#F5F5F5"/>
<path d="M231.343 282.094C231.343 277.426 227.535 273.617 222.866 273.617C218.198 273.617 214.389 277.426 214.389 282.094V372.271C214.389 392.42 198 408.809 177.851 408.809C157.703 408.809 141.314 392.42 141.314 372.271V339.518H143.525V372.271C143.525 391.191 158.932 406.597 177.851 406.597C196.771 406.597 212.178 391.191 212.178 372.271V282.094C212.178 276.197 216.969 271.406 222.866 271.406C228.763 271.406 233.579 276.197 233.579 282.094V365.612H231.368V282.094H231.343Z" fill="#F5F5F5"/>
<path d="M85.3671 288.657C85.3671 269.737 69.9854 254.331 51.0409 254.331C32.121 254.331 16.7148 269.737 16.7148 288.657V332.762H14.5034V288.657C14.5034 268.508 30.8925 252.119 51.0409 252.119C71.1894 252.119 87.5785 268.508 87.5785 288.657V400.898H85.3671V288.657Z" fill="#F5F5F5"/>
<path d="M80.2055 288.657C80.2055 272.587 67.1336 259.515 51.0639 259.515C34.9943 259.515 21.9224 272.587 21.9224 288.657V332.762H19.7109V288.657C19.7109 271.359 33.7903 257.304 51.0639 257.304C68.3621 257.304 82.4169 271.383 82.4169 288.657V400.898H80.2055V288.657Z" fill="#F5F5F5"/>
<path d="M75.0232 288.657C75.0232 275.437 64.261 264.675 51.0416 264.675C37.8223 264.675 27.0601 275.437 27.0601 288.657V332.762H24.8486V288.657C24.8486 274.209 36.5937 262.464 51.0416 262.464C65.4896 262.464 77.2346 274.209 77.2346 288.657V400.898H75.0232V288.657Z" fill="#F5F5F5"/>
<path d="M69.8654 288.657C69.8654 278.288 61.4129 269.835 51.0438 269.835C40.6747 269.835 32.2222 278.288 32.2222 288.657V332.762H30.0107V288.657C30.0107 277.059 39.4461 267.624 51.0438 267.624C62.6414 267.624 72.0768 277.059 72.0768 288.657V400.898H69.8654V288.657Z" fill="#F5F5F5"/>
<path d="M64.7036 288.657C64.7036 281.138 58.5854 274.995 51.042 274.995C43.5232 274.995 37.3804 281.113 37.3804 288.657V332.762H35.1689V288.657C35.1689 279.909 42.2946 272.784 51.042 272.784C59.7894 272.784 66.9151 279.909 66.9151 288.657V400.898H64.7036V288.657Z" fill="#F5F5F5"/>
<path d="M59.546 288.657C59.546 283.988 55.7374 280.18 51.0689 280.18C46.4003 280.18 42.5918 283.988 42.5918 288.657V332.762H40.3804V288.657C40.3804 282.76 45.1718 277.968 51.0935 277.968C56.9906 277.968 61.782 282.76 61.782 288.657V400.898H59.5706V288.657H59.546Z" fill="#F5F5F5"/>
<path d="M0.644463 358.585H59.5173V360.797H0.644463C-19.504 360.797 -35.8931 344.408 -35.8931 324.259V239.513H-33.6816V324.259C-33.6571 343.179 -18.2754 358.585 0.644463 358.585Z" fill="#F5F5F5"/>
<path d="M0.646441 353.398H59.5193V355.609H0.646441C-16.6518 355.609 -30.7065 341.53 -30.7065 324.256V239.51H-28.4951V324.256C-28.4951 340.326 -15.4232 353.398 0.646441 353.398Z" fill="#F5F5F5"/>
<path d="M0.64467 348.238H59.5175V350.449H0.64467C-13.8033 350.449 -25.5483 338.704 -25.5483 324.256V239.51H-23.3369V324.256C-23.3369 337.476 -12.5747 348.238 0.64467 348.238Z" fill="#F5F5F5"/>
<path d="M0.642899 343.082H59.5157V345.293H0.642899C-10.9548 345.293 -20.3901 335.858 -20.3901 324.26V239.513H-18.1787V324.26C-18.1787 334.629 -9.72619 343.082 0.642899 343.082Z" fill="#F5F5F5"/>
<path d="M0.648451 337.917H59.5213V340.129H0.648451C-8.09893 340.129 -15.2246 333.003 -15.2246 324.256V239.509H-13.0132V324.256C-12.9886 331.775 -6.87037 337.917 0.648451 337.917Z" fill="#F5F5F5"/>
<path d="M0.647168 332.734H59.52V334.945H0.647168C-5.24994 334.945 -10.0659 330.154 -10.0659 324.257V239.51H-7.8545V324.257C-7.82993 328.95 -4.02138 332.734 0.647168 332.734Z" fill="#F5F5F5"/>
<path d="M129.671 268.901C129.671 273.57 133.479 277.378 138.148 277.378C142.816 277.378 146.625 273.57 146.625 268.901V239.514H148.836V268.901C148.836 274.798 144.045 279.59 138.123 279.59C132.226 279.59 127.435 274.798 127.435 268.901V239.514H129.646V268.901H129.671Z" fill="#F5F5F5"/>
<path d="M124.508 268.9C124.508 276.419 130.627 282.562 138.17 282.562C145.689 282.562 151.832 276.444 151.832 268.9V239.513H154.043V268.9C154.043 277.648 146.917 284.773 138.17 284.773C129.423 284.773 122.297 277.648 122.297 268.9V239.513H124.508V268.9Z" fill="#F5F5F5"/>
<path d="M119.322 268.901C119.322 279.27 127.774 287.722 138.143 287.722C148.512 287.722 156.965 279.27 156.965 268.901V239.513H159.176V268.901C159.176 280.498 149.741 289.934 138.143 289.934C126.546 289.934 117.11 280.498 117.11 268.901V239.513H119.322V268.901Z" fill="#F5F5F5"/>
<path d="M114.167 268.905C114.167 282.124 124.929 292.886 138.149 292.886C151.368 292.886 162.13 282.124 162.13 268.905V239.517H164.342V268.905C164.342 283.353 152.596 295.098 138.149 295.098C123.701 295.098 111.956 283.353 111.956 268.905V239.517H114.167V268.905Z" fill="#F5F5F5"/>
<path d="M109.005 268.897C109.005 284.967 122.077 298.039 138.146 298.039C154.216 298.039 167.313 284.991 167.313 268.897V239.51H169.524V268.897C169.524 286.195 155.445 300.25 138.171 300.25C120.897 300.25 106.793 286.195 106.793 268.897V239.51H109.005V268.897Z" fill="#F5F5F5"/>
<path d="M103.843 268.904C103.843 287.824 119.249 303.23 138.169 303.23C157.089 303.23 172.495 287.824 172.495 268.904V239.517H174.706V268.904C174.706 289.052 158.317 305.441 138.169 305.441C118.02 305.441 101.631 289.052 101.631 268.904V239.517H103.843V268.904Z" fill="#F5F5F5"/>
<path d="M372.019 271.627H308.846C304.178 271.627 300.369 275.436 300.369 280.104C300.369 284.773 304.178 288.582 308.846 288.582H329.412V290.793H308.846C302.949 290.793 298.158 286.002 298.158 280.08C298.158 274.183 302.949 269.391 308.846 269.391H372.019C377.007 269.391 381.725 268.31 386 266.394V268.802C381.7 270.62 376.958 271.627 372.019 271.627Z" fill="#F5F5F5"/>
<path d="M372.017 250.966H308.844C292.774 250.966 279.702 264.038 279.702 280.108C279.702 296.178 292.774 309.25 308.844 309.25H329.484V311.461H308.844C291.546 311.461 277.491 297.382 277.491 280.108C277.491 262.81 291.57 248.755 308.844 248.755H372.017C377.987 248.755 383.074 244.897 384.916 239.541H385.998V242.588C383.319 247.551 378.061 250.966 372.017 250.966Z" fill="#F5F5F5"/>
<path d="M372.018 245.781H308.845C289.925 245.781 274.519 261.187 274.519 280.107C274.519 299.027 289.925 314.433 308.845 314.433H329.411V316.645H308.845C288.697 316.645 272.308 300.255 272.308 280.107C272.308 259.959 288.697 243.569 308.845 243.569H372.018C375.065 243.569 377.743 241.948 379.242 239.515H381.748C380.053 243.201 376.342 245.781 372.018 245.781Z" fill="#F5F5F5"/>
<path d="M308.844 266.446C301.325 266.446 295.182 272.564 295.182 280.107C295.182 287.626 301.3 293.769 308.844 293.769H329.41V295.98H308.844C300.096 295.98 292.971 288.855 292.971 280.107C292.971 271.36 300.096 264.234 308.844 264.234H372.017C377.078 264.234 381.845 262.932 385.998 260.647V263.129C381.771 265.242 377.029 266.421 372.017 266.421H308.844V266.446Z" fill="#F5F5F5"/>
<path d="M308.846 261.286C298.477 261.286 290.024 269.739 290.024 280.108C290.024 290.477 298.477 298.929 308.846 298.929H329.412V301.141H308.846C297.248 301.141 287.813 291.705 287.813 280.108C287.813 268.51 297.248 259.075 308.846 259.075H372.019C377.228 259.075 382.069 257.404 386 254.553V257.232C381.946 259.812 377.154 261.286 372.019 261.286H308.846Z" fill="#F5F5F5"/>
<path d="M308.845 256.126C295.625 256.126 284.863 266.888 284.863 280.108C284.863 293.327 295.625 304.089 308.845 304.089H329.411V306.301H308.845C294.397 306.301 282.652 294.556 282.652 280.108C282.652 265.66 294.397 253.915 308.845 253.915H372.018C377.571 253.915 382.559 251.507 385.999 247.674V250.794C382.288 254.111 377.374 256.126 372.018 256.126H308.845Z" fill="#F5F5F5"/>
<path d="M374.302 451.1H307.738C301.841 451.1 297.049 446.309 297.049 440.412V438.692H299.261V440.412C299.261 445.08 303.069 448.889 307.738 448.889H374.302C378.405 448.889 382.336 449.577 385.997 450.83V453.164C382.336 451.837 378.405 451.1 374.302 451.1Z" fill="#F5F5F5"/>
<path d="M374.303 456.284H307.739C298.992 456.284 291.866 449.158 291.866 440.411V438.691H294.078V440.411C294.078 447.93 300.196 454.073 307.739 454.073H374.303C378.431 454.073 382.387 454.883 385.999 456.358V458.766C382.411 457.168 378.455 456.284 374.303 456.284Z" fill="#F5F5F5"/>
<path d="M374.301 461.44H307.737C296.139 461.44 286.704 452.005 286.704 440.407V438.687H288.916V440.407C288.916 450.776 297.368 459.229 307.737 459.229H374.301C378.503 459.229 382.483 460.236 385.997 462.005V464.512C382.532 462.546 378.527 461.44 374.301 461.44Z" fill="#F5F5F5"/>
<path d="M374.302 466.6H307.738C293.29 466.6 281.545 454.855 281.545 440.407V438.687H283.757V440.407C283.757 453.626 294.519 464.388 307.738 464.388H374.302C378.627 464.388 382.656 465.715 385.998 467.951V470.703C382.779 468.148 378.725 466.6 374.302 466.6Z" fill="#F5F5F5"/>
<path d="M374.3 471.759H307.736C290.438 471.759 276.383 457.68 276.383 440.406V438.686H278.595V440.406C278.595 456.476 291.667 469.548 307.736 469.548H374.3C378.944 469.548 383.096 471.563 385.996 474.732V478.418C383.612 474.462 379.263 471.759 374.3 471.759Z" fill="#F5F5F5"/>
<path d="M374.301 476.946H307.738C287.589 476.946 271.2 460.557 271.2 440.409V438.689H273.412V440.409C273.412 459.328 288.818 474.735 307.738 474.735H374.301C380.125 474.735 384.892 479.428 384.99 485.227H382.778C382.656 480.632 378.896 476.946 374.301 476.946Z" fill="#F5F5F5"/>
<path d="M98.3155 428.934V433.332C98.3155 435.543 98.3155 436.747 98.2418 437.435H98.3155C98.3155 443.332 93.5241 448.148 87.627 448.148H57.2077C51.3106 448.148 46.4946 443.357 46.4946 437.435C46.4946 431.538 51.286 426.747 57.2077 426.747H124.509C130.406 426.747 135.222 431.538 135.222 437.435V485.227H133.01V437.435C133.01 432.767 129.202 428.958 124.533 428.958H57.2077C52.5392 428.958 48.7306 432.767 48.7306 437.435C48.7306 442.104 52.5392 445.912 57.2077 445.912H87.6024C92.271 445.912 96.0795 442.104 96.0795 437.435V436.698C96.0795 434.683 96.0795 428.958 96.0795 428.958" fill="#F5F5F5"/>
<path d="M124.506 423.774H57.2056C49.6868 423.774 43.5439 429.892 43.5439 437.435C43.5439 444.979 49.6622 451.097 57.2056 451.097H87.6003C95.1191 451.097 101.262 444.979 101.262 437.435V436.698C101.262 434.683 101.262 429.253 101.262 429.253V428.958H103.473V433.357C103.473 435.568 103.473 436.772 103.4 437.46H103.473C103.473 446.207 96.3477 453.333 87.6003 453.333H57.2056C48.4582 453.333 41.3325 446.207 41.3325 437.46C41.3325 428.713 48.4582 421.587 57.2056 421.587H124.506C133.254 421.587 140.379 428.713 140.379 437.46V485.227H138.168V437.435C138.143 429.892 132.025 423.774 124.506 423.774Z" fill="#F5F5F5"/>
<path d="M124.512 418.614H57.2108C46.8417 418.614 38.3892 427.066 38.3892 437.435C38.3892 447.804 46.8417 456.257 57.2108 456.257H87.6055C97.9746 456.257 106.427 447.804 106.427 437.435V436.698C106.427 434.659 106.427 429.106 106.427 429.106V428.958H108.639V433.283C108.639 435.543 108.639 436.772 108.565 437.46H108.639C108.639 449.058 99.2031 458.493 87.6055 458.493H57.2108C45.6131 458.493 36.1777 449.058 36.1777 437.46C36.1777 425.862 45.6131 416.427 57.2108 416.427H124.512C136.109 416.427 145.545 425.862 145.545 437.46V485.227H143.333V437.435C143.333 427.042 134.881 418.614 124.512 418.614Z" fill="#F5F5F5"/>
<path d="M124.509 413.454H57.2086C43.9893 413.454 33.227 424.216 33.227 437.435C33.227 450.655 43.9893 461.417 57.2086 461.417H87.6033C100.823 461.417 111.585 450.655 111.585 437.435V436.698C111.585 434.659 111.585 429.13 111.585 429.13V428.958H113.796L113.821 433.283C113.821 435.543 113.821 436.772 113.747 437.46H113.821C113.821 451.908 102.076 463.653 87.6279 463.653H57.2086C42.7607 463.653 31.0156 451.908 31.0156 437.46C31.0156 423.012 42.7607 411.267 57.2086 411.267H124.509C138.957 411.267 150.702 423.012 150.702 437.46V485.227H148.491V437.435C148.491 424.191 137.729 413.454 124.509 413.454Z" fill="#F5F5F5"/>
<path d="M124.507 408.269H57.2065C41.1369 408.269 28.0649 421.341 28.0649 437.411C28.0649 453.48 41.1369 466.577 57.2065 466.577H87.6012C103.671 466.577 116.743 453.505 116.743 437.435V436.698C116.743 434.659 116.743 429.106 116.743 429.106V428.958H118.954V433.283C118.954 435.543 118.954 436.772 118.88 437.46H118.954C118.954 454.758 104.875 468.813 87.6012 468.813H57.2065C39.9083 468.813 25.8535 454.734 25.8535 437.46C25.8535 420.186 39.9329 406.107 57.2065 406.107H124.507C141.806 406.107 155.86 420.186 155.86 437.46V485.227H153.649V437.435C153.649 421.366 140.577 408.269 124.507 408.269Z" fill="#F5F5F5"/>
<path d="M124.512 403.109H57.2114C38.2915 403.109 22.8852 418.515 22.8852 437.435C22.8852 456.355 38.2915 471.737 57.2114 471.737H87.6061C106.526 471.737 121.932 456.331 121.932 437.411V436.674C121.932 434.585 121.908 428.934 121.908 428.934H124.119L124.144 436.059C124.144 436.674 124.144 437.091 124.119 437.411H124.144C124.144 457.559 107.755 473.948 87.6061 473.948H57.2114C37.0629 473.948 20.6738 457.559 20.6738 437.411C20.6738 417.262 37.0629 400.873 57.2114 400.873H124.512C144.661 400.873 161.05 417.262 161.05 437.411V485.227H158.838V437.435C158.814 418.515 143.432 403.109 124.512 403.109Z" fill="#F5F5F5"/>
<path d="M299.678 391.461C305.575 391.461 310.391 396.253 310.391 402.15C310.391 408.047 305.6 412.863 299.678 412.863H208.764C189.844 412.863 174.438 428.269 174.438 447.189C174.438 466.109 189.844 481.515 208.764 481.515H212.892H233.262C236.505 481.515 239.405 482.965 241.37 485.25H238.102C236.726 484.292 235.055 483.727 233.262 483.727H212.892H208.764C188.616 483.727 172.227 467.338 172.227 447.189C172.227 427.041 188.616 410.652 208.764 410.652H299.678C304.346 410.652 308.155 406.843 308.155 402.174C308.155 397.506 304.346 393.697 299.678 393.697H207.413C207.929 392.985 208.445 392.248 208.912 391.486H299.678V391.461Z" fill="#F5F5F5"/>
<path d="M299.677 386.279C308.424 386.279 315.55 393.405 315.55 402.152C315.55 410.9 308.424 418.025 299.677 418.025H208.763C192.694 418.025 179.622 431.097 179.622 447.167C179.622 463.236 192.694 476.308 208.763 476.308H212.891H233.261C239.502 476.308 244.908 479.945 247.488 485.203H244.981C242.598 481.198 238.249 478.52 233.261 478.52H212.891H208.763C191.465 478.52 177.41 464.44 177.41 447.167C177.41 429.869 191.49 415.814 208.763 415.814H299.677C307.196 415.814 313.339 409.696 313.339 402.152C313.339 394.633 307.22 388.49 299.677 388.49H210.557C210.925 387.753 211.269 387.016 211.564 386.279H299.677Z" fill="#F5F5F5"/>
<path d="M299.679 381.114C311.277 381.114 320.712 390.549 320.712 402.147C320.712 413.745 311.277 423.18 299.679 423.18H208.766C195.546 423.18 184.784 433.942 184.784 447.162C184.784 460.381 195.546 471.143 208.766 471.143H212.894H233.263C242.428 471.143 250.217 477.016 253.117 485.223H250.758C247.981 478.294 241.2 473.379 233.288 473.379H212.918H208.79C194.342 473.379 182.597 461.634 182.597 447.186C182.597 432.738 194.342 420.993 208.79 420.993H299.704C310.073 420.993 318.526 412.541 318.526 402.172C318.526 391.803 310.073 383.35 299.704 383.35H212.672C212.894 382.613 213.115 381.876 213.311 381.139H299.679V381.114Z" fill="#F5F5F5"/>
<path d="M299.679 375.954C314.127 375.954 325.872 387.699 325.872 402.147C325.872 416.595 314.127 428.34 299.679 428.34H208.765C198.396 428.34 189.944 436.793 189.944 447.162C189.944 457.531 198.396 465.983 208.765 465.983H212.893H233.263C245.303 465.983 255.451 474.141 258.522 485.223H256.213C253.215 475.394 244.074 468.195 233.263 468.195H212.893H208.765C197.168 468.195 187.732 458.759 187.732 447.162C187.732 435.564 197.168 426.129 208.765 426.129H299.679C312.899 426.129 323.661 415.366 323.661 402.147C323.661 388.928 312.899 378.165 299.679 378.165H213.901C214.024 377.428 214.122 376.691 214.196 375.954H299.679Z" fill="#F5F5F5"/>
<path d="M299.678 438.69H208.764C204.095 438.69 200.287 442.498 200.287 447.167C200.287 451.835 204.095 455.644 208.764 455.644H212.892H233.261C251.027 455.644 265.868 468.396 269.111 485.203H266.85C263.632 469.6 249.773 457.855 233.237 457.855H212.867H208.739C202.842 457.855 198.051 453.064 198.051 447.142C198.051 441.245 202.842 436.454 208.739 436.454H299.653C318.573 436.454 333.979 421.047 333.979 402.128C333.979 383.208 318.573 367.801 299.653 367.801H214.342V365.59H231.32H233.532H299.653C319.802 365.59 336.191 381.979 336.191 402.128C336.215 422.301 319.826 438.69 299.678 438.69Z" fill="#F5F5F5"/>
<path d="M214.391 370.794H299.702C317.001 370.794 331.055 384.873 331.055 402.147C331.055 419.445 316.976 433.5 299.702 433.5H208.789C201.27 433.5 195.127 439.618 195.127 447.162C195.127 454.681 201.245 460.823 208.789 460.823H212.917H233.286C248.176 460.823 260.683 471.266 263.853 485.223H261.592C258.472 472.495 246.972 463.035 233.286 463.035H212.917H208.789C200.041 463.035 192.916 455.909 192.916 447.162C192.916 438.414 200.041 431.289 208.789 431.289H299.702C315.772 431.289 328.844 418.217 328.844 402.147C328.844 386.077 315.772 373.006 299.702 373.006H214.366C214.366 372.76 214.391 372.514 214.391 372.268V370.794Z" fill="#F5F5F5"/>
</svg>
