<svg width="1120" height="1652" viewBox="0 0 1120 1652" fill="none" xmlns="http://www.w3.org/2000/svg">
<path d="M1119.71 220.707C1120.1 220.316 1120.1 219.683 1119.71 219.293L1113.34 212.929C1112.95 212.538 1112.32 212.538 1111.93 212.929C1111.54 213.319 1111.54 213.953 1111.93 214.343L1117.59 220L1111.93 225.657C1111.54 226.047 1111.54 226.68 1111.93 227.071C1112.32 227.462 1112.95 227.462 1113.34 227.071L1119.71 220.707ZM1119.71 880.707C1120.1 880.316 1120.1 879.683 1119.71 879.293L1113.34 872.929C1112.95 872.538 1112.32 872.538 1111.93 872.929C1111.54 873.319 1111.54 873.953 1111.93 874.343L1117.59 880L1111.93 885.657C1111.54 886.047 1111.54 886.68 1111.93 887.071C1112.32 887.461 1112.95 887.461 1113.34 887.071L1119.71 880.707ZM388.707 1103.71C389.098 1103.32 389.098 1102.68 388.707 1102.29L382.343 1095.93C381.953 1095.54 381.319 1095.54 380.929 1095.93C380.538 1096.32 380.538 1096.95 380.929 1097.34L386.586 1103L380.929 1108.66C380.538 1109.05 380.538 1109.68 380.929 1110.07C381.319 1110.46 381.953 1110.46 382.343 1110.07L388.707 1103.71ZM0.999942 1321L-5.7699e-05 1321L0.999942 1321ZM753.706 1321.71C754.096 1321.32 754.096 1320.68 753.706 1320.29L747.342 1313.93C746.951 1313.54 746.318 1313.54 745.928 1313.93C745.537 1314.32 745.537 1314.95 745.928 1315.34L751.584 1321L745.928 1326.66C745.537 1327.05 745.537 1327.68 745.928 1328.07C746.318 1328.46 746.951 1328.46 747.342 1328.07L753.706 1321.71ZM192 1651L192 1652L192 1651ZM192.707 1630.29C192.317 1629.9 191.683 1629.9 191.293 1630.29L184.929 1636.66C184.538 1637.05 184.538 1637.68 184.929 1638.07C185.319 1638.46 185.953 1638.46 186.343 1638.07L192 1632.41L197.657 1638.07C198.047 1638.46 198.681 1638.46 199.071 1638.07C199.462 1637.68 199.462 1637.05 199.071 1636.66L192.707 1630.29ZM558 1651L558 1652L558 1651ZM558.707 1630.29C558.317 1629.9 557.683 1629.9 557.293 1630.29L550.929 1636.66C550.538 1637.05 550.538 1637.68 550.929 1638.07C551.319 1638.46 551.953 1638.46 552.343 1638.07L558 1632.41L563.657 1638.07C564.047 1638.46 564.681 1638.46 565.071 1638.07C565.462 1637.68 565.462 1637.05 565.071 1636.66L558.707 1630.29ZM924.707 1630.29C924.316 1629.9 923.683 1629.9 923.293 1630.29L916.929 1636.66C916.538 1637.05 916.538 1637.68 916.929 1638.07C917.319 1638.46 917.953 1638.46 918.343 1638.07L924 1632.41L929.657 1638.07C930.047 1638.46 930.68 1638.46 931.071 1638.07C931.461 1637.68 931.461 1637.05 931.071 1636.66L924.707 1630.29ZM1119.71 661.707C1120.1 661.317 1120.1 660.683 1119.71 660.293L1113.34 653.929C1112.95 653.538 1112.32 653.538 1111.93 653.929C1111.54 654.319 1111.54 654.953 1111.93 655.343L1117.59 661L1111.93 666.657C1111.54 667.047 1111.54 667.68 1111.93 668.071C1112.32 668.462 1112.95 668.462 1113.34 668.071L1119.71 661.707ZM1119.71 441.707C1120.1 441.317 1120.1 440.683 1119.71 440.293L1113.34 433.929C1112.95 433.538 1112.32 433.538 1111.93 433.929C1111.54 434.319 1111.54 434.953 1111.93 435.343L1117.59 441L1111.93 446.657C1111.54 447.047 1111.54 447.68 1111.93 448.071C1112.32 448.462 1112.95 448.462 1113.34 448.071L1119.71 441.707ZM200 441L200 442L200 441ZM1.00005 1643L5.02962e-05 1643L1.00005 1643ZM9 1.99997L21 2L21 -1.33536e-08L9 -2.87905e-05L9 1.99997ZM-3.49692e-07 8.99997L-9.57279e-06 220L1.99999 220L2 8.99997L-3.49692e-07 8.99997ZM-9.57279e-06 220L-1.91893e-05 440L1.99998 440L1.99999 220L-9.57279e-06 220ZM-1.91893e-05 440L-2.88495e-05 661L1.99997 661L1.99998 440L-1.91893e-05 440ZM-2.88495e-05 661L-3.84223e-05 880L1.99996 880L1.99997 661L-2.88495e-05 661ZM0.999962 881L1119 881L1119 879L0.999962 879L0.999962 881ZM-3.84223e-05 880L-4.81699e-05 1103L1.99995 1103L1.99996 880L-3.84223e-05 880ZM0.999952 1104L388 1104L388 1102L0.999952 1102L0.999952 1104ZM-4.81699e-05 1103L-5.7699e-05 1321L1.99994 1321L1.99995 1103L-4.81699e-05 1103ZM0.999942 1322L752.999 1322L752.999 1320L0.999942 1320L0.999942 1322ZM-5.7699e-05 1321L5.02962e-05 1643L2.00005 1643L1.99994 1321L-5.7699e-05 1321ZM9.00005 1652L192 1652L192 1650L9.00005 1650L9.00005 1652ZM193 1651C193 1650.98 193 1650.97 193 1650.95C193 1650.94 193 1650.92 193 1650.91C193 1650.89 193 1650.87 193 1650.86C193 1650.84 193 1650.83 193 1650.81C193 1650.8 193 1650.78 193 1650.76C193 1650.75 193 1650.73 193 1650.72C193 1650.7 193 1650.69 193 1650.67C193 1650.65 193 1650.64 193 1650.62C193 1650.61 193 1650.59 193 1650.57C193 1650.56 193 1650.54 193 1650.53C193 1650.51 193 1650.49 193 1650.48C193 1650.46 193 1650.45 193 1650.43C193 1650.41 193 1650.4 193 1650.38C193 1650.37 193 1650.35 193 1650.33C193 1650.32 193 1650.3 193 1650.29C193 1650.27 193 1650.25 193 1650.24C193 1650.22 193 1650.21 193 1650.19C193 1650.17 193 1650.16 193 1650.14C193 1650.13 193 1650.11 193 1650.09C193 1650.08 193 1650.06 193 1650.04C193 1650.03 193 1650.01 193 1650C193 1649.98 193 1649.96 193 1649.95C193 1649.93 193 1649.91 193 1649.9C193 1649.88 193 1649.87 193 1649.85C193 1649.83 193 1649.82 193 1649.8C193 1649.78 193 1649.77 193 1649.75C193 1649.74 193 1649.72 193 1649.7C193 1649.69 193 1649.67 193 1649.65C193 1649.64 193 1649.62 193 1649.6C193 1649.59 193 1649.57 193 1649.55C193 1649.54 193 1649.52 193 1649.51C193 1649.49 193 1649.47 193 1649.46C193 1649.44 193 1649.42 193 1649.41C193 1649.39 193 1649.37 193 1649.36C193 1649.34 193 1649.32 193 1649.31C193 1649.29 193 1649.27 193 1649.26C193 1649.24 193 1649.22 193 1649.21C193 1649.19 193 1649.17 193 1649.16C193 1649.14 193 1649.12 193 1649.11C193 1649.09 193 1649.07 193 1649.06C193 1649.04 193 1649.02 193 1649.01C193 1648.99 193 1648.97 193 1648.96C193 1648.94 193 1648.92 193 1648.91C193 1648.89 193 1648.87 193 1648.86C193 1648.84 193 1648.82 193 1648.81C193 1648.79 193 1648.77 193 1648.76C193 1648.74 193 1648.72 193 1648.71C193 1648.69 193 1648.67 193 1648.66C193 1648.64 193 1648.62 193 1648.61C193 1648.59 193 1648.57 193 1648.56C193 1648.54 193 1648.52 193 1648.5C193 1648.49 193 1648.47 193 1648.45C193 1648.44 193 1648.42 193 1648.4C193 1648.39 193 1648.37 193 1648.35C193 1648.34 193 1648.32 193 1648.3C193 1648.28 193 1648.27 193 1648.25C193 1648.23 193 1648.22 193 1648.2C193 1648.18 193 1648.17 193 1648.15C193 1648.13 193 1648.11 193 1648.1C193 1648.08 193 1648.06 193 1648.05C193 1648.03 193 1648.01 193 1648C193 1647.98 193 1647.96 193 1647.94C193 1647.93 193 1647.91 193 1647.89C193 1647.88 193 1647.86 193 1647.84C193 1647.82 193 1647.81 193 1647.79C193 1647.77 193 1647.76 193 1647.74C193 1647.72 193 1647.71 193 1647.69C193 1647.67 193 1647.65 193 1647.64C193 1647.62 193 1647.6 193 1647.59C193 1647.57 193 1647.55 193 1647.53C193 1647.52 193 1647.5 193 1647.48C193 1647.46 193 1647.45 193 1647.43C193 1647.41 193 1647.4 193 1647.38C193 1647.36 193 1647.34 193 1647.33C193 1647.31 193 1647.29 193 1647.28C193 1647.26 193 1647.24 193 1647.22C193 1647.21 193 1647.19 193 1647.17C193 1647.15 193 1647.14 193 1647.12C193 1647.1 193 1647.09 193 1647.07C193 1647.05 193 1647.03 193 1647.02C193 1647 193 1646.98 193 1646.96C193 1646.95 193 1646.93 193 1646.91C193 1646.89 193 1646.88 193 1646.86C193 1646.84 193 1646.83 193 1646.81C193 1646.79 193 1646.77 193 1646.76C193 1646.74 193 1646.72 193 1646.7C193 1646.69 193 1646.67 193 1646.65C193 1646.63 193 1646.62 193 1646.6C193 1646.58 193 1646.56 193 1646.55C193 1646.53 193 1646.51 193 1646.5C193 1646.48 193 1646.46 193 1646.44C193 1646.43 193 1646.41 193 1646.39C193 1646.37 193 1646.36 193 1646.34C193 1646.32 193 1646.3 193 1646.29C193 1646.27 193 1646.25 193 1646.23C193 1646.22 193 1646.2 193 1646.18C193 1646.16 193 1646.15 193 1646.13C193 1646.11 193 1646.09 193 1646.08C193 1646.06 193 1646.04 193 1646.02C193 1646.01 193 1645.99 193 1645.97C193 1645.95 193 1645.94 193 1645.92C193 1645.9 193 1645.88 193 1645.87C193 1645.85 193 1645.83 193 1645.81C193 1645.8 193 1645.78 193 1645.76C193 1645.74 193 1645.73 193 1645.71C193 1645.69 193 1645.67 193 1645.66C193 1645.64 193 1645.62 193 1645.6C193 1645.59 193 1645.57 193 1645.55C193 1645.53 193 1645.52 193 1645.5C193 1645.48 193 1645.46 193 1645.45C193 1645.43 193 1645.41 193 1645.39C193 1645.38 193 1645.36 193 1645.34C193 1645.32 193 1645.31 193 1645.29C193 1645.27 193 1645.25 193 1645.24C193 1645.22 193 1645.2 193 1645.18C193 1645.17 193 1645.15 193 1645.13C193 1645.11 193 1645.1 193 1645.08C193 1645.06 193 1645.04 193 1645.02C193 1645.01 193 1644.99 193 1644.97C193 1644.95 193 1644.94 193 1644.92C193 1644.9 193 1644.88 193 1644.87C193 1644.85 193 1644.83 193 1644.81C193 1644.8 193 1644.78 193 1644.76C193 1644.74 193 1644.73 193 1644.71C193 1644.69 193 1644.67 193 1644.66C193 1644.64 193 1644.62 193 1644.6C193 1644.59 193 1644.57 193 1644.55C193 1644.53 193 1644.52 193 1644.5C193 1644.48 193 1644.46 193 1644.44C193 1644.43 193 1644.41 193 1644.39C193 1644.37 193 1644.36 193 1644.34C193 1644.32 193 1644.3 193 1644.29C193 1644.27 193 1644.25 193 1644.23C193 1644.22 193 1644.2 193 1644.18C193 1644.16 193 1644.15 193 1644.13C193 1644.11 193 1644.09 193 1644.08C193 1644.06 193 1644.04 193 1644.02C193 1644.01 193 1643.99 193 1643.97C193 1643.95 193 1643.94 193 1643.92C193 1643.9 193 1643.88 193 1643.86C193 1643.85 193 1643.83 193 1643.81C193 1643.79 193 1643.78 193 1643.76C193 1643.74 193 1643.72 193 1643.71C193 1643.69 193 1643.67 193 1643.65C193 1643.64 193 1643.62 193 1643.6C193 1643.58 193 1643.57 193 1643.55C193 1643.53 193 1643.51 193 1643.5C193 1643.48 193 1643.46 193 1643.44C193 1643.43 193 1643.41 193 1643.39C193 1643.37 193 1643.36 193 1643.34C193 1643.32 193 1643.3 193 1643.29C193 1643.27 193 1643.25 193 1643.23C193 1643.22 193 1643.2 193 1643.18C193 1643.16 193 1643.15 193 1643.13C193 1643.11 193 1643.09 193 1643.08C193 1643.06 193 1643.04 193 1643.02C193 1643.01 193 1642.99 193 1642.97C193 1642.95 193 1642.94 193 1642.92C193 1642.9 193 1642.88 193 1642.87C193 1642.85 193 1642.83 193 1642.81C193 1642.8 193 1642.78 193 1642.76C193 1642.74 193 1642.73 193 1642.71C193 1642.69 193 1642.67 193 1642.66C193 1642.64 193 1642.62 193 1642.6C193 1642.59 193 1642.57 193 1642.55C193 1642.53 193 1642.52 193 1642.5C193 1642.48 193 1642.47 193 1642.45C193 1642.43 193 1642.41 193 1642.4C193 1642.38 193 1642.36 193 1642.34C193 1642.33 193 1642.31 193 1642.29C193 1642.27 193 1642.26 193 1642.24C193 1642.22 193 1642.2 193 1642.19C193 1642.17 193 1642.15 193 1642.14C193 1642.12 193 1642.1 193 1642.08C193 1642.07 193 1642.05 193 1642.03C193 1642.01 193 1642 193 1641.98C193 1641.96 193 1641.94 193 1641.93C193 1641.91 193 1641.89 193 1641.88C193 1641.86 193 1641.84 193 1641.82C193 1641.81 193 1641.79 193 1641.77C193 1641.75 193 1641.74 193 1641.72C193 1641.7 193 1641.69 193 1641.67C193 1641.65 193 1641.63 193 1641.62C193 1641.6 193 1641.58 193 1641.57C193 1641.55 193 1641.53 193 1641.51C193 1641.5 193 1641.48 193 1641.46C193 1641.44 193 1641.43 193 1641.41C193 1641.39 193 1641.38 193 1641.36C193 1641.34 193 1641.32 193 1641.31C193 1641.29 193 1641.27 193 1641.26C193 1641.24 193 1641.22 193 1641.2C193 1641.19 193 1641.17 193 1641.15C193 1641.14 193 1641.12 193 1641.1C193 1641.09 193 1641.07 193 1641.05C193 1641.03 193 1641.02 193 1641C193 1640.98 193 1640.97 193 1640.95C193 1640.93 193 1640.91 193 1640.9C193 1640.88 193 1640.86 193 1640.85C193 1640.83 193 1640.81 193 1640.8C193 1640.78 193 1640.76 193 1640.75C193 1640.73 193 1640.71 193 1640.69C193 1640.68 193 1640.66 193 1640.64C193 1640.63 193 1640.61 193 1640.59C193 1640.58 193 1640.56 193 1640.54C193 1640.53 193 1640.51 193 1640.49C193 1640.47 193 1640.46 193 1640.44C193 1640.42 193 1640.41 193 1640.39C193 1640.37 193 1640.36 193 1640.34C193 1640.32 193 1640.31 193 1640.29C193 1640.27 193 1640.26 193 1640.24C193 1640.22 193 1640.21 193 1640.19C193 1640.17 193 1640.16 193 1640.14C193 1640.12 193 1640.11 193 1640.09C193 1640.07 193 1640.05 193 1640.04C193 1640.02 193 1640 193 1639.99C193 1639.97 193 1639.95 193 1639.94C193 1639.92 193 1639.9 193 1639.89C193 1639.87 193 1639.85 193 1639.84C193 1639.82 193 1639.81 193 1639.79C193 1639.77 193 1639.76 193 1639.74C193 1639.72 193 1639.71 193 1639.69C193 1639.67 193 1639.66 193 1639.64C193 1639.62 193 1639.61 193 1639.59C193 1639.57 193 1639.56 193 1639.54C193 1639.52 193 1639.51 193 1639.49C193 1639.47 193 1639.46 193 1639.44C193 1639.43 193 1639.41 193 1639.39C193 1639.38 193 1639.36 193 1639.34C193 1639.33 193 1639.31 193 1639.29C193 1639.28 193 1639.26 193 1639.25C193 1639.23 193 1639.21 193 1639.2C193 1639.18 193 1639.16 193 1639.15C193 1639.13 193 1639.11 193 1639.1C193 1639.08 193 1639.07 193 1639.05C193 1639.03 193 1639.02 193 1639C193 1638.98 193 1638.97 193 1638.95C193 1638.94 193 1638.92 193 1638.9C193 1638.89 193 1638.87 193 1638.86C193 1638.84 193 1638.82 193 1638.81C193 1638.79 193 1638.77 193 1638.76C193 1638.74 193 1638.73 193 1638.71C193 1638.69 193 1638.68 193 1638.66C193 1638.65 193 1638.63 193 1638.61C193 1638.6 193 1638.58 193 1638.57C193 1638.55 193 1638.53 193 1638.52C193 1638.5 193 1638.49 193 1638.47C193 1638.46 193 1638.44 193 1638.42C193 1638.41 193 1638.39 193 1638.38C193 1638.36 193 1638.34 193 1638.33C193 1638.31 193 1638.3 193 1638.28C193 1638.26 193 1638.25 193 1638.23C193 1638.22 193 1638.2 193 1638.19C193 1638.17 193 1638.15 193 1638.14C193 1638.12 193 1638.11 193 1638.09C193 1638.08 193 1638.06 193 1638.04C193 1638.03 193 1638.01 193 1638C193 1637.98 193 1637.97 193 1637.95C193 1637.94 193 1637.92 193 1637.9C193 1637.89 193 1637.87 193 1637.86C193 1637.84 193 1637.83 193 1637.81C193 1637.8 193 1637.78 193 1637.76C193 1637.75 193 1637.73 193 1637.72C193 1637.7 193 1637.69 193 1637.67C193 1637.66 193 1637.64 193 1637.63C193 1637.61 193 1637.6 193 1637.58C193 1637.56 193 1637.55 193 1637.53C193 1637.52 193 1637.5 193 1637.49C193 1637.47 193 1637.46 193 1637.44C193 1637.43 193 1637.41 193 1637.4C193 1637.38 193 1637.37 193 1637.35C193 1637.34 193 1637.32 193 1637.31C193 1637.29 193 1637.28 193 1637.26C193 1637.25 193 1637.23 193 1637.21C193 1637.2 193 1637.18 193 1637.17C193 1637.15 193 1637.14 193 1637.12C193 1637.11 193 1637.09 193 1637.08C193 1637.06 193 1637.05 193 1637.03C193 1637.02 193 1637.01 193 1636.99C193 1636.98 193 1636.96 193 1636.95C193 1636.93 193 1636.92 193 1636.9C193 1636.89 193 1636.87 193 1636.86C193 1636.84 193 1636.83 193 1636.81C193 1636.8 193 1636.78 193 1636.77C193 1636.75 193 1636.74 193 1636.72C193 1636.71 193 1636.69 193 1636.68C193 1636.67 193 1636.65 193 1636.64C193 1636.62 193 1636.61 193 1636.59C193 1636.58 193 1636.56 193 1636.55C193 1636.53 193 1636.52 193 1636.51C193 1636.49 193 1636.48 193 1636.46C193 1636.45 193 1636.43 193 1636.42C193 1636.4 193 1636.39 193 1636.38C193 1636.36 193 1636.35 193 1636.33C193 1636.32 193 1636.3 193 1636.29C193 1636.28 193 1636.26 193 1636.25C193 1636.23 193 1636.22 193 1636.2C193 1636.19 193 1636.18 193 1636.16C193 1636.15 193 1636.13 193 1636.12C193 1636.1 193 1636.09 193 1636.08C193 1636.06 193 1636.05 193 1636.03C193 1636.02 193 1636.01 193 1635.99C193 1635.98 193 1635.96 193 1635.95C193 1635.94 193 1635.92 193 1635.91C193 1635.89 193 1635.88 193 1635.87C193 1635.85 193 1635.84 193 1635.83C193 1635.81 193 1635.8 193 1635.78C193 1635.77 193 1635.76 193 1635.74C193 1635.73 193 1635.72 193 1635.7C193 1635.69 193 1635.67 193 1635.66C193 1635.65 193 1635.63 193 1635.62C193 1635.61 193 1635.59 193 1635.58C193 1635.56 193 1635.55 193 1635.54C193 1635.52 193 1635.51 193 1635.5C193 1635.48 193 1635.47 193 1635.46C193 1635.44 193 1635.43 193 1635.42C193 1635.4 193 1635.39 193 1635.38C193 1635.36 193 1635.35 193 1635.34C193 1635.32 193 1635.31 193 1635.3C193 1635.28 193 1635.27 193 1635.26C193 1635.24 193 1635.23 193 1635.22C193 1635.2 193 1635.19 193 1635.18C193 1635.16 193 1635.15 193 1635.14C193 1635.13 193 1635.11 193 1635.1C193 1635.09 193 1635.07 193 1635.06C193 1635.05 193 1635.03 193 1635.02C193 1635.01 193 1635 193 1634.98C193 1634.97 193 1634.96 193 1634.94C193 1634.93 193 1634.92 193 1634.91C193 1634.89 193 1634.88 193 1634.87C193 1634.85 193 1634.84 193 1634.83C193 1634.82 193 1634.8 193 1634.79C193 1634.78 193 1634.77 193 1634.75C193 1634.74 193 1634.73 193 1634.72C193 1634.7 193 1634.69 193 1634.68C193 1634.66 193 1634.65 193 1634.64C193 1634.63 193 1634.62 193 1634.6C193 1634.59 193 1634.58 193 1634.57C193 1634.55 193 1634.54 193 1634.53C193 1634.52 193 1634.5 193 1634.49C193 1634.48 193 1634.47 193 1634.45C193 1634.44 193 1634.43 193 1634.42C193 1634.41 193 1634.39 193 1634.38C193 1634.37 193 1634.36 193 1634.35C193 1634.33 193 1634.32 193 1634.31C193 1634.3 193 1634.29 193 1634.27C193 1634.26 193 1634.25 193 1634.24C193 1634.23 193 1634.21 193 1634.2C193 1634.19 193 1634.18 193 1634.17C193 1634.15 193 1634.14 193 1634.13C193 1634.12 193 1634.11 193 1634.1C193 1634.08 193 1634.07 193 1634.06C193 1634.05 193 1634.04 193 1634.03C193 1634.01 193 1634 193 1633.99C193 1633.98 193 1633.97 193 1633.96C193 1633.95 193 1633.93 193 1633.92C193 1633.91 193 1633.9 193 1633.89C193 1633.88 193 1633.87 193 1633.85C193 1633.84 193 1633.83 193 1633.82C193 1633.81 193 1633.8 193 1633.79C193 1633.78 193 1633.76 193 1633.75C193 1633.74 193 1633.73 193 1633.72C193 1633.71 193 1633.7 193 1633.69C193 1633.68 193 1633.66 193 1633.65C193 1633.64 193 1633.63 193 1633.62C193 1633.61 193 1633.6 193 1633.59C193 1633.58 193 1633.57 193 1633.56C193 1633.54 193 1633.53 193 1633.52C193 1633.51 193 1633.5 193 1633.49C193 1633.48 193 1633.47 193 1633.46C193 1633.45 193 1633.44 193 1633.43C193 1633.42 193 1633.41 193 1633.4C193 1633.38 193 1633.37 193 1633.36C193 1633.35 193 1633.34 193 1633.33C193 1633.32 193 1633.31 193 1633.3C193 1633.29 193 1633.28 193 1633.27C193 1633.26 193 1633.25 193 1633.24C193 1633.23 193 1633.22 193 1633.21C193 1633.2 193 1633.19 193 1633.18C193 1633.17 193 1633.16 193 1633.15C193 1633.14 193 1633.13 193 1633.12C193 1633.11 193 1633.1 193 1633.09C193 1633.08 193 1633.07 193 1633.06C193 1633.05 193 1633.04 193 1633.03C193 1633.02 193 1633.01 193 1633C193 1632.99 193 1632.98 193 1632.97C193 1632.96 193 1632.95 193 1632.94C193 1632.93 193 1632.92 193 1632.91C193 1632.9 193 1632.89 193 1632.88C193 1632.87 193 1632.86 193 1632.86C193 1632.85 193 1632.84 193 1632.83C193 1632.82 193 1632.81 193 1632.8C193 1632.79 193 1632.78 193 1632.77C193 1632.76 193 1632.75 193 1632.74C193 1632.73 193 1632.72 193 1632.72C193 1632.71 193 1632.7 193 1632.69C193 1632.68 193 1632.67 193 1632.66C193 1632.65 193 1632.64 193 1632.63C193 1632.63 193 1632.62 193 1632.61C193 1632.6 193 1632.59 193 1632.58C193 1632.57 193 1632.56 193 1632.55C193 1632.55 193 1632.54 193 1632.53C193 1632.52 193 1632.51 193 1632.5C193 1632.49 193 1632.49 193 1632.48C193 1632.47 193 1632.46 193 1632.45C193 1632.44 193 1632.43 193 1632.43C193 1632.42 193 1632.41 193 1632.4C193 1632.39 193 1632.38 193 1632.38C193 1632.37 193 1632.36 193 1632.35C193 1632.34 193 1632.33 193 1632.33C193 1632.32 193 1632.31 193 1632.3C193 1632.29 193 1632.29 193 1632.28C193 1632.27 193 1632.26 193 1632.25C193 1632.25 193 1632.24 193 1632.23C193 1632.22 193 1632.21 193 1632.21C193 1632.2 193 1632.19 193 1632.18C193 1632.18 193 1632.17 193 1632.16C193 1632.15 193 1632.14 193 1632.14C193 1632.13 193 1632.12 193 1632.11C193 1632.11 193 1632.1 193 1632.09C193 1632.08 193 1632.08 193 1632.07C193 1632.06 193 1632.05 193 1632.05C193 1632.04 193 1632.03 193 1632.02C193 1632.02 193 1632.01 193 1632C193 1632 193 1631.99 193 1631.98C193 1631.97 193 1631.97 193 1631.96C193 1631.95 193 1631.95 193 1631.94C193 1631.93 193 1631.93 193 1631.92C193 1631.91 193 1631.9 193 1631.9C193 1631.89 193 1631.88 193 1631.88C193 1631.87 193 1631.86 193 1631.86C193 1631.85 193 1631.84 193 1631.84C193 1631.83 193 1631.82 193 1631.82C193 1631.81 193 1631.8 193 1631.8C193 1631.79 193 1631.78 193 1631.78C193 1631.77 193 1631.77 193 1631.76C193 1631.75 193 1631.75 193 1631.74C193 1631.73 193 1631.73 193 1631.72C193 1631.72 193 1631.71 193 1631.7C193 1631.7 193 1631.69 193 1631.69C193 1631.68 193 1631.67 193 1631.67C193 1631.66 193 1631.66 193 1631.65C193 1631.64 193 1631.64 193 1631.63C193 1631.63 193 1631.62 193 1631.61C193 1631.61 193 1631.6 193 1631.6C193 1631.59 193 1631.59 193 1631.58C193 1631.57 193 1631.57 193 1631.56C193 1631.56 193 1631.55 193 1631.55C193 1631.54 193 1631.54 193 1631.53C193 1631.53 193 1631.52 193 1631.51C193 1631.51 193 1631.5 193 1631.5C193 1631.49 193 1631.49 193 1631.48C193 1631.48 193 1631.47 193 1631.47C193 1631.46 193 1631.46 193 1631.45C193 1631.45 193 1631.44 193 1631.44C193 1631.43 193 1631.43 193 1631.42C193 1631.42 193 1631.41 193 1631.41C193 1631.4 193 1631.4 193 1631.4C193 1631.39 193 1631.39 193 1631.38C193 1631.38 193 1631.37 193 1631.37C193 1631.36 193 1631.36 193 1631.35C193 1631.35 193 1631.35 193 1631.34C193 1631.34 193 1631.33 193 1631.33C193 1631.32 193 1631.32 193 1631.32C193 1631.31 193 1631.31 193 1631.3C193 1631.3 193 1631.29 193 1631.29C193 1631.29 193 1631.28 193 1631.28C193 1631.27 193 1631.27 193 1631.27C193 1631.26 193 1631.26 193 1631.26C193 1631.25 193 1631.25 193 1631.24C193 1631.24 193 1631.24 193 1631.23C193 1631.23 193 1631.23 193 1631.22C193 1631.22 193 1631.22 193 1631.21C193 1631.21 193 1631.21 193 1631.2C193 1631.2 193 1631.19 193 1631.19C193 1631.19 193 1631.19 193 1631.18C193 1631.18 193 1631.18 193 1631.17C193 1631.17 193 1631.17 193 1631.16C193 1631.16 193 1631.16 193 1631.15C193 1631.15 193 1631.15 193 1631.15C193 1631.14 193 1631.14 193 1631.14C193 1631.13 193 1631.13 193 1631.13C193 1631.13 193 1631.12 193 1631.12C193 1631.12 193 1631.12 193 1631.11C193 1631.11 193 1631.11 193 1631.1C193 1631.1 193 1631.1 193 1631.1C193 1631.1 193 1631.09 193 1631.09C193 1631.09 193 1631.09 193 1631.08C193 1631.08 193 1631.08 193 1631.08C193 1631.08 193 1631.07 193 1631.07C193 1631.07 193 1631.07 193 1631.07C193 1631.06 193 1631.06 193 1631.06C193 1631.06 193 1631.06 193 1631.05C193 1631.05 193 1631.05 193 1631.05C193 1631.05 193 1631.05 193 1631.04C193 1631.04 193 1631.04 193 1631.04C193 1631.04 193 1631.04 193 1631.03C193 1631.03 193 1631.03 193 1631.03C193 1631.03 193 1631.03 193 1631.03C193 1631.03 193 1631.02 193 1631.02C193 1631.02 193 1631.02 193 1631.02C193 1631.02 193 1631.02 193 1631.02C193 1631.02 193 1631.01 193 1631.01C193 1631.01 193 1631.01 193 1631.01C193 1631.01 193 1631.01 193 1631.01C193 1631.01 193 1631.01 193 1631.01C193 1631.01 193 1631.01 193 1631C193 1631 193 1631 193 1631C193 1631 193 1631 193 1631C193 1631 193 1631 193 1631C193 1631 193 1631 193 1631C193 1631 193 1631 193 1631C193 1631 193 1631 192 1631C191 1631 191 1631 191 1631C191 1631 191 1631 191 1631C191 1631 191 1631 191 1631C191 1631 191 1631 191 1631C191 1631 191 1631 191 1631C191 1631 191 1631 191 1631C191 1631.01 191 1631.01 191 1631.01C191 1631.01 191 1631.01 191 1631.01C191 1631.01 191 1631.01 191 1631.01C191 1631.01 191 1631.01 191 1631.01C191 1631.01 191 1631.02 191 1631.02C191 1631.02 191 1631.02 191 1631.02C191 1631.02 191 1631.02 191 1631.02C191 1631.02 191 1631.03 191 1631.03C191 1631.03 191 1631.03 191 1631.03C191 1631.03 191 1631.03 191 1631.03C191 1631.04 191 1631.04 191 1631.04C191 1631.04 191 1631.04 191 1631.04C191 1631.05 191 1631.05 191 1631.05C191 1631.05 191 1631.05 191 1631.05C191 1631.06 191 1631.06 191 1631.06C191 1631.06 191 1631.06 191 1631.07C191 1631.07 191 1631.07 191 1631.07C191 1631.07 191 1631.08 191 1631.08C191 1631.08 191 1631.08 191 1631.08C191 1631.09 191 1631.09 191 1631.09C191 1631.09 191 1631.1 191 1631.1C191 1631.1 191 1631.1 191 1631.1C191 1631.11 191 1631.11 191 1631.11C191 1631.12 191 1631.12 191 1631.12C191 1631.12 191 1631.13 191 1631.13C191 1631.13 191 1631.13 191 1631.14C191 1631.14 191 1631.14 191 1631.15C191 1631.15 191 1631.15 191 1631.15C191 1631.16 191 1631.16 191 1631.16C191 1631.17 191 1631.17 191 1631.17C191 1631.18 191 1631.18 191 1631.18C191 1631.19 191 1631.19 191 1631.19C191 1631.19 191 1631.2 191 1631.2C191 1631.21 191 1631.21 191 1631.21C191 1631.22 191 1631.22 191 1631.22C191 1631.23 191 1631.23 191 1631.23C191 1631.24 191 1631.24 191 1631.24C191 1631.25 191 1631.25 191 1631.26C191 1631.26 191 1631.26 191 1631.27C191 1631.27 191 1631.27 191 1631.28C191 1631.28 191 1631.29 191 1631.29C191 1631.29 191 1631.3 191 1631.3C191 1631.31 191 1631.31 191 1631.32C191 1631.32 191 1631.32 191 1631.33C191 1631.33 191 1631.34 191 1631.34C191 1631.35 191 1631.35 191 1631.35C191 1631.36 191 1631.36 191 1631.37C191 1631.37 191 1631.38 191 1631.38C191 1631.39 191 1631.39 191 1631.4C191 1631.4 191 1631.4 191 1631.41C191 1631.41 191 1631.42 191 1631.42C191 1631.43 191 1631.43 191 1631.44C191 1631.44 191 1631.45 191 1631.45C191 1631.46 191 1631.46 191 1631.47C191 1631.47 191 1631.48 191 1631.48C191 1631.49 191 1631.49 191 1631.5C191 1631.5 191 1631.51 191 1631.51C191 1631.52 191 1631.53 191 1631.53C191 1631.54 191 1631.54 191 1631.55C191 1631.55 191 1631.56 191 1631.56C191 1631.57 191 1631.57 191 1631.58C191 1631.59 191 1631.59 191 1631.6C191 1631.6 191 1631.61 191 1631.61C191 1631.62 191 1631.63 191 1631.63C191 1631.64 191 1631.64 191 1631.65C191 1631.66 191 1631.66 191 1631.67C191 1631.67 191 1631.68 191 1631.69C191 1631.69 191 1631.7 191 1631.7C191 1631.71 191 1631.72 191 1631.72C191 1631.73 191 1631.73 191 1631.74C191 1631.75 191 1631.75 191 1631.76C191 1631.77 191 1631.77 191 1631.78C191 1631.78 191 1631.79 191 1631.8C191 1631.8 191 1631.81 191 1631.82C191 1631.82 191 1631.83 191 1631.84C191 1631.84 191 1631.85 191 1631.86C191 1631.86 191 1631.87 191 1631.88C191 1631.88 191 1631.89 191 1631.9C191 1631.9 191 1631.91 191 1631.92C191 1631.93 191 1631.93 191 1631.94C191 1631.95 191 1631.95 191 1631.96C191 1631.97 191 1631.97 191 1631.98C191 1631.99 191 1632 191 1632C191 1632.01 191 1632.02 191 1632.02C191 1632.03 191 1632.04 191 1632.05C191 1632.05 191 1632.06 191 1632.07C191 1632.08 191 1632.08 191 1632.09C191 1632.1 191 1632.11 191 1632.11C191 1632.12 191 1632.13 191 1632.14C191 1632.14 191 1632.15 191 1632.16C191 1632.17 191 1632.18 191 1632.18C191 1632.19 191 1632.2 191 1632.21C191 1632.21 191 1632.22 191 1632.23C191 1632.24 191 1632.25 191 1632.25C191 1632.26 191 1632.27 191 1632.28C191 1632.29 191 1632.29 191 1632.3C191 1632.31 191 1632.32 191 1632.33C191 1632.33 191 1632.34 191 1632.35C191 1632.36 191 1632.37 191 1632.38C191 1632.38 191 1632.39 191 1632.4C191 1632.41 191 1632.42 191 1632.43C191 1632.43 191 1632.44 191 1632.45C191 1632.46 191 1632.47 191 1632.48C191 1632.49 191 1632.49 191 1632.5C191 1632.51 191 1632.52 191 1632.53C191 1632.54 191 1632.55 191 1632.55C191 1632.56 191 1632.57 191 1632.58C191 1632.59 191 1632.6 191 1632.61C191 1632.62 191 1632.63 191 1632.63C191 1632.64 191 1632.65 191 1632.66C191 1632.67 191 1632.68 191 1632.69C191 1632.7 191 1632.71 191 1632.72C191 1632.72 191 1632.73 191 1632.74C191 1632.75 191 1632.76 191 1632.77C191 1632.78 191 1632.79 191 1632.8C191 1632.81 191 1632.82 191 1632.83C191 1632.84 191 1632.85 191 1632.86C191 1632.86 191 1632.87 191 1632.88C191 1632.89 191 1632.9 191 1632.91C191 1632.92 191 1632.93 191 1632.94C191 1632.95 191 1632.96 191 1632.97C191 1632.98 191 1632.99 191 1633C191 1633.01 191 1633.02 191 1633.03C191 1633.04 191 1633.05 191 1633.06C191 1633.07 191 1633.08 191 1633.09C191 1633.1 191 1633.11 191 1633.12C191 1633.13 191 1633.14 191 1633.15C191 1633.16 191 1633.17 191 1633.18C191 1633.19 191 1633.2 191 1633.21C191 1633.22 191 1633.23 191 1633.24C191 1633.25 191 1633.26 191 1633.27C191 1633.28 191 1633.29 191 1633.3C191 1633.31 191 1633.32 191 1633.33C191 1633.34 191 1633.35 191 1633.36C191 1633.37 191 1633.38 191 1633.4C191 1633.41 191 1633.42 191 1633.43C191 1633.44 191 1633.45 191 1633.46C191 1633.47 191 1633.48 191 1633.49C191 1633.5 191 1633.51 191 1633.52C191 1633.53 191 1633.54 191 1633.56C191 1633.57 191 1633.58 191 1633.59C191 1633.6 191 1633.61 191 1633.62C191 1633.63 191 1633.64 191 1633.65C191 1633.66 191 1633.68 191 1633.69C191 1633.7 191 1633.71 191 1633.72C191 1633.73 191 1633.74 191 1633.75C191 1633.76 191 1633.78 191 1633.79C191 1633.8 191 1633.81 191 1633.82C191 1633.83 191 1633.84 191 1633.85C191 1633.87 191 1633.88 191 1633.89C191 1633.9 191 1633.91 191 1633.92C191 1633.93 191 1633.95 191 1633.96C191 1633.97 191 1633.98 191 1633.99C191 1634 191 1634.01 191 1634.03C191 1634.04 191 1634.05 191 1634.06C191 1634.07 191 1634.08 191 1634.1C191 1634.11 191 1634.12 191 1634.13C191 1634.14 191 1634.15 191 1634.17C191 1634.18 191 1634.19 191 1634.2C191 1634.21 191 1634.23 191 1634.24C191 1634.25 191 1634.26 191 1634.27C191 1634.29 191 1634.3 191 1634.31C191 1634.32 191 1634.33 191 1634.35C191 1634.36 191 1634.37 191 1634.38C191 1634.39 191 1634.41 191 1634.42C191 1634.43 191 1634.44 191 1634.45C191 1634.47 191 1634.48 191 1634.49C191 1634.5 191 1634.52 191 1634.53C191 1634.54 191 1634.55 191 1634.57C191 1634.58 191 1634.59 191 1634.6C191 1634.62 191 1634.63 191 1634.64C191 1634.65 191 1634.66 191 1634.68C191 1634.69 191 1634.7 191 1634.72C191 1634.73 191 1634.74 191 1634.75C191 1634.77 191 1634.78 191 1634.79C191 1634.8 191 1634.82 191 1634.83C191 1634.84 191 1634.85 191 1634.87C191 1634.88 191 1634.89 191 1634.91C191 1634.92 191 1634.93 191 1634.94C191 1634.96 191 1634.97 191 1634.98C191 1635 191 1635.01 191 1635.02C191 1635.03 191 1635.05 191 1635.06C191 1635.07 191 1635.09 191 1635.1C191 1635.11 191 1635.13 191 1635.14C191 1635.15 191 1635.16 191 1635.18C191 1635.19 191 1635.2 191 1635.22C191 1635.23 191 1635.24 191 1635.26C191 1635.27 191 1635.28 191 1635.3C191 1635.31 191 1635.32 191 1635.34C191 1635.35 191 1635.36 191 1635.38C191 1635.39 191 1635.4 191 1635.42C191 1635.43 191 1635.44 191 1635.46C191 1635.47 191 1635.48 191 1635.5C191 1635.51 191 1635.52 191 1635.54C191 1635.55 191 1635.56 191 1635.58C191 1635.59 191 1635.61 191 1635.62C191 1635.63 191 1635.65 191 1635.66C191 1635.67 191 1635.69 191 1635.7C191 1635.72 191 1635.73 191 1635.74C191 1635.76 191 1635.77 191 1635.78C191 1635.8 191 1635.81 191 1635.83C191 1635.84 191 1635.85 191 1635.87C191 1635.88 191 1635.89 191 1635.91C191 1635.92 191 1635.94 191 1635.95C191 1635.96 191 1635.98 191 1635.99C191 1636.01 191 1636.02 191 1636.03C191 1636.05 191 1636.06 191 1636.08C191 1636.09 191 1636.1 191 1636.12C191 1636.13 191 1636.15 191 1636.16C191 1636.18 191 1636.19 191 1636.2C191 1636.22 191 1636.23 191 1636.25C191 1636.26 191 1636.28 191 1636.29C191 1636.3 191 1636.32 191 1636.33C191 1636.35 191 1636.36 191 1636.38C191 1636.39 191 1636.4 191 1636.42C191 1636.43 191 1636.45 191 1636.46C191 1636.48 191 1636.49 191 1636.51C191 1636.52 191 1636.53 191 1636.55C191 1636.56 191 1636.58 191 1636.59C191 1636.61 191 1636.62 191 1636.64C191 1636.65 191 1636.67 191 1636.68C191 1636.69 191 1636.71 191 1636.72C191 1636.74 191 1636.75 191 1636.77C191 1636.78 191 1636.8 191 1636.81C191 1636.83 191 1636.84 191 1636.86C191 1636.87 191 1636.89 191 1636.9C191 1636.92 191 1636.93 191 1636.95C191 1636.96 191 1636.98 191 1636.99C191 1637.01 191 1637.02 191 1637.03C191 1637.05 191 1637.06 191 1637.08C191 1637.09 191 1637.11 191 1637.12C191 1637.14 191 1637.15 191 1637.17C191 1637.18 191 1637.2 191 1637.21C191 1637.23 191 1637.25 191 1637.26C191 1637.28 191 1637.29 191 1637.31C191 1637.32 191 1637.34 191 1637.35C191 1637.37 191 1637.38 191 1637.4C191 1637.41 191 1637.43 191 1637.44C191 1637.46 191 1637.47 191 1637.49C191 1637.5 191 1637.52 191 1637.53C191 1637.55 191 1637.56 191 1637.58C191 1637.6 191 1637.61 191 1637.63C191 1637.64 191 1637.66 191 1637.67C191 1637.69 191 1637.7 191 1637.72C191 1637.73 191 1637.75 191 1637.76C191 1637.78 191 1637.8 191 1637.81C191 1637.83 191 1637.84 191 1637.86C191 1637.87 191 1637.89 191 1637.9C191 1637.92 191 1637.94 191 1637.95C191 1637.97 191 1637.98 191 1638C191 1638.01 191 1638.03 191 1638.04C191 1638.06 191 1638.08 191 1638.09C191 1638.11 191 1638.12 191 1638.14C191 1638.15 191 1638.17 191 1638.19C191 1638.2 191 1638.22 191 1638.23C191 1638.25 191 1638.26 191 1638.28C191 1638.3 191 1638.31 191 1638.33C191 1638.34 191 1638.36 191 1638.38C191 1638.39 191 1638.41 191 1638.42C191 1638.44 191 1638.46 191 1638.47C191 1638.49 191 1638.5 191 1638.52C191 1638.53 191 1638.55 191 1638.57C191 1638.58 191 1638.6 191 1638.61C191 1638.63 191 1638.65 191 1638.66C191 1638.68 191 1638.69 191 1638.71C191 1638.73 191 1638.74 191 1638.76C191 1638.77 191 1638.79 191 1638.81C191 1638.82 191 1638.84 191 1638.86C191 1638.87 191 1638.89 191 1638.9C191 1638.92 191 1638.94 191 1638.95C191 1638.97 191 1638.98 191 1639C191 1639.02 191 1639.03 191 1639.05C191 1639.07 191 1639.08 191 1639.1C191 1639.11 191 1639.13 191 1639.15C191 1639.16 191 1639.18 191 1639.2C191 1639.21 191 1639.23 191 1639.25C191 1639.26 191 1639.28 191 1639.29C191 1639.31 191 1639.33 191 1639.34C191 1639.36 191 1639.38 191 1639.39C191 1639.41 191 1639.43 191 1639.44C191 1639.46 191 1639.47 191 1639.49C191 1639.51 191 1639.52 191 1639.54C191 1639.56 191 1639.57 191 1639.59C191 1639.61 191 1639.62 191 1639.64C191 1639.66 191 1639.67 191 1639.69C191 1639.71 191 1639.72 191 1639.74C191 1639.76 191 1639.77 191 1639.79C191 1639.81 191 1639.82 191 1639.84C191 1639.85 191 1639.87 191 1639.89C191 1639.9 191 1639.92 191 1639.94C191 1639.95 191 1639.97 191 1639.99C191 1640 191 1640.02 191 1640.04C191 1640.05 191 1640.07 191 1640.09C191 1640.11 191 1640.12 191 1640.14C191 1640.16 191 1640.17 191 1640.19C191 1640.21 191 1640.22 191 1640.24C191 1640.26 191 1640.27 191 1640.29C191 1640.31 191 1640.32 191 1640.34C191 1640.36 191 1640.37 191 1640.39C191 1640.41 191 1640.42 191 1640.44C191 1640.46 191 1640.47 191 1640.49C191 1640.51 191 1640.53 191 1640.54C191 1640.56 191 1640.58 191 1640.59C191 1640.61 191 1640.63 191 1640.64C191 1640.66 191 1640.68 191 1640.69C191 1640.71 191 1640.73 191 1640.75C191 1640.76 191 1640.78 191 1640.8C191 1640.81 191 1640.83 191 1640.85C191 1640.86 191 1640.88 191 1640.9C191 1640.91 191 1640.93 191 1640.95C191 1640.97 191 1640.98 191 1641C191 1641.02 191 1641.03 191 1641.05C191 1641.07 191 1641.09 191 1641.1C191 1641.12 191 1641.14 191 1641.15C191 1641.17 191 1641.19 191 1641.2C191 1641.22 191 1641.24 191 1641.26C191 1641.27 191 1641.29 191 1641.31C191 1641.32 191 1641.34 191 1641.36C191 1641.38 191 1641.39 191 1641.41C191 1641.43 191 1641.44 191 1641.46C191 1641.48 191 1641.5 191 1641.51C191 1641.53 191 1641.55 191 1641.57C191 1641.58 191 1641.6 191 1641.62C191 1641.63 191 1641.65 191 1641.67C191 1641.69 191 1641.7 191 1641.72C191 1641.74 191 1641.75 191 1641.77C191 1641.79 191 1641.81 191 1641.82C191 1641.84 191 1641.86 191 1641.88C191 1641.89 191 1641.91 191 1641.93C191 1641.94 191 1641.96 191 1641.98C191 1642 191 1642.01 191 1642.03C191 1642.05 191 1642.07 191 1642.08C191 1642.1 191 1642.12 191 1642.14C191 1642.15 191 1642.17 191 1642.19C191 1642.2 191 1642.22 191 1642.24C191 1642.26 191 1642.27 191 1642.29C191 1642.31 191 1642.33 191 1642.34C191 1642.36 191 1642.38 191 1642.4C191 1642.41 191 1642.43 191 1642.45C191 1642.47 191 1642.48 191 1642.5C191 1642.52 191 1642.53 191 1642.55C191 1642.57 191 1642.59 191 1642.6C191 1642.62 191 1642.64 191 1642.66C191 1642.67 191 1642.69 191 1642.71C191 1642.73 191 1642.74 191 1642.76C191 1642.78 191 1642.8 191 1642.81C191 1642.83 191 1642.85 191 1642.87C191 1642.88 191 1642.9 191 1642.92C191 1642.94 191 1642.95 191 1642.97C191 1642.99 191 1643.01 191 1643.02C191 1643.04 191 1643.06 191 1643.08C191 1643.09 191 1643.11 191 1643.13C191 1643.15 191 1643.16 191 1643.18C191 1643.2 191 1643.22 191 1643.23C191 1643.25 191 1643.27 191 1643.29C191 1643.3 191 1643.32 191 1643.34C191 1643.36 191 1643.37 191 1643.39C191 1643.41 191 1643.43 191 1643.44C191 1643.46 191 1643.48 191 1643.5C191 1643.51 191 1643.53 191 1643.55C191 1643.57 191 1643.58 191 1643.6C191 1643.62 191 1643.64 191 1643.65C191 1643.67 191 1643.69 191 1643.71C191 1643.72 191 1643.74 191 1643.76C191 1643.78 191 1643.79 191 1643.81C191 1643.83 191 1643.85 191 1643.86C191 1643.88 191 1643.9 191 1643.92C191 1643.94 191 1643.95 191 1643.97C191 1643.99 191 1644.01 191 1644.02C191 1644.04 191 1644.06 191 1644.08C191 1644.09 191 1644.11 191 1644.13C191 1644.15 191 1644.16 191 1644.18C191 1644.2 191 1644.22 191 1644.23C191 1644.25 191 1644.27 191 1644.29C191 1644.3 191 1644.32 191 1644.34C191 1644.36 191 1644.37 191 1644.39C191 1644.41 191 1644.43 191 1644.44C191 1644.46 191 1644.48 191 1644.5C191 1644.52 191 1644.53 191 1644.55C191 1644.57 191 1644.59 191 1644.6C191 1644.62 191 1644.64 191 1644.66C191 1644.67 191 1644.69 191 1644.71C191 1644.73 191 1644.74 191 1644.76C191 1644.78 191 1644.8 191 1644.81C191 1644.83 191 1644.85 191 1644.87C191 1644.88 191 1644.9 191 1644.92C191 1644.94 191 1644.95 191 1644.97C191 1644.99 191 1645.01 191 1645.02C191 1645.04 191 1645.06 191 1645.08C191 1645.1 191 1645.11 191 1645.13C191 1645.15 191 1645.17 191 1645.18C191 1645.2 191 1645.22 191 1645.24C191 1645.25 191 1645.27 191 1645.29C191 1645.31 191 1645.32 191 1645.34C191 1645.36 191 1645.38 191 1645.39C191 1645.41 191 1645.43 191 1645.45C191 1645.46 191 1645.48 191 1645.5C191 1645.52 191 1645.53 191 1645.55C191 1645.57 191 1645.59 191 1645.6C191 1645.62 191 1645.64 191 1645.66C191 1645.67 191 1645.69 191 1645.71C191 1645.73 191 1645.74 191 1645.76C191 1645.78 191 1645.8 191 1645.81C191 1645.83 191 1645.85 191 1645.87C191 1645.88 191 1645.9 191 1645.92C191 1645.94 191 1645.95 191 1645.97C191 1645.99 191 1646.01 191 1646.02C191 1646.04 191 1646.06 191 1646.08C191 1646.09 191 1646.11 191 1646.13C191 1646.15 191 1646.16 191 1646.18C191 1646.2 191 1646.22 191 1646.23C191 1646.25 191 1646.27 191 1646.29C191 1646.3 191 1646.32 191 1646.34C191 1646.36 191 1646.37 191 1646.39C191 1646.41 191 1646.43 191 1646.44C191 1646.46 191 1646.48 191 1646.5C191 1646.51 191 1646.53 191 1646.55C191 1646.56 191 1646.58 191 1646.6C191 1646.62 191 1646.63 191 1646.65C191 1646.67 191 1646.69 191 1646.7C191 1646.72 191 1646.74 191 1646.76C191 1646.77 191 1646.79 191 1646.81C191 1646.83 191 1646.84 191 1646.86C191 1646.88 191 1646.89 191 1646.91C191 1646.93 191 1646.95 191 1646.96C191 1646.98 191 1647 191 1647.02C191 1647.03 191 1647.05 191 1647.07C191 1647.09 191 1647.1 191 1647.12C191 1647.14 191 1647.15 191 1647.17C191 1647.19 191 1647.21 191 1647.22C191 1647.24 191 1647.26 191 1647.28C191 1647.29 191 1647.31 191 1647.33C191 1647.34 191 1647.36 191 1647.38C191 1647.4 191 1647.41 191 1647.43C191 1647.45 191 1647.46 191 1647.48C191 1647.5 191 1647.52 191 1647.53C191 1647.55 191 1647.57 191 1647.59C191 1647.6 191 1647.62 191 1647.64C191 1647.65 191 1647.67 191 1647.69C191 1647.71 191 1647.72 191 1647.74C191 1647.76 191 1647.77 191 1647.79C191 1647.81 191 1647.82 191 1647.84C191 1647.86 191 1647.88 191 1647.89C191 1647.91 191 1647.93 191 1647.94C191 1647.96 191 1647.98 191 1648C191 1648.01 191 1648.03 191 1648.05C191 1648.06 191 1648.08 191 1648.1C191 1648.11 191 1648.13 191 1648.15C191 1648.17 191 1648.18 191 1648.2C191 1648.22 191 1648.23 191 1648.25C191 1648.27 191 1648.28 191 1648.3C191 1648.32 191 1648.34 191 1648.35C191 1648.37 191 1648.39 191 1648.4C191 1648.42 191 1648.44 191 1648.45C191 1648.47 191 1648.49 191 1648.5C191 1648.52 191 1648.54 191 1648.56C191 1648.57 191 1648.59 191 1648.61C191 1648.62 191 1648.64 191 1648.66C191 1648.67 191 1648.69 191 1648.71C191 1648.72 191 1648.74 191 1648.76C191 1648.77 191 1648.79 191 1648.81C191 1648.82 191 1648.84 191 1648.86C191 1648.87 191 1648.89 191 1648.91C191 1648.92 191 1648.94 191 1648.96C191 1648.97 191 1648.99 191 1649.01C191 1649.02 191 1649.04 191 1649.06C191 1649.07 191 1649.09 191 1649.11C191 1649.12 191 1649.14 191 1649.16C191 1649.17 191 1649.19 191 1649.21C191 1649.22 191 1649.24 191 1649.26C191 1649.27 191 1649.29 191 1649.31C191 1649.32 191 1649.34 191 1649.36C191 1649.37 191 1649.39 191 1649.41C191 1649.42 191 1649.44 191 1649.46C191 1649.47 191 1649.49 191 1649.51C191 1649.52 191 1649.54 191 1649.55C191 1649.57 191 1649.59 191 1649.6C191 1649.62 191 1649.64 191 1649.65C191 1649.67 191 1649.69 191 1649.7C191 1649.72 191 1649.74 191 1649.75C191 1649.77 191 1649.78 191 1649.8C191 1649.82 191 1649.83 191 1649.85C191 1649.87 191 1649.88 191 1649.9C191 1649.91 191 1649.93 191 1649.95C191 1649.96 191 1649.98 191 1650C191 1650.01 191 1650.03 191 1650.04C191 1650.06 191 1650.08 191 1650.09C191 1650.11 191 1650.13 191 1650.14C191 1650.16 191 1650.17 191 1650.19C191 1650.21 191 1650.22 191 1650.24C191 1650.25 191 1650.27 191 1650.29C191 1650.3 191 1650.32 191 1650.33C191 1650.35 191 1650.37 191 1650.38C191 1650.4 191 1650.41 191 1650.43C191 1650.45 191 1650.46 191 1650.48C191 1650.49 191 1650.51 191 1650.53C191 1650.54 191 1650.56 191 1650.57C191 1650.59 191 1650.61 191 1650.62C191 1650.64 191 1650.65 191 1650.67C191 1650.69 191 1650.7 191 1650.72C191 1650.73 191 1650.75 191 1650.76C191 1650.78 191 1650.8 191 1650.81C191 1650.83 191 1650.84 191 1650.86C191 1650.87 191 1650.89 191 1650.91C191 1650.92 191 1650.94 191 1650.95C191 1650.97 191 1650.98 191 1651L193 1651ZM192 1652C263.466 1652 354.966 1652 428.599 1652C465.416 1652 497.766 1652 520.912 1652C532.485 1652 541.757 1652 548.136 1652C551.325 1652 553.792 1652 555.46 1652C556.295 1652 556.929 1652 557.356 1652C557.569 1652 557.73 1652 557.838 1652C557.892 1652 557.932 1652 557.959 1652C557.966 1652 557.989 1652 557.99 1652C557.993 1652 557.996 1652 557.997 1652C557.999 1652 558 1652 558 1651C558 1650 557.999 1650 557.997 1650C557.996 1650 557.993 1650 557.99 1650C557.989 1650 557.966 1650 557.959 1650C557.932 1650 557.892 1650 557.838 1650C557.729 1650 557.57 1650 557.356 1650C556.929 1650 556.295 1650 555.46 1650C553.791 1650 551.325 1650 548.136 1650C541.757 1650 532.485 1650 520.912 1650C497.766 1650 465.416 1650 428.599 1650C354.966 1650 263.466 1650 192 1650L192 1652ZM558 1652L916 1652L916 1650L558 1650L558 1652ZM559 1651L559 1631L557 1631L557 1651L559 1651ZM925 1643L925 1631L923 1631L923 1643L925 1643ZM0.999971 662L1119 662L1119 660L0.999971 660L0.999971 662ZM0.99999 221L192 221L192 219L0.99999 219L0.99999 221ZM192 221L1119 221L1119 219L192 219L192 221ZM191 220L191 433L193 433L193 220L191 220ZM200 442L1119 442L1119 440L200 440L200 442ZM191 433C191 437.97 195.029 442 200 442L200 440C196.134 440 193 436.866 193 433L191 433ZM916 1652C920.97 1652 925 1647.97 925 1643L923 1643C923 1646.87 919.866 1650 916 1650L916 1652ZM5.02962e-05 1643C5.0079e-05 1647.97 4.02947 1652 9.00005 1652L9.00005 1650C5.13408 1650 2.00005 1646.87 2.00005 1643L5.02962e-05 1643ZM9 -2.87905e-05C4.02942 -4.07499e-05 -1.32422e-07 4.0294 -3.49692e-07 8.99997L2 8.99997C2 5.13397 5.13403 1.99996 9 1.99997L9 -2.87905e-05Z" fill="#E5E5E5"/>
</svg>
