<svg width="564" height="247" viewBox="0 0 564 247" fill="none" xmlns="http://www.w3.org/2000/svg">
<path d="M175.36 151.898V191.854H3.29119L0.5 160.484L98.3559 3.30214H138.91L94.908 76.6096L50.4131 151.898H175.36ZM149.747 3.30214V243.698H98.5201V3.30214H149.747Z" fill="#333434"/>
<path d="M364.012 102.036V144.799C364.012 162.41 362.042 177.655 358.101 190.533C354.27 203.412 348.688 214.034 341.354 222.399C334.13 230.764 325.482 236.983 315.412 241.056C305.451 245.019 294.396 247 282.246 247C272.504 247 263.419 245.734 254.991 243.203C246.563 240.671 238.955 236.763 232.169 231.48C225.492 226.086 219.745 219.372 214.929 211.337C210.113 203.302 206.391 193.725 203.764 182.608C201.247 171.491 199.988 158.888 199.988 144.799V102.036C199.988 84.2045 201.904 68.9046 205.735 56.1364C209.675 43.3681 215.312 32.8012 222.646 24.4358C229.98 16.0704 238.627 9.90642 248.588 5.94385C258.658 1.98128 269.768 0 281.918 0C291.66 0 300.69 1.26582 309.009 3.79746C317.437 6.3291 325.045 10.2366 331.831 15.5201C338.617 20.8035 344.364 27.4628 349.071 35.498C353.887 43.5332 357.554 53.1094 360.071 64.2266C362.698 75.2337 364.012 87.8369 364.012 102.036ZM312.785 151.238V95.2667C312.785 87.0114 312.293 79.8567 311.307 73.8028C310.432 67.6388 309.118 62.4104 307.367 58.1176C305.725 53.8249 303.645 50.3576 301.128 47.7159C298.61 45.0742 295.71 43.1479 292.426 41.9372C289.252 40.6163 285.749 39.9559 281.918 39.9559C277.102 39.9559 272.778 40.9465 268.947 42.9278C265.116 44.9091 261.887 48.0461 259.26 52.3389C256.633 56.5216 254.608 62.1903 253.185 69.3449C251.872 76.3895 251.215 85.0301 251.215 95.2667V151.238C251.215 159.493 251.653 166.703 252.528 172.867C253.513 179.031 254.827 184.314 256.469 188.717C258.22 193.01 260.355 196.532 262.872 199.284C265.39 201.926 268.29 203.852 271.574 205.063C274.858 206.274 278.415 206.879 282.246 206.879C287.062 206.879 291.331 205.943 295.053 204.072C298.775 202.091 301.949 198.954 304.576 194.661C307.312 190.258 309.337 184.479 310.651 177.325C312.074 170.17 312.785 161.475 312.785 151.238Z" fill="#333434"/>
<path d="M563.5 151.898V191.854H391.431L388.64 160.484L486.496 3.30214H527.05L483.048 76.6096L438.553 151.898H563.5ZM537.887 3.30214V243.698H486.66V3.30214H537.887Z" fill="#333434"/>
</svg>
