<svg width="98" height="72" viewBox="0 0 98 72" fill="none" xmlns="http://www.w3.org/2000/svg">
<path d="M28.0257 13.057H40.8729V49.6352H28.0257V13.057Z" fill="#737373"/>
<path d="M56.587 13.057H69.4342V49.6352H56.587V13.057Z" fill="#737373"/>
<path fill-rule="evenodd" clip-rule="evenodd" d="M95.4106 54.7332L94.7782 53.5978C94.9578 53.6017 95.132 53.5341 95.2643 53.409C95.3256 53.3458 95.3734 53.27 95.4045 53.1866C95.4356 53.1032 95.4493 53.0139 95.4448 52.9247C95.4448 52.49 95.1585 52.2726 94.586 52.2726H93.5359V54.7332H93.897V53.5978H94.3605L94.9988 54.7332H95.4106ZM93.898 52.6293H94.5187V52.6273C94.6468 52.6215 94.7751 52.6375 94.8983 52.6745C94.9561 52.6945 95.0058 52.7339 95.0394 52.7863C95.073 52.8387 95.0886 52.9013 95.0837 52.9639C95.0837 53.1045 94.9933 53.1916 94.8124 53.2251C94.6359 53.2409 94.4586 53.2466 94.2815 53.2422H93.898V52.6293Z" fill="#737373"/>
<path fill-rule="evenodd" clip-rule="evenodd" d="M93.5428 55.5215C93.8143 55.6294 94.1038 55.6811 94.3947 55.6736C94.6853 55.6809 94.9745 55.6291 95.2456 55.5212C95.5167 55.4133 95.7645 55.2513 95.9747 55.0446C96.1786 54.8432 96.3409 54.6014 96.4517 54.3338C96.5625 54.0662 96.6197 53.7783 96.6197 53.4873C96.6197 53.1964 96.5625 52.9085 96.4517 52.6408C96.3409 52.3732 96.1786 52.1314 95.9747 51.93C95.5437 51.5219 94.9794 51.2953 94.3937 51.2953C93.8081 51.2953 93.2438 51.5219 92.8128 51.93C92.6091 52.1316 92.447 52.3734 92.3363 52.641C92.2257 52.9086 92.1686 53.1965 92.1686 53.4873C92.1686 53.7782 92.2257 54.066 92.3363 54.3336C92.447 54.6012 92.6091 54.8431 92.8128 55.0446C93.0232 55.2515 93.2713 55.4136 93.5428 55.5215ZM93.6814 51.7854C93.9084 51.6936 94.1509 51.6492 94.3947 51.6547C94.6382 51.6494 94.8803 51.6938 95.107 51.7856C95.3337 51.8773 95.5404 52.0146 95.7151 52.1893C95.8895 52.3536 96.028 52.5542 96.1214 52.7778C96.2148 53.0015 96.2609 53.243 96.2568 53.4863C96.261 53.731 96.2149 53.9739 96.1216 54.199C96.0282 54.4241 95.8897 54.6263 95.7151 54.7924C95.3548 55.1336 94.8832 55.323 94.3937 55.323C93.9042 55.323 93.4326 55.1336 93.0724 54.7924C92.8977 54.6264 92.7591 54.4242 92.6658 54.199C92.5725 53.9739 92.5264 53.731 92.5307 53.4863C92.5265 53.2429 92.5726 53.0014 92.6659 52.7778C92.7593 52.5541 92.8979 52.3535 93.0724 52.1893C93.2474 52.0144 93.4544 51.8771 93.6814 51.7854Z" fill="#737373"/>
<path d="M89.7942 71.5117V56.1518L91.4074 55.5982V71.0867L89.7942 71.5117Z" fill="#737373"/>
<path d="M56.3665 65.7006L50.635 56.3819L52.0657 55.7419L57.2175 63.6791L61.653 55.7912L63.312 56.5296L54.9329 71.7007L53.3207 71.0979L56.3665 65.7006Z" fill="#737373"/>
<path fill-rule="evenodd" clip-rule="evenodd" d="M80.3367 66.1748C80.3367 66.1748 81.4297 66.1879 81.8406 66.1607C82.2524 66.1336 82.3803 66.1205 82.3803 66.1205C83.6954 66.1213 84.9569 65.5843 85.8874 64.6275C86.8179 63.6707 87.341 62.3725 87.3418 61.0186C87.3426 59.6647 86.8209 58.366 85.8915 57.408C84.9622 56.4501 83.7012 55.9115 82.3861 55.9107H78.5801V71.4043L80.3367 71.2516V66.1748ZM82.2485 64.5663C82.2485 64.5663 81.7362 64.5853 81.3253 64.5853C80.9908 64.5645 80.6594 64.5069 80.3367 64.4135V57.5414C80.7252 57.4159 81.129 57.3482 81.5361 57.3404C82.1382 57.3464 82.2554 57.3404 82.2554 57.3404C83.1574 57.3851 84.0081 57.7858 84.6309 58.4591C85.2536 59.1325 85.6005 60.0269 85.5997 60.9567C85.5988 61.8864 85.2502 62.7802 84.6262 63.4523C84.0022 64.1244 83.1507 64.5234 82.2485 64.5663Z" fill="#737373"/>
<path fill-rule="evenodd" clip-rule="evenodd" d="M0 71.3821L1.36627 71.9779L1.36684 71.9769L1.36919 71.9779L4.83367 65.7337H11.222L14.379 71.9357L14.3815 71.9348L14.3819 71.9357L15.8848 71.3821L7.98487 56.1106L7.9834 56.1134L7.98195 56.1106L0 71.3821ZM5.37041 64.101H10.3963L7.90095 59.7436L5.37041 64.101Z" fill="#737373"/>
<path fill-rule="evenodd" clip-rule="evenodd" d="M62.4269 71.9779L61.0606 71.3821L69.0426 56.1106L69.044 56.1134L69.0455 56.1106L76.9454 71.3821L75.4425 71.9357L75.4421 71.9348L75.4396 71.9357L72.2826 65.7337H65.8923L62.4298 71.9779L62.4275 71.9769L62.4269 71.9779ZM66.431 64.101L68.9669 59.7462L71.4609 64.101H66.431Z" fill="#737373"/>
<path d="M17.4581 72L18.9219 71.4293V60.3876L29.6335 71.8985V56.1166L28.1862 56.4994V67.5692L17.46 56.1518L17.4581 72Z" fill="#737373"/>
<path d="M36.0286 57.678V71.6494L37.8662 71.332V57.8167H41.9436V56.1559H32.4451L31.5482 57.678H36.0286Z" fill="#737373"/>
<path d="M55.4369 0H42.6258V50.149H0V51.0715H98V50.149H55.4369V0Z" fill="#737373"/>
<path d="M80.7437 38.3141C80.9901 38.2598 81.2422 38.2268 81.4975 38.2161C82.0752 38.1918 82.6515 38.289 83.1901 38.5016C83.7286 38.7141 84.2175 39.0374 84.6259 39.4509C85.0343 39.8645 85.3532 40.3592 85.5624 40.9038C85.7715 41.4484 85.8664 42.0309 85.8411 42.6145C85.8351 43.7845 85.3848 44.9076 84.5831 45.752C83.7815 46.5964 82.6896 47.0977 81.5328 47.1526C80.7884 47.1749 80.0522 46.9901 79.4047 46.6185C79.3453 47.2622 79.0905 47.8717 78.675 48.3634C79.5823 48.8656 80.6057 49.1142 81.6397 49.0837C83.2972 49.0023 84.8606 48.2813 86.0074 47.0695C87.1543 45.8577 87.7972 44.2475 87.8035 42.5709C87.841 41.7348 87.7061 40.8999 87.4076 40.1192C87.109 39.3385 86.6532 38.6289 86.0691 38.0355C85.4849 37.442 84.7851 36.9776 84.0141 36.6717C83.243 36.3657 82.4174 36.2249 81.5897 36.2582C81.4628 36.2637 81.3365 36.2731 81.2109 36.2863C80.0411 36.406 78.924 36.8573 77.9914 37.5939C77.8073 37.1936 77.5397 36.8384 77.2069 36.5525C76.3458 35.8676 75.268 35.5215 74.1735 35.5785C73.0932 35.5361 72.0358 35.9009 71.2068 36.6021C70.8382 36.9059 70.5456 37.2931 70.3526 37.7324C70.1595 38.1717 70.0715 38.6507 70.0957 39.1307L70.1133 39.1852H72.2013C72.192 38.9345 72.2372 38.6847 72.3336 38.4535C72.43 38.2222 72.5753 38.0151 72.7593 37.8466C73.1576 37.4973 73.673 37.3152 74.2 37.3373C74.4672 37.3176 74.7356 37.3534 74.9886 37.4425C75.2416 37.5316 75.4739 37.6722 75.671 37.8555C75.8459 38.0542 75.98 38.2859 76.0657 38.5373C76.1514 38.7886 76.1869 39.0546 76.1702 39.3199C76.1869 39.584 76.1557 39.8465 76.0802 40.0953C76.0339 40.2038 75.9906 40.3137 75.9503 40.4247C75.8832 40.5613 75.8017 40.6913 75.7064 40.8122C75.5053 41.0043 75.266 41.1508 75.0043 41.2417C74.7426 41.3326 74.4647 41.3659 74.1892 41.3393H72.6809V43.0614H74.1892C74.6971 43.0331 75.2017 43.1605 75.6367 43.427C75.7065 43.4748 75.7721 43.5285 75.8329 43.5876C76.0252 43.8099 76.1713 44.069 76.2624 44.3495C76.3536 44.6301 76.388 44.9263 76.3634 45.2205C76.3648 45.439 76.3405 45.6568 76.2909 45.8695C76.2151 46.2163 76.0385 46.5323 75.7838 46.7771C75.3453 47.1622 74.7752 47.3592 74.1951 47.326C73.6311 47.3543 73.0782 47.1615 72.6514 46.788C72.4598 46.6094 72.3088 46.391 72.2087 46.1477C72.1087 45.9045 72.062 45.6422 72.0718 45.379H69.9839L69.9662 45.4335C69.9262 45.9442 70.0128 46.4569 70.2183 46.9253C70.4238 47.3936 70.7417 47.8028 71.1431 48.1158C72.0487 48.7569 73.1303 49.0955 74.236 49.0842C75.3418 49.0728 76.4163 48.712 77.3089 48.0523C77.684 47.7326 77.9868 47.3351 78.1968 46.8869C78.4067 46.4387 78.519 45.9502 78.5259 45.4543C78.5259 45.4155 78.5283 45.377 78.5308 45.3381C78.5332 45.2985 78.5357 45.2585 78.5357 45.2175C78.5462 44.563 78.3646 43.92 78.014 43.3696C77.9306 43.2408 77.8361 43.1198 77.7315 43.0079C77.7315 42.9953 77.7313 42.9827 77.7308 42.9701C77.73 42.9466 77.7286 42.923 77.7271 42.8994C77.7249 42.8633 77.7227 42.8271 77.7227 42.7909C77.7227 40.4992 78.9493 38.7495 80.7437 38.3141Z" fill="#737373"/>
<path d="M89.4384 48.0464V49.0828H88.4125V48.0464H89.4384Z" fill="#737373"/>
<path d="M89.0902 42.236L90.4357 46.8137L90.4367 49.0828H91.5018V46.8137L92.8473 42.236H91.8303L91.0173 45.3562L90.2043 42.236H89.0902Z" fill="#737373"/>
<path d="M93.272 42.236H94.337V49.0828H93.272V42.236Z" fill="#737373"/>
<path d="M96.1818 42.236H95.1118L95.1157 49.0828H97.9333V48.1048H96.1818V42.236Z" fill="#737373"/>
</svg>
