<svg width="220" height="36" viewBox="0 0 220 36" fill="none" xmlns="http://www.w3.org/2000/svg">
<path d="M93.2446 0.00539034H105.852C107.678 0.00539034 108.84 0.328789 109.434 1.09956C110.16 2.06436 110.344 3.5466 109.718 6.06372C108.935 9.28693 107.457 10.6075 105 11.1842L104.969 11.2489C107.388 11.7663 108.272 12.7958 107.388 16.3693C106.668 19.3338 105.784 20.428 104.622 21.3605C103.585 22.1635 102.171 22.5516 100.44 22.5516H87.7693L93.2446 0.00539034ZM102.486 13.3455C102.297 13.1515 102.044 13.0546 101.229 13.0546H95.2591L93.9284 18.4984H99.851C100.635 18.4984 100.95 18.4661 101.234 18.2396C101.55 17.981 101.865 17.7223 102.302 15.8573C102.77 13.9223 102.675 13.6313 102.486 13.3455ZM101.986 9.34621C102.802 9.34621 103.054 9.31388 103.307 9.11984C103.654 8.82878 103.996 8.18737 104.374 6.64045C104.722 5.15821 104.658 4.54375 104.469 4.29042C104.311 4.12872 104.059 4.03171 103.212 4.03171H97.421L96.169 9.34621H101.986Z" fill="#737373"/>
<path d="M124.009 4.19339L119.543 22.5571H114.42L118.886 4.19339H112.19L113.195 0.00539034H131.378L130.373 4.19339H124.009Z" fill="#737373"/>
<path d="M146.21 0.00539034C148.377 0.00539034 149.324 0.328789 149.918 1.09956C150.86 2.29074 151.27 4.3551 149.603 11.2812C147.904 18.175 146.489 20.2393 144.947 21.4629C143.975 22.2337 142.907 22.5571 140.735 22.5571H133.919C131.751 22.5571 130.804 22.2337 130.21 21.4629C129.236 20.2393 128.827 18.175 130.526 11.2812C132.193 4.3551 133.608 2.29074 135.181 1.09956C136.153 0.328789 137.226 0.00539034 139.394 0.00539034H146.21ZM134.797 18.0779C134.986 18.2721 135.238 18.369 136.242 18.369H140.424C141.428 18.4013 141.744 18.2721 141.997 18.0779C142.345 17.7869 142.97 16.9839 144.353 11.2812C145.736 5.54629 145.516 4.74318 145.295 4.48445C145.137 4.25808 144.885 4.16107 143.88 4.16107H139.699C138.694 4.16107 138.378 4.25808 138.094 4.48445C137.747 4.74318 137.152 5.54629 135.769 11.2812C134.36 17.0162 134.575 17.7869 134.797 18.0779Z" fill="#737373"/>
<path d="M193.57 0.00539034C195.736 0.00539034 196.683 0.328789 197.278 1.09956C198.219 2.29074 198.631 4.3551 196.962 11.2812C195.263 18.175 193.849 20.2393 192.313 21.4629C191.339 22.2337 190.267 22.5571 188.099 22.5571H181.278C179.111 22.5571 178.164 22.2337 177.569 21.4629C176.597 20.2393 176.186 18.175 177.885 11.2812C179.552 4.3551 180.967 2.29074 182.535 1.09956C183.508 0.328789 184.58 0.00539034 186.748 0.00539034H193.57ZM182.156 18.0779C182.346 18.2721 182.598 18.369 183.603 18.369H187.784C188.789 18.4013 189.105 18.2721 189.357 18.0779C189.704 17.7869 190.33 16.9839 191.714 11.2812C193.097 5.54629 192.876 4.74318 192.655 4.48445C192.498 4.25808 192.244 4.16107 191.24 4.16107H187.058C186.054 4.16107 185.739 4.25808 185.455 4.48445C185.107 4.74318 184.513 5.54629 183.13 11.2812C181.719 17.0162 181.936 17.7869 182.156 18.0779Z" fill="#737373"/>
<path d="M215.97 13.9546C215.06 14.6338 213.804 14.8871 212.01 14.8871H205.293L203.437 22.5516H198.314L203.784 0H215.624C217.417 0 218.548 0.226379 219.142 0.900126C219.926 1.83259 220.463 3.2825 219.427 7.4705C218.453 11.5723 217.164 13.0546 215.97 13.9546ZM211.006 10.7638C212.168 10.7638 212.515 10.6991 212.799 10.5051C213.21 10.1817 213.647 9.60493 214.182 7.41122C214.719 5.22288 214.53 4.67311 214.278 4.38205C214.12 4.188 213.773 4.09099 212.609 4.09099H207.908L206.303 10.7584H211.006V10.7638Z" fill="#737373"/>
<path d="M77.7124 0.00578965C71.7846 0.00578965 70.1751 1.05144 68.5235 7.65417C66.9244 14.0358 64.7943 22.5575 64.7943 22.5575H70.0067C70.0067 22.5575 71.0009 18.5634 72.0213 14.4509H79.9372L77.9701 22.5575H83.1721L88.6474 0.00578965H77.7124ZM73.0048 10.4893C73.5991 8.10691 74.0778 6.18809 74.1988 5.71916C74.6143 4.09678 75.8136 4.02671 76.8655 4.02671H82.5882L80.8945 10.4893H73.0048Z" fill="#737373"/>
<path d="M152.739 25.5L153.543 22.5571H168.134L167.487 25.5H171.984L173.741 18.4013H171.4L175.86 0.00539034H161.69C159.303 0.00539034 158.945 1.0241 158.413 2.60875C157.678 4.81325 157.178 6.58116 156.709 8.14965C155.552 12.0358 154.642 15.6201 151.097 18.4013H149.819L148.11 25.5H152.739ZM161.007 9.64805C161.754 7.08242 162.117 5.98826 162.448 4.88332C162.6 4.37666 162.926 4.02093 163.569 4.02093H169.69L166.25 18.396H156.968C158.771 16.6281 159.881 13.5126 161.007 9.64805Z" fill="#737373"/>
<path d="M68.8352 30.4205C69.2604 30.4205 69.4125 30.4692 69.5281 30.6099C69.7222 30.8427 69.801 31.1836 69.4178 32.7586C69.0347 34.3336 68.7985 34.6747 68.4835 34.9073C68.2999 35.048 68.1319 35.0968 67.7068 35.0968H66.4103C65.9851 35.0968 65.8278 35.048 65.7122 34.9073C65.518 34.6747 65.4446 34.3336 65.8278 32.7586C66.2109 31.1836 66.4418 30.8427 66.7515 30.6099C66.9352 30.4692 67.1084 30.4205 67.5336 30.4205H68.8352ZM66.3369 34.377C66.3736 34.4256 66.4208 34.4526 66.6413 34.4526H67.7802C68.0007 34.4581 68.0585 34.4256 68.1215 34.377C68.2106 34.3119 68.3471 34.1009 68.6777 32.7532C69.0032 31.4055 68.9612 31.1999 68.9035 31.1295C68.8667 31.0808 68.8194 31.0537 68.5991 31.0537H67.4601C67.2396 31.0537 67.1819 31.0808 67.1189 31.1295C67.0349 31.1944 66.8931 31.4055 66.5678 32.7532C66.2424 34.1009 66.2843 34.3119 66.3369 34.377Z" fill="#737373"/>
<path d="M73.2232 34.9019C73.0394 35.0427 72.8715 35.0914 72.4463 35.0914H71.192C70.7668 35.0914 70.6093 35.0427 70.4939 34.9019C70.2997 34.6691 70.2262 34.3282 70.6093 32.7532C70.9925 31.1783 71.2235 30.8372 71.5331 30.6045C71.7167 30.4638 71.89 30.4151 72.3151 30.4151H73.5696C73.9947 30.4151 74.1469 30.4638 74.2624 30.6045C74.4566 30.8372 74.5038 31.1458 74.3202 31.9522H73.5958C73.7165 31.3622 73.7008 31.1999 73.643 31.1295C73.6063 31.0808 73.5591 31.0537 73.3386 31.0537H72.2364C72.0159 31.0537 71.9583 31.0808 71.8953 31.1295C71.8112 31.1944 71.6696 31.4055 71.3441 32.7532C71.0134 34.1009 71.0607 34.3065 71.1132 34.377C71.1499 34.4256 71.1972 34.4526 71.4177 34.4526H72.5199C72.7403 34.4581 72.798 34.4256 72.861 34.377C72.9502 34.3119 73.0447 34.1766 73.2284 33.4838H73.958C73.7008 34.4094 73.5328 34.6691 73.2232 34.9019Z" fill="#737373"/>
<path d="M86.8226 33.7762H85.101L84.3873 35.0914H83.6681L86.1928 30.5829C86.2768 30.4314 86.324 30.4043 86.4972 30.4043H87.1271C87.2898 30.4043 87.3265 30.4314 87.3423 30.5829L87.6939 35.0914H86.9119L86.8226 33.7762ZM85.4423 33.1483H86.7807L86.6653 31.0537H86.5654L85.4423 33.1483Z" fill="#737373"/>
<path d="M92.066 33.197C91.8928 33.3324 91.6567 33.3702 91.326 33.3702H89.7934L89.3788 35.0914H88.6544L89.7829 30.4205H92.0399C92.3704 30.4205 92.5909 30.4584 92.7011 30.5938C92.8481 30.7723 92.9531 31.0754 92.7484 31.9142C92.5542 32.7153 92.3022 33.013 92.066 33.197ZM91.3051 32.7262C91.5307 32.7262 91.6147 32.7045 91.6671 32.6667C91.7512 32.6071 91.8824 32.4555 92.0188 31.8927C92.1553 31.3244 92.1029 31.1783 92.0451 31.1187C92.0084 31.0808 91.9348 31.0591 91.7092 31.0591H90.355L89.9561 32.7262H91.3051Z" fill="#737373"/>
<path d="M96.1389 34.9019C95.9553 35.0427 95.7873 35.0914 95.3622 35.0914H94.1078C93.6826 35.0914 93.5251 35.0427 93.4097 34.9019C93.2155 34.6691 93.1419 34.3282 93.5251 32.7532C93.9082 31.1783 94.1393 30.8372 94.4489 30.6045C94.6326 30.4638 94.8059 30.4151 95.2309 30.4151H96.4854C96.9106 30.4151 97.0627 30.4638 97.1782 30.6045C97.3725 30.8372 97.4197 31.1458 97.2359 31.9522H96.5117C96.6323 31.3622 96.6166 31.1999 96.5589 31.1295C96.5221 31.0808 96.4748 31.0537 96.2545 31.0537H95.1522C94.9318 31.0537 94.8741 31.0808 94.8111 31.1295C94.7271 31.1944 94.5854 31.4055 94.2599 32.7532C93.9293 34.1009 93.9766 34.3065 94.029 34.377C94.0657 34.4256 94.113 34.4526 94.3334 34.4526H95.4356C95.6561 34.4581 95.7139 34.4256 95.7769 34.377C95.866 34.3119 95.9605 34.1766 96.1443 33.4838H96.8737C96.6166 34.4094 96.4487 34.6691 96.1389 34.9019Z" fill="#737373"/>
<path d="M100.286 31.0591L99.3145 35.0914H98.5902L99.5612 31.0591H98.1389L98.2964 30.4205H101.871L101.713 31.0591H100.286Z" fill="#737373"/>
<path d="M63.5446 31.0598L62.5736 35.0919H61.8493L62.8204 31.0598L62.9673 30.4211H65.8961L65.7386 31.0598H63.5446Z" fill="#737373"/>
<path d="M102.741 30.4205H105.103C105.434 30.4205 105.654 30.4746 105.77 30.6153C105.917 30.794 105.943 31.0267 105.78 31.7086C105.623 32.3582 105.345 32.5475 104.883 32.6613V32.672C105.381 32.7586 105.513 33.0076 105.345 33.722C105.156 34.4906 104.993 34.7017 104.762 34.8857C104.589 35.0264 104.311 35.0914 103.991 35.0914H101.618L102.741 30.4205ZM104.662 33.0347C104.636 32.9968 104.584 32.9805 104.374 32.9805H102.846L102.49 34.4472H104.017C104.216 34.4472 104.295 34.4419 104.348 34.3931C104.41 34.339 104.489 34.2307 104.615 33.7274C104.741 33.2024 104.71 33.0942 104.662 33.0347ZM104.489 32.3527C104.689 32.3527 104.757 32.3419 104.815 32.2985C104.893 32.239 104.956 32.1308 105.061 31.6979C105.166 31.2702 105.156 31.1729 105.109 31.1078C105.082 31.07 105.014 31.0537 104.804 31.0537H103.314L103.004 32.3473H104.489V32.3527Z" fill="#737373"/>
<path d="M109.334 35.0914H106.242L107.371 30.4205H110.462L110.305 31.0591H107.938L107.628 32.3473H109.591L109.434 32.9859H107.47L107.114 34.4472H109.481L109.334 35.0914Z" fill="#737373"/>
<path d="M114.115 35.0914H113.391L113.895 32.9913H111.732L111.229 35.0914H110.504L111.633 30.4205H112.357L111.89 32.3473H114.052L114.52 30.4205H115.244L114.115 35.0914Z" fill="#737373"/>
<path d="M119.107 35.0914H118.383L118.887 32.9913H116.724L116.22 35.0914H115.496L116.625 30.4205H117.349L116.882 32.3473H119.044L119.511 30.4205H120.236L119.107 35.0914Z" fill="#737373"/>
<path d="M123.107 33.7762H121.385L120.671 35.0914H119.952L122.477 30.5829C122.561 30.4314 122.608 30.4043 122.781 30.4043H123.411C123.574 30.4043 123.61 30.4314 123.626 30.5829L123.978 35.0914H123.196L123.107 33.7762ZM121.726 33.1483H123.065L122.949 31.0537H122.855L121.726 33.1483Z" fill="#737373"/>
<path d="M136.711 30.4205L134.433 32.6233L135.624 35.0914H134.763L133.781 32.9913H133.373L132.868 35.0914H132.144L133.273 30.4205H133.997L133.53 32.3473H133.919L135.871 30.4205H136.711Z" fill="#737373"/>
<path d="M139.797 30.4205C140.223 30.4205 140.375 30.4692 140.491 30.6099C140.685 30.8427 140.764 31.1836 140.38 32.7586C139.997 34.3336 139.76 34.6747 139.446 34.9073C139.263 35.048 139.094 35.0968 138.67 35.0968H137.373C136.948 35.0968 136.79 35.048 136.674 34.9073C136.48 34.6747 136.407 34.3336 136.79 32.7586C137.174 31.1836 137.405 30.8427 137.715 30.6099C137.897 30.4692 138.071 30.4205 138.496 30.4205H139.797ZM137.299 34.377C137.336 34.4256 137.383 34.4526 137.604 34.4526H138.743C138.963 34.4581 139.021 34.4256 139.084 34.377C139.172 34.3119 139.31 34.1009 139.64 32.7532C139.966 31.4055 139.923 31.1999 139.866 31.1295C139.829 31.0808 139.782 31.0537 139.561 31.0537H138.422C138.202 31.0537 138.144 31.0808 138.082 31.1295C137.998 31.1944 137.856 31.4055 137.53 32.7532C137.199 34.1009 137.247 34.3119 137.299 34.377Z" fill="#737373"/>
<path d="M145.775 35.0914H145.036L145.991 31.1187H145.896L143.929 34.8803C143.838 35.0534 143.808 35.0859 143.629 35.0859H143.161C142.989 35.0859 142.962 35.0534 142.957 34.8803L142.826 31.0483H142.726L141.766 35.0914H141.062L142.191 30.4205H143.319C143.503 30.4205 143.545 30.48 143.545 30.6533L143.629 34.1171H143.723L145.472 30.6533C145.56 30.48 145.629 30.4205 145.807 30.4205H146.909L145.775 35.0914Z" fill="#737373"/>
<path d="M150.746 35.0914H150.022L150.992 31.0591H148.831L147.859 35.0914H147.135L148.263 30.4205H151.875L150.746 35.0914Z" fill="#737373"/>
<path d="M154.688 33.7762H152.966L152.252 35.0914H151.533L154.058 30.5829C154.142 30.4314 154.189 30.4043 154.363 30.4043H154.992C155.155 30.4043 155.192 30.4314 155.207 30.5829L155.559 35.0914H154.777L154.688 33.7762ZM153.307 33.1483H154.646L154.53 31.0537H154.436L153.307 33.1483Z" fill="#737373"/>
<path d="M159.9 35.0914H159.176L159.68 32.9913H157.517L157.013 35.0914H156.289L157.417 30.4205H158.142L157.675 32.3473H159.837L160.303 30.4205H161.029L159.9 35.0914Z" fill="#737373"/>
<path d="M162.419 30.4205H163.123L162.283 33.9439H162.382L164.838 30.6424C164.959 30.4638 165.038 30.4205 165.222 30.4205H166.025L164.897 35.0914H164.193L165.091 31.4055H164.996L162.424 34.8695C162.304 35.048 162.22 35.0914 162.036 35.0914H161.297L162.419 30.4205Z" fill="#737373"/>
<path d="M167.226 33.8032C167.085 34.339 166.938 34.9019 166.834 35.0914H166.108C166.197 34.8369 166.308 34.4365 166.502 33.7815C166.676 33.1863 166.864 32.9644 167.405 32.8886L167.41 32.8777C166.933 32.7532 166.775 32.4177 166.943 31.752C167.122 31.0537 167.337 30.794 167.594 30.6153C167.789 30.4855 168.082 30.4205 168.382 30.4205H170.638L169.509 35.0914H168.786L169.248 33.1646H167.993C167.489 33.1646 167.321 33.4297 167.226 33.8032ZM169.405 32.5475L169.762 31.0591H168.444C168.003 31.0591 167.809 31.2378 167.663 31.7952C167.536 32.2715 167.636 32.5475 168.04 32.5475H169.405Z" fill="#737373"/>
<path d="M125.673 33.8032C125.531 34.339 125.384 34.9019 125.279 35.0914H124.555C124.644 34.8369 124.755 34.4365 124.949 33.7815C125.122 33.1863 125.311 32.9644 125.852 32.8886L125.857 32.8777C125.379 32.7532 125.222 32.4177 125.39 31.752C125.568 31.0537 125.783 30.794 126.041 30.6153C126.235 30.4855 126.529 30.4205 126.828 30.4205H129.085L127.956 35.0914H127.232L127.693 33.1646H126.439C125.936 33.1646 125.768 33.4297 125.673 33.8032ZM127.851 32.5475L128.208 31.0591H126.891C126.45 31.0591 126.256 31.2378 126.109 31.7952C125.983 32.2715 126.082 32.5475 126.487 32.5475H127.851Z" fill="#737373"/>
<path d="M76.1045 35.0915H75.3015L76.1727 33.6734L75.0705 30.4205H75.8263L76.6451 32.9535L76.6818 32.9265L78.2249 30.4205H79.0595L76.1045 35.0915Z" fill="#737373"/>
<path fill-rule="evenodd" clip-rule="evenodd" d="M83.39 30.4205H80.3877C80.3877 30.4205 79.9364 31.9414 79.6686 32.8128C79.4113 33.6456 78.9937 34.2131 78.6166 34.4527H78.3462L78.0576 35.6543H78.7818L78.917 35.0915H82.0568L81.9204 35.6543H82.6447L82.9333 34.4527H82.4138L83.39 30.4205ZM79.5322 34.4473C79.8261 34.0847 80.1674 33.5273 80.414 32.7424C80.6082 32.1201 80.7919 31.5031 80.9231 31.0592H82.5135L81.6946 34.4473H79.5322Z" fill="#737373"/>
<path d="M55.2337 17.7004C48.4142 20.1633 43.0268 26.9584 41.7491 35.4452C41.7065 35.7337 41.9248 36 42.2069 36H47.6636C49.5375 36 51.1718 34.6686 51.6243 32.7772L55.2337 17.7004Z" fill="#737373"/>
<path d="M21.4774 35.3233C21.3444 35.6394 21.5733 36 21.9033 36H33.1999C33.5353 36 33.8281 35.7669 33.9239 35.4286C36.788 25.4274 44.1131 17.4175 55.3404 15.0268C55.6759 14.9547 55.9474 14.694 56.0273 14.3501L56.6714 11.6709C42.2712 12.3864 27.8976 19.8305 21.4774 35.3233Z" fill="#737373"/>
<path d="M58.907 2.31309L59.4713 0H11.3678C9.25967 0 7.41772 1.49769 6.91198 3.63327L4.85709 12.2644C4.71336 12.8579 5.28831 13.3571 5.82598 13.1131C20.1144 6.54544 38.3635 3.10077 58.0394 3.01755C58.4492 3.01755 58.8059 2.72911 58.907 2.31309Z" fill="#737373"/>
<path d="M1.87071 24.7008L0.0873267 32.2058C-0.370492 34.1305 1.0296 35.9943 2.93543 35.9943H11.4318C11.8204 35.9943 12.1718 35.7614 12.3421 35.3953C19.5182 20.1133 34.355 10.0345 56.6766 8.96945C57.0706 8.95282 57.4113 8.66438 57.5019 8.27053L58.0927 5.76329C34.4189 6.03509 16.931 11.9593 2.89817 23.0644C2.38711 23.4693 2.0251 24.0517 1.87071 24.7008Z" fill="#737373"/>
</svg>
