<svg width="219" height="39" viewBox="0 0 219 39" fill="none" xmlns="http://www.w3.org/2000/svg">
<path fill-rule="evenodd" clip-rule="evenodd" d="M152.309 19.9951C152.235 21.5497 151.961 23.0398 151.338 24.4598C150.178 27.0979 148.171 28.8328 145.362 29.6401C142.621 30.4288 139.862 30.4131 137.166 29.4583C133.6 28.1944 131.647 25.5935 130.994 22.0149C130.674 20.2975 130.754 18.5315 131.23 16.8488C132.317 13.0169 134.933 10.7967 138.866 10.0123C140.809 9.61797 142.818 9.6581 144.743 10.1297C148.618 11.073 151.008 13.4649 151.916 17.2453C152.064 17.8623 152.134 18.4961 152.205 19.1292C152.237 19.4185 152.269 19.7078 152.309 19.9951ZM141.579 25.3472C141.774 25.3387 141.969 25.3301 142.165 25.3186C143.198 25.2729 144.188 24.9069 144.992 24.2739C145.797 23.6408 146.374 22.7737 146.639 21.7987C146.929 20.8101 146.979 19.7692 146.785 18.7584C146.426 16.9175 145.435 15.5505 143.588 14.9021C142.289 14.4452 140.869 14.4341 139.563 14.8706C138.108 15.3372 137.079 16.282 136.567 17.6934C136.343 18.297 136.208 18.929 136.167 19.57C136.082 21.2161 136.449 22.7463 137.702 23.9559C138.777 24.9908 140.102 25.3716 141.579 25.3472Z" fill="#737373"/>
<path fill-rule="evenodd" clip-rule="evenodd" d="M91.5095 29.6716V10.3286C91.5773 10.3228 91.6425 10.3159 91.7057 10.3093C91.8433 10.2949 91.9714 10.2814 92.096 10.2814H92.0999C95.4914 10.2814 98.8843 10.2814 102.276 10.2943C103.352 10.297 104.418 10.4911 105.422 10.8669C107.193 11.5282 108.229 12.961 108.258 14.8162C108.262 15.3151 108.22 15.8134 108.132 16.3049C108.043 16.8361 107.837 17.3422 107.529 17.7883C107.22 18.2343 106.816 18.6097 106.345 18.8886C106.207 18.9741 106.067 19.0533 105.915 19.1389C105.795 19.2068 105.668 19.2787 105.529 19.361L106.174 19.6473C107.89 20.4131 108.814 21.7114 108.884 23.5551C108.946 24.3915 108.849 25.2319 108.6 26.0343C108.412 26.6151 108.109 27.1536 107.706 27.6183C107.303 28.0831 106.809 28.4648 106.254 28.7412C105.336 29.1915 104.343 29.4748 103.321 29.5771C102.619 29.667 101.912 29.7148 101.204 29.7203C98.8031 29.7329 96.4013 29.7308 93.9993 29.7287L92.1972 29.7274C92.0829 29.7214 91.9691 29.7109 91.8489 29.6998C91.7423 29.69 91.6308 29.6797 91.5095 29.6716ZM98.1235 25.7286C99.339 25.7312 100.523 25.7338 101.705 25.7194C102.198 25.7131 102.673 25.5372 103.046 25.2227C103.765 24.6215 103.851 23.8399 103.657 23.0111C103.463 22.1823 102.821 21.7644 102 21.6026C101.758 21.564 101.512 21.5487 101.267 21.5568H97.2512C97.0505 21.5704 96.8508 21.5948 96.653 21.6298L96.6588 25.7266C97.1529 25.7266 97.6413 25.7276 98.1235 25.7286ZM96.7087 17.8837C97.2288 17.8837 97.7449 17.8945 98.2582 17.9053C99.4378 17.9299 100.602 17.9543 101.763 17.8465C102.705 17.7592 103.29 16.9719 103.274 16.0358C103.28 15.6146 103.129 15.2057 102.849 14.8856C102.568 14.5655 102.178 14.3561 101.751 14.2966C101.508 14.2602 101.263 14.2435 101.018 14.2465C99.7774 14.2407 98.5365 14.2407 97.2951 14.2465C97.1722 14.2465 97.0499 14.2633 96.9189 14.2814C96.8515 14.2906 96.7819 14.3002 96.7087 14.308V17.8837Z" fill="#737373"/>
<path fill-rule="evenodd" clip-rule="evenodd" d="M172.592 10.8139C172.649 10.6634 172.698 10.51 172.739 10.3544C171.793 10.2127 156.493 10.2542 155.987 10.393C155.844 11.4551 155.899 29.152 156.056 29.6716C156.17 29.6935 156.285 29.7079 156.401 29.7145C157.174 29.7145 157.948 29.7157 158.721 29.7169C161.097 29.7206 163.472 29.7244 165.847 29.693C166.972 29.6905 168.088 29.5117 169.154 29.1634C170.937 28.5608 172.233 27.4657 172.837 25.6721C173.173 24.6225 173.284 23.5161 173.161 22.4228C172.928 20.0251 171.715 18.3189 169.336 17.5015C168.343 17.1638 167.299 16.9953 166.248 17.0034H161.849C161.703 17.0034 161.558 16.9913 161.405 16.9786C161.335 16.9728 161.263 16.9668 161.189 16.9619V14.5284H162.107C162.804 14.5284 163.502 14.5277 164.201 14.5269C166.211 14.5247 168.225 14.5225 170.236 14.5384C170.728 14.5427 170.981 14.3982 171.168 13.9473C171.467 13.2333 171.795 12.5311 172.122 11.8291C172.28 11.4912 172.438 11.1529 172.592 10.8139ZM162.406 25.5749C161.999 25.5742 161.587 25.5734 161.169 25.5734L161.163 20.9098C161.354 20.8789 161.547 20.8584 161.741 20.8482C161.981 20.8482 162.222 20.8479 162.463 20.8475C163.494 20.846 164.525 20.8444 165.553 20.8711C165.965 20.8894 166.373 20.9666 166.762 21.1001C167.054 21.1935 167.317 21.3587 167.525 21.5798C167.733 21.8009 167.878 22.0705 167.949 22.3627C168.105 22.9158 168.109 23.4997 167.959 24.0546C167.884 24.3577 167.73 24.6368 167.512 24.8647C167.294 25.0927 167.02 25.2619 166.715 25.3558C166.422 25.4735 166.11 25.5436 165.793 25.5634C164.677 25.5792 163.56 25.5771 162.406 25.5749Z" fill="#737373"/>
<path d="M199.516 10.3071H204.678C204.692 10.8972 204.691 11.4754 204.689 12.0507C204.688 12.3254 204.688 12.5994 204.689 12.8737C204.691 13.4396 204.69 14.0144 204.689 14.5892C204.689 14.8766 204.689 15.164 204.689 15.4503V17.9854C205.302 18.1399 211.726 18.1757 212.731 18.0354C212.757 17.4756 212.753 16.906 212.749 16.3341V16.3265C212.747 16.0557 212.745 15.7843 212.747 15.5133C212.75 14.9493 212.749 14.3738 212.748 13.7984C212.747 13.5107 212.747 13.223 212.747 12.9367V10.31C213.975 10.268 215.171 10.2742 216.353 10.2803C216.864 10.2829 217.372 10.2855 217.879 10.2842C218.025 10.8568 218.046 28.953 217.903 29.6759H212.76V22.8308C212.174 22.6633 205.961 22.6103 204.73 22.752C204.67 23.2456 204.678 23.751 204.687 24.2589C204.691 24.5007 204.695 24.7431 204.692 24.9851C204.684 25.5093 204.686 26.0348 204.689 26.559C204.69 26.8206 204.692 27.082 204.692 27.3426V29.7088C203.684 29.7186 202.7 29.7172 201.729 29.7158C201.003 29.7147 200.285 29.7137 199.57 29.7174C199.41 29.1233 199.372 11.2705 199.516 10.3071Z" fill="#737373"/>
<path fill-rule="evenodd" clip-rule="evenodd" d="M75.6393 10.31L66.8128 29.6788C66.9038 29.6844 66.9856 29.6903 67.0612 29.6958C67.2158 29.7071 67.3446 29.7164 67.4726 29.7174H71.5046C72.2371 29.716 72.2377 29.7145 72.5112 29.0691C72.8739 28.2189 73.2377 27.3627 73.6013 26.5038H82.727C82.8349 26.7568 82.9442 27.0072 83.053 27.2563C83.3311 27.8933 83.6061 28.5231 83.8442 29.1649C84.007 29.6057 84.2547 29.7346 84.7078 29.7274C85.7734 29.7102 86.8366 29.7124 87.8986 29.7145C88.2523 29.7153 88.6062 29.716 88.9598 29.716C89.0703 29.716 89.1777 29.7045 89.3154 29.6898C89.3896 29.6818 89.4727 29.673 89.5697 29.6644C88.2188 26.6981 86.8725 23.7447 85.5287 20.7967L85.5197 20.777C83.9276 17.2844 82.3391 13.7995 80.7505 10.31H75.6393ZM81.0159 22.4071H75.327C75.8863 21.0801 76.4395 19.7727 77.0011 18.4453C77.3876 17.5318 77.7781 16.6089 78.1773 15.6636C78.8735 17.315 79.5395 18.8981 80.2115 20.4954L81.0159 22.4071Z" fill="#737373"/>
<path fill-rule="evenodd" clip-rule="evenodd" d="M190.813 26.4981H181.694L180.313 29.6845H175.035C175.105 29.142 182.794 12.0922 183.764 10.3215H188.84L197.629 29.6029C197.042 29.7461 193.484 29.7833 192.166 29.6673C192.105 29.526 192.044 29.3811 191.981 29.2337L191.979 29.229C191.822 28.8598 191.658 28.4752 191.49 28.0928C191.334 27.7382 191.188 27.3912 191.041 27.0413C190.966 26.862 190.89 26.6804 190.813 26.4981ZM187.692 19.0717L187.659 18.9932C187.198 17.9005 186.734 16.799 186.256 15.6651C185.269 18.0026 184.349 20.1812 183.407 22.42H189.104C188.628 21.2919 188.162 20.1852 187.692 19.0717Z" fill="#737373"/>
<path d="M117.407 29.6787H122.762L122.76 19.663C122.76 19.3917 122.76 19.1223 122.76 18.853C122.759 18.3151 122.758 17.778 122.76 17.2295C122.761 16.9889 122.76 16.7482 122.758 16.5066C122.755 15.922 122.752 15.3322 122.779 14.7245C123.772 14.7091 124.745 14.7116 125.707 14.7141C126.881 14.7171 128.038 14.7201 129.189 14.6902C129.321 13.5722 129.28 10.8425 129.134 10.3444C128.162 10.2127 111.456 10.2513 110.953 10.3945V14.7031C111.934 14.7135 112.906 14.7121 113.878 14.7106C115.045 14.7089 116.212 14.7072 117.397 14.726V24.736C117.398 25.2665 117.397 25.7972 117.396 26.3292C117.393 27.4365 117.391 28.5494 117.407 29.6787Z" fill="#737373"/>
<path d="M50.0597 31.4147C50.4297 32.2242 50.7972 33.0348 51.1703 33.8437C51.7758 35.1578 52.383 36.4714 52.9919 37.7846C53.017 37.8397 53.0371 37.8959 53.0685 37.9728C53.0062 37.9843 52.9433 37.9922 52.8801 37.9964C48.3437 37.9964 43.8071 37.9976 39.2703 38C39.2288 38 39.1874 37.994 39.1447 37.9903C38.9129 37.4966 38.6824 37.0024 38.4493 36.5093C38.1981 35.9809 37.9468 35.453 37.6956 34.9254L37.5071 34.4971C37.4234 34.3172 37.3396 34.138 37.2559 33.9593C37.2138 33.8558 37.1711 33.753 37.1302 33.6495L36.7031 32.7995L36.3771 32.0203C36.2745 31.8162 36.1723 31.6123 36.0706 31.4086C35.9198 31.0807 35.7685 30.7534 35.6196 30.4249C35.4073 29.9573 35.1968 29.489 34.9845 29.0214C34.6918 28.3776 34.4016 27.7327 34.1052 27.092C33.9481 26.7545 33.7754 26.4266 33.6096 26.0908C33.516 25.8675 33.4287 25.6419 33.3275 25.4223C32.6755 24.0062 32.0216 22.5903 31.3659 21.1746C30.2993 18.868 29.2315 16.561 28.1624 14.2536C28.1253 14.1737 28.0782 14.0987 28.0148 13.9825C27.9388 14.1338 27.8785 14.2463 27.8263 14.3618C26.8586 16.4567 25.8904 18.5524 24.9218 20.6489C23.8385 22.9926 22.7546 25.3364 21.67 27.6801C21.116 28.884 20.5586 30.0877 19.9979 31.2913C19.8522 31.3627 19.7102 31.4443 19.5582 31.5048C18.585 31.8936 17.6108 32.2796 16.6355 32.6628C15.9395 32.935 15.2392 33.1964 14.5432 33.4668C13.2367 33.9744 11.9327 34.4862 10.6268 34.9932C9.91072 35.2709 9.19025 35.5377 8.47481 35.8172C7.711 36.1155 6.95221 36.4252 6.1884 36.7247C5.41517 37.0272 4.63691 37.3164 3.86431 37.6183C3.67273 37.6927 3.49183 37.7919 3.3059 37.8796L3 37.9401C3.28392 37.3139 3.56532 36.6854 3.85175 36.0604C5.63146 32.2086 7.41117 28.3569 9.19088 24.5051C10.6749 21.297 12.1599 18.0896 13.6456 14.8827C15.3843 11.1229 17.1221 7.36252 18.8591 3.6015C19.41 2.40544 19.9646 1.20998 20.5249 0H35.5122C35.6378 0.266195 35.776 0.544491 35.9066 0.828231C37.6922 4.68887 39.4774 8.54971 41.2621 12.4108C42.6473 15.4075 44.0326 18.4042 45.4178 21.4009C45.436 21.434 45.457 21.4656 45.4806 21.4953C45.5843 21.7373 45.6691 21.9877 45.7947 22.2164C46.0384 22.6502 46.1842 23.1239 46.414 23.5613C46.4769 23.6763 46.5497 23.7852 46.6025 23.9031C46.7664 24.2661 46.9166 24.6406 47.083 25.006C47.1829 25.2269 47.3047 25.438 47.4052 25.6582C47.6565 26.2094 47.9021 26.7635 48.1527 27.3159C48.4371 27.9414 48.7235 28.5666 49.012 29.1914C49.3606 29.9337 49.7111 30.673 50.0597 31.4147Z" fill="#737373"/>
<path d="M37.9772 34.9849C38.2304 35.5034 38.4836 36.0216 38.7367 36.5393C38.9716 37.0233 39.2039 37.5084 39.4374 37.9929C39.3222 37.9929 39.2064 38 39.0906 38C27.1712 38 15.2522 38 3.3336 38C3.22853 38 3.12346 37.9941 3.01712 37.9893C3.01079 37.9893 3.00067 37.9751 3.00003 37.9667C2.9994 37.9584 3.00826 37.9501 3.01269 37.9412L3.32094 37.8818C3.44942 37.9114 3.58023 37.9313 3.71211 37.9412C10.4252 37.944 17.1384 37.944 23.8515 37.9412C25.3706 37.9412 26.8882 37.9412 28.4044 37.9412C28.5272 37.9412 28.6493 37.9311 28.7639 37.9264C28.8436 37.5505 28.7981 37.4514 28.486 37.351C28.3841 37.3178 28.3196 37.2774 28.3037 37.1759C28.2784 37.0126 28.1708 36.9384 27.9999 36.9312C27.9354 36.9333 27.8725 36.9122 27.8241 36.8723C27.7756 36.8323 27.7452 36.7765 27.7391 36.7163C27.7087 36.5382 27.5992 36.4657 27.4163 36.4539C27.2897 36.4461 27.1682 36.4081 27.0435 36.4022C26.8992 36.3951 26.8068 36.3577 26.7796 36.2068C26.7682 36.1377 26.7338 36.0736 26.6813 36.0239C26.6288 35.9742 26.5608 35.9414 26.4871 35.9302C26.3859 35.91 26.315 35.8761 26.2776 35.7782C26.2522 35.6968 26.1988 35.6257 26.1258 35.5759C26.0527 35.526 25.9641 35.5003 25.8738 35.5026C25.7472 35.4979 25.6263 35.4599 25.5016 35.4522C25.3674 35.4433 25.2902 35.397 25.2636 35.2645C25.2517 35.1906 25.2143 35.1224 25.1571 35.0703C25.1 35.0182 25.0262 34.9851 24.9472 34.976C24.8998 34.9719 24.8555 34.9525 24.8217 34.9211C24.788 34.8896 24.767 34.8482 24.7623 34.8038C24.7282 34.6286 24.6098 34.5354 24.4262 34.4938C24.3925 34.4848 24.3611 34.4692 24.334 34.4482C24.307 34.4271 24.2849 34.401 24.2693 34.3715C24.1876 34.1679 24.0332 34.083 23.8116 34.0747C23.6971 34.0687 23.5844 34.0384 23.4698 34.0295C23.3553 34.0206 23.2692 33.9844 23.2464 33.8639C23.2362 33.7846 23.1979 33.7108 23.1376 33.6544C23.0774 33.5979 22.9987 33.5621 22.9141 33.5527C22.8669 33.5476 22.8232 33.5268 22.7909 33.4942C22.7585 33.4615 22.7396 33.4191 22.7375 33.3746C22.7322 33.3095 22.7002 33.2489 22.6483 33.2054C22.5964 33.1619 22.5286 33.1389 22.459 33.1413C22.2849 33.1329 22.1938 33.0463 22.1653 32.8865C22.1574 32.8269 22.127 32.7719 22.0794 32.7315C22.0319 32.6912 21.9705 32.6682 21.9064 32.6669C21.7501 32.6496 21.5957 32.6205 21.4393 32.6075C21.3191 32.5968 21.2444 32.554 21.2209 32.4359C21.1874 32.2577 21.0697 32.1645 20.8848 32.1265C20.8254 32.1116 20.7734 32.0776 20.738 32.0303C20.6696 31.933 20.6405 31.8029 20.5544 31.7269C20.4506 31.6361 20.45 31.5304 20.4228 31.4235C20.4228 31.4194 20.4032 31.42 20.393 31.4182C20.5867 31.3511 20.7848 31.2923 20.9747 31.2157C21.4178 31.0376 21.8488 30.8363 22.2938 30.6659C23.7825 30.0971 25.2736 29.5334 26.7669 28.9749C27.1467 28.8324 27.5315 28.7023 27.9138 28.5663C28.0668 28.7037 28.2655 28.7875 28.4765 28.8038C28.6924 28.8205 28.8069 28.9054 28.8152 29.1138C28.8202 29.2355 28.9088 29.2818 29.0297 29.2842C29.1033 29.2887 29.1771 29.2887 29.2506 29.2842C29.5329 29.2533 29.7146 29.3792 29.8203 29.6114C29.8337 29.6539 29.8614 29.6913 29.8993 29.7179C29.9371 29.7445 29.9831 29.759 30.0304 29.7592C30.2203 29.7663 30.3216 29.8584 30.3292 30.0365C30.3368 30.1915 30.4374 30.236 30.5824 30.2342C30.6878 30.2301 30.7935 30.2311 30.8988 30.2372C30.9697 30.2437 31.0615 30.2508 31.1033 30.293C31.2147 30.4064 31.2932 30.5513 31.4071 30.6605C31.521 30.7698 31.6704 30.847 31.7989 30.9449C31.828 30.9669 31.8255 31.0233 31.854 31.0483C31.9103 31.0987 31.9742 31.167 32.0439 31.1759C32.247 31.1967 32.3496 31.2864 32.3603 31.4775C32.366 31.5963 32.4439 31.6557 32.5673 31.6557C32.6516 31.6616 32.7362 31.6616 32.8205 31.6557C33.08 31.6248 33.237 31.7548 33.356 31.946C33.4959 32.1699 33.5111 32.1776 33.7174 32.0096C33.8389 31.911 33.9535 31.8463 34.101 31.9448C34.1579 32.1016 34.1136 32.2061 33.9807 32.3124C33.8193 32.4418 33.8541 32.573 34.0579 32.5974C34.2763 32.6235 34.3788 32.7161 34.3877 32.9174C34.3928 33.0225 34.47 33.0724 34.5776 33.0771C34.6513 33.0825 34.7254 33.0825 34.7991 33.0771C35.089 33.048 35.2783 33.165 35.4004 33.4096C35.4182 33.4427 35.4433 33.4718 35.4741 33.495C35.5049 33.5182 35.5406 33.5348 35.5789 33.5438C35.7783 33.5646 35.8954 33.6436 35.9011 33.8407C35.9068 33.9779 35.9967 34.0283 36.1309 34.0289C36.2047 34.0325 36.2786 34.0325 36.3524 34.0289C36.6366 34.0016 36.8062 34.1352 36.9164 34.3656C36.9433 34.4094 36.9768 34.4494 37.0157 34.4843C37.1594 34.4475 37.1531 34.1756 37.3493 34.3145C37.3753 34.4974 37.3892 34.6631 37.4253 34.8246C37.4613 34.9861 37.805 35.1019 37.9797 35.0164C37.9785 35.011 37.9759 34.9944 37.9772 34.9849Z" fill="#737373"/>
<path d="M55.3753 21.0464C55.3663 21.1045 55.3517 21.1618 55.3316 21.2174C54.9776 21.9659 54.6223 22.7141 54.2657 23.4618C53.8361 24.3635 53.4051 25.2633 52.9726 26.161C52.9525 26.1944 52.9292 26.2261 52.9029 26.2554C52.6956 26.1266 52.4793 26.011 52.2554 25.9093C52.1149 25.8416 52.0022 25.7787 51.9453 25.6427C51.894 25.5239 51.8408 25.4052 51.7915 25.2977C51.4883 25.1059 51.087 25.1879 50.8003 24.9628C50.787 24.9521 50.7598 24.9545 50.737 24.9539C50.5471 24.9486 50.4635 24.8482 50.4243 24.6802C50.4066 24.6066 50.3281 24.5021 50.2629 24.4908C50.035 24.4558 49.9546 24.302 49.8768 24.1375C49.8312 24.0407 49.7932 23.9398 49.7451 23.8252C49.6014 23.8252 49.4647 23.8175 49.3293 23.8252C49.2457 23.8345 49.161 23.8229 49.0838 23.7917C49.0065 23.7604 48.9394 23.7105 48.8894 23.6471C48.8376 23.5889 48.7665 23.5487 48.6875 23.5331C48.5134 23.5063 48.4343 23.4185 48.4064 23.2611C48.3893 23.1608 48.3431 23.0681 48.2165 23.0545C48.033 23.0355 47.9482 22.9161 47.8849 22.773L47.7114 22.3841L47.3817 22.529C47.1329 22.6371 46.9829 22.5777 46.8975 22.3378C46.8196 22.1199 46.8202 22.1169 46.569 22.1063C46.4424 22.1009 46.312 22.1063 46.2455 21.9721C46.2885 21.8118 46.3721 21.6936 46.5538 21.6372C46.6386 21.6105 46.7082 21.5386 46.8069 21.4727L46.7 21.4484C46.8696 21.3741 47.0367 21.2922 47.2101 21.2269C48.6579 20.6783 50.1076 20.1312 51.5592 19.5857C52.0845 19.3874 52.6061 19.1808 53.1314 18.9825C53.24 18.9478 53.3505 18.9189 53.4625 18.8958L53.5726 18.9415C53.4169 19.1149 53.2871 19.2817 53.0302 19.2811C53.0662 19.3043 53.0992 19.3067 53.1226 19.3221C53.1728 19.3507 53.2177 19.3868 53.2555 19.429C53.265 19.4415 53.2213 19.5181 53.2017 19.5181C53.1345 19.5195 53.0678 19.5073 53.0061 19.4824C52.9469 19.4463 52.8925 19.4036 52.8441 19.3554L52.5339 19.66C52.5548 19.7177 52.5949 19.7677 52.6484 19.8024C52.7018 19.8372 52.7658 19.8549 52.8308 19.8529C52.8784 19.8518 52.9248 19.867 52.9614 19.8956C52.998 19.9242 53.0222 19.9644 53.0295 20.0085C53.1245 20.3244 53.1283 20.3238 53.4777 20.3256C53.541 20.3256 53.6043 20.3256 53.6676 20.3256C53.8245 20.3208 53.9416 20.2858 53.9961 20.1136C54.0505 19.9414 54.2429 19.9307 54.3613 20.0655C54.455 20.1718 54.4246 20.3137 54.2638 20.3731C54.1372 20.4188 54.0505 20.4782 54.0613 20.5993C54.0739 20.7376 54.1878 20.7935 54.329 20.8012C54.3499 20.8012 54.3771 20.8012 54.3923 20.8089C54.4448 20.8505 54.5189 20.8879 54.5385 20.9419C54.6651 21.2685 54.6651 21.2696 55.0303 21.2738C54.8512 20.9995 54.8512 20.9995 55.0221 20.8843C55.0436 20.9603 55.0639 21.0304 55.0854 21.1052L55.3386 20.9728L55.3753 21.0464Z" fill="#737373"/>
<path d="M46.6974 21.4484L46.8044 21.4727C46.7063 21.5386 46.6367 21.6105 46.5512 21.6372C46.3708 21.6936 46.286 21.8118 46.243 21.9721C46.3094 22.1051 46.4379 22.1009 46.5664 22.1063C46.8196 22.1169 46.8196 22.1199 46.8949 22.3378C46.9804 22.5753 47.1304 22.6347 47.3791 22.529L47.7114 22.3841L47.8849 22.773C47.9482 22.9161 48.033 23.0355 48.2165 23.0545C48.3431 23.0681 48.3893 23.1608 48.4064 23.2611C48.4324 23.4185 48.5134 23.5063 48.6875 23.5331C48.7665 23.5487 48.8376 23.5889 48.8894 23.6471C48.9394 23.7105 49.0065 23.7604 49.0838 23.7917C49.161 23.8229 49.2457 23.8345 49.3293 23.8252C49.4647 23.8151 49.6014 23.8252 49.7451 23.8252C49.7932 23.9398 49.8312 24.0407 49.8768 24.1375C49.9546 24.302 50.035 24.4558 50.2629 24.4908C50.3262 24.5009 50.4066 24.6066 50.4243 24.6802C50.4635 24.8482 50.5471 24.9486 50.737 24.9539C50.7579 24.9539 50.7851 24.9539 50.8003 24.9628C51.087 25.1879 51.4883 25.1059 51.7915 25.2977C51.8408 25.4076 51.894 25.5245 51.9453 25.6427C52.0048 25.7787 52.1149 25.8416 52.2554 25.9093C52.4793 26.011 52.6956 26.1266 52.9029 26.2554C52.7131 26.6467 52.5175 27.0345 52.3339 27.4287C52.1358 27.8616 51.9636 28.3051 51.7643 28.735C51.3262 29.6719 50.8781 30.6041 50.435 31.5381C50.0838 30.8108 49.7306 30.0846 49.3824 29.3555C49.0904 28.7439 48.8018 28.1303 48.5166 27.5148C48.2634 26.9727 48.0178 26.4288 47.7633 25.8879C47.6621 25.6718 47.5393 25.4646 47.4386 25.2478C47.2728 24.8916 47.1221 24.5246 46.9544 24.1654C46.9012 24.0467 46.8278 23.9428 46.7645 23.8299C46.5329 23.4001 46.3848 22.9357 46.1404 22.51C46.0138 22.2856 45.9278 22.0386 45.824 21.8022L46.6974 21.4484Z" fill="#737373"/>
<path d="M55.3753 21.0464L55.336 20.9716L55.0828 21.104C55.0613 21.0292 55.0411 20.9591 55.0196 20.8831C54.8487 20.9983 54.8487 20.9983 55.0278 21.2726C54.6607 21.2685 54.6645 21.2673 54.536 20.9407C54.5151 20.8867 54.4423 20.8493 54.3898 20.8077C54.3758 20.7976 54.3486 20.8012 54.3265 20.8C54.1859 20.7923 54.0733 20.7365 54.0587 20.5981C54.048 20.4794 54.1366 20.42 54.2613 20.3719C54.422 20.3125 54.4512 20.1706 54.3587 20.0643C54.2404 19.9295 54.0461 19.9456 53.9935 20.1124C53.941 20.2793 53.822 20.3196 53.665 20.3244C53.6017 20.3244 53.5384 20.3244 53.4751 20.3244C53.1258 20.3244 53.1219 20.3244 53.027 20.0073C53.0196 19.9632 52.9954 19.9231 52.9589 19.8944C52.9223 19.8658 52.8759 19.8506 52.8283 19.8518C52.7633 19.8537 52.6993 19.836 52.6459 19.8013C52.5924 19.7665 52.5523 19.7166 52.5314 19.6588L52.8415 19.3542C52.89 19.4024 52.9444 19.4451 53.0036 19.4812C53.0653 19.5061 53.132 19.5183 53.1992 19.5169C53.2188 19.5169 53.2625 19.4403 53.253 19.4278C53.2152 19.3856 53.1703 19.3495 53.12 19.3209C53.0966 19.3055 53.0637 19.3031 53.0276 19.28C53.2846 19.28 53.4144 19.1137 53.5701 18.9403L53.46 18.8946C53.7948 18.7533 54.1252 18.6031 54.4645 18.4724C55.224 18.1797 55.9835 17.8959 56.7469 17.6103C56.8146 17.5848 56.8855 17.5687 56.9862 17.5385C56.9862 17.6216 57.007 17.6911 56.9862 17.7421C56.5766 18.6072 56.1633 19.4706 55.7487 20.3345C55.6626 20.5126 55.5861 20.6985 55.4955 20.8778C55.4609 20.9372 55.4207 20.9937 55.3753 21.0464ZM53.91 19.7241C53.9056 19.6166 53.7941 19.5038 53.6935 19.505C53.5929 19.5062 53.4827 19.6202 53.4796 19.7271C53.4764 19.8458 53.5644 19.9147 53.7119 19.9052C53.8423 19.9004 53.9144 19.8339 53.91 19.7241Z" fill="#737373"/>
<path d="M20.1399 31.4182L20.393 31.4182C20.4032 31.4182 20.4222 31.4182 20.4228 31.4235C20.45 31.5304 20.4506 31.6361 20.5544 31.7269C20.6405 31.8029 20.6696 31.933 20.738 32.0303C20.7734 32.0776 20.8254 32.1116 20.8848 32.1265C21.0697 32.1645 21.1874 32.2607 21.2209 32.4359C21.2444 32.554 21.3191 32.5968 21.4393 32.6075C21.5957 32.6205 21.7501 32.6496 21.9064 32.6669C21.9705 32.6682 22.0319 32.6912 22.0794 32.7315C22.127 32.7719 22.1574 32.8269 22.1653 32.8865C22.1938 33.0463 22.2849 33.1329 22.459 33.1413C22.5286 33.1389 22.5964 33.1619 22.6483 33.2054C22.7002 33.2489 22.7322 33.3095 22.7375 33.3746C22.7396 33.4191 22.7585 33.4615 22.7909 33.4942C22.8232 33.5268 22.8669 33.5476 22.9141 33.5527C22.9987 33.5621 23.0774 33.5979 23.1376 33.6544C23.1979 33.7108 23.2362 33.7846 23.2464 33.8639C23.2692 33.9826 23.3515 34.0206 23.4698 34.0295C23.5882 34.0384 23.6971 34.0687 23.8116 34.0747C24.0332 34.0853 24.1876 34.1703 24.2693 34.3715C24.2849 34.401 24.307 34.4271 24.334 34.4482C24.3611 34.4692 24.3925 34.4848 24.4262 34.4938C24.6098 34.5354 24.7282 34.6286 24.7623 34.8038C24.767 34.8482 24.788 34.8896 24.8217 34.9211C24.8555 34.9525 24.8998 34.9719 24.9472 34.976C25.0262 34.9851 25.1 35.0182 25.1571 35.0703C25.2143 35.1224 25.2517 35.1906 25.2636 35.2645C25.2902 35.397 25.3674 35.4433 25.5016 35.4522C25.6282 35.4599 25.7491 35.4979 25.8738 35.5026C25.9641 35.5003 26.0527 35.526 26.1258 35.5759C26.1988 35.6257 26.2522 35.6968 26.2776 35.7782C26.315 35.8761 26.3859 35.91 26.4871 35.9302C26.5608 35.9414 26.6288 35.9742 26.6813 36.0239C26.7338 36.0736 26.7682 36.1377 26.7796 36.2068C26.8068 36.3577 26.8992 36.3951 27.0435 36.4022C27.1701 36.4081 27.291 36.4461 27.4163 36.4539C27.5992 36.4657 27.7087 36.5382 27.7391 36.7163C27.7452 36.7765 27.7756 36.8323 27.8241 36.8723C27.8725 36.9122 27.9354 36.9333 27.9999 36.9312C28.1708 36.9395 28.2784 37.0126 28.3037 37.1759C28.3196 37.2774 28.3841 37.3178 28.486 37.351C28.7981 37.4531 28.8436 37.5505 28.7639 37.9264C28.6493 37.9311 28.5272 37.9412 28.4044 37.9412C26.8853 37.9412 25.3677 37.9412 23.8515 37.9412C17.1384 37.9412 10.4252 37.9412 3.71211 37.9412C3.58023 37.9313 3.44942 37.9114 3.32094 37.8818C3.51083 37.7957 3.69059 37.6984 3.88364 37.6253C4.66281 37.3285 5.44704 37.0441 6.22558 36.7484C6.99525 36.4562 7.75986 36.1546 8.52954 35.8577C9.25048 35.584 9.97648 35.3233 10.698 35.049C12.014 34.5515 13.328 34.0491 14.6445 33.551C15.3458 33.2856 16.0516 33.0291 16.7529 32.7619C17.7357 32.3866 18.7174 32.0078 19.6981 31.6254C19.8481 31.5684 19.993 31.4882 20.1399 31.4182Z" fill="#737373"/>
<path d="M27.9119 28.564L28.9335 28.1644C28.9272 28.1911 28.9202 28.2178 28.9088 28.2635C29.0354 28.2469 29.1272 28.1763 29.262 28.2487C29.3968 28.3211 29.4931 28.1543 29.4424 27.9791C29.8678 27.8105 30.2912 27.6377 30.7185 27.4744C31.6831 27.1063 32.649 26.7411 33.6161 26.379C33.6948 26.3534 33.7749 26.3318 33.856 26.3142C34.0231 26.6414 34.1972 26.9674 34.3554 27.2969C34.6561 27.9257 34.9485 28.5586 35.2416 29.1904C35.4555 29.6494 35.6675 30.1089 35.8815 30.5679C36.0315 30.8903 36.184 31.2116 36.3359 31.5334C36.1606 31.9217 36.467 32.1865 36.6176 32.538C36.6613 32.3718 36.5125 32.2411 36.6448 32.1337L36.9733 32.8984L36.8398 33.1193C36.9259 33.2381 36.9942 33.3046 37.0259 33.3835C37.0534 33.4667 37.1026 33.5421 37.1688 33.603C37.2351 33.6639 37.3165 33.7085 37.4056 33.7327L37.5322 34.0367L37.4265 34.1685C37.4607 34.2647 37.4949 34.3674 37.5354 34.4654C37.5803 34.5782 37.662 34.612 37.7835 34.5621L37.9734 34.9825C37.9734 34.992 37.9734 35.0087 37.969 35.011C37.7962 35.0965 37.4506 34.9825 37.4145 34.8192C37.3784 34.656 37.3645 34.4921 37.3385 34.3092C37.1423 34.1703 37.1487 34.4422 37.005 34.479C36.966 34.444 36.9326 34.4041 36.9056 34.3603C36.7955 34.1299 36.6258 33.9963 36.3416 34.0236C36.2678 34.0272 36.1939 34.0272 36.1201 34.0236C35.9859 34.0236 35.896 33.9725 35.8903 33.8354C35.8815 33.6406 35.7675 33.5617 35.5682 33.5385C35.5299 33.5295 35.4941 33.5128 35.4633 33.4897C35.4325 33.4665 35.4074 33.4374 35.3897 33.4043C35.2675 33.1597 35.0783 33.0427 34.7884 33.0718C34.7146 33.0771 34.6406 33.0771 34.5668 33.0718C34.4586 33.0671 34.3814 33.0172 34.3769 32.9121C34.3681 32.7084 34.2655 32.6152 34.0472 32.592C33.8453 32.5677 33.8086 32.4365 33.97 32.307C34.1029 32.2008 34.1472 32.0963 34.0902 31.9395C33.9427 31.8409 33.8282 31.9057 33.7066 32.0042C33.5003 32.1723 33.4851 32.1645 33.3452 31.9407C33.2262 31.7495 33.0693 31.6195 32.8097 31.6503C32.7255 31.6563 32.6408 31.6563 32.5566 31.6503C32.43 31.6503 32.3553 31.591 32.3496 31.4722C32.3414 31.281 32.2388 31.1914 32.0331 31.1706C31.966 31.1635 31.9021 31.0934 31.8432 31.0429C31.8147 31.018 31.8173 30.9616 31.7882 30.9396C31.6616 30.8416 31.5116 30.7615 31.3964 30.6552C31.2812 30.5489 31.2065 30.4011 31.0925 30.2877C31.0508 30.2455 30.959 30.2384 30.8881 30.2319C30.7827 30.2258 30.6771 30.2248 30.5716 30.2289C30.4254 30.2289 30.3248 30.1861 30.3184 30.0312C30.3108 29.853 30.2089 29.761 30.0197 29.7539C29.9724 29.7537 29.9264 29.7392 29.8885 29.7126C29.8507 29.6859 29.823 29.6486 29.8095 29.606C29.7045 29.3739 29.5228 29.2498 29.2399 29.2789C29.1663 29.2833 29.0925 29.2833 29.019 29.2789C28.8981 29.2789 28.8095 29.2302 28.8044 29.1085C28.7962 28.9001 28.6816 28.8151 28.4658 28.7985C28.2582 28.7811 28.0631 28.6985 27.9119 28.564Z" fill="#737373"/>
<path d="M37.4056 33.7327C37.3165 33.7085 37.2351 33.6639 37.1688 33.603C37.1026 33.5421 37.0534 33.4667 37.0259 33.3835C36.9942 33.3046 36.9259 33.2381 36.8398 33.1193L36.9733 32.8984C37.1185 33.1763 37.2626 33.4544 37.4056 33.7327Z" fill="#737373"/>
<path d="M36.6467 32.1337C36.5144 32.2435 36.6632 32.3712 36.6195 32.538C36.4689 32.1818 36.1625 31.9217 36.3378 31.5334C36.4425 31.7333 36.5455 31.9334 36.6467 32.1337Z" fill="#737373"/>
<path d="M37.7854 34.5645C37.6664 34.6144 37.5822 34.5806 37.5373 34.4677C37.4968 34.3674 37.4626 34.2647 37.4284 34.1709L37.5341 34.039C37.6185 34.2132 37.7023 34.3884 37.7854 34.5645Z" fill="#737373"/>
<path d="M53.91 19.7241C53.9144 19.8339 53.8422 19.9022 53.7119 19.907C53.5644 19.9147 53.4764 19.8476 53.4796 19.7288C53.4796 19.622 53.5922 19.508 53.6935 19.5068C53.7948 19.5056 53.9056 19.6166 53.91 19.7241Z" fill="#737373"/>
<path d="M29.4424 27.9791C29.4931 28.1543 29.3873 28.3158 29.262 28.2487C29.1367 28.1816 29.0323 28.2487 28.9088 28.2635C28.9202 28.2178 28.9272 28.1911 28.9335 28.1644L29.4424 27.9791Z" fill="#737373"/>
</svg>
