<svg width="135" height="60" viewBox="0 0 135 60" fill="none" xmlns="http://www.w3.org/2000/svg">
<path fill-rule="evenodd" clip-rule="evenodd" d="M26.7151 0.486308C26.3928 0.871806 25.7992 2.54139 21.9808 13.8032C21.0821 16.4534 19.2724 21.7802 17.9594 25.6404C16.6461 29.5007 15.0509 34.1912 14.4145 36.0635L13.2572 39.4681H6.99148C-0.772052 39.4681 -0.74279 39.4544 0.834839 42.33C1.2672 43.1181 1.94307 44.3758 2.33676 45.1248C2.73045 45.8738 4.35657 48.944 5.94996 51.9475C7.54355 54.9508 8.84739 57.5167 8.84739 57.6491C8.84739 58.2001 9.76143 58.3239 13.8303 58.3239C19.9172 58.3239 19.7506 58.5383 17.351 53.8008C16.3879 51.8993 15.5999 50.3005 15.5999 50.2482C15.5999 50.196 22.4645 50.1531 30.8544 50.1531H46.1089L45.9949 47.0628C45.9323 45.363 45.7872 40.2014 45.6731 35.5921C45.5587 30.9829 45.3778 24.3362 45.271 20.8217C45.1644 17.3072 45.0263 12.2161 44.9643 9.50821C44.8055 2.56841 44.6768 0.759928 44.315 0.389515C43.7828 -0.155419 27.1755 -0.0642826 26.7151 0.486308ZM67.9637 0.304873C47.8322 2.49215 39.4372 28.562 54.2013 43.0431C63.8123 52.4704 75.8377 52.1685 89.0838 42.1672C89.8293 41.6046 90.4968 41.1441 90.5673 41.1441C90.6381 41.1441 90.6958 42.9771 90.6958 45.2176C90.6958 49.1897 90.7071 49.2993 91.1507 49.6173C91.8229 50.0996 99.7998 50.0996 100.472 49.6173L100.927 49.2913V39.3514C100.927 33.8844 100.995 29.4116 101.078 29.4116C101.161 29.4116 105.744 34.0313 111.262 39.6776L121.296 49.9435H127.879C134.449 49.9435 134.462 49.9427 134.78 49.4778C135.438 48.5155 135.413 48.4856 122.821 35.5913L110.542 23.0186L120.979 12.3328C126.719 6.45565 131.415 1.54286 131.415 1.41569C131.415 1.28852 131.225 0.935916 130.991 0.632336L130.567 0.080279H124.113H117.659L113.436 4.31866C111.114 6.64966 107.436 10.3502 105.262 12.5419C103.089 14.7336 101.224 16.5582 101.119 16.5965C101.002 16.6393 100.927 13.5739 100.927 8.72003C100.927 -1.0385 101.596 0.080279 95.7588 0.080279C89.9721 0.080279 90.6958 -1.92515 90.6958 14.1105V27.4822L88.5985 29.331C86.7008 31.0037 86.1498 31.4774 84.8169 32.5819C75.4008 40.3851 67.095 41.264 61.1281 35.0885C48.8085 22.3386 66.6768 2.37252 79.8129 14.2102C81.6373 15.8543 81.5073 15.9064 85.3391 11.9955C89.1446 8.1112 89.0769 8.29871 87.2936 6.58136C82.2806 1.75342 75.3482 -0.497548 67.9637 0.304873ZM36.2625 13.8555C36.2603 15.5551 36.1238 21.6598 35.9593 27.4213C35.7946 33.1828 35.6583 38.2504 35.6562 38.6824L35.6528 39.4681H29.9234C25.0323 39.4681 24.194 39.4232 24.194 39.1618C24.194 38.9931 25.1062 36.5184 26.221 33.6621C29.2999 25.7741 34.2077 13.103 34.6634 11.8652C35.025 10.8832 35.1324 10.7653 35.6675 10.7653H36.2666L36.2625 13.8555ZM51.4653 54.6994C51.0972 54.8951 50.8805 54.9209 50.833 54.7748C50.4023 53.4518 49.9762 54.6956 49.9762 57.2764V60H50.4878C50.9576 60 50.9993 59.9231 50.9993 59.0572C50.9993 58.1718 51.2244 57.8492 51.5109 58.3239C52.1113 59.3185 53.6594 58.0214 53.6594 56.5238C53.6594 54.8176 52.7173 54.0344 51.4653 54.6994ZM102.362 54.7103C100.005 55.9204 101.537 59.3669 103.972 58.334C105.497 57.6876 105.44 55.3053 103.884 54.6397C103.043 54.28 103.215 54.272 102.362 54.7103ZM22.6739 55.6365C22.5222 56.8077 22.255 57.4593 21.7784 57.819C21.5566 57.9864 21.5134 58.2519 21.6166 58.8142C21.7827 59.7209 22.2953 59.8473 22.39 59.0048C22.4256 58.6881 22.5699 58.4381 22.7105 58.4496C22.8513 58.4612 23.5637 58.4846 24.2938 58.502C25.5336 58.5313 25.6183 58.564 25.5727 58.9962C25.5414 59.2944 25.6513 59.4863 25.8821 59.5353C26.1819 59.5992 26.2402 59.4555 26.2402 58.6535C26.2402 58.1266 26.1481 57.6954 26.0356 57.6954C25.9173 57.6954 25.8309 57.0319 25.8309 56.1241V54.5528H24.3227H22.8144L22.6739 55.6365ZM27.7302 54.8054C27.1745 55.0801 26.7761 56.2267 26.9519 57.0459C27.4337 59.2923 30.7419 58.8288 30.7419 56.515C30.7419 54.8794 29.2704 54.0441 27.7302 54.8054ZM31.765 56.5584C31.765 58.3572 31.802 58.5565 32.123 58.4899C32.4175 58.4289 32.4768 58.2024 32.4574 57.2175C32.4271 55.687 32.6205 55.7027 33.1809 57.2764C33.7637 58.9131 34.1993 58.9575 34.7201 57.4335C35.274 55.8132 35.4481 55.7692 35.4481 57.2498C35.4481 59.656 36.1481 58.9556 36.2232 56.4744L36.2824 54.5251L35.6198 54.5913C35.0023 54.6531 34.9296 54.7463 34.5494 55.9669C34.0403 57.6015 33.9489 57.5973 33.4019 55.9146C32.9919 54.6531 32.9153 54.5528 32.362 54.5528H31.765V56.5584ZM37.7616 55.0583C36.4195 56.2403 37.3122 58.5334 39.1147 58.5334C40.7916 58.5334 41.6377 56.3958 40.4712 55.1071C39.7961 54.3613 38.5778 54.3395 37.7616 55.0583ZM42.2156 55.1048C41.1906 56.4388 41.9717 58.5334 43.4938 58.5334C44.1519 58.5334 45.27 57.8785 45.27 57.493C45.27 57.0863 44.5849 57.0778 44.3088 57.4813C43.4734 58.7025 42.1045 56.9585 42.8217 55.5865C43.0705 55.1105 43.8863 55.0508 44.2368 55.4832C44.5188 55.8312 45.0653 55.6912 45.0653 55.271C45.0653 54.4013 42.855 54.2724 42.2156 55.1048ZM45.8838 54.867C45.8838 55.0765 46.0884 55.1813 46.4977 55.1813H47.1115V56.8574C47.1115 58.3937 47.1457 58.5334 47.5208 58.5334C47.8959 58.5334 47.93 58.3937 47.93 56.8574V55.1813H48.5439C48.9531 55.1813 49.1578 55.0765 49.1578 54.867C49.1578 54.6139 48.8394 54.5528 47.5208 54.5528C46.2022 54.5528 45.8838 54.6139 45.8838 54.867ZM55.1804 55.0355C53.5974 56.4295 55.1384 58.9876 57.2364 58.4484C59.2581 57.929 58.6407 54.5528 56.5241 54.5528C55.9884 54.5528 55.5493 54.7105 55.1804 55.0355ZM59.4911 56.4909C59.4911 59.0216 59.8873 59.216 61.0994 57.2804C62.0849 55.7072 62.2977 55.6965 62.2287 57.224C62.1803 58.2965 62.2179 58.4287 62.5719 58.4287C62.9329 58.4287 62.9752 58.2498 63.0286 56.4907L63.0873 54.5528H62.5688C62.1567 54.5528 61.8928 54.8109 61.2828 55.8098C60.8607 56.5012 60.45 57.0669 60.37 57.0669C60.29 57.0669 60.2574 56.5012 60.2975 55.8098C60.3655 54.6401 60.3399 54.5528 59.9309 54.553C59.5126 54.553 59.4911 54.6479 59.4911 56.4909ZM63.8905 54.867C63.8905 55.0765 64.0951 55.1813 64.5043 55.1813H65.1182V56.8574C65.1182 58.3937 65.1524 58.5334 65.5274 58.5334C65.9025 58.5334 65.9367 58.3937 65.9367 56.8574V55.1813H66.5506C66.9598 55.1813 67.1644 55.0765 67.1644 54.867C67.1644 54.6139 66.846 54.5528 65.5274 54.5528C64.2089 54.5528 63.8905 54.6139 63.8905 54.867ZM68.2025 55.1048C67.1755 56.4413 67.9585 58.5334 69.4856 58.5334C70.3653 58.5334 71.3178 57.8136 70.8523 57.5008C70.6413 57.3589 70.4431 57.3968 70.1955 57.626C69.7744 58.0164 68.9078 57.8622 68.721 57.3639C68.508 56.7953 68.7799 56.6478 70.0412 56.6478C71.183 56.6478 71.2568 56.6177 71.2568 56.1524C71.2568 54.6523 69.1145 53.9175 68.2025 55.1048ZM72.6892 56.1438C72.6892 57.5584 72.6438 57.7467 72.2799 57.8441C71.6329 58.0174 71.7809 58.5334 72.4774 58.5334C73.2697 58.5334 73.5077 58.0528 73.5077 56.4522V55.1813H74.3176H75.1275L75.1872 56.8027C75.2871 59.5116 75.9631 59.2988 75.9631 56.5584V54.5528H74.3262H72.6892V56.1438ZM77.2932 56.4907V58.4287L78.3163 58.4966C79.9305 58.6036 80.874 58.2332 80.874 57.4924C80.874 56.5961 80.394 56.2288 79.2225 56.2288H78.214V55.3908C78.214 54.6615 78.1542 54.5528 77.7536 54.5528C77.3093 54.5528 77.2932 54.6206 77.2932 56.4907ZM81.9405 56.4907C82.0084 58.7226 82.7406 59.5286 82.8814 57.5263C82.9796 56.1304 84.4183 56.233 84.5177 57.643C84.6636 59.705 85.3757 58.792 85.3757 56.5431C85.3757 54.6925 85.347 54.5528 84.9665 54.5528C84.6352 54.5528 84.5572 54.6925 84.5572 55.286C84.5572 56.0019 84.5378 56.0193 83.7387 56.0193C82.9397 56.0193 82.9202 56.0019 82.9202 55.286C82.9202 54.6407 82.858 54.5528 82.4009 54.5528H81.8818L81.9405 56.4907ZM86.923 54.884C86.7452 55.066 86.6519 55.3017 86.716 55.4078C86.8723 55.6669 87.4219 55.6537 87.4219 55.3908C87.4219 55.2756 87.7442 55.1813 88.1381 55.1813C89.0662 55.1813 89.1876 55.9368 88.2915 56.1371C87.1262 56.3975 86.5961 56.7097 86.4743 57.2066C86.2247 58.225 87.4373 58.8762 88.4999 58.294C88.8279 58.1142 88.9566 58.1142 89.0151 58.294C89.3719 59.3905 89.8321 58.4306 89.7286 56.805C89.5876 54.589 88.1635 53.6139 86.923 54.884ZM90.993 55.0625C90.6613 55.5808 90.8338 56.321 91.3693 56.6786C91.4908 56.7597 91.3914 57.0744 91.121 57.4628C90.6699 58.1117 90.695 58.5334 91.1851 58.5334C91.3285 58.5334 91.6688 58.18 91.9414 57.7478C92.6471 56.6292 93.3091 56.5747 93.394 57.6286C93.5509 59.5745 94.1744 58.7197 94.1744 56.5584V54.5528H92.7468C91.4603 54.5528 91.287 54.603 90.993 55.0625ZM97.653 56.5431C97.653 58.3937 97.6816 58.5334 98.0622 58.5334C98.4119 58.5334 98.4714 58.3937 98.4714 57.5732C98.4714 56.4195 98.8044 56.4069 99.3532 57.5395C99.692 58.2389 100.392 58.7325 100.658 58.4599C100.718 58.3983 100.487 57.9229 100.145 57.4038C99.4614 56.3671 99.5561 55.3233 100.353 55.1098C100.902 54.963 100.8 54.5528 100.215 54.5528C99.8289 54.5528 99.6075 54.7533 99.2899 55.3908C99.0603 55.8517 98.7821 56.2288 98.672 56.2288C98.5617 56.2288 98.4714 55.8517 98.4714 55.3908C98.4714 54.6925 98.4033 54.5528 98.0622 54.5528C97.6816 54.5528 97.653 54.6925 97.653 56.5431ZM106.042 56.5431C106.042 58.4379 106.064 58.5334 106.481 58.5334C106.895 58.5334 106.912 58.4635 106.789 57.2594C106.623 55.6275 106.985 55.668 107.53 57.3419C108.049 58.9359 108.532 58.9657 109.02 57.4335C109.536 55.8159 109.613 55.787 109.726 57.1697C109.917 59.5118 110.544 59.0432 110.544 56.5584V54.5528H109.949C109.401 54.5528 109.315 54.6623 108.876 55.9146C108.614 56.6636 108.346 57.2764 108.282 57.2764C108.217 57.2764 107.953 56.6636 107.695 55.9146C107.263 54.6636 107.177 54.5528 106.634 54.5528H106.042V56.5431ZM111.815 56.4884C111.899 59.2365 112.59 59.5795 112.59 56.8726V55.1813H113.409H114.227V56.8574C114.227 58.3937 114.261 58.5334 114.637 58.5334C115.017 58.5334 115.046 58.3937 115.046 56.5431V54.5528H113.401H111.756L111.815 56.4884ZM116.584 54.9674C116.157 55.4503 116.695 55.8813 117.147 55.4187C117.546 55.0099 118.524 55.123 118.524 55.5779C118.524 55.995 118.147 56.2288 117.475 56.2288C116.893 56.2288 116.043 57.1655 116.202 57.6313C116.485 58.4618 117.724 58.85 118.279 58.282C118.47 58.0865 118.579 58.0865 118.77 58.282C118.905 58.4203 119.145 58.5334 119.302 58.5334C119.725 58.5334 119.573 55.0394 119.138 54.7579C118.564 54.3864 116.983 54.5161 116.584 54.9674ZM120.741 55.8622C120.607 58.435 121.378 60.0241 121.554 57.5364C121.617 56.6525 121.621 56.6478 122.424 56.6478H123.231V57.5906C123.231 58.3937 123.291 58.5334 123.64 58.5334C124.02 58.5334 124.049 58.3937 124.049 56.5431C124.049 54.6925 124.02 54.5528 123.64 54.5528C123.309 54.5528 123.231 54.6925 123.231 55.286C123.231 56.0019 123.211 56.0193 122.412 56.0193C121.613 56.0193 121.594 56.0019 121.594 55.286C121.594 53.7979 120.822 54.3194 120.741 55.8622ZM125.342 56.4907C125.393 59.0381 125.815 59.2412 126.994 57.2862C127.952 55.6973 128.142 55.6981 128.142 57.2917C128.142 58.391 128.19 58.5544 128.5 58.493C129.146 58.3646 129.069 54.5528 128.42 54.5528C128.053 54.5528 127.756 54.8519 127.171 55.8098C126.358 57.1406 126.055 57.3677 126.119 56.5955C126.234 55.2278 126.095 54.5528 125.699 54.5528C125.333 54.5528 125.306 54.7002 125.342 56.4907ZM130.229 54.8042C129.82 55.223 129.937 56.1718 130.443 56.537C130.732 56.7453 130.823 56.9257 130.687 57.0204C130.413 57.2118 129.778 58.1548 129.778 58.3706C129.778 58.867 130.653 58.4379 131.123 57.7111C131.993 56.3646 132.698 56.3401 132.599 57.6598C132.55 58.3088 132.605 58.4287 132.95 58.4287C133.326 58.4287 133.364 58.2688 133.418 56.4907L133.477 54.5528H131.976C131.081 54.5528 130.375 54.6544 130.229 54.8042ZM93.3559 55.6129C93.3559 56.2255 93.3217 56.2512 92.5902 56.189C91.277 56.0776 91.4599 54.9827 92.7932 54.9749C93.2851 54.9722 93.3559 55.0524 93.3559 55.6129ZM132.439 55.6129C132.439 56.2255 132.404 56.2512 131.673 56.189C130.36 56.0776 130.543 54.9827 131.876 54.9749C132.368 54.9722 132.439 55.0524 132.439 55.6129ZM24.9715 56.4907L25.0329 57.6954H23.9777C23.0508 57.6954 22.9411 57.6508 23.0755 57.3288C23.1598 57.1272 23.2687 56.6793 23.3174 56.3336C23.4721 55.2351 23.5421 55.1511 24.2437 55.2202C24.903 55.2854 24.9108 55.2992 24.9715 56.4907ZM29.5491 55.528C30.0287 55.9724 30.0285 56.8875 29.5487 57.4943C29.031 58.1488 28.2019 57.9307 27.9062 57.0623C27.4282 55.6583 28.5547 54.6064 29.5491 55.528ZM39.7802 55.528C40.5585 56.2494 40.0139 57.9049 38.9981 57.9049C38.2451 57.9049 37.7593 56.0413 38.3538 55.4327C38.7002 55.078 39.3406 55.1207 39.7802 55.528ZM52.6292 55.5865C53.306 56.8817 52.4826 58.2839 51.3951 57.6881C50.9353 57.436 50.8301 55.8574 51.2449 55.4327C51.6208 55.0478 52.3924 55.1335 52.6292 55.5865ZM57.2258 55.5104C57.6463 55.9412 57.6371 57.0371 57.2086 57.5217C56.2432 58.6139 54.9829 56.9833 55.7128 55.5865C55.9692 55.0962 56.7811 55.0554 57.2258 55.5104ZM70.1928 55.4327C70.6982 55.9502 70.4619 56.2288 69.5176 56.2288C68.5237 56.2288 68.4891 56.1976 68.8085 55.5865C69.0453 55.1335 69.8169 55.0478 70.1928 55.4327ZM103.879 55.5104C104.704 56.3543 103.88 58.1586 102.848 57.7679C102.302 57.5607 102.161 57.2822 102.158 56.3964C102.153 55.2896 103.158 54.7723 103.879 55.5104ZM79.7427 56.9317C80.3655 57.3981 79.9989 57.9049 79.0388 57.9049C78.2588 57.9049 78.214 57.8708 78.214 57.2764C78.214 56.5632 79.0105 56.3837 79.7427 56.9317ZM88.8543 57.0413C88.8543 57.6112 88.3312 57.9736 87.7315 57.8196C86.7868 57.5768 87.3024 56.6692 88.3939 56.6541C88.71 56.6499 88.8543 56.771 88.8543 57.0413ZM118.729 56.739C118.729 57.3803 118.26 57.9256 117.759 57.8664C117.139 57.7932 116.864 57.1339 117.328 56.8333C117.61 56.6499 118.729 56.5747 118.729 56.739Z" fill="#737373"/>
</svg>
