<svg width="143" height="72" viewBox="0 0 143 72" fill="none" xmlns="http://www.w3.org/2000/svg">
<path d="M44.1681 47.0738H53.2436V50.1793H48.9263V72H44.1681V47.0738Z" fill="#737373"/>
<path d="M58.6241 62.6424L59.4396 50.1793H59.7127L60.5282 62.6424H58.6241ZM53.3548 72H58.0135L58.4544 65.3802H60.6979L61.1408 72H65.7975L63.316 47.0738H55.8363L53.3548 72Z" fill="#737373"/>
<path d="M72.612 63.2758V67.975C72.612 68.6084 73.0802 68.7923 73.3533 68.7923C73.802 68.7923 74.1142 68.4041 74.1142 67.975V62.1725C74.1142 61.3961 73.9776 60.538 72.2023 60.538H70.2709V57.8002H72.2803C73.6265 57.8002 74.1142 57.4733 74.1142 55.941V50.9966C74.1142 50.5675 73.802 50.1793 73.3533 50.1793C73.0802 50.1793 72.612 50.3428 72.612 50.9966V55.0624H67.8518V51.5278C67.8518 49.7911 68.0469 47.0738 71.3829 47.0738H75.3237C78.6597 47.0738 78.8743 49.7911 78.8743 51.5278V55.5119C78.8743 58.2293 77.06 58.9648 75.6359 58.9035V59.1487C78.8353 59.067 78.8743 61.6413 78.8743 62.5199V67.546C78.8743 69.3031 78.6597 72 75.3237 72H71.3829C68.0469 72 67.8518 69.3031 67.8518 67.546V63.2758H72.612Z" fill="#737373"/>
<path d="M81.9958 47.0738H93.0183V72H88.2581V50.1793H86.7559V72H81.9958V47.0738Z" fill="#737373"/>
<path d="M100.9 60.7832V50.1793H101.524C102.031 50.1793 102.402 50.6288 102.402 51.4256V59.5369C102.402 60.3337 102.031 60.7832 101.524 60.7832H100.9ZM96.1397 72H100.9V63.521H103.631C106.948 63.521 107.162 60.8241 107.162 59.067V51.5278C107.162 49.7911 106.948 47.0738 103.631 47.0738H96.1397V72Z" fill="#737373"/>
<path d="M116.546 67.975C116.546 68.4041 116.234 68.7923 115.785 68.7923C115.512 68.7923 115.044 68.6084 115.044 67.975V50.9966C115.044 50.3428 115.512 50.1793 115.785 50.1793C116.234 50.1793 116.546 50.5675 116.546 50.9966V67.975ZM110.284 67.546C110.284 69.3031 110.498 72 113.815 72H117.775C121.092 72 121.306 69.3031 121.306 67.546V51.5278C121.306 49.7911 121.092 47.0738 117.775 47.0738H113.815C110.498 47.0738 110.284 49.7911 110.284 51.5278V67.546Z" fill="#737373"/>
<path d="M136.796 47.0738H143V72H138.24V56.37H138.064L135.606 72H131.802L129.363 56.37H129.188V72H124.428V47.0738H130.612L133.714 64.6038L136.796 47.0738Z" fill="#737373"/>
<path d="M37.9994 12.9943C36.5421 6.31327 32.89 0.878548 32.3867 0C31.5907 1.24631 28.678 6.04767 27.1973 11.3598C25.58 17.3053 25.342 22.5766 25.9 27.7457C26.454 32.9353 28.5473 38.2679 28.5473 38.2679C29.6593 41.0465 31.3254 44.0499 32.4101 45.521C34 43.3553 37.6541 36.899 38.7934 28.4813C39.4274 23.7821 39.4547 19.6754 37.9994 12.9943ZM32.3867 43.8456C31.6707 42.4359 30.5587 39.7594 30.4533 35.5914C30.426 31.5868 31.9614 28.1339 32.4101 27.4188C32.81 28.1339 34.1327 31.1373 34.2907 35.244C34.398 39.2486 33.1261 42.4154 32.3867 43.8456ZM37.576 24.3337C37.5214 26.8876 37.2307 29.5846 36.86 31.1986C36.9927 28.42 36.6747 24.5176 36.066 21.4529C35.4574 18.4086 33.7347 13.3008 32.3593 10.9512C31.0893 13.1986 29.5247 17.6118 28.7053 21.4325C27.8821 25.2531 27.8587 29.891 27.8587 31.2804C27.6402 30.1158 27.0939 25.9274 27.248 21.7389C27.3768 18.286 28.1493 14.7106 28.5727 13.0761C30.188 7.62089 32.016 4.12713 32.3593 3.57547C32.7027 4.12713 35.0048 8.43813 36.1987 12.9535C37.3868 17.4688 37.6267 21.8002 37.576 24.3337Z" fill="#737373"/>
<path d="M23.7794 47.0738V54.8581C23.7891 54.8581 23.7969 54.8377 23.8067 54.8377C26.417 52.0999 30.6504 52.0999 33.2626 54.8377C35.8729 57.5551 35.8729 61.9886 33.2626 64.7264C33.2509 64.7469 33.2392 64.7469 33.2275 64.7673C33.2138 64.7673 33.2002 64.7878 33.1885 64.8082C30.584 67.5051 27.1817 68.8536 23.7794 68.8536C20.3614 68.8536 16.9435 67.5051 14.3371 64.7673C9.74077 59.9659 9.19648 52.5085 12.7003 47.0738C13.1724 46.3382 13.7167 45.6436 14.3371 44.9898C16.9435 42.252 20.3614 40.9035 23.7794 40.9035V22.1884C10.646 22.1884 0 33.3235 0 47.0738C0 60.8241 10.646 71.9796 23.7794 71.9796C30.627 71.9796 36.7957 68.9353 41.1344 64.0931V47.0738H23.7794Z" fill="#737373"/>
</svg>
