<svg width="164" height="40" viewBox="0 0 164 40" fill="none" xmlns="http://www.w3.org/2000/svg">
<path d="M55.1923 27.6876L53.5058 37.4206H51.8728L53.566 27.6876H55.1923ZM58.1571 27.6876L57.9229 29.0245H50.3938L50.628 27.6876H58.1571Z" fill="#737373"/>
<path d="M65.9406 32.2733L65.8737 32.8014C65.7845 33.4164 65.6194 34.0114 65.3784 34.5863C65.142 35.1567 64.8296 35.6692 64.4415 36.1238C64.0578 36.5739 63.5982 36.9282 63.0628 37.1867C62.5274 37.4451 61.9184 37.5677 61.2357 37.5543C60.5843 37.541 60.0355 37.3961 59.5894 37.1198C59.1432 36.8435 58.7929 36.4781 58.5386 36.0235C58.2888 35.5689 58.1215 35.0654 58.0367 34.5127C57.9519 33.9557 57.9452 33.3919 58.0166 32.8215L58.0902 32.2934C58.1795 31.6828 58.3445 31.0924 58.5855 30.5219C58.8264 29.9515 59.141 29.4412 59.5291 28.9911C59.9173 28.5365 60.3791 28.18 60.9145 27.9215C61.4499 27.6631 62.0567 27.5405 62.7349 27.5539C63.3907 27.5672 63.9395 27.7121 64.3812 27.9884C64.8274 28.2602 65.1754 28.6234 65.4253 29.078C65.6796 29.5326 65.8469 30.0362 65.9272 30.5888C66.0075 31.1414 66.012 31.7029 65.9406 32.2733ZM64.2273 32.8215L64.3009 32.2667C64.3411 31.9324 64.3589 31.5759 64.3545 31.1971C64.35 30.8138 64.2965 30.4528 64.1939 30.1141C64.0912 29.771 63.9172 29.4902 63.6718 29.2719C63.4309 29.0535 63.0873 28.9354 62.6412 28.9176C62.1816 28.8997 61.7801 28.9911 61.4365 29.1916C61.0974 29.3877 60.8119 29.6529 60.5799 29.9871C60.3479 30.3214 60.1627 30.689 60.0244 31.0901C59.8905 31.4912 59.7968 31.8856 59.7433 32.2733L59.6697 32.8282C59.6251 33.158 59.605 33.5145 59.6094 33.8977C59.6184 34.281 59.6741 34.6442 59.7768 34.9874C59.8794 35.3305 60.0534 35.6157 60.2988 35.843C60.5442 36.0658 60.8855 36.1839 61.3227 36.1973C61.7912 36.2151 62.195 36.1238 62.5341 35.9232C62.8732 35.7227 63.1587 35.4553 63.3907 35.1211C63.6228 34.7868 63.8057 34.4192 63.9395 34.0181C64.0778 33.617 64.1738 33.2181 64.2273 32.8215Z" fill="#737373"/>
<path d="M71.0002 33.7975L68.4436 33.7908L68.6779 32.4605L71.0537 32.4672C71.4241 32.4672 71.7632 32.4048 72.071 32.28C72.3833 32.1508 72.6399 31.9592 72.8407 31.7051C73.0459 31.4511 73.1731 31.128 73.2221 30.7358C73.2712 30.406 73.2467 30.1164 73.1485 29.8668C73.0504 29.6128 72.8897 29.4145 72.6667 29.2719C72.4436 29.1248 72.1625 29.0446 71.8234 29.0312L69.7822 29.0245L68.3232 37.4206H66.6768L68.37 27.6876L71.8702 27.6942C72.4726 27.7076 73.0102 27.8369 73.4831 28.082C73.9561 28.3226 74.3175 28.6658 74.5673 29.1114C74.8217 29.5571 74.922 30.0941 74.8685 30.7225C74.8105 31.4221 74.5963 32.0015 74.226 32.4605C73.8602 32.9151 73.3939 33.2515 72.8273 33.4699C72.2606 33.6883 71.6516 33.7975 71.0002 33.7975Z" fill="#737373"/>
<path d="M82.913 27.6876L82.6787 29.0245H78.2951L76.8361 37.4206H75.1964L76.8897 27.6876H82.913Z" fill="#737373"/>
<path d="M90.5425 32.2733L90.4756 32.8014C90.3864 33.4164 90.2213 34.0114 89.9803 34.5863C89.7439 35.1567 89.4316 35.6692 89.0434 36.1238C88.6597 36.5739 88.2001 36.9282 87.6647 37.1867C87.1293 37.4451 86.5203 37.5677 85.8376 37.5543C85.1862 37.541 84.6374 37.3961 84.1913 37.1198C83.7451 36.8435 83.3949 36.4781 83.1405 36.0235C82.8907 35.5689 82.7234 35.0654 82.6386 34.5127C82.5538 33.9557 82.5471 33.3919 82.6185 32.8215L82.6921 32.2934C82.7814 31.6828 82.9464 31.0924 83.1874 30.5219C83.4283 29.9515 83.7429 29.4412 84.131 28.9911C84.5192 28.5365 84.981 28.18 85.5164 27.9215C86.0518 27.6631 86.6586 27.5405 87.3368 27.5539C87.9927 27.5672 88.5414 27.7121 88.9832 27.9884C89.4293 28.2602 89.7773 28.6234 90.0272 29.078C90.2815 29.5326 90.4488 30.0362 90.5291 30.5888C90.6094 31.1414 90.6139 31.7029 90.5425 32.2733ZM88.8292 32.8215L88.9028 32.2667C88.943 31.9324 88.9608 31.5759 88.9564 31.1971C88.9519 30.8138 88.8984 30.4528 88.7958 30.1141C88.6931 29.771 88.5191 29.4902 88.2737 29.2719C88.0328 29.0535 87.6893 28.9354 87.2431 28.9176C86.7835 28.8997 86.382 28.9911 86.0384 29.1916C85.6993 29.3877 85.4138 29.6529 85.1818 29.9871C84.9498 30.3214 84.7646 30.689 84.6263 31.0901C84.4924 31.4912 84.3987 31.8856 84.3452 32.2733L84.2716 32.8282C84.227 33.158 84.2069 33.5145 84.2113 33.8977C84.2203 34.281 84.276 34.6442 84.3787 34.9874C84.4813 35.3305 84.6553 35.6157 84.9007 35.843C85.1461 36.0658 85.4874 36.1839 85.9246 36.1973C86.3931 36.2151 86.7969 36.1238 87.136 35.9232C87.4751 35.7227 87.7606 35.4553 87.9927 35.1211C88.2247 34.7868 88.4076 34.4192 88.5414 34.0181C88.6798 33.617 88.7757 33.2181 88.8292 32.8215Z" fill="#737373"/>
<path d="M95.6757 33.022H93.1861L93.3869 31.7987L95.4013 31.8054C95.7181 31.8054 96.0193 31.7564 96.3048 31.6583C96.5904 31.5558 96.8313 31.3999 97.0276 31.1904C97.2239 30.9765 97.3466 30.698 97.3957 30.3548C97.4359 30.0339 97.4024 29.7777 97.2953 29.586C97.1927 29.3944 97.0321 29.2563 96.8135 29.1716C96.5948 29.0825 96.3383 29.0357 96.0438 29.0312L94.3841 29.0245L92.9251 37.4206H91.2787L92.9719 27.6876L96.084 27.6942C96.4989 27.7032 96.8915 27.7566 97.2619 27.8547C97.6322 27.9483 97.9557 28.0953 98.2323 28.2959C98.5134 28.4964 98.7275 28.7594 98.8748 29.0847C99.0265 29.4056 99.0867 29.8 99.0555 30.2679C99.0198 30.767 98.8681 31.1837 98.6004 31.518C98.3327 31.8477 97.9914 32.1018 97.5764 32.28C97.1659 32.4538 96.7332 32.563 96.2781 32.6076L95.6757 33.022ZM94.8659 37.4206H91.861L92.8247 36.0904L94.9128 36.097C95.2474 36.097 95.5575 36.0391 95.843 35.9232C96.1286 35.8074 96.3651 35.6336 96.5525 35.4018C96.7443 35.1656 96.8648 34.876 96.9139 34.5328C96.954 34.2298 96.9362 33.969 96.8603 33.7507C96.7845 33.5279 96.6484 33.3563 96.4521 33.2359C96.2558 33.1112 96.0014 33.0421 95.6891 33.0287L93.7617 33.022L93.9892 31.7987L96.3048 31.8054L96.5859 32.2667C97.0053 32.3068 97.3645 32.4271 97.6634 32.6276C97.9668 32.8237 98.1921 33.0844 98.3394 33.4098C98.4911 33.7351 98.5535 34.1094 98.5268 34.5328C98.4777 35.2013 98.2791 35.7494 97.9311 36.1773C97.5831 36.6051 97.1392 36.9215 96.5993 37.1265C96.0594 37.327 95.4816 37.4251 94.8659 37.4206Z" fill="#737373"/>
<path d="M101.88 31.4244L104.162 31.4311C104.746 31.4444 105.275 31.5625 105.748 31.7853C106.221 32.0082 106.587 32.3335 106.846 32.7613C107.104 33.1892 107.209 33.715 107.16 34.3389C107.116 34.8514 106.982 35.3016 106.759 35.6893C106.536 36.0725 106.246 36.3934 105.889 36.6519C105.536 36.9104 105.139 37.1042 104.697 37.2335C104.256 37.3627 103.794 37.4251 103.312 37.4206H99.7114L101.398 27.6876H103.044L101.585 36.0904L103.359 36.097C103.729 36.097 104.068 36.028 104.376 35.8898C104.684 35.7517 104.94 35.5511 105.146 35.2882C105.351 35.0252 105.478 34.7044 105.527 34.3256C105.572 34.0002 105.541 33.7239 105.434 33.4967C105.326 33.2649 105.159 33.0889 104.932 32.9686C104.704 32.8438 104.432 32.7747 104.115 32.7613L101.646 32.7546L101.88 31.4244ZM110.935 27.6876L109.242 37.4206H107.609L109.295 27.6876H110.935Z" fill="#737373"/>
<path d="M113.391 34.5863L118.732 27.6876H120.418L118.725 37.4206H117.085L118.29 30.5152L112.956 37.4206H111.269L112.963 27.6876H114.596L113.391 34.5863ZM118.029 25.2008L119.193 25.1874C119.162 25.593 119.044 25.9384 118.839 26.2236C118.633 26.5088 118.366 26.7249 118.036 26.872C117.71 27.0191 117.349 27.0882 116.951 27.0792C116.38 27.0703 115.91 26.8988 115.539 26.5645C115.169 26.2303 114.984 25.7713 114.984 25.1874L116.155 25.1941C116.142 25.4704 116.197 25.6977 116.322 25.876C116.447 26.0498 116.659 26.1389 116.958 26.1434C117.262 26.1478 117.502 26.0632 117.681 25.8893C117.859 25.7111 117.975 25.4816 118.029 25.2008Z" fill="#737373"/>
<path d="M131.749 36.0904L131.514 37.4206H124.541L124.775 36.0904H131.749ZM125.183 36.0904L124.534 39.8138H122.975L123.55 36.0904H125.183ZM133.014 36.0904L132.271 39.8071H130.718L131.367 36.0904H133.014ZM132.063 27.6876L131.829 29.0245H127.459L127.693 27.6876H132.063ZM133.308 27.6876L131.622 37.4206H129.989L131.682 27.6876H133.308ZM127.358 27.6876H129.018L128.095 31.6249C128.019 31.9636 127.927 32.3224 127.82 32.7012C127.718 33.0755 127.595 33.4565 127.452 33.8443C127.309 34.232 127.146 34.6086 126.964 34.974C126.781 35.3394 126.573 35.6826 126.341 36.0035C126.109 36.3243 125.848 36.6073 125.558 36.8524C125.268 37.0931 124.949 37.2825 124.601 37.4206H123.631L123.825 36.0904L124.24 36.1037C124.579 35.8408 124.869 35.5377 125.11 35.1946C125.355 34.847 125.563 34.4771 125.732 34.0849C125.902 33.6927 126.042 33.2894 126.154 32.875C126.27 32.4561 126.37 32.0416 126.455 31.6316L127.358 27.6876Z" fill="#737373"/>
<path d="M142.263 32.2733L142.196 32.8014C142.107 33.4164 141.942 34.0114 141.701 34.5863C141.464 35.1567 141.152 35.6692 140.764 36.1238C140.38 36.5739 139.92 36.9282 139.385 37.1867C138.85 37.4451 138.241 37.5677 137.558 37.5543C136.906 37.541 136.358 37.3961 135.911 37.1198C135.465 36.8435 135.115 36.4781 134.861 36.0235C134.611 35.5689 134.444 35.0654 134.359 34.5127C134.274 33.9557 134.267 33.3919 134.339 32.8215L134.412 32.2934C134.502 31.6828 134.667 31.0924 134.908 30.5219C135.149 29.9515 135.463 29.4412 135.851 28.9911C136.239 28.5365 136.701 28.18 137.237 27.9215C137.772 27.6631 138.379 27.5405 139.057 27.5539C139.713 27.5672 140.262 27.7121 140.703 27.9884C141.15 28.2602 141.498 28.6234 141.747 29.078C142.002 29.5326 142.169 30.0362 142.249 30.5888C142.33 31.1414 142.334 31.7029 142.263 32.2733ZM140.549 32.8215L140.623 32.2667C140.663 31.9324 140.681 31.5759 140.677 31.1971C140.672 30.8138 140.619 30.4528 140.516 30.1141C140.413 29.771 140.239 29.4902 139.994 29.2719C139.753 29.0535 139.409 28.9354 138.963 28.9176C138.504 28.8997 138.102 28.9911 137.759 29.1916C137.42 29.3877 137.134 29.6529 136.902 29.9871C136.67 30.3214 136.485 30.689 136.347 31.0901C136.213 31.4912 136.119 31.8856 136.065 32.2733L135.992 32.8282C135.947 33.158 135.927 33.5145 135.932 33.8977C135.94 34.281 135.996 34.6442 136.099 34.9874C136.202 35.3305 136.376 35.6157 136.621 35.843C136.866 36.0658 137.208 36.1839 137.645 36.1973C138.113 36.2151 138.517 36.1238 138.856 35.9232C139.195 35.7227 139.481 35.4553 139.713 35.1211C139.945 34.7868 140.128 34.4192 140.262 34.0181C140.4 33.617 140.496 33.2181 140.549 32.8215Z" fill="#737373"/>
<path d="M145.388 27.6876H146.787L148.212 35.1812L152.241 27.6876H153.767L148.467 37.4206H147.302L145.388 27.6876ZM144.692 27.6876H146.084L145.194 34.2454L144.639 37.4206H142.999L144.692 27.6876ZM152.998 27.6876H154.403L152.71 37.4206H151.07L151.652 34.105L152.998 27.6876Z" fill="#737373"/>
<path fill-rule="evenodd" clip-rule="evenodd" d="M5.63239 0.130368C2.15519 0.582284 0.0359194 3.41135 0.0359194 7.601V9.23089H31.196L32.1804 10.3982C32.7221 11.0403 33.2476 11.6789 33.3483 11.8174C33.51 12.0396 32.8741 13.0221 27.9693 20.1284C24.91 24.5609 22.407 28.2484 22.407 28.3228C22.407 28.6603 34.0947 28.4024 34.9798 28.0454C37.3785 27.0777 39.0676 25.159 39.7185 22.663C40.08 21.2769 40.034 5.8786 39.6649 4.69394C38.9062 2.25871 36.8315 0.49133 34.305 0.128089C33.1069 -0.044137 6.95941 -0.0420011 5.63239 0.130368ZM54.4674 3.17578C54.4674 3.21165 53.7942 7.04675 52.9713 11.6983C52.1484 16.3497 51.4751 20.2595 51.4751 20.3866C51.4751 20.5876 51.7067 20.6178 53.245 20.6178H55.0148L55.0938 20.2263C55.1373 20.0111 55.6906 16.8886 56.3232 13.2875C56.956 9.68637 57.5071 6.62785 57.5477 6.49093C57.6188 6.25066 65.1543 6.0763 65.1543 6.31486C65.1543 6.355 64.6092 9.45692 63.9431 13.208C63.2769 16.9592 62.7319 20.1609 62.7319 20.323C62.7319 20.6054 62.8066 20.6178 64.5131 20.6178C65.4927 20.6178 66.2942 20.5729 66.2942 20.5183C66.2942 20.4635 66.9675 16.5952 67.7903 11.9219C68.6132 7.24858 69.2865 3.35427 69.2865 3.26773C69.2865 3.15486 67.1912 3.11045 61.877 3.11045C57.8017 3.11045 54.4674 3.13977 54.4674 3.17578ZM72.2267 11.6991C67.0916 21.803 67.4261 20.6358 69.6784 20.5864L71.4951 20.5466L73.1433 17.344H80.2356L80.3136 17.7355C80.3563 17.9507 80.4591 18.5432 80.5419 19.0521C80.826 20.7992 80.5859 20.6178 82.6121 20.6178C84.1883 20.6178 84.3905 20.5903 84.3905 20.3766C84.3905 20.0794 81.7019 3.53561 81.6134 3.28837C81.5657 3.15529 80.9249 3.11045 79.0708 3.11045H76.5917L72.2267 11.6991ZM89.0376 3.22674C88.9682 3.3389 85.9579 20.2045 85.9579 20.4812C85.9579 20.8207 89.5097 20.6408 89.5859 20.2975C89.6761 19.8914 90.5176 15.1098 90.5176 15.0035C90.5176 14.9599 91.8481 14.9232 93.4743 14.9219C99.1014 14.9172 100.686 14.0245 101.678 10.2984C102.934 5.58268 101.797 3.56521 97.702 3.24852C95.5909 3.08526 89.1352 3.06903 89.0376 3.22674ZM104.132 3.43071C104.093 3.60692 103.991 4.16729 103.906 4.67615C103.82 5.185 103.716 5.74537 103.673 5.92158L103.596 6.24184H106.105C107.485 6.24184 108.613 6.28981 108.612 6.34859C108.611 6.40738 108.066 9.5288 107.401 13.2852C106.736 17.0416 106.192 20.2282 106.192 20.3664C106.192 20.5931 106.364 20.6178 107.956 20.6178H109.72L109.956 19.3011C110.085 18.5771 110.657 15.3584 111.227 12.1488L112.263 6.31301L117.271 6.23543L117.502 4.97278C117.629 4.27832 117.733 3.57518 117.733 3.41035V3.11045H104.202L104.132 3.43071ZM119.229 3.28837C119.172 3.45106 116.166 20.3968 116.166 20.5567C116.166 20.595 116.98 20.6084 117.974 20.5864L119.783 20.5466L120.395 17.0594C120.732 15.1414 121.039 13.4921 121.076 13.3942C121.128 13.2581 122.017 13.2163 124.854 13.2163H128.563V13.5454C128.563 13.7263 128.306 15.3317 127.993 17.1129C127.679 18.8941 127.423 20.4114 127.423 20.4845C127.423 20.596 130.967 20.6928 130.993 20.5822C131.195 19.7269 134.044 3.22404 133.998 3.17806C133.878 3.05878 130.577 3.10604 130.502 3.22816C130.462 3.29278 130.154 4.89406 129.817 6.78656L129.205 10.2272H121.575L121.649 9.90699C121.69 9.73077 121.947 8.30571 122.221 6.74001C122.494 5.17432 122.756 3.71709 122.802 3.50187L122.886 3.11045H121.089C119.78 3.11045 119.275 3.1587 119.229 3.28837ZM136.685 3.19927C136.685 3.24809 136.011 7.09386 135.189 11.7453C134.366 16.3968 133.692 20.2959 133.692 20.4101C133.692 20.5887 134.524 20.6178 139.652 20.6178H145.612L145.853 19.23C145.985 18.4666 146.093 17.7622 146.091 17.6643C146.09 17.5261 145.166 17.4864 141.957 17.4864C139.684 17.4864 137.825 17.4384 137.825 17.3796C137.826 17.3208 137.986 16.3794 138.181 15.2876C138.377 14.1956 138.537 13.2829 138.537 13.2593C138.537 13.2357 140.327 13.2163 142.515 13.2163H146.493L146.646 12.5019C146.731 12.1091 146.841 11.4365 146.891 11.0074L146.983 10.2272H143.045C139.985 10.2272 139.109 10.1875 139.115 10.0493C139.12 9.95154 139.267 9.07076 139.444 8.0922L139.764 6.31301L148.176 6.23771L148.342 5.20777C148.433 4.64141 148.549 3.93785 148.599 3.64421L148.691 3.11045H142.688C139.386 3.11045 136.685 3.15045 136.685 3.19927ZM150.868 3.2683C150.8 3.45277 147.799 20.3338 147.799 20.5289C147.799 20.7742 151.342 20.6172 151.416 20.3687C151.493 20.1098 152.359 15.203 152.359 15.0254C152.359 14.9697 153.689 14.9232 155.315 14.9219C161.156 14.9169 162.621 14.0186 163.644 9.81404C164.531 6.16754 163.768 4.12787 161.264 3.45818C160.049 3.13294 150.978 2.96726 150.868 3.2683ZM97.5865 6.56195C98.4102 7.00049 98.5809 8.44875 98.0011 10.0809C97.4637 11.5941 96.9587 11.7929 93.6543 11.7929H91.0822L91.152 11.4727C91.1905 11.2965 91.3854 10.2237 91.5852 9.08855C91.7851 7.95343 91.9859 6.8415 92.0316 6.61775L92.1145 6.21067L94.6289 6.26846C96.6146 6.314 97.2367 6.37563 97.5865 6.56195ZM159.428 6.56195C160.849 7.31847 160.211 10.8807 158.526 11.5978C157.76 11.924 152.885 11.8765 152.983 11.5438C153.023 11.4069 153.221 10.334 153.423 9.15972C153.625 7.98545 153.828 6.8415 153.873 6.61775L153.956 6.21067L156.47 6.26846C158.456 6.314 159.078 6.37563 159.428 6.56195ZM78.6909 6.79296C78.6909 6.86129 78.9474 8.53473 79.2609 10.5119C79.5743 12.4891 79.8308 14.1946 79.8308 14.302C79.8308 14.4604 79.3318 14.4973 77.1829 14.4973C75.5427 14.4973 74.553 14.4451 74.5825 14.3598C74.9945 13.1672 78.6909 6.35941 78.6909 6.79296ZM6.30552 11.6036C3.56556 12.0388 0.990752 14.4533 0.254074 17.2788C-0.11911 18.71 -0.066531 34.0632 0.315772 35.299C1.01298 37.5526 2.78528 39.2262 5.0355 39.7561C6.39785 40.0769 33.7592 40.0833 34.9899 39.7631C38.2836 38.906 39.9241 36.5887 39.978 32.7163L40.0046 30.7948L27.4861 30.7585C16.9725 30.7279 14.9795 30.6909 15.0424 30.5276C15.0834 30.4206 17.9829 26.1797 21.4856 21.1034C24.9884 16.027 27.8863 11.7902 27.9254 11.6885C27.9829 11.5389 27.3188 11.5105 24.472 11.5413L20.9475 11.5794L7.78529 30.6524L4.97936 30.691C3.05302 30.7175 2.17328 30.6817 2.17328 30.577C2.17328 30.493 5.09078 26.195 8.65662 21.0261C12.2225 15.857 15.14 11.6009 15.14 11.568C15.14 11.493 6.79027 11.5266 6.30552 11.6036Z" fill="#737373"/>
</svg>
