<svg width="70" height="72" viewBox="0 0 70 72" fill="none" xmlns="http://www.w3.org/2000/svg">
<path fill-rule="evenodd" clip-rule="evenodd" d="M34.4821 0.129341C34.4811 0.256317 34.2685 0.35262 29.8681 2.21875C28.1746 2.937 18.116 7.25004 17.8692 7.36386C17.7271 7.42934 17.1456 7.68004 16.577 7.92084C16.0084 8.16164 15.1279 8.53805 14.6203 8.75719C14.1126 8.97641 13.0824 9.42112 12.3309 9.74543C11.5793 10.0698 10.7985 10.4006 10.5956 10.4808C10.3928 10.5608 9.57885 10.9075 8.78692 11.2512C7.99499 11.5949 6.9317 12.0524 6.42405 12.2681C5.9164 12.4837 5.36814 12.7201 5.2057 12.7933C4.02493 13.3255 0.19885 14.9296 0.110095 14.9296C0.0138819 14.9296 0 15.4458 0 19.0316C0 21.9045 0.0237764 23.1336 0.0793038 23.1336C0.144947 23.1336 8.96421 19.3874 11.4821 18.29C12.9302 17.6588 16.0713 16.3103 16.7247 16.0392C17.8636 15.5667 22.4235 13.6106 23.7226 13.0372C24.4038 12.7366 24.9773 12.4906 24.9972 12.4906C25.017 12.4906 25.1741 12.4266 25.3463 12.3484C26.8942 11.645 34.8522 8.27782 34.9666 8.27782C35.1061 8.27782 36.1142 8.67819 37.1044 9.12681C37.3481 9.23716 37.8465 9.45216 38.212 9.60456C38.5775 9.75696 40.5133 10.5851 42.5137 11.4448C44.5142 12.3046 46.1649 13.008 46.1821 13.008C46.1993 13.008 46.4233 13.1048 46.68 13.2231C46.9366 13.3413 48.4425 13.9932 50.0264 14.6717C51.6102 15.3502 53.039 15.965 53.2015 16.0379C53.3639 16.1109 54.2943 16.509 55.269 16.9227C56.2437 17.3363 57.7223 17.9697 58.5549 18.3303C60.1651 19.0276 67.2724 22.079 68.8186 22.7367C69.3262 22.9528 69.7997 23.1304 69.8708 23.1315C69.9923 23.1334 70 22.8915 70 19.0686C70 16.3066 69.9754 15.0035 69.9233 15.0035C69.8811 15.0035 69.5903 14.8885 69.2772 14.748C68.964 14.6074 67.6777 14.0554 66.4188 13.5212C65.1598 12.987 63.8805 12.4396 63.576 12.3048C63.2714 12.1699 62.0752 11.6564 60.9177 11.1635C59.7603 10.6706 58.7468 10.2375 58.6656 10.2012C58.5844 10.1647 58.2853 10.0298 58.0011 9.90138C57.7168 9.77285 57.2516 9.57374 56.9673 9.45889C56.683 9.34403 56.0185 9.06089 55.4905 8.8297C54.9626 8.59851 54.1152 8.23473 53.6076 8.02136C52.4207 7.52247 50.2175 6.5737 49.6941 6.33615C49.4707 6.23475 48.8726 5.97895 48.365 5.76757C47.8573 5.55627 47.1097 5.23809 46.7036 5.06041C45.6501 4.59973 43.2762 3.57942 42.4947 3.25141C42.1292 3.09797 41.0992 2.65785 40.2057 2.2733C39.3122 1.88867 38.1326 1.38262 37.5844 1.14862C37.0361 0.914699 36.366 0.627045 36.0952 0.509456C35.8244 0.391866 35.5669 0.295636 35.5229 0.295636C35.479 0.295636 35.443 0.229118 35.443 0.147818C35.443 0.0151514 35.3938 0 34.9631 0C34.5556 0 34.483 0.019512 34.4821 0.129341ZM0 38.4327V50.4799H3.28587H6.57173V41.2043V31.9287H10.3782H14.1846L14.1624 41.2043L14.1403 50.4799H17.4077H20.6751V38.4327V26.3856H10.3376H0V38.4327ZM23.3095 26.434C23.282 26.4616 23.2595 31.8831 23.2595 38.482V50.4799H26.575H29.8906L30.4626 49.5006C31.7335 47.3247 33.7633 43.8712 34.557 42.5347C35.1368 41.5583 36.4058 39.3931 36.5661 39.1067C36.7828 38.7196 37.4009 37.686 37.8752 36.9176L38.2859 36.2524L38.3047 43.3662L38.3235 50.4799H41.609H44.8945V38.4295V26.379L41.6004 26.4008L38.3062 26.4225L38.0241 26.9029C37.8689 27.1671 37.4122 27.9321 37.0092 28.6028C36.3655 29.6741 32.5659 36.0521 31.8911 37.1941C31.6853 37.5422 31.0347 38.6361 30.11 40.1881C30.0313 40.3202 29.9359 40.4283 29.898 40.4283C29.8557 40.4283 29.8303 37.7125 29.8323 33.4254L29.8357 26.4225L26.5976 26.4033C24.8166 26.3927 23.337 26.4065 23.3095 26.434ZM47.682 26.4381L47.4789 26.4693V38.4746V50.4799H50.7463L54.0137 50.48L53.9896 45.3248C53.9665 40.3554 53.9983 38.8023 54.1231 38.8023C54.1555 38.8023 54.8739 39.8583 55.7198 41.1489C56.5656 42.4395 57.3014 43.562 57.355 43.6433C57.4085 43.7246 58.0243 44.6636 58.7235 45.7298C59.4227 46.7961 60.4096 48.301 60.9165 49.0742L61.8384 50.4799H65.9192C69.4974 50.4799 70 50.4662 70 50.3691C70 50.3081 69.9537 50.2582 69.8971 50.2582C69.8405 50.2582 69.2601 49.5515 68.6071 48.6876C67.9541 47.8239 66.9858 46.5517 66.4553 45.8606C65.9247 45.1696 65.3505 44.4152 65.1794 44.1843C64.7349 43.5847 63.7758 42.3239 62.4347 40.5761C61.7952 39.7428 61.2101 38.9778 61.1344 38.8762C61.0587 38.7746 60.7937 38.431 60.5455 38.1126L60.0942 37.5339L60.56 36.967C60.8163 36.6553 61.5747 35.7215 62.2455 34.8918C63.5435 33.2864 64.8036 31.7343 66.2711 29.9332C66.5195 29.6283 66.9361 29.1128 67.1968 28.7876C67.4576 28.4624 67.979 27.824 68.3555 27.3691C68.732 26.9141 69.0401 26.5067 69.0401 26.4637C69.0401 26.4098 67.8635 26.3856 65.2479 26.3856H61.4557L61.0377 26.9583C60.8078 27.2733 60.3029 27.9635 59.9157 28.492C59.5285 29.0204 59.1322 29.5692 59.035 29.7115C58.9377 29.8537 58.6517 30.2528 58.3994 30.5984C58.147 30.9439 57.7382 31.5041 57.4909 31.8432C57.2435 32.1822 56.9248 32.6185 56.7827 32.8124C56.6406 33.0064 56.3083 33.4695 56.0443 33.8415C55.7803 34.2136 55.2901 34.8895 54.9549 35.3437C54.6197 35.7979 54.2994 36.238 54.2431 36.3218C54.0328 36.6345 54.0135 36.2384 54.0025 31.3867L53.9913 26.4225L50.9381 26.4147C49.259 26.4104 47.7937 26.421 47.682 26.4381ZM0 63.0754C0 67.8484 0.0201582 71.8063 0.0448207 71.8706C0.107289 72.0335 69.6564 72.0475 69.8708 71.8846C69.9925 71.7921 70 71.2857 70 63.0918V54.3971H35H0V63.0754ZM11.5899 57.7705L11.8268 57.8179L11.8022 59.1375L11.7774 60.457L9.43302 60.4574L7.08861 60.4577V64.7444V69.0311H5.53797H3.98734V63.5309C3.98734 60.5058 3.96733 57.9784 3.94282 57.9146C3.90272 57.8101 4.25435 57.7963 7.43174 57.7784C9.37513 57.7675 11.0524 57.7505 11.159 57.7408C11.2656 57.731 11.4595 57.7444 11.5899 57.7705ZM26.2256 57.8753C26.2585 57.9338 26.6366 58.8963 27.0656 60.0142C27.4948 61.1321 27.9146 62.2221 27.9987 62.4364L28.1514 62.8261L28.7745 60.9952C29.1172 59.9882 29.4841 58.8649 29.5898 58.4991C29.6956 58.1332 29.7911 57.8221 29.8021 57.8076C29.8308 57.7701 33.1055 57.7976 33.1436 57.8357C33.1959 57.8881 32.2138 60.3444 31.3123 62.4162C31.2416 62.5788 31.1417 62.8283 31.0903 62.9706C31.0389 63.1128 30.9509 63.329 30.8947 63.451C30.7797 63.7003 30.2987 64.8688 29.9678 65.7027C28.8469 68.5268 28.1711 69.1198 26.0285 69.1599C25.3398 69.1727 24.7533 69.1453 24.4778 69.0874L24.0348 68.9942L24.0147 67.7377L23.9945 66.4812H24.9645H25.9344L26.1845 66.1917C26.5434 65.7764 26.5846 65.9181 25.3641 63.3771C25.1298 62.8893 24.5576 61.6753 24.0926 60.6794C23.6276 59.6835 23.1347 58.6281 22.9974 58.3342L22.7476 57.7997L24.3881 57.7793C26.3421 57.7549 26.1522 57.745 26.2256 57.8753ZM43.51 57.7956C43.5405 57.7963 43.5654 60.3246 43.5654 63.414V69.0311H42.0148H40.4641V64.7074V60.3837H38.7289H36.9937V64.7074V69.0311H35.5599C34.7712 69.0311 34.0735 69.0513 34.0092 69.076C33.9033 69.1166 33.8924 68.5899 33.8924 63.4404V57.76L38.6735 57.7771C41.3031 57.7865 43.4795 57.7948 43.51 57.7956ZM63.2529 57.8272C63.3087 57.8487 63.3544 57.9161 63.3544 57.9773C63.3544 58.1096 64.1029 60.1702 65.3158 63.3771C65.4081 63.621 65.5885 64.1032 65.7169 64.4487C65.8451 64.7943 65.9923 65.1767 66.0439 65.2987C66.0954 65.4206 66.1794 65.6535 66.2305 65.8161C66.3473 66.188 66.7372 67.2401 67.0793 68.1067C67.4792 69.1195 67.6094 69.0311 65.7173 69.0311H64.0928V68.8611C64.0928 68.7676 64.0631 68.6596 64.0268 68.6209C63.9905 68.5823 63.8743 68.2633 63.7685 67.9119C63.5308 67.1229 63.6856 67.1752 61.6237 67.1873C59.6455 67.199 59.8114 67.1277 59.5136 68.094C59.3861 68.5078 59.2687 68.8879 59.2529 68.9387C59.2254 69.0267 55.9705 69.0866 55.9705 68.9992C55.9705 68.9817 56.0736 68.6906 56.1997 68.3525C56.3259 68.0143 56.6048 67.2554 56.8195 66.666C57.0343 66.0766 57.4666 64.9125 57.7802 64.0792C58.4188 62.3821 58.6112 61.863 59.0954 60.5316C59.8473 58.4637 60.0488 57.9043 60.0673 57.8339C60.0872 57.7578 63.0558 57.7515 63.2529 57.8272ZM19.8146 57.9078C21.8727 58.3856 22.9556 60.1259 22.5913 62.3703C22.2175 64.6734 20.9104 65.4749 17.5185 65.4807L15.9494 65.4835V67.2573V69.0311H14.3987H12.8481V63.5309C12.8481 60.5058 12.8279 57.9781 12.8033 57.9138C12.7377 57.7427 19.0802 57.7374 19.8146 57.9078ZM55.3003 63.2224C55.3068 66.2065 55.2906 68.7341 55.2641 68.8395L55.216 69.0311H53.6747H52.1333L52.1336 64.7998C52.1338 62.4726 52.1332 60.527 52.1324 60.4761C52.1312 60.405 51.7411 60.3837 50.4325 60.3837H48.7342V64.7074V69.0311H47.1914C45.8528 69.0311 45.6428 69.0157 45.6039 68.9142C45.5792 68.8499 45.5591 66.3222 45.5591 63.2971V57.7969H50.4238H55.2885L55.3003 63.2224ZM15.9494 61.6772V62.9706L16.9647 62.9694C18.7951 62.9673 19.4198 62.6417 19.4198 61.6899C19.4198 60.6356 18.9476 60.3883 16.9277 60.3852L15.9494 60.3837V61.6772ZM61.5092 61.8017C61.4644 61.9771 61.2597 62.6009 61.0543 63.1879C60.6726 64.278 60.4769 64.8858 60.4755 64.9846C60.4745 65.0503 62.7924 65.0605 62.8578 64.9951C62.8825 64.9704 62.8748 64.8955 62.8407 64.8288C62.8065 64.762 62.5438 63.9928 62.257 63.1193C61.6988 61.4197 61.6352 61.3078 61.5092 61.8017ZM19.1983 61.6402C19.1983 61.6808 19.1631 61.7141 19.1201 61.7141C19.0771 61.7141 19.0624 61.6808 19.0876 61.6402C19.1127 61.5995 19.1478 61.5663 19.1657 61.5663C19.1837 61.5663 19.1983 61.5995 19.1983 61.6402ZM28.1329 62.2684C28.1329 62.3294 28.1198 62.3793 28.1039 62.3793C28.0879 62.3793 28.0557 62.3294 28.0323 62.2684C28.009 62.2075 28.0221 62.1576 28.0614 62.1576C28.1007 62.1576 28.1329 62.2075 28.1329 62.2684ZM3.83966 68.9572C3.83966 68.9979 3.80643 69.0311 3.76582 69.0311C3.72521 69.0311 3.69198 68.9979 3.69198 68.9572C3.69198 68.9166 3.72521 68.8833 3.76582 68.8833C3.80643 68.8833 3.83966 68.9166 3.83966 68.9572ZM48.8819 69.6637C48.8819 69.7223 48.8486 69.7702 48.808 69.7702C48.7674 69.7702 48.7342 69.7017 48.7342 69.618C48.7342 69.5344 48.7674 69.4864 48.808 69.5115C48.8486 69.5366 48.8819 69.6051 48.8819 69.6637Z" fill="#737373"/>
</svg>
