<svg width="255" height="40" viewBox="0 0 255 40" fill="none" xmlns="http://www.w3.org/2000/svg">
<path d="M64.0414 3.57788V5.03366H76.6209C77.4596 5.03366 78.7175 5.03366 79.5435 5.86625C80.3694 6.69884 80.3821 7.94773 80.3821 8.76771V21.2566C80.3821 22.0892 80.3821 23.3381 79.5435 24.158C78.7048 24.9906 77.4469 24.9906 76.6209 24.9906H70.5472C69.5002 24.9906 68.1355 24.9906 67.6247 23.8452C67.1011 22.6997 67.8341 21.6603 68.4633 20.8176L76.6464 9.99389H64.0668L59.035 16.6546C58.1913 17.7698 57.4619 18.7361 57.4619 19.985C57.4619 21.2339 58.1404 22.1321 59.035 23.3154L60.2929 24.9805C61.5509 26.6457 62.8088 28.3109 64.4861 29.1435C66.1634 29.9761 68.1456 29.9761 70.8903 29.9761H76.3287C79.4799 29.9761 84.1814 29.9761 87.3326 26.8476C90.4839 23.719 90.4839 19.1524 90.4839 17.4872V12.4917C90.4839 10.8265 90.4839 6.25984 87.3326 3.13131C84.1814 0.00278389 79.4799 0.00278365 76.3287 0.00278365L67.6374 8.34445e-06C66.7987 -0.000243956 65.7517 8.34465e-06 64.9181 0.8326C64.0795 1.66519 64.0795 2.70467 64.0795 3.53222" fill="#737373"/>
<path d="M49.0476 10.0368H61.5001L46.5062 30.0694H34.0538L49.0476 10.0368Z" fill="#737373"/>
<path d="M0 13.569C0 12.7364 0 11.6969 0.838637 10.8694C1.67727 10.0418 2.7243 10.0368 3.55786 10.0368H24.6254C27.3447 10.0368 29.3523 10.0368 31.0296 10.8694C32.7069 11.702 33.9521 13.3671 35.2228 15.0323L36.4807 16.6975C37.3727 17.8783 38.0538 18.779 38.0538 20.0279C38.0538 21.2768 37.3244 22.2431 36.4807 23.3583L31.4489 30.019H18.8693L27.0524 19.1953C27.6801 18.3627 28.4146 17.3232 27.891 16.1677C27.3675 15.0222 26.0054 15.0222 24.9685 15.0222H15.1082V40H5.04453V15.0222H0.0127066V13.5639" fill="#737373"/>
<path d="M102.197 26.3556C101.431 27.3457 100.65 28.3211 99.8848 29.2965V29.8503H102.042C103.099 28.5122 103.651 27.8138 103.651 27.0075H105.764V29.8503H107.785V27.0075H109.899C109.899 27.8089 110.45 28.5073 111.507 29.8503H113.664V29.2965L111.337 26.3556C113.296 24.9587 113.296 24.9587 113.296 23.1206V22.5104H111.092V23.1206C111.092 25.3483 111.092 25.3483 108.795 25.3483H107.785V22.5055H105.764V25.3483H104.754C102.457 25.3483 102.457 25.3483 102.457 23.1206V22.5104H100.253V23.1206C100.253 24.9538 100.253 24.9538 102.197 26.3556Z" fill="#737373"/>
<path fill-rule="evenodd" clip-rule="evenodd" d="M117.662 25.3753C117.662 23.7603 117.662 23.7603 119.544 23.7603C121.425 23.7603 121.425 23.7603 121.425 25.3753H117.662ZM117.662 26.684H119.544C121.518 26.6693 122.101 26.6987 122.766 26.5529L123.547 26.3784V25.6652C123.547 24.457 123.547 22.1852 119.912 22.1852H119.178C115.543 22.1852 115.543 24.4546 115.543 25.6897V26.3882C115.543 27.6969 115.574 29.8927 119.564 29.8927C120.162 29.8927 121.508 29.8927 122.967 29.5447V27.9738H122.554L121.085 28.3218H119.523C117.642 28.3213 117.642 28.3213 117.642 26.7068L117.662 26.684Z" fill="#737373"/>
<path d="M126.941 22.3854C126.941 23.4907 126.85 26.8212 125.013 29.1494V29.718H127.264C128.596 28.0294 128.596 25.8213 128.596 24.0078H131.767V29.718H133.787V22.3903H126.957" fill="#737373"/>
<path fill-rule="evenodd" clip-rule="evenodd" d="M138.283 25.3753C138.283 23.7603 138.283 23.7603 140.167 23.7603C142.049 23.7603 142.049 23.7603 142.049 25.3753H138.283ZM138.285 26.684H140.17C142.144 26.6693 142.726 26.6987 143.391 26.5529L144.172 26.3784V25.6652C144.172 24.457 144.172 22.1852 140.538 22.1852H139.804C136.169 22.1852 136.169 24.4546 136.169 25.6897V26.3882C136.169 27.6969 136.2 29.8927 140.19 29.8927C140.788 29.8927 142.134 29.8927 143.593 29.5447V27.9738H143.18L141.711 28.3218H140.149C138.267 28.3213 138.267 28.3213 138.267 26.7068L138.285 26.684Z" fill="#737373"/>
<path d="M151.686 26.1105V25.8922C153.248 25.5147 153.248 24.5982 153.248 24.2477C153.248 23.5493 153.248 22.1524 149.536 22.1524C148.985 22.1524 147.699 22.1523 146.237 22.5028V24.0737H146.65L148.119 23.7233H149.817C150.995 23.7233 151.057 23.7233 151.057 24.5369C151.057 25.3383 151.057 25.3383 149.817 25.3383H148.119V26.647H149.817C150.995 26.647 151.057 26.647 151.057 27.4484C151.057 28.2645 151.057 28.2645 149.817 28.2645H148.119L146.65 27.914H146.237V29.4849C147.706 29.8329 148.995 29.8329 149.536 29.8329C153.248 29.8329 153.248 28.436 153.248 27.7376C153.248 27.3896 153.248 26.473 151.686 26.1078" fill="#737373"/>
<path d="M161.739 22.3854V25.1302H157.614V22.3854H155.552V29.7866H157.614V26.8457H161.739V29.7866H163.543V22.3854H161.739Z" fill="#737373"/>
<path fill-rule="evenodd" clip-rule="evenodd" d="M169.987 26.1105C171.595 26.1105 171.595 26.1105 171.595 27.2452C171.595 28.3799 171.595 28.3799 169.987 28.3799H168.378V26.1105H169.987ZM177.204 22.4344H175.183V29.7621H177.204V22.4344ZM170.27 29.7621C172.704 29.7621 173.724 29.2523 173.724 27.2624C173.724 26.1718 173.724 24.5911 170.554 24.5911C170.095 24.5911 169.314 24.6352 168.396 24.8533V22.4075H166.376V29.7351H170.268L170.27 29.7621Z" fill="#737373"/>
<path fill-rule="evenodd" clip-rule="evenodd" d="M181.844 25.3753C181.844 23.7603 181.844 23.7603 183.725 23.7603C185.607 23.7603 185.607 23.7603 185.607 25.3753H181.844ZM181.844 26.684H183.725C185.7 26.6693 186.282 26.6987 186.947 26.5529L187.728 26.3784V25.6652C187.728 24.457 187.728 22.1852 184.094 22.1852H183.359C179.725 22.1852 179.725 24.4546 179.725 25.6897V26.3882C179.725 27.6969 179.756 29.8927 183.746 29.8927C184.344 29.8927 185.689 29.8927 187.148 29.5447V27.9738H186.736L185.267 28.3218H183.705C181.823 28.3213 181.823 28.3213 181.823 26.7068L181.844 26.684Z" fill="#737373"/>
<path fill-rule="evenodd" clip-rule="evenodd" d="M196.02 25.8654C196.02 23.9 196.02 23.9441 198.752 23.9441C199.121 23.9441 199.626 23.9875 200.237 24.1186V27.2555L198.278 27.7211C196.012 27.7214 196.012 27.7214 196.012 25.8586L196.02 25.8654ZM194.819 30.9316V32.5907C196.288 32.9412 197.474 32.9412 197.938 32.9412C202.114 32.9412 202.242 31.2232 202.242 29.2651V22.4521H201.583L200.603 23.1505C199.93 22.3197 198.291 22.2928 197.768 22.2928C193.876 22.2928 193.876 24.621 193.876 25.6748V26.0252C193.876 27.2481 193.876 29.2602 197.175 29.2602C198.17 29.2602 199.348 28.998 200.216 28.3877V28.998C200.216 31.2526 200.171 31.2673 197.737 31.2673H196.68L195.211 30.9169H194.798L194.819 30.9316Z" fill="#737373"/>
<path fill-rule="evenodd" clip-rule="evenodd" d="M208.392 22.2139C204.5 22.2139 204.5 24.3975 204.5 25.7184V26.4169C204.5 27.7255 204.5 29.9214 208.392 29.9214H209.127C213.019 29.9214 213.019 27.7378 213.019 26.4169V25.7184C213.019 24.4097 213.019 22.2139 209.127 22.2139H208.392ZM208.758 23.8289C210.916 23.8289 210.916 23.8289 210.916 26.0566C210.916 28.2843 210.916 28.2843 208.758 28.2843C206.601 28.2843 206.601 28.2843 206.601 26.0566C206.601 23.8289 206.601 23.8289 208.758 23.8289Z" fill="#737373"/>
<path fill-rule="evenodd" clip-rule="evenodd" d="M221.538 26.1105C221.538 28.2941 221.538 28.2941 219.288 28.2941C218.736 28.2941 218.033 28.2941 217.313 28.1194V24.4433L219.272 23.9777C221.538 23.9777 221.538 24.0066 221.538 26.1024V26.1105ZM215.3 22.4263V32.7194H217.321V29.5334C218.239 29.7518 218.973 29.9256 220.079 29.9256C223.662 29.9256 223.662 27.4258 223.662 26.421V25.7226C223.662 24.4997 223.662 22.218 220.311 22.218C218.597 22.218 217.605 22.9312 217.063 23.3233L216.329 22.392H215.318L215.3 22.4263Z" fill="#737373"/>
<path fill-rule="evenodd" clip-rule="evenodd" d="M229.786 22.2139C225.894 22.2139 225.894 24.3975 225.894 25.7184V26.4169C225.894 27.7255 225.894 29.9214 229.786 29.9214H230.521C234.413 29.9214 234.413 27.7378 234.413 26.4169V25.7184C234.413 24.4097 234.413 22.2139 230.521 22.2139H229.786ZM230.152 23.8289C232.31 23.8289 232.31 23.8289 232.31 26.0566C232.31 28.2843 232.31 28.2843 230.152 28.2843C227.995 28.2843 227.995 28.2843 227.995 26.0566C227.995 23.8289 227.995 23.8289 230.152 23.8289Z" fill="#737373"/>
<path d="M240.354 22.2139C239.62 22.2139 238.656 22.2139 237.184 22.5643V24.1352H237.596L239.066 23.7872H240.947C241.958 23.7872 241.958 23.7872 241.958 24.3411C241.958 24.7185 241.958 24.8361 241.177 24.966L239.339 25.4023C238.282 25.6498 236.813 26.0272 236.813 27.5417C236.813 28.5465 236.813 29.8993 240.524 29.8993C241.259 29.8993 242.223 29.8993 243.695 29.5513V27.9804H243.282C242.669 28.1404 242.089 28.2721 241.86 28.3309H239.932C238.921 28.3309 238.921 28.3309 238.921 27.777C238.921 27.4437 238.921 27.3702 239.349 27.2526L240.375 26.9903L241.537 26.7134C242.594 26.4659 244.063 26.1032 244.063 24.5739C244.063 23.5691 244.063 22.2163 240.352 22.2163" fill="#737373"/>
<path d="M253.5 30.0317L255 28.9681C254.448 28.2696 254.448 28.2696 254.448 27.032V22.4981H252.428V27.8162L250.469 28.2819C248.386 28.2819 248.386 28.2819 248.386 26.26V22.4859H246.365V26.5541C246.365 27.9951 246.365 30.0096 249.432 30.0096C251.041 30.0096 252.036 29.2965 252.577 28.9043L253.479 30.039" fill="#737373"/>
<path fill-rule="evenodd" clip-rule="evenodd" d="M100.393 4.86273V15.1558H102.596V12.3129H104.341C107.331 12.3129 109.677 12.3129 109.677 8.58783C109.677 4.83822 107.334 4.83822 104.341 4.83822H100.398L100.393 4.86273ZM102.602 10.4749V6.67627H105.256C107.231 6.67627 107.324 6.67627 107.324 8.58293C107.324 10.4308 107.324 10.4749 105.256 10.4749H102.602Z" fill="#737373"/>
<path fill-rule="evenodd" clip-rule="evenodd" d="M115.342 7.65656C111.45 7.65656 111.45 9.84015 111.45 11.1611V11.8595C111.45 13.1682 111.45 15.3641 115.342 15.3641H116.077C119.969 15.3641 119.969 13.1805 119.969 11.8595V11.1611C119.969 9.8524 119.969 7.65656 116.077 7.65656H115.342ZM115.708 9.27158C117.866 9.27158 117.866 9.27158 117.866 11.4993C117.866 13.727 117.866 13.727 115.708 13.727C113.551 13.727 113.551 13.727 113.551 11.4993C113.551 9.27158 113.551 9.27158 115.708 9.27158Z" fill="#737373"/>
<path d="M125.91 15.3518C126.462 15.3518 127.885 15.3518 129.364 15.0014V13.4305H128.952L127.467 13.7785H126.596C124.039 13.7785 124.039 13.7785 124.039 11.5091C124.039 9.23972 124.039 9.23972 125.921 9.23972C127.514 9.23972 127.514 9.23972 127.895 10.6808L129.733 10.2445C129.733 9.54606 129.733 7.67126 126.279 7.67126H125.544C121.91 7.67126 121.91 9.85486 121.91 11.1758V11.8743C121.91 13.1829 121.91 15.3788 125.905 15.3788" fill="#737373"/>
<path d="M135.705 15.3518C136.257 15.3518 137.68 15.3518 139.159 15.0014V13.4305H138.747L137.262 13.7785H136.391C133.834 13.7785 133.834 13.7785 133.834 11.5091C133.834 9.23972 133.834 9.23972 135.715 9.23972C137.308 9.23972 137.308 9.23972 137.69 10.6808L139.528 10.2445C139.528 9.54606 139.528 7.67126 136.074 7.67126H135.339C131.705 7.67126 131.705 9.85486 131.705 11.1758V11.8743C131.705 13.1829 131.705 15.3788 135.7 15.3788" fill="#737373"/>
<path d="M148.593 15.3763L150.093 14.3127C149.542 13.6143 149.542 13.6143 149.542 12.3767V7.84281H147.521V13.1609L145.562 13.6265C143.479 13.6265 143.479 13.6265 143.479 11.6047V7.83056H141.458V11.8988C141.458 13.3398 141.458 15.3543 144.526 15.3543C146.134 15.3543 147.129 14.6411 147.67 14.249L148.572 15.3837" fill="#737373"/>
<path fill-rule="evenodd" clip-rule="evenodd" d="M155.81 5.23034C154.815 5.23034 154.815 5.23034 154.326 4.70588L153.439 5.36023C154.403 6.53902 154.893 6.62725 156.3 6.62725H156.638C158.029 6.62725 158.535 6.53976 159.473 5.36023L158.586 4.70588C158.112 5.23034 158.112 5.23034 157.102 5.23034H155.8H155.81ZM159.537 15.4008L161.037 14.3372C160.486 13.6388 160.486 13.6388 160.486 12.4012V7.86732H158.465V13.1854L156.506 13.651C154.47 13.651 154.423 13.651 154.423 11.6292V7.85506H152.403V11.9233C152.403 13.3643 152.403 15.3788 155.47 15.3788C157.078 15.3788 158.073 14.6656 158.615 14.2735L159.517 15.4082L159.537 15.4008Z" fill="#737373"/>
<path d="M166.894 15.3518C167.445 15.3518 168.868 15.3518 170.348 15.0014V13.4305H169.935L168.451 13.7785H167.577C165.02 13.7785 165.02 13.7785 165.02 11.5091C165.02 9.23972 165.02 9.23972 166.901 9.23972C168.494 9.23972 168.494 9.23972 168.876 10.6808L170.714 10.2445C170.714 9.54606 170.714 7.67126 167.26 7.67126H166.525C162.891 7.67126 162.891 9.85486 162.891 11.1758V11.8743C162.891 13.1829 162.891 15.3788 166.886 15.3788" fill="#737373"/>
<path d="M173.08 7.85261V15.1803H175.101V12.3374H177.58C177.58 13.1388 178.132 13.8373 179.186 15.1803H181.344V14.6264L179.016 11.6855C180.975 10.2886 180.975 10.2886 180.975 8.45059V7.84036H178.771V8.45059C178.771 10.6783 178.771 10.6783 176.475 10.6783H175.098V7.83546H173.077" fill="#737373"/>
<path d="M190.607 15.3763L192.107 14.3127C191.556 13.6143 191.556 13.6143 191.556 12.3767V7.84281H189.535V13.1609L187.576 13.6265C185.493 13.6265 185.493 13.6265 185.493 11.6047V7.83056H183.473V11.8988C183.473 13.3398 183.473 15.3543 186.54 15.3543C188.148 15.3543 189.143 14.6411 189.685 14.249L190.587 15.3837" fill="#737373"/>
<path fill-rule="evenodd" clip-rule="evenodd" d="M196.02 10.8425C196.02 9.22747 196.02 9.22747 197.904 9.22747C199.786 9.22747 199.786 9.22747 199.786 10.8425H196.02ZM196.023 12.1512H197.907C199.881 12.1365 200.464 12.1659 201.129 12.0201L201.91 11.8456V11.1324C201.91 9.92421 201.91 7.65239 198.276 7.65239H197.541C193.907 7.65239 193.907 9.92176 193.907 11.1569V11.8554C193.907 13.1641 193.937 15.3599 197.928 15.3599C198.526 15.3599 199.871 15.3599 201.33 15.0095V13.4386H200.918L199.448 13.7866H197.886C196.002 13.7863 196.002 13.7863 196.002 12.1715L196.023 12.1512Z" fill="#737373"/>
</svg>
