<svg width="185" height="40" viewBox="0 0 185 40" fill="none" xmlns="http://www.w3.org/2000/svg">
<path d="M61.2032 0.00892538C61.5754 0.0947009 61.9518 0.161433 62.3309 0.208854C63.779 0.326669 65.1004 0.744377 66.2299 1.67976C66.8358 2.15352 67.3297 2.75195 67.677 3.4333C68.0244 4.11466 68.2168 4.86254 68.2409 5.62478C68.3386 8.38808 68.3441 11.1585 68.3748 13.9165C68.3893 15.2553 68.364 16.5941 68.3748 17.9329C68.3857 18.8468 68.1395 19.5127 67.1494 19.8572C65.7538 20.3427 64.3564 20.7854 62.8939 21.0086C61.2554 21.2704 59.5913 21.3411 57.936 21.2192C56.1114 21.071 54.3538 20.698 52.8913 19.5145C52.2479 19.0174 51.7214 18.3886 51.3483 17.6715C50.9752 16.9543 50.7642 16.1659 50.73 15.3606C50.7011 14.8572 50.7011 14.3484 50.721 13.8433C50.8115 11.7012 51.8541 10.1232 53.7275 9.08604C55.2317 8.25241 56.9006 7.95787 58.5985 7.91324C60.0719 7.87397 61.549 7.97215 63.026 8.00785C63.2305 8.00785 63.4369 8.00785 63.7138 8.00785C63.8586 6.71546 63.9111 5.52124 62.8251 4.61621C62.5769 4.40284 62.2901 4.23752 61.9798 4.12888C61.039 3.80061 60.0381 3.67403 59.0438 3.75759C57.8165 3.88611 56.5947 4.05748 55.3729 4.23063C54.9874 4.28597 54.6145 4.40914 54.2326 4.49661C53.9773 4.55016 53.7185 4.58051 53.3963 4.63227C53.1157 3.50946 52.6723 2.50268 52.7066 1.35844C53.7905 0.873703 54.9428 0.554677 56.1241 0.412353C56.9586 0.303463 57.8039 0.265976 58.642 0.178508C58.8375 0.137642 59.0285 0.0778497 59.2121 0L61.2032 0.00892538ZM63.7374 11.4334C63.1147 11.3924 62.5789 11.3245 62.0449 11.3281C60.7254 11.3388 59.4004 11.3281 58.0844 11.4281C57.6764 11.4517 57.2778 11.5591 56.9144 11.7436C56.5509 11.928 56.2305 12.1854 55.9739 12.4991C54.4661 14.3413 55.4146 16.9618 57.784 17.5437C58.9325 17.798 60.1201 17.8302 61.2811 17.6383C62.0992 17.5241 62.95 17.4866 63.7374 17.0671V11.4334Z" fill="#737373"/>
<path d="M112.429 0.00892538C112.772 0.0933274 113.119 0.159471 113.47 0.207069C116.943 0.505177 119.496 2.17065 120.924 5.30525C121.829 7.30989 122.062 9.46983 121.912 11.6655C121.825 12.7893 121.6 13.8987 121.244 14.9697C120.486 17.3188 119.007 19.0753 116.777 20.1946C114.483 21.3495 112.047 21.4245 109.558 21.121C108.299 20.971 107.088 20.5552 106.007 19.9018C103.793 18.5666 102.568 16.5512 102.003 14.1092C101.485 11.9642 101.481 9.72972 101.992 7.58301C102.844 4.02356 105.037 1.66905 108.543 0.514102C109.086 0.335594 109.665 0.314173 110.224 0.207069C110.479 0.158872 110.729 0.0767583 110.981 0.00892538H112.429ZM106.202 11.0389C106.262 11.5012 106.329 12.2421 106.463 12.9686C106.691 14.2181 107.138 15.3695 108.092 16.262C110.731 18.7183 115.227 17.6276 116.599 14.2146C117.591 11.7422 117.533 9.27526 116.532 6.84041C115.922 5.3588 114.842 4.34131 113.205 3.97358C110.794 3.43806 108.499 4.36451 107.292 6.49054C106.537 7.82756 106.275 9.26098 106.202 11.0389Z" fill="#737373"/>
<path d="M157.862 0.00892538C158.174 0.0950052 158.491 0.160602 158.811 0.205284C160.677 0.330162 162.439 1.10133 163.785 2.38264C165.131 3.66395 165.975 5.37302 166.167 7.20814C166.27 8.21135 166.323 9.22349 166.328 10.2303C166.328 11.7529 166.073 11.9939 164.551 11.9975C161.202 11.9975 157.853 11.9975 154.506 11.9975C153.782 11.9975 153.075 12.0261 152.37 12.0421C152.141 14.7501 153.732 16.8922 156.307 17.3313C158.341 17.6761 160.433 17.4086 162.31 16.5637C162.552 16.4584 162.815 16.3852 163.043 16.3174C163.651 16.8047 164.491 18.5594 164.552 19.5127C164.201 19.7126 163.803 19.9589 163.385 20.1678C162.159 20.7854 160.829 21.0478 159.477 21.1764C157.763 21.3406 156.038 21.3424 154.347 20.9782C150.897 20.2374 148.81 18.0793 148.012 14.7537C147.417 12.3441 147.399 9.83128 147.957 7.41342C148.682 4.35559 150.358 1.98679 153.402 0.765798C154.088 0.490896 154.85 0.390932 155.574 0.210639L156.414 0.00892538H157.862ZM152.497 8.77544H161.875C161.875 6.92967 161.493 5.29275 159.75 4.34845C158.627 3.74922 157.314 3.59413 156.079 3.91467C153.752 4.45734 152.285 7.09032 152.497 8.77544Z" fill="#737373"/>
<path d="M42.9213 0.00892538C43.2301 0.0948549 43.5446 0.159276 43.8625 0.201714C45.2487 0.295667 46.6022 0.6597 47.8447 1.27276C48.1053 1.42316 48.3556 1.59012 48.5941 1.77258L47.1895 5.05712C46.6808 4.91253 46.2519 4.81257 45.8392 4.66798C44.6397 4.27194 43.3842 4.06589 42.1194 4.05748C40.2369 4.00571 38.4522 5.39629 37.7951 7.03677C36.8254 9.37168 36.761 11.9768 37.6141 14.3556C38.253 16.1996 39.674 17.251 41.6578 17.3688C43.3467 17.4937 45.0418 17.2259 46.6066 16.5869C46.9035 16.462 47.2148 16.3692 47.5986 16.2299C48.1446 17.2856 48.6281 18.3715 49.0466 19.4823C48.8186 19.6608 48.643 19.884 48.4131 19.9821C47.6673 20.2963 46.9252 20.673 46.1414 20.8318C43.7992 21.312 41.4261 21.4923 39.0513 21.0371C36.767 20.5998 35.0148 19.3824 33.8581 17.3884C32.9531 15.8408 32.5675 14.1396 32.4499 12.3742C32.3232 10.4356 32.3901 8.51125 33.0038 6.64227C34.1134 3.27026 36.3199 1.0532 39.8966 0.285612C40.3654 0.187433 40.8306 0.0981792 41.2922 0.00892538H42.9213Z" fill="#737373"/>
<path d="M80.9333 39.9946C80.9007 39.4591 80.8536 38.9361 80.8391 38.4059C80.8229 37.7936 80.8391 37.1778 80.8391 36.5245L81.8926 36.3138C83.2755 34.1039 83.0837 31.5245 83.4276 29.1057C84.2638 28.8218 88.1881 28.8111 89.1149 29.0968V36.2835L90.315 36.5137C90.3521 37.2954 90.3242 38.0786 90.2317 38.8558C90.1901 39.2342 90.1865 39.618 90.1648 40H89.0787C88.9936 39.2199 88.9086 38.4416 88.8162 37.5901C86.6025 37.6187 84.434 37.5723 82.2438 37.6223C82.1623 38.4827 82.0917 39.2413 82.0193 40L80.9333 39.9946ZM84.5933 30.1856C84.4539 32.3045 84.443 34.3484 83.5072 36.2317C84.443 36.4334 86.8993 36.4102 87.6071 36.2139V30.1856H84.5933Z" fill="#737373"/>
<path d="M96.9562 0.585505C97.0323 0.983577 97.1517 1.31917 97.1517 1.65655C97.1638 7.78293 97.1638 13.9117 97.1517 20.0428C97.1377 20.2788 97.1093 20.5136 97.0667 20.7462C96.3806 20.9925 95.7145 20.8497 95.0647 20.8729C94.4149 20.8961 93.7415 20.8729 93.1333 20.8729C92.6844 20.5659 92.7713 20.1589 92.7713 19.7822C92.7713 15.7682 92.7713 11.7529 92.7713 7.73652V6.8654L92.5722 6.8065C92.2102 7.36701 91.8481 7.9186 91.5006 8.48804C90.1611 10.7384 88.8247 12.9924 87.4912 15.2499C87.3891 15.4493 87.2299 15.6146 87.0332 15.7254C86.8366 15.8361 86.6113 15.8874 86.3853 15.8729C85.721 15.8586 85.0567 15.8533 84.3942 15.8729C83.8421 15.8908 83.4891 15.6355 83.2267 15.1856C82.5485 13.9956 81.8679 12.8055 81.1849 11.6155L78.5295 6.99036C78.2616 7.34738 78.3285 7.64191 78.3285 7.91503C78.3285 11.8422 78.3285 15.7694 78.3285 19.6965C78.3285 20.0428 78.2815 20.3891 78.258 20.7069C77.5339 20.9032 75.141 20.9372 74.1472 20.7694C74.0934 20.4989 74.0583 20.2252 74.0422 19.95C74.0422 13.9129 74.0422 7.87576 74.0422 1.83863C74.0359 1.63072 74.0431 1.42262 74.064 1.21564C74.1201 0.806855 74.359 0.567654 74.788 0.56944C75.8143 0.56944 76.8425 0.533738 77.8652 0.614066C78.1991 0.637019 78.523 0.736211 78.8114 0.903811C79.0998 1.07141 79.3447 1.30283 79.5268 1.57979C80.2834 2.71689 81.0419 3.85755 81.7406 5.03035C82.9461 7.04748 84.1064 9.0914 85.2884 11.1228C85.3155 11.1692 85.3789 11.1942 85.4965 11.2835C85.6442 11.1227 85.7797 10.9515 85.902 10.7712C87.3175 8.35594 88.7167 5.93181 90.1412 3.52017C90.7168 2.5473 91.2707 1.53338 92.3495 0.992503C92.7121 0.786243 93.1138 0.655614 93.5297 0.608711C94.6067 0.544448 95.6928 0.585505 96.9562 0.585505Z" fill="#737373"/>
<path d="M138.57 4.31096H132.318C132.253 5.41414 132.222 6.47626 132.121 7.5241C131.906 9.73938 131.759 11.9689 131.386 14.1574C131.024 16.2567 130.132 18.1703 128.49 19.6608C127.52 20.5097 126.382 21.151 125.148 21.5441C124.967 21.6084 124.738 21.5709 124.424 21.5851L122.889 18.663C123.191 18.4217 123.505 18.1965 123.831 17.9882C125.478 17.0582 126.546 15.6962 127.111 13.9093C127.496 12.628 127.725 11.3061 127.793 9.97144C127.974 7.48304 128.086 4.99107 128.229 2.49911C128.231 2.29143 128.245 2.08404 128.271 1.8779C128.441 0.881828 128.814 0.558729 129.842 0.556944C133.665 0.548614 137.489 0.548019 141.314 0.555159H142.636C143.108 0.899679 143.166 1.26919 143.166 1.66905C143.166 7.79424 143.163 13.9188 143.155 20.0428C143.133 20.3068 143.087 20.5684 143.02 20.8247H138.921C138.547 20.5052 138.559 20.1232 138.559 19.7305C138.559 15.0619 138.559 10.3939 138.559 5.72653L138.57 4.31096Z" fill="#737373"/>
<path d="M184.968 0.681899C184.968 1.88683 185.081 3.02213 184.882 4.2342C182.82 4.37879 180.811 4.2467 178.709 4.32524C178.689 4.68226 178.658 4.99643 178.657 5.30882C178.657 10.1238 178.657 14.9387 178.657 19.7537C178.657 20.0946 178.595 20.4373 178.555 20.8586C177.178 20.8586 175.887 20.8693 174.598 20.8586C174.198 20.8586 174.014 20.598 174.017 20.2089C174.017 20.0018 174.017 19.7929 174.017 19.5859C174.017 14.7995 174.017 10.0143 174.017 5.23027V4.32167H167.76C167.571 3.14016 167.552 1.93824 167.704 0.751517C168.477 0.496251 178.713 0.383791 184.098 0.553374C184.39 0.580069 184.681 0.622979 184.968 0.681899Z" fill="#737373"/>
<path d="M153.018 33.6612C154.034 32.0278 154.973 30.5159 155.94 28.9575H157.448C157.665 29.6055 157.739 36.0371 157.547 37.5062H156.212C156.03 35.5177 156.222 33.5398 155.971 31.5369L153.657 35.3142H152.336L149.912 31.3763C149.78 32.1867 149.844 32.8222 149.835 33.4523C149.835 34.136 149.835 34.8197 149.835 35.5034V37.508H148.453V29.1057C149.54 28.6737 150.046 28.8165 150.591 29.7162C151.221 30.7587 151.835 31.8119 152.465 32.8561C152.613 33.1114 152.794 33.3417 153.018 33.6612Z" fill="#737373"/>
<path d="M100.891 37.4259C100.866 34.6483 100.891 31.869 100.881 29.0361C101.123 28.9697 101.372 28.9243 101.623 28.9004C103.038 28.9004 104.454 28.9147 105.867 28.9611C106.666 28.9879 107.348 29.2931 107.677 30.0696C108.027 30.8961 107.951 31.6923 107.344 32.3902C107.214 32.5419 107.066 32.6812 106.901 32.8526C107.165 33.015 107.416 33.197 107.652 33.397C108.677 34.4109 108.452 36.3174 107.185 37.0207C106.669 37.32 106.091 37.5029 105.494 37.5562C104.142 37.633 102.779 37.5812 101.427 37.5687C101.244 37.5414 101.064 37.4934 100.891 37.4259ZM102.463 33.5452V36.3549C103.525 36.3549 104.542 36.4191 105.54 36.3335C106.334 36.2656 106.807 35.5677 106.751 34.8251C106.728 34.4802 106.572 34.1569 106.316 33.9211C106.06 33.6853 105.722 33.5547 105.371 33.5559C104.421 33.513 103.462 33.5452 102.463 33.5452ZM102.463 32.3402C103.273 32.3402 103.963 32.3402 104.653 32.3402C104.956 32.3525 105.26 32.331 105.558 32.276C106.056 32.1582 106.331 31.7404 106.325 31.2049C106.32 30.6694 106.01 30.2321 105.498 30.1928C104.489 30.1178 103.477 30.1178 102.468 30.1928L102.463 32.3402Z" fill="#737373"/>
<path d="M167.179 33.6844H161.296C160.992 35.332 162.246 36.5405 163.861 36.4441C164.603 36.3977 165.338 36.2424 166.189 36.121C166.306 36.3692 166.451 36.6726 166.591 36.9689C165.914 37.6526 165.072 37.6687 164.279 37.7312C163.65 37.7861 163.017 37.7428 162.402 37.6026C161.3 37.3277 160.458 36.6655 160.063 35.5766C159.508 34.0396 159.462 32.4563 160.123 30.9693C161.005 28.9843 162.616 28.3667 164.808 28.8522C166.31 29.1842 167.092 30.1464 167.242 31.6583C167.27 32.0415 167.276 32.4259 167.26 32.8097C167.253 33.0418 167.219 33.2738 167.179 33.6844ZM161.343 32.4027H165.78C165.961 30.9746 165.199 29.9964 163.872 29.9339C162.35 29.8608 161.303 30.855 161.343 32.4027Z" fill="#737373"/>
<path d="M98.8641 33.6648C97.959 33.6737 96.9979 33.688 96.0421 33.6933C95.0864 33.6987 94.1216 33.6933 93.1749 33.6933C92.8871 34.8608 93.4646 35.9247 94.518 36.2781C95.5081 36.6119 96.4784 36.4316 97.4486 36.1871C97.5898 36.1514 97.7291 36.1121 97.9554 36.0514L98.4333 37.0011C97.7852 37.5776 96.9961 37.6491 96.2322 37.724C95.3348 37.8366 94.4231 37.7134 93.5894 37.367C92.5541 36.919 91.9966 36.1014 91.7088 35.1142C91.3506 33.9363 91.3556 32.6799 91.7233 31.5048C92.3079 29.6787 93.5207 28.6487 95.6059 28.7147C96.5109 28.7433 97.3997 28.9022 98.0966 29.5805C99.0487 30.5052 99.3836 32.1171 98.8641 33.6648ZM93.1098 32.3509C94.2049 32.5544 97.1137 32.4973 97.6748 32.2742C97.702 30.5819 96.6015 29.8911 95.4864 29.9232C94.1144 29.9643 93.2528 30.7872 93.1098 32.3509Z" fill="#737373"/>
<path d="M117.222 33.6737H111.43C111.274 35.2945 112.192 36.4066 113.721 36.4352C114.55 36.4495 115.383 36.2674 116.357 36.1585C116.455 36.3531 116.605 36.6566 116.784 37.0171C116.581 37.1555 116.366 37.275 116.141 37.3742C114.675 37.8686 113.209 37.99 111.768 37.2885C111.333 37.0808 110.953 36.7761 110.657 36.3984C110.362 36.0207 110.16 35.5805 110.067 35.1125C109.784 33.879 109.734 32.6294 110.114 31.4138C111.041 28.4559 113.993 28.1828 116.022 29.2717C117.023 29.8072 117.356 30.8461 117.427 31.9225C117.463 32.4634 117.566 33.0328 117.222 33.6737ZM111.473 32.3991H115.998C116.047 30.5641 114.967 29.9197 113.886 29.9268C112.427 29.9357 111.584 30.7408 111.473 32.3991Z" fill="#737373"/>
<path d="M132.099 37.7419C129.589 37.8115 128.217 36.1639 128.025 33.8754C127.938 32.9897 128.04 32.096 128.323 31.2513C128.758 29.9875 129.58 29.161 130.876 28.8647C132.474 28.5077 133.994 28.6683 135.167 29.9357C135.855 30.6837 136.09 31.6441 136.203 32.6258C136.355 33.7507 136.148 34.8944 135.611 35.8979C134.88 37.2331 133.649 37.749 132.099 37.7419ZM134.717 33.2792C134.783 32.4523 134.577 31.6264 134.128 30.9247C133.283 29.5484 130.859 29.5716 130.068 30.9443C129.243 32.3724 129.272 33.8522 129.96 35.3767C130.597 36.794 133.455 36.8565 134.165 35.5087C134.532 34.8179 134.776 34.1039 134.717 33.2845V33.2792Z" fill="#737373"/>
<path d="M16.6315 18.1935C16.6315 19.95 15.2196 21.2906 13.3733 21.2799C11.5469 21.2674 10.1893 19.9679 10.1893 18.2256C10.1893 16.4834 11.6211 14.9875 13.395 15.0589C15.2576 15.1339 16.5446 16.2531 16.6315 18.1935Z" fill="#737373"/>
<path d="M23.5406 21.271C21.6255 21.271 20.3693 20.0321 20.2951 18.2185C20.2299 16.653 21.5803 15.0678 23.4953 15.066C25.233 15.066 26.6304 16.0943 26.7155 18.0703C26.7897 19.9732 25.4702 21.2656 23.5406 21.271Z" fill="#737373"/>
<path d="M6.3827 18.1828C6.54742 19.6519 5.23872 21.2906 3.18064 21.2853C2.76129 21.2908 2.34507 21.2134 1.95656 21.0576C1.56805 20.9018 1.21514 20.6708 0.918674 20.3783C0.622205 20.0858 0.388191 19.7376 0.230456 19.3544C0.0727205 18.9712 -0.00553757 18.5606 0.000304568 18.1471C0.0111651 16.312 1.65654 15.0428 3.17521 15.0518C5.12649 15.0643 6.53656 16.6423 6.3827 18.1828Z" fill="#737373"/>
<path d="M139.763 37.5312H138.424C138.165 36.8172 138.107 30.3909 138.331 29.0914C139.102 28.8111 144.707 28.7986 145.496 29.0914V37.508H144.113V30.3052C143.369 30.1107 140.884 30.0821 139.769 30.241L139.763 37.5312Z" fill="#737373"/>
<path d="M124.464 30.1928H121.32C121.242 31.296 121.222 32.3634 121.079 33.4059C120.981 34.2599 120.778 35.0991 120.475 35.905C120.086 36.8761 119.316 37.5312 118.207 37.8365C118.044 37.5045 117.903 37.2189 117.751 36.9136C117.832 36.8136 117.885 36.6905 117.979 36.6387C119.188 35.9657 119.581 34.834 119.695 33.5826C119.805 32.3706 119.834 31.1496 119.905 29.934C119.923 29.6448 119.973 29.3556 120.019 28.9682C121.983 28.8477 123.953 28.8406 125.918 28.9468V37.5045H124.47L124.464 30.1928Z" fill="#737373"/>
<path d="M169.103 28.9664H170.511V32.1189C171.186 32.3331 173.485 32.3795 174.855 32.2117C174.868 31.7083 174.888 31.1853 174.893 30.664C174.899 30.1428 174.893 29.593 174.893 28.9772H176.256V37.5187H174.91V33.5559C173.447 33.5166 172.048 33.5416 170.549 33.538V37.517H169.19C169.009 36.6101 169.13 35.673 169.108 34.7465C169.087 33.8201 169.108 32.8436 169.108 31.8904L169.103 28.9664Z" fill="#737373"/>
<path d="M181.929 37.5241H180.389C180.279 35.0839 180.389 32.6901 180.322 30.2231C179.48 30.0446 178.604 30.2321 177.654 30.0857C177.63 29.7501 177.607 29.4163 177.585 29.1039C178.282 28.8504 183.672 28.7897 184.695 29.0146V30.1178H181.929V37.5241Z" fill="#737373"/>
</svg>
